<?xml version="1.0" encoding="utf-8" standalone="no"?>
<!DOCTYPE svg PUBLIC "-//W3C//DTD SVG 1.1//EN"
  "http://www.w3.org/Graphics/SVG/1.1/DTD/svg11.dtd">
<!-- Created with matplotlib (https://matplotlib.org/) -->
<svg height="202.43625pt" version="1.1" viewBox="0 0 388.965625 202.43625" width="388.965625pt" xmlns="http://www.w3.org/2000/svg" xmlns:xlink="http://www.w3.org/1999/xlink">
 <defs>
  <style type="text/css">
*{stroke-linecap:butt;stroke-linejoin:round;}
  </style>
 </defs>
 <g id="figure_1">
  <g id="patch_1">
   <path d="M 0 202.43625 
L 388.965625 202.43625 
L 388.965625 0 
L 0 0 
z
" style="fill:#ffffff;"/>
  </g>
  <g id="axes_1">
   <g id="patch_2">
    <path d="M 46.965625 164.88 
L 381.765625 164.88 
L 381.765625 7.2 
L 46.965625 7.2 
z
" style="fill:#ffffff;"/>
   </g>
   <g id="PolyCollection_1">
    <path clip-path="url(#pe0d542d80e)" d="M 95.619601 15.279554 
L 95.619601 16.770759 
L 101.148741 20.403784 
L 106.677881 17.174359 
L 112.20702 16.692366 
L 117.73616 16.438929 
L 123.265299 17.215096 
L 128.794439 17.990979 
L 134.323579 18.691284 
L 139.852718 19.230536 
L 145.381858 20.484233 
L 150.910998 19.698694 
L 156.440137 19.44614 
L 161.969277 23.455597 
L 167.498416 25.823531 
L 173.027556 24.095337 
L 178.556696 32.941038 
L 184.085835 26.692465 
L 189.614975 28.701796 
L 195.144115 23.636067 
L 200.673254 26.174432 
L 206.202394 26.427412 
L 211.731534 35.337351 
L 217.260673 53.970442 
L 222.789813 70.948739 
L 228.318952 94.421144 
L 233.848092 101.452528 
L 239.377232 111.805752 
L 244.906371 135.224066 
L 250.435511 144.45866 
L 255.964651 146.828202 
L 261.49379 153.860063 
L 267.02293 154.384179 
L 272.552069 155.785839 
L 278.081209 156.520779 
L 283.610349 157.127716 
L 289.139488 156.668413 
L 294.668628 156.372722 
L 300.197768 156.286683 
L 305.726907 155.865964 
L 311.256047 156.225546 
L 316.785187 155.795331 
L 322.314326 156.592494 
L 327.843466 155.126221 
L 333.372605 155.817542 
L 338.901745 156.770279 
L 344.430885 156.464024 
L 349.960024 156.204711 
L 355.489164 155.657029 
L 361.018304 156.29827 
L 366.547443 155.518239 
L 366.547443 152.076244 
L 366.547443 152.076244 
L 361.018304 154.29889 
L 355.489164 151.613884 
L 349.960024 153.831395 
L 344.430885 153.288587 
L 338.901745 153.225751 
L 333.372605 152.152462 
L 327.843466 144.123701 
L 322.314326 155.380583 
L 316.785187 149.931942 
L 311.256047 149.918807 
L 305.726907 153.444334 
L 300.197768 151.767924 
L 294.668628 152.942029 
L 289.139488 152.751722 
L 283.610349 150.946187 
L 278.081209 151.3572 
L 272.552069 149.880579 
L 267.02293 146.67952 
L 261.49379 144.69819 
L 255.964651 131.837877 
L 250.435511 128.219877 
L 244.906371 116.026077 
L 239.377232 89.754031 
L 233.848092 76.403477 
L 228.318952 69.97254 
L 222.789813 47.842261 
L 217.260673 34.027911 
L 211.731534 20.927329 
L 206.202394 17.112629 
L 200.673254 17.046491 
L 195.144115 16.361023 
L 189.614975 18.884362 
L 184.085835 18.717755 
L 178.556696 21.449009 
L 173.027556 17.372664 
L 167.498416 17.489416 
L 161.969277 17.258395 
L 156.440137 15.805742 
L 150.910998 16.06526 
L 145.381858 16.275666 
L 139.852718 15.69926 
L 134.323579 15.248504 
L 128.794439 15.427831 
L 123.265299 15.158788 
L 117.73616 15.225474 
L 112.20702 15.052188 
L 106.677881 15.318267 
L 101.148741 14.387974 
L 95.619601 15.279554 
z
" style="fill:#1f77b4;fill-opacity:0.2;"/>
   </g>
   <g id="PolyCollection_2">
    <path clip-path="url(#pe0d542d80e)" d="M 75.694331 14.810189 
L 75.694331 18.948518 
L 81.223471 17.410933 
L 86.75261 17.287511 
L 92.28175 17.808106 
L 97.810889 18.123579 
L 103.340029 16.430089 
L 108.869169 16.680662 
L 114.398308 18.40767 
L 119.927448 17.877181 
L 125.456588 21.538255 
L 130.985727 20.107965 
L 136.514867 21.303762 
L 142.044006 26.262294 
L 147.573146 29.817597 
L 153.102286 34.38131 
L 158.631425 30.96115 
L 164.160565 40.716068 
L 169.689705 40.120677 
L 175.218844 36.236611 
L 180.747984 24.660606 
L 186.277123 32.092641 
L 191.806263 45.15089 
L 197.335403 69.630906 
L 202.864542 87.856493 
L 208.393682 106.535408 
L 213.922822 129.577509 
L 219.451961 146.996329 
L 224.981101 152.597539 
L 230.510241 154.926357 
L 236.03938 155.185654 
L 241.56852 157.485386 
L 247.097659 157.026907 
L 252.626799 157.434766 
L 258.155939 157.482856 
L 263.685078 157.712727 
L 269.214218 157.084898 
L 274.743358 157.322776 
L 280.272497 156.459897 
L 285.801637 156.228648 
L 291.330776 156.49732 
L 296.859916 156.947514 
L 302.389056 156.179375 
L 307.918195 156.121633 
L 313.447335 156.558461 
L 318.976475 156.077119 
L 324.505614 156.733529 
L 330.034754 155.935473 
L 335.563893 155.876385 
L 341.093033 156.065031 
L 346.622173 156.226803 
L 346.622173 152.192934 
L 346.622173 152.192934 
L 341.093033 152.482353 
L 335.563893 150.990806 
L 330.034754 153.214524 
L 324.505614 153.166024 
L 318.976475 153.18123 
L 313.447335 154.587878 
L 307.918195 153.414274 
L 302.389056 153.565815 
L 296.859916 152.74721 
L 291.330776 151.812581 
L 285.801637 147.301907 
L 280.272497 152.707912 
L 274.743358 152.870663 
L 269.214218 152.243212 
L 263.685078 151.897393 
L 258.155939 154.772232 
L 252.626799 154.19693 
L 247.097659 154.864535 
L 241.56852 153.60752 
L 236.03938 146.908128 
L 230.510241 147.08579 
L 224.981101 140.142379 
L 219.451961 130.529831 
L 213.922822 106.993213 
L 208.393682 81.174659 
L 202.864542 62.015102 
L 197.335403 46.264285 
L 191.806263 27.464498 
L 186.277123 20.379731 
L 180.747984 18.153627 
L 175.218844 23.878263 
L 169.689705 25.385062 
L 164.160565 26.714768 
L 158.631425 20.907124 
L 153.102286 21.923445 
L 147.573146 18.997536 
L 142.044006 17.724512 
L 136.514867 16.342246 
L 130.985727 15.939485 
L 125.456588 16.686618 
L 119.927448 15.38578 
L 114.398308 14.690537 
L 108.869169 15.163338 
L 103.340029 15.177912 
L 97.810889 15.209143 
L 92.28175 15.342051 
L 86.75261 15.282297 
L 81.223471 15.429012 
L 75.694331 14.810189 
z
" style="fill:#ff7f0e;fill-opacity:0.2;"/>
   </g>
   <g id="PolyCollection_3">
    <path clip-path="url(#pe0d542d80e)" d="M 72.317485 15.385938 
L 72.317485 20.012886 
L 77.846625 16.238252 
L 83.375764 16.692019 
L 88.904904 16.830367 
L 94.434044 17.015157 
L 99.963183 18.039894 
L 105.492323 16.817098 
L 111.021462 18.797875 
L 116.550602 19.333258 
L 122.079742 17.649754 
L 127.608881 22.366209 
L 133.138021 20.615537 
L 138.667161 22.472097 
L 144.1963 21.682016 
L 149.72544 19.822391 
L 155.254579 22.736861 
L 160.783719 22.883044 
L 166.312859 20.938301 
L 171.841998 23.191337 
L 177.371138 28.543273 
L 182.900278 33.916643 
L 188.429417 39.947726 
L 193.958557 41.94509 
L 199.487696 36.814126 
L 205.016836 36.85815 
L 210.545976 41.229339 
L 216.075115 64.54803 
L 221.604255 93.716113 
L 227.133395 106.96476 
L 232.662534 135.736058 
L 238.191674 139.773746 
L 243.720814 150.626257 
L 249.249953 154.956243 
L 254.779093 155.224405 
L 260.308232 155.979391 
L 265.837372 156.648637 
L 271.366512 156.271285 
L 276.895651 156.928536 
L 282.424791 154.619735 
L 287.953931 156.351948 
L 293.48307 156.093204 
L 299.01221 156.720197 
L 304.541349 157.226326 
L 310.070489 157.074134 
L 315.599629 157.339204 
L 321.128768 156.795998 
L 326.657908 156.880975 
L 332.187048 157.027452 
L 337.716187 156.868548 
L 343.245327 156.900674 
L 343.245327 155.263873 
L 343.245327 155.263873 
L 337.716187 155.744249 
L 332.187048 155.95938 
L 326.657908 155.878764 
L 321.128768 154.442366 
L 315.599629 153.329201 
L 310.070489 153.71598 
L 304.541349 150.624936 
L 299.01221 150.053485 
L 293.48307 147.03363 
L 287.953931 150.066994 
L 282.424791 143.616431 
L 276.895651 149.344948 
L 271.366512 147.818839 
L 265.837372 150.234881 
L 260.308232 145.810116 
L 254.779093 147.630807 
L 249.249953 143.817229 
L 243.720814 136.819273 
L 238.191674 119.248031 
L 232.662534 114.412758 
L 227.133395 81.851088 
L 221.604255 68.722789 
L 216.075115 43.271253 
L 210.545976 26.155485 
L 205.016836 24.227435 
L 199.487696 24.61581 
L 193.958557 28.832773 
L 188.429417 26.887918 
L 182.900278 22.858626 
L 177.371138 19.829547 
L 171.841998 17.684441 
L 166.312859 16.263911 
L 160.783719 16.422377 
L 155.254579 15.566678 
L 149.72544 15.770872 
L 144.1963 16.122809 
L 138.667161 15.960574 
L 133.138021 14.761024 
L 127.608881 14.766242 
L 122.079742 15.455874 
L 116.550602 15.602475 
L 111.021462 14.668432 
L 105.492323 14.866601 
L 99.963183 14.776302 
L 94.434044 15.067811 
L 88.904904 15.070035 
L 83.375764 15.100032 
L 77.846625 15.084769 
L 72.317485 15.385938 
z
" style="fill:#2ca02c;fill-opacity:0.2;"/>
   </g>
   <g id="PolyCollection_4">
    <path clip-path="url(#pe0d542d80e)" d="M 87.108926 15.231856 
L 87.108926 16.91345 
L 92.638065 18.876977 
L 98.167205 16.194425 
L 103.696344 18.325985 
L 109.225484 18.968418 
L 114.754624 20.476188 
L 120.283763 17.219283 
L 125.812903 16.96848 
L 131.342043 18.337512 
L 136.871182 21.954751 
L 142.400322 19.834038 
L 147.929462 23.362531 
L 153.458601 19.962021 
L 158.987741 31.759891 
L 164.51688 29.671385 
L 170.04602 35.064334 
L 175.57516 43.628377 
L 181.104299 36.21217 
L 186.633439 47.319564 
L 192.162579 52.504704 
L 197.691718 53.684395 
L 203.220858 63.858304 
L 208.749997 70.889235 
L 214.279137 56.275586 
L 219.808277 60.299687 
L 225.337416 62.423428 
L 230.866556 68.548513 
L 236.395696 79.657322 
L 241.924835 80.16237 
L 247.453975 95.870977 
L 252.983114 100.61067 
L 258.512254 117.681149 
L 264.041394 121.391738 
L 269.570533 130.609347 
L 275.099673 137.581627 
L 280.628813 137.569817 
L 286.157952 143.012085 
L 291.687092 145.695017 
L 297.216232 149.292535 
L 302.745371 150.349473 
L 308.274511 154.097439 
L 313.80365 152.224146 
L 319.33279 153.076835 
L 324.86193 154.611544 
L 330.391069 153.328089 
L 335.920209 153.987247 
L 341.449349 154.853 
L 346.978488 154.849006 
L 352.507628 155.106093 
L 358.036767 154.004013 
L 358.036767 148.264913 
L 358.036767 148.264913 
L 352.507628 148.38587 
L 346.978488 150.487904 
L 341.449349 149.272746 
L 335.920209 148.784846 
L 330.391069 147.181978 
L 324.86193 148.280775 
L 319.33279 144.745221 
L 313.80365 146.907035 
L 308.274511 147.410057 
L 302.745371 138.771797 
L 297.216232 137.814582 
L 291.687092 133.935836 
L 286.157952 127.968448 
L 280.628813 122.072384 
L 275.099673 119.507631 
L 269.570533 111.030154 
L 264.041394 99.322538 
L 258.512254 95.500461 
L 252.983114 78.04684 
L 247.453975 73.37033 
L 241.924835 58.532679 
L 236.395696 57.924525 
L 230.866556 47.613847 
L 225.337416 42.958685 
L 219.808277 41.866015 
L 214.279137 38.556342 
L 208.749997 50.797575 
L 203.220858 44.61851 
L 197.691718 35.817523 
L 192.162579 35.720742 
L 186.633439 30.490766 
L 181.104299 23.208066 
L 175.57516 27.962866 
L 170.04602 23.109115 
L 164.51688 18.870643 
L 158.987741 20.086119 
L 153.458601 16.232372 
L 147.929462 16.306535 
L 142.400322 15.474246 
L 136.871182 16.041544 
L 131.342043 15.722502 
L 125.812903 15.184248 
L 120.283763 14.874074 
L 114.754624 14.800926 
L 109.225484 14.367273 
L 103.696344 15.190787 
L 98.167205 15.168671 
L 92.638065 15.64316 
L 87.108926 15.231856 
z
" style="fill:#d62728;fill-opacity:0.2;"/>
   </g>
   <g id="PolyCollection_5">
    <path clip-path="url(#pe0d542d80e)" d="M 62.183807 14.997891 
L 62.183807 17.463565 
L 67.712946 17.349549 
L 73.242086 20.185808 
L 78.771226 20.615595 
L 84.300365 21.882547 
L 89.829505 18.757787 
L 95.358645 18.480446 
L 100.887784 19.779946 
L 106.416924 23.077803 
L 111.946063 22.589717 
L 117.475203 25.389899 
L 123.004343 33.359973 
L 128.533482 32.325831 
L 134.062622 33.453764 
L 139.591762 39.556547 
L 145.120901 45.038702 
L 150.650041 52.703992 
L 156.179181 66.538794 
L 161.70832 58.003278 
L 167.23746 71.616917 
L 172.766599 77.649666 
L 178.295739 87.764295 
L 183.824879 86.924259 
L 189.354018 96.523578 
L 194.883158 110.933043 
L 200.412298 111.688189 
L 205.941437 108.286622 
L 211.470577 118.115346 
L 216.999716 128.001452 
L 222.528856 122.698916 
L 228.057996 123.807016 
L 233.587135 130.041325 
L 239.116275 129.583728 
L 244.645415 133.194762 
L 250.174554 139.993243 
L 255.703694 140.672934 
L 261.232834 141.251557 
L 266.761973 143.113775 
L 272.291113 145.504246 
L 277.820252 146.00608 
L 283.349392 146.119025 
L 288.878532 148.575338 
L 294.407671 146.877003 
L 299.936811 148.196274 
L 305.465951 151.344134 
L 310.99509 151.071564 
L 316.52423 152.004962 
L 322.053369 151.752498 
L 327.582509 152.098685 
L 333.111649 153.88496 
L 333.111649 146.197637 
L 333.111649 146.197637 
L 327.582509 143.155585 
L 322.053369 143.368188 
L 316.52423 142.722393 
L 310.99509 139.709118 
L 305.465951 142.568357 
L 299.936811 137.163858 
L 294.407671 135.051499 
L 288.878532 137.157345 
L 283.349392 132.946322 
L 277.820252 132.511571 
L 272.291113 132.228227 
L 266.761973 129.030424 
L 261.232834 125.722933 
L 255.703694 125.658869 
L 250.174554 125.741883 
L 244.645415 117.016393 
L 239.116275 112.932976 
L 233.587135 112.031583 
L 228.057996 105.707491 
L 222.528856 103.113823 
L 216.999716 108.769647 
L 211.470577 99.124256 
L 205.941437 85.939387 
L 200.412298 89.993303 
L 194.883158 89.17364 
L 189.354018 74.389016 
L 183.824879 64.784861 
L 178.295739 64.776016 
L 172.766599 56.671242 
L 167.23746 49.955603 
L 161.70832 38.977871 
L 156.179181 46.12069 
L 150.650041 35.576372 
L 145.120901 28.789334 
L 139.591762 25.919507 
L 134.062622 22.585307 
L 128.533482 20.43449 
L 123.004343 20.697599 
L 117.475203 16.182001 
L 111.946063 16.175429 
L 106.416924 16.000524 
L 100.887784 15.19883 
L 95.358645 15.012577 
L 89.829505 15.021699 
L 84.300365 15.178659 
L 78.771226 14.649646 
L 73.242086 14.60595 
L 67.712946 15.166825 
L 62.183807 14.997891 
z
" style="fill:#9467bd;fill-opacity:0.2;"/>
   </g>
   <g id="matplotlib.axis_1">
    <g id="xtick_1">
     <g id="line2d_1">
      <defs>
       <path d="M 0 0 
L 0 3.5 
" id="mf578379ad2" style="stroke:#000000;stroke-width:0.8;"/>
      </defs>
      <g>
       <use style="stroke:#000000;stroke-width:0.8;" x="61.367139" xlink:href="#mf578379ad2" y="164.88"/>
      </g>
     </g>
     <g id="text_1">
      <!-- $\mathdefault{10^{-1}}$ -->
      <defs>
       <path d="M 12.40625 8.296875 
L 28.515625 8.296875 
L 28.515625 63.921875 
L 10.984375 60.40625 
L 10.984375 69.390625 
L 28.421875 72.90625 
L 38.28125 72.90625 
L 38.28125 8.296875 
L 54.390625 8.296875 
L 54.390625 0 
L 12.40625 0 
z
" id="DejaVuSans-49"/>
       <path d="M 31.78125 66.40625 
Q 24.171875 66.40625 20.328125 58.90625 
Q 16.5 51.421875 16.5 36.375 
Q 16.5 21.390625 20.328125 13.890625 
Q 24.171875 6.390625 31.78125 6.390625 
Q 39.453125 6.390625 43.28125 13.890625 
Q 47.125 21.390625 47.125 36.375 
Q 47.125 51.421875 43.28125 58.90625 
Q 39.453125 66.40625 31.78125 66.40625 
z
M 31.78125 74.21875 
Q 44.046875 74.21875 50.515625 64.515625 
Q 56.984375 54.828125 56.984375 36.375 
Q 56.984375 17.96875 50.515625 8.265625 
Q 44.046875 -1.421875 31.78125 -1.421875 
Q 19.53125 -1.421875 13.0625 8.265625 
Q 6.59375 17.96875 6.59375 36.375 
Q 6.59375 54.828125 13.0625 64.515625 
Q 19.53125 74.21875 31.78125 74.21875 
z
" id="DejaVuSans-48"/>
       <path d="M 10.59375 35.5 
L 73.1875 35.5 
L 73.1875 27.203125 
L 10.59375 27.203125 
z
" id="DejaVuSans-8722"/>
      </defs>
      <g transform="translate(49.617139 179.478438)scale(0.1 -0.1)">
       <use transform="translate(0 0.684375)" xlink:href="#DejaVuSans-49"/>
       <use transform="translate(63.623047 0.684375)" xlink:href="#DejaVuSans-48"/>
       <use transform="translate(128.203125 38.965625)scale(0.7)" xlink:href="#DejaVuSans-8722"/>
       <use transform="translate(186.855469 38.965625)scale(0.7)" xlink:href="#DejaVuSans-49"/>
      </g>
     </g>
    </g>
    <g id="xtick_2">
     <g id="line2d_2">
      <g>
       <use style="stroke:#000000;stroke-width:0.8;" x="138.775094" xlink:href="#mf578379ad2" y="164.88"/>
      </g>
     </g>
     <g id="text_2">
      <!-- $\mathdefault{10^{0}}$ -->
      <g transform="translate(129.975094 179.478438)scale(0.1 -0.1)">
       <use transform="translate(0 0.765625)" xlink:href="#DejaVuSans-49"/>
       <use transform="translate(63.623047 0.765625)" xlink:href="#DejaVuSans-48"/>
       <use transform="translate(128.203125 39.046875)scale(0.7)" xlink:href="#DejaVuSans-48"/>
      </g>
     </g>
    </g>
    <g id="xtick_3">
     <g id="line2d_3">
      <g>
       <use style="stroke:#000000;stroke-width:0.8;" x="216.183048" xlink:href="#mf578379ad2" y="164.88"/>
      </g>
     </g>
     <g id="text_3">
      <!-- $\mathdefault{10^{1}}$ -->
      <g transform="translate(207.383048 179.478438)scale(0.1 -0.1)">
       <use transform="translate(0 0.684375)" xlink:href="#DejaVuSans-49"/>
       <use transform="translate(63.623047 0.684375)" xlink:href="#DejaVuSans-48"/>
       <use transform="translate(128.203125 38.965625)scale(0.7)" xlink:href="#DejaVuSans-49"/>
      </g>
     </g>
    </g>
    <g id="xtick_4">
     <g id="line2d_4">
      <g>
       <use style="stroke:#000000;stroke-width:0.8;" x="293.591003" xlink:href="#mf578379ad2" y="164.88"/>
      </g>
     </g>
     <g id="text_4">
      <!-- $\mathdefault{10^{2}}$ -->
      <defs>
       <path d="M 19.1875 8.296875 
L 53.609375 8.296875 
L 53.609375 0 
L 7.328125 0 
L 7.328125 8.296875 
Q 12.9375 14.109375 22.625 23.890625 
Q 32.328125 33.6875 34.8125 36.53125 
Q 39.546875 41.84375 41.421875 45.53125 
Q 43.3125 49.21875 43.3125 52.78125 
Q 43.3125 58.59375 39.234375 62.25 
Q 35.15625 65.921875 28.609375 65.921875 
Q 23.96875 65.921875 18.8125 64.3125 
Q 13.671875 62.703125 7.8125 59.421875 
L 7.8125 69.390625 
Q 13.765625 71.78125 18.9375 73 
Q 24.125 74.21875 28.421875 74.21875 
Q 39.75 74.21875 46.484375 68.546875 
Q 53.21875 62.890625 53.21875 53.421875 
Q 53.21875 48.921875 51.53125 44.890625 
Q 49.859375 40.875 45.40625 35.40625 
Q 44.1875 33.984375 37.640625 27.21875 
Q 31.109375 20.453125 19.1875 8.296875 
z
" id="DejaVuSans-50"/>
      </defs>
      <g transform="translate(284.791003 179.478438)scale(0.1 -0.1)">
       <use transform="translate(0 0.765625)" xlink:href="#DejaVuSans-49"/>
       <use transform="translate(63.623047 0.765625)" xlink:href="#DejaVuSans-48"/>
       <use transform="translate(128.203125 39.046875)scale(0.7)" xlink:href="#DejaVuSans-50"/>
      </g>
     </g>
    </g>
    <g id="xtick_5">
     <g id="line2d_5">
      <g>
       <use style="stroke:#000000;stroke-width:0.8;" x="370.998958" xlink:href="#mf578379ad2" y="164.88"/>
      </g>
     </g>
     <g id="text_5">
      <!-- $\mathdefault{10^{3}}$ -->
      <defs>
       <path d="M 40.578125 39.3125 
Q 47.65625 37.796875 51.625 33 
Q 55.609375 28.21875 55.609375 21.1875 
Q 55.609375 10.40625 48.1875 4.484375 
Q 40.765625 -1.421875 27.09375 -1.421875 
Q 22.515625 -1.421875 17.65625 -0.515625 
Q 12.796875 0.390625 7.625 2.203125 
L 7.625 11.71875 
Q 11.71875 9.328125 16.59375 8.109375 
Q 21.484375 6.890625 26.8125 6.890625 
Q 36.078125 6.890625 40.9375 10.546875 
Q 45.796875 14.203125 45.796875 21.1875 
Q 45.796875 27.640625 41.28125 31.265625 
Q 36.765625 34.90625 28.71875 34.90625 
L 20.21875 34.90625 
L 20.21875 43.015625 
L 29.109375 43.015625 
Q 36.375 43.015625 40.234375 45.921875 
Q 44.09375 48.828125 44.09375 54.296875 
Q 44.09375 59.90625 40.109375 62.90625 
Q 36.140625 65.921875 28.71875 65.921875 
Q 24.65625 65.921875 20.015625 65.03125 
Q 15.375 64.15625 9.8125 62.3125 
L 9.8125 71.09375 
Q 15.4375 72.65625 20.34375 73.4375 
Q 25.25 74.21875 29.59375 74.21875 
Q 40.828125 74.21875 47.359375 69.109375 
Q 53.90625 64.015625 53.90625 55.328125 
Q 53.90625 49.265625 50.4375 45.09375 
Q 46.96875 40.921875 40.578125 39.3125 
z
" id="DejaVuSans-51"/>
      </defs>
      <g transform="translate(362.198958 179.478438)scale(0.1 -0.1)">
       <use transform="translate(0 0.765625)" xlink:href="#DejaVuSans-49"/>
       <use transform="translate(63.623047 0.765625)" xlink:href="#DejaVuSans-48"/>
       <use transform="translate(128.203125 39.046875)scale(0.7)" xlink:href="#DejaVuSans-51"/>
      </g>
     </g>
    </g>
    <g id="xtick_6">
     <g id="line2d_6">
      <defs>
       <path d="M 0 0 
L 0 2 
" id="m816d91ce74" style="stroke:#000000;stroke-width:0.6;"/>
      </defs>
      <g>
       <use style="stroke:#000000;stroke-width:0.6;" x="49.376495" xlink:href="#m816d91ce74" y="164.88"/>
      </g>
     </g>
    </g>
    <g id="xtick_7">
     <g id="line2d_7">
      <g>
       <use style="stroke:#000000;stroke-width:0.6;" x="53.865533" xlink:href="#m816d91ce74" y="164.88"/>
      </g>
     </g>
    </g>
    <g id="xtick_8">
     <g id="line2d_8">
      <g>
       <use style="stroke:#000000;stroke-width:0.6;" x="57.825145" xlink:href="#m816d91ce74" y="164.88"/>
      </g>
     </g>
    </g>
    <g id="xtick_9">
     <g id="line2d_9">
      <g>
       <use style="stroke:#000000;stroke-width:0.6;" x="84.669255" xlink:href="#m816d91ce74" y="164.88"/>
      </g>
     </g>
    </g>
    <g id="xtick_10">
     <g id="line2d_10">
      <g>
       <use style="stroke:#000000;stroke-width:0.6;" x="98.300119" xlink:href="#m816d91ce74" y="164.88"/>
      </g>
     </g>
    </g>
    <g id="xtick_11">
     <g id="line2d_11">
      <g>
       <use style="stroke:#000000;stroke-width:0.6;" x="107.971371" xlink:href="#m816d91ce74" y="164.88"/>
      </g>
     </g>
    </g>
    <g id="xtick_12">
     <g id="line2d_12">
      <g>
       <use style="stroke:#000000;stroke-width:0.6;" x="115.472977" xlink:href="#m816d91ce74" y="164.88"/>
      </g>
     </g>
    </g>
    <g id="xtick_13">
     <g id="line2d_13">
      <g>
       <use style="stroke:#000000;stroke-width:0.6;" x="121.602236" xlink:href="#m816d91ce74" y="164.88"/>
      </g>
     </g>
    </g>
    <g id="xtick_14">
     <g id="line2d_14">
      <g>
       <use style="stroke:#000000;stroke-width:0.6;" x="126.78445" xlink:href="#m816d91ce74" y="164.88"/>
      </g>
     </g>
    </g>
    <g id="xtick_15">
     <g id="line2d_15">
      <g>
       <use style="stroke:#000000;stroke-width:0.6;" x="131.273488" xlink:href="#m816d91ce74" y="164.88"/>
      </g>
     </g>
    </g>
    <g id="xtick_16">
     <g id="line2d_16">
      <g>
       <use style="stroke:#000000;stroke-width:0.6;" x="135.2331" xlink:href="#m816d91ce74" y="164.88"/>
      </g>
     </g>
    </g>
    <g id="xtick_17">
     <g id="line2d_17">
      <g>
       <use style="stroke:#000000;stroke-width:0.6;" x="162.07721" xlink:href="#m816d91ce74" y="164.88"/>
      </g>
     </g>
    </g>
    <g id="xtick_18">
     <g id="line2d_18">
      <g>
       <use style="stroke:#000000;stroke-width:0.6;" x="175.708074" xlink:href="#m816d91ce74" y="164.88"/>
      </g>
     </g>
    </g>
    <g id="xtick_19">
     <g id="line2d_19">
      <g>
       <use style="stroke:#000000;stroke-width:0.6;" x="185.379326" xlink:href="#m816d91ce74" y="164.88"/>
      </g>
     </g>
    </g>
    <g id="xtick_20">
     <g id="line2d_20">
      <g>
       <use style="stroke:#000000;stroke-width:0.6;" x="192.880932" xlink:href="#m816d91ce74" y="164.88"/>
      </g>
     </g>
    </g>
    <g id="xtick_21">
     <g id="line2d_21">
      <g>
       <use style="stroke:#000000;stroke-width:0.6;" x="199.01019" xlink:href="#m816d91ce74" y="164.88"/>
      </g>
     </g>
    </g>
    <g id="xtick_22">
     <g id="line2d_22">
      <g>
       <use style="stroke:#000000;stroke-width:0.6;" x="204.192405" xlink:href="#m816d91ce74" y="164.88"/>
      </g>
     </g>
    </g>
    <g id="xtick_23">
     <g id="line2d_23">
      <g>
       <use style="stroke:#000000;stroke-width:0.6;" x="208.681443" xlink:href="#m816d91ce74" y="164.88"/>
      </g>
     </g>
    </g>
    <g id="xtick_24">
     <g id="line2d_24">
      <g>
       <use style="stroke:#000000;stroke-width:0.6;" x="212.641055" xlink:href="#m816d91ce74" y="164.88"/>
      </g>
     </g>
    </g>
    <g id="xtick_25">
     <g id="line2d_25">
      <g>
       <use style="stroke:#000000;stroke-width:0.6;" x="239.485165" xlink:href="#m816d91ce74" y="164.88"/>
      </g>
     </g>
    </g>
    <g id="xtick_26">
     <g id="line2d_26">
      <g>
       <use style="stroke:#000000;stroke-width:0.6;" x="253.116029" xlink:href="#m816d91ce74" y="164.88"/>
      </g>
     </g>
    </g>
    <g id="xtick_27">
     <g id="line2d_27">
      <g>
       <use style="stroke:#000000;stroke-width:0.6;" x="262.787281" xlink:href="#m816d91ce74" y="164.88"/>
      </g>
     </g>
    </g>
    <g id="xtick_28">
     <g id="line2d_28">
      <g>
       <use style="stroke:#000000;stroke-width:0.6;" x="270.288887" xlink:href="#m816d91ce74" y="164.88"/>
      </g>
     </g>
    </g>
    <g id="xtick_29">
     <g id="line2d_29">
      <g>
       <use style="stroke:#000000;stroke-width:0.6;" x="276.418145" xlink:href="#m816d91ce74" y="164.88"/>
      </g>
     </g>
    </g>
    <g id="xtick_30">
     <g id="line2d_30">
      <g>
       <use style="stroke:#000000;stroke-width:0.6;" x="281.600359" xlink:href="#m816d91ce74" y="164.88"/>
      </g>
     </g>
    </g>
    <g id="xtick_31">
     <g id="line2d_31">
      <g>
       <use style="stroke:#000000;stroke-width:0.6;" x="286.089397" xlink:href="#m816d91ce74" y="164.88"/>
      </g>
     </g>
    </g>
    <g id="xtick_32">
     <g id="line2d_32">
      <g>
       <use style="stroke:#000000;stroke-width:0.6;" x="290.049009" xlink:href="#m816d91ce74" y="164.88"/>
      </g>
     </g>
    </g>
    <g id="xtick_33">
     <g id="line2d_33">
      <g>
       <use style="stroke:#000000;stroke-width:0.6;" x="316.89312" xlink:href="#m816d91ce74" y="164.88"/>
      </g>
     </g>
    </g>
    <g id="xtick_34">
     <g id="line2d_34">
      <g>
       <use style="stroke:#000000;stroke-width:0.6;" x="330.523984" xlink:href="#m816d91ce74" y="164.88"/>
      </g>
     </g>
    </g>
    <g id="xtick_35">
     <g id="line2d_35">
      <g>
       <use style="stroke:#000000;stroke-width:0.6;" x="340.195236" xlink:href="#m816d91ce74" y="164.88"/>
      </g>
     </g>
    </g>
    <g id="xtick_36">
     <g id="line2d_36">
      <g>
       <use style="stroke:#000000;stroke-width:0.6;" x="347.696842" xlink:href="#m816d91ce74" y="164.88"/>
      </g>
     </g>
    </g>
    <g id="xtick_37">
     <g id="line2d_37">
      <g>
       <use style="stroke:#000000;stroke-width:0.6;" x="353.8261" xlink:href="#m816d91ce74" y="164.88"/>
      </g>
     </g>
    </g>
    <g id="xtick_38">
     <g id="line2d_38">
      <g>
       <use style="stroke:#000000;stroke-width:0.6;" x="359.008314" xlink:href="#m816d91ce74" y="164.88"/>
      </g>
     </g>
    </g>
    <g id="xtick_39">
     <g id="line2d_39">
      <g>
       <use style="stroke:#000000;stroke-width:0.6;" x="363.497352" xlink:href="#m816d91ce74" y="164.88"/>
      </g>
     </g>
    </g>
    <g id="xtick_40">
     <g id="line2d_40">
      <g>
       <use style="stroke:#000000;stroke-width:0.6;" x="367.456964" xlink:href="#m816d91ce74" y="164.88"/>
      </g>
     </g>
    </g>
    <g id="text_6">
     <!-- relative noise intensity -->
     <defs>
      <path d="M 41.109375 46.296875 
Q 39.59375 47.171875 37.8125 47.578125 
Q 36.03125 48 33.890625 48 
Q 26.265625 48 22.1875 43.046875 
Q 18.109375 38.09375 18.109375 28.8125 
L 18.109375 0 
L 9.078125 0 
L 9.078125 54.6875 
L 18.109375 54.6875 
L 18.109375 46.1875 
Q 20.953125 51.171875 25.484375 53.578125 
Q 30.03125 56 36.53125 56 
Q 37.453125 56 38.578125 55.875 
Q 39.703125 55.765625 41.0625 55.515625 
z
" id="DejaVuSans-114"/>
      <path d="M 56.203125 29.59375 
L 56.203125 25.203125 
L 14.890625 25.203125 
Q 15.484375 15.921875 20.484375 11.0625 
Q 25.484375 6.203125 34.421875 6.203125 
Q 39.59375 6.203125 44.453125 7.46875 
Q 49.3125 8.734375 54.109375 11.28125 
L 54.109375 2.78125 
Q 49.265625 0.734375 44.1875 -0.34375 
Q 39.109375 -1.421875 33.890625 -1.421875 
Q 20.796875 -1.421875 13.15625 6.1875 
Q 5.515625 13.8125 5.515625 26.8125 
Q 5.515625 40.234375 12.765625 48.109375 
Q 20.015625 56 32.328125 56 
Q 43.359375 56 49.78125 48.890625 
Q 56.203125 41.796875 56.203125 29.59375 
z
M 47.21875 32.234375 
Q 47.125 39.59375 43.09375 43.984375 
Q 39.0625 48.390625 32.421875 48.390625 
Q 24.90625 48.390625 20.390625 44.140625 
Q 15.875 39.890625 15.1875 32.171875 
z
" id="DejaVuSans-101"/>
      <path d="M 9.421875 75.984375 
L 18.40625 75.984375 
L 18.40625 0 
L 9.421875 0 
z
" id="DejaVuSans-108"/>
      <path d="M 34.28125 27.484375 
Q 23.390625 27.484375 19.1875 25 
Q 14.984375 22.515625 14.984375 16.5 
Q 14.984375 11.71875 18.140625 8.90625 
Q 21.296875 6.109375 26.703125 6.109375 
Q 34.1875 6.109375 38.703125 11.40625 
Q 43.21875 16.703125 43.21875 25.484375 
L 43.21875 27.484375 
z
M 52.203125 31.203125 
L 52.203125 0 
L 43.21875 0 
L 43.21875 8.296875 
Q 40.140625 3.328125 35.546875 0.953125 
Q 30.953125 -1.421875 24.3125 -1.421875 
Q 15.921875 -1.421875 10.953125 3.296875 
Q 6 8.015625 6 15.921875 
Q 6 25.140625 12.171875 29.828125 
Q 18.359375 34.515625 30.609375 34.515625 
L 43.21875 34.515625 
L 43.21875 35.40625 
Q 43.21875 41.609375 39.140625 45 
Q 35.0625 48.390625 27.6875 48.390625 
Q 23 48.390625 18.546875 47.265625 
Q 14.109375 46.140625 10.015625 43.890625 
L 10.015625 52.203125 
Q 14.9375 54.109375 19.578125 55.046875 
Q 24.21875 56 28.609375 56 
Q 40.484375 56 46.34375 49.84375 
Q 52.203125 43.703125 52.203125 31.203125 
z
" id="DejaVuSans-97"/>
      <path d="M 18.3125 70.21875 
L 18.3125 54.6875 
L 36.8125 54.6875 
L 36.8125 47.703125 
L 18.3125 47.703125 
L 18.3125 18.015625 
Q 18.3125 11.328125 20.140625 9.421875 
Q 21.96875 7.515625 27.59375 7.515625 
L 36.8125 7.515625 
L 36.8125 0 
L 27.59375 0 
Q 17.1875 0 13.234375 3.875 
Q 9.28125 7.765625 9.28125 18.015625 
L 9.28125 47.703125 
L 2.6875 47.703125 
L 2.6875 54.6875 
L 9.28125 54.6875 
L 9.28125 70.21875 
z
" id="DejaVuSans-116"/>
      <path d="M 9.421875 54.6875 
L 18.40625 54.6875 
L 18.40625 0 
L 9.421875 0 
z
M 9.421875 75.984375 
L 18.40625 75.984375 
L 18.40625 64.59375 
L 9.421875 64.59375 
z
" id="DejaVuSans-105"/>
      <path d="M 2.984375 54.6875 
L 12.5 54.6875 
L 29.59375 8.796875 
L 46.6875 54.6875 
L 56.203125 54.6875 
L 35.6875 0 
L 23.484375 0 
z
" id="DejaVuSans-118"/>
      <path id="DejaVuSans-32"/>
      <path d="M 54.890625 33.015625 
L 54.890625 0 
L 45.90625 0 
L 45.90625 32.71875 
Q 45.90625 40.484375 42.875 44.328125 
Q 39.84375 48.1875 33.796875 48.1875 
Q 26.515625 48.1875 22.3125 43.546875 
Q 18.109375 38.921875 18.109375 30.90625 
L 18.109375 0 
L 9.078125 0 
L 9.078125 54.6875 
L 18.109375 54.6875 
L 18.109375 46.1875 
Q 21.34375 51.125 25.703125 53.5625 
Q 30.078125 56 35.796875 56 
Q 45.21875 56 50.046875 50.171875 
Q 54.890625 44.34375 54.890625 33.015625 
z
" id="DejaVuSans-110"/>
      <path d="M 30.609375 48.390625 
Q 23.390625 48.390625 19.1875 42.75 
Q 14.984375 37.109375 14.984375 27.296875 
Q 14.984375 17.484375 19.15625 11.84375 
Q 23.34375 6.203125 30.609375 6.203125 
Q 37.796875 6.203125 41.984375 11.859375 
Q 46.1875 17.53125 46.1875 27.296875 
Q 46.1875 37.015625 41.984375 42.703125 
Q 37.796875 48.390625 30.609375 48.390625 
z
M 30.609375 56 
Q 42.328125 56 49.015625 48.375 
Q 55.71875 40.765625 55.71875 27.296875 
Q 55.71875 13.875 49.015625 6.21875 
Q 42.328125 -1.421875 30.609375 -1.421875 
Q 18.84375 -1.421875 12.171875 6.21875 
Q 5.515625 13.875 5.515625 27.296875 
Q 5.515625 40.765625 12.171875 48.375 
Q 18.84375 56 30.609375 56 
z
" id="DejaVuSans-111"/>
      <path d="M 44.28125 53.078125 
L 44.28125 44.578125 
Q 40.484375 46.53125 36.375 47.5 
Q 32.28125 48.484375 27.875 48.484375 
Q 21.1875 48.484375 17.84375 46.4375 
Q 14.5 44.390625 14.5 40.28125 
Q 14.5 37.15625 16.890625 35.375 
Q 19.28125 33.59375 26.515625 31.984375 
L 29.59375 31.296875 
Q 39.15625 29.25 43.1875 25.515625 
Q 47.21875 21.78125 47.21875 15.09375 
Q 47.21875 7.46875 41.1875 3.015625 
Q 35.15625 -1.421875 24.609375 -1.421875 
Q 20.21875 -1.421875 15.453125 -0.5625 
Q 10.6875 0.296875 5.421875 2 
L 5.421875 11.28125 
Q 10.40625 8.6875 15.234375 7.390625 
Q 20.0625 6.109375 24.8125 6.109375 
Q 31.15625 6.109375 34.5625 8.28125 
Q 37.984375 10.453125 37.984375 14.40625 
Q 37.984375 18.0625 35.515625 20.015625 
Q 33.0625 21.96875 24.703125 23.78125 
L 21.578125 24.515625 
Q 13.234375 26.265625 9.515625 29.90625 
Q 5.8125 33.546875 5.8125 39.890625 
Q 5.8125 47.609375 11.28125 51.796875 
Q 16.75 56 26.8125 56 
Q 31.78125 56 36.171875 55.265625 
Q 40.578125 54.546875 44.28125 53.078125 
z
" id="DejaVuSans-115"/>
      <path d="M 32.171875 -5.078125 
Q 28.375 -14.84375 24.75 -17.8125 
Q 21.140625 -20.796875 15.09375 -20.796875 
L 7.90625 -20.796875 
L 7.90625 -13.28125 
L 13.1875 -13.28125 
Q 16.890625 -13.28125 18.9375 -11.515625 
Q 21 -9.765625 23.484375 -3.21875 
L 25.09375 0.875 
L 2.984375 54.6875 
L 12.5 54.6875 
L 29.59375 11.921875 
L 46.6875 54.6875 
L 56.203125 54.6875 
z
" id="DejaVuSans-121"/>
     </defs>
     <g transform="translate(157.354688 193.156563)scale(0.1 -0.1)">
      <use xlink:href="#DejaVuSans-114"/>
      <use x="38.863281" xlink:href="#DejaVuSans-101"/>
      <use x="100.386719" xlink:href="#DejaVuSans-108"/>
      <use x="128.169922" xlink:href="#DejaVuSans-97"/>
      <use x="189.449219" xlink:href="#DejaVuSans-116"/>
      <use x="228.658203" xlink:href="#DejaVuSans-105"/>
      <use x="256.441406" xlink:href="#DejaVuSans-118"/>
      <use x="315.621094" xlink:href="#DejaVuSans-101"/>
      <use x="377.144531" xlink:href="#DejaVuSans-32"/>
      <use x="408.931641" xlink:href="#DejaVuSans-110"/>
      <use x="472.310547" xlink:href="#DejaVuSans-111"/>
      <use x="533.492188" xlink:href="#DejaVuSans-105"/>
      <use x="561.275391" xlink:href="#DejaVuSans-115"/>
      <use x="613.375" xlink:href="#DejaVuSans-101"/>
      <use x="674.898438" xlink:href="#DejaVuSans-32"/>
      <use x="706.685547" xlink:href="#DejaVuSans-105"/>
      <use x="734.46875" xlink:href="#DejaVuSans-110"/>
      <use x="797.847656" xlink:href="#DejaVuSans-116"/>
      <use x="837.056641" xlink:href="#DejaVuSans-101"/>
      <use x="898.580078" xlink:href="#DejaVuSans-110"/>
      <use x="961.958984" xlink:href="#DejaVuSans-115"/>
      <use x="1014.058594" xlink:href="#DejaVuSans-105"/>
      <use x="1041.841797" xlink:href="#DejaVuSans-116"/>
      <use x="1081.050781" xlink:href="#DejaVuSans-121"/>
     </g>
    </g>
   </g>
   <g id="matplotlib.axis_2">
    <g id="ytick_1">
     <g id="line2d_41">
      <defs>
       <path d="M 0 0 
L -3.5 0 
" id="m2e51ec560f" style="stroke:#000000;stroke-width:0.8;"/>
      </defs>
      <g>
       <use style="stroke:#000000;stroke-width:0.8;" x="46.965625" xlink:href="#m2e51ec560f" y="163.733681"/>
      </g>
     </g>
     <g id="text_7">
      <!-- 0 -->
      <g transform="translate(33.603125 167.5329)scale(0.1 -0.1)">
       <use xlink:href="#DejaVuSans-48"/>
      </g>
     </g>
    </g>
    <g id="ytick_2">
     <g id="line2d_42">
      <g>
       <use style="stroke:#000000;stroke-width:0.8;" x="46.965625" xlink:href="#m2e51ec560f" y="126.626954"/>
      </g>
     </g>
     <g id="text_8">
      <!-- 50 -->
      <defs>
       <path d="M 10.796875 72.90625 
L 49.515625 72.90625 
L 49.515625 64.59375 
L 19.828125 64.59375 
L 19.828125 46.734375 
Q 21.96875 47.46875 24.109375 47.828125 
Q 26.265625 48.1875 28.421875 48.1875 
Q 40.625 48.1875 47.75 41.5 
Q 54.890625 34.8125 54.890625 23.390625 
Q 54.890625 11.625 47.5625 5.09375 
Q 40.234375 -1.421875 26.90625 -1.421875 
Q 22.3125 -1.421875 17.546875 -0.640625 
Q 12.796875 0.140625 7.71875 1.703125 
L 7.71875 11.625 
Q 12.109375 9.234375 16.796875 8.0625 
Q 21.484375 6.890625 26.703125 6.890625 
Q 35.15625 6.890625 40.078125 11.328125 
Q 45.015625 15.765625 45.015625 23.390625 
Q 45.015625 31 40.078125 35.4375 
Q 35.15625 39.890625 26.703125 39.890625 
Q 22.75 39.890625 18.8125 39.015625 
Q 14.890625 38.140625 10.796875 36.28125 
z
" id="DejaVuSans-53"/>
      </defs>
      <g transform="translate(27.240625 130.426172)scale(0.1 -0.1)">
       <use xlink:href="#DejaVuSans-53"/>
       <use x="63.623047" xlink:href="#DejaVuSans-48"/>
      </g>
     </g>
    </g>
    <g id="ytick_3">
     <g id="line2d_43">
      <g>
       <use style="stroke:#000000;stroke-width:0.8;" x="46.965625" xlink:href="#m2e51ec560f" y="89.520226"/>
      </g>
     </g>
     <g id="text_9">
      <!-- 100 -->
      <g transform="translate(20.878125 93.319445)scale(0.1 -0.1)">
       <use xlink:href="#DejaVuSans-49"/>
       <use x="63.623047" xlink:href="#DejaVuSans-48"/>
       <use x="127.246094" xlink:href="#DejaVuSans-48"/>
      </g>
     </g>
    </g>
    <g id="ytick_4">
     <g id="line2d_44">
      <g>
       <use style="stroke:#000000;stroke-width:0.8;" x="46.965625" xlink:href="#m2e51ec560f" y="52.413498"/>
      </g>
     </g>
     <g id="text_10">
      <!-- 150 -->
      <g transform="translate(20.878125 56.212717)scale(0.1 -0.1)">
       <use xlink:href="#DejaVuSans-49"/>
       <use x="63.623047" xlink:href="#DejaVuSans-53"/>
       <use x="127.246094" xlink:href="#DejaVuSans-48"/>
      </g>
     </g>
    </g>
    <g id="ytick_5">
     <g id="line2d_45">
      <g>
       <use style="stroke:#000000;stroke-width:0.8;" x="46.965625" xlink:href="#m2e51ec560f" y="15.30677"/>
      </g>
     </g>
     <g id="text_11">
      <!-- 200 -->
      <g transform="translate(20.878125 19.105989)scale(0.1 -0.1)">
       <use xlink:href="#DejaVuSans-50"/>
       <use x="63.623047" xlink:href="#DejaVuSans-48"/>
       <use x="127.246094" xlink:href="#DejaVuSans-48"/>
      </g>
     </g>
    </g>
    <g id="text_12">
     <!-- cumulative reward -->
     <defs>
      <path d="M 48.78125 52.59375 
L 48.78125 44.1875 
Q 44.96875 46.296875 41.140625 47.34375 
Q 37.3125 48.390625 33.40625 48.390625 
Q 24.65625 48.390625 19.8125 42.84375 
Q 14.984375 37.3125 14.984375 27.296875 
Q 14.984375 17.28125 19.8125 11.734375 
Q 24.65625 6.203125 33.40625 6.203125 
Q 37.3125 6.203125 41.140625 7.25 
Q 44.96875 8.296875 48.78125 10.40625 
L 48.78125 2.09375 
Q 45.015625 0.34375 40.984375 -0.53125 
Q 36.96875 -1.421875 32.421875 -1.421875 
Q 20.0625 -1.421875 12.78125 6.34375 
Q 5.515625 14.109375 5.515625 27.296875 
Q 5.515625 40.671875 12.859375 48.328125 
Q 20.21875 56 33.015625 56 
Q 37.15625 56 41.109375 55.140625 
Q 45.0625 54.296875 48.78125 52.59375 
z
" id="DejaVuSans-99"/>
      <path d="M 8.5 21.578125 
L 8.5 54.6875 
L 17.484375 54.6875 
L 17.484375 21.921875 
Q 17.484375 14.15625 20.5 10.265625 
Q 23.53125 6.390625 29.59375 6.390625 
Q 36.859375 6.390625 41.078125 11.03125 
Q 45.3125 15.671875 45.3125 23.6875 
L 45.3125 54.6875 
L 54.296875 54.6875 
L 54.296875 0 
L 45.3125 0 
L 45.3125 8.40625 
Q 42.046875 3.421875 37.71875 1 
Q 33.40625 -1.421875 27.6875 -1.421875 
Q 18.265625 -1.421875 13.375 4.4375 
Q 8.5 10.296875 8.5 21.578125 
z
M 31.109375 56 
z
" id="DejaVuSans-117"/>
      <path d="M 52 44.1875 
Q 55.375 50.25 60.0625 53.125 
Q 64.75 56 71.09375 56 
Q 79.640625 56 84.28125 50.015625 
Q 88.921875 44.046875 88.921875 33.015625 
L 88.921875 0 
L 79.890625 0 
L 79.890625 32.71875 
Q 79.890625 40.578125 77.09375 44.375 
Q 74.3125 48.1875 68.609375 48.1875 
Q 61.625 48.1875 57.5625 43.546875 
Q 53.515625 38.921875 53.515625 30.90625 
L 53.515625 0 
L 44.484375 0 
L 44.484375 32.71875 
Q 44.484375 40.625 41.703125 44.40625 
Q 38.921875 48.1875 33.109375 48.1875 
Q 26.21875 48.1875 22.15625 43.53125 
Q 18.109375 38.875 18.109375 30.90625 
L 18.109375 0 
L 9.078125 0 
L 9.078125 54.6875 
L 18.109375 54.6875 
L 18.109375 46.1875 
Q 21.1875 51.21875 25.484375 53.609375 
Q 29.78125 56 35.6875 56 
Q 41.65625 56 45.828125 52.96875 
Q 50 49.953125 52 44.1875 
z
" id="DejaVuSans-109"/>
      <path d="M 4.203125 54.6875 
L 13.1875 54.6875 
L 24.421875 12.015625 
L 35.59375 54.6875 
L 46.1875 54.6875 
L 57.421875 12.015625 
L 68.609375 54.6875 
L 77.59375 54.6875 
L 63.28125 0 
L 52.6875 0 
L 40.921875 44.828125 
L 29.109375 0 
L 18.5 0 
z
" id="DejaVuSans-119"/>
      <path d="M 45.40625 46.390625 
L 45.40625 75.984375 
L 54.390625 75.984375 
L 54.390625 0 
L 45.40625 0 
L 45.40625 8.203125 
Q 42.578125 3.328125 38.25 0.953125 
Q 33.9375 -1.421875 27.875 -1.421875 
Q 17.96875 -1.421875 11.734375 6.484375 
Q 5.515625 14.40625 5.515625 27.296875 
Q 5.515625 40.1875 11.734375 48.09375 
Q 17.96875 56 27.875 56 
Q 33.9375 56 38.25 53.625 
Q 42.578125 51.265625 45.40625 46.390625 
z
M 14.796875 27.296875 
Q 14.796875 17.390625 18.875 11.75 
Q 22.953125 6.109375 30.078125 6.109375 
Q 37.203125 6.109375 41.296875 11.75 
Q 45.40625 17.390625 45.40625 27.296875 
Q 45.40625 37.203125 41.296875 42.84375 
Q 37.203125 48.484375 30.078125 48.484375 
Q 22.953125 48.484375 18.875 42.84375 
Q 14.796875 37.203125 14.796875 27.296875 
z
" id="DejaVuSans-100"/>
     </defs>
     <g transform="translate(14.798438 132.739219)rotate(-90)scale(0.1 -0.1)">
      <use xlink:href="#DejaVuSans-99"/>
      <use x="54.980469" xlink:href="#DejaVuSans-117"/>
      <use x="118.359375" xlink:href="#DejaVuSans-109"/>
      <use x="215.771484" xlink:href="#DejaVuSans-117"/>
      <use x="279.150391" xlink:href="#DejaVuSans-108"/>
      <use x="306.933594" xlink:href="#DejaVuSans-97"/>
      <use x="368.212891" xlink:href="#DejaVuSans-116"/>
      <use x="407.421875" xlink:href="#DejaVuSans-105"/>
      <use x="435.205078" xlink:href="#DejaVuSans-118"/>
      <use x="494.384766" xlink:href="#DejaVuSans-101"/>
      <use x="555.908203" xlink:href="#DejaVuSans-32"/>
      <use x="587.695312" xlink:href="#DejaVuSans-114"/>
      <use x="626.558594" xlink:href="#DejaVuSans-101"/>
      <use x="688.082031" xlink:href="#DejaVuSans-119"/>
      <use x="769.869141" xlink:href="#DejaVuSans-97"/>
      <use x="831.148438" xlink:href="#DejaVuSans-114"/>
      <use x="870.511719" xlink:href="#DejaVuSans-100"/>
     </g>
    </g>
   </g>
   <g id="line2d_46">
    <path clip-path="url(#pe0d542d80e)" d="M 95.619601 16.025157 
L 101.148741 17.395879 
L 106.677881 16.246313 
L 112.20702 15.872277 
L 117.73616 15.832202 
L 123.265299 16.186942 
L 128.794439 16.709405 
L 134.323579 16.969894 
L 139.852718 17.464898 
L 145.381858 18.37995 
L 150.910998 17.881977 
L 156.440137 17.625941 
L 161.969277 20.356996 
L 167.498416 21.656474 
L 173.027556 20.734 
L 178.556696 27.195024 
L 184.085835 22.70511 
L 189.614975 23.793079 
L 195.144115 19.998545 
L 200.673254 21.610461 
L 206.202394 21.77002 
L 211.731534 28.13234 
L 217.260673 43.999177 
L 222.789813 59.3955 
L 228.318952 82.196842 
L 233.848092 88.928002 
L 239.377232 100.779891 
L 244.906371 125.625072 
L 250.435511 136.339268 
L 255.964651 139.333039 
L 261.49379 149.279126 
L 267.02293 150.53185 
L 272.552069 152.833209 
L 278.081209 153.938989 
L 283.610349 154.036951 
L 289.139488 154.710067 
L 294.668628 154.657376 
L 300.197768 154.027303 
L 305.726907 154.655149 
L 311.256047 153.072176 
L 316.785187 152.863636 
L 322.314326 155.986539 
L 327.843466 149.624961 
L 333.372605 153.985002 
L 338.901745 154.998015 
L 344.430885 154.876305 
L 349.960024 155.018053 
L 355.489164 153.635456 
L 361.018304 155.29858 
L 366.547443 153.797242 
" style="fill:none;stroke:#1f77b4;stroke-linecap:square;stroke-width:1.5;"/>
   </g>
   <g id="line2d_47">
    <path clip-path="url(#pe0d542d80e)" d="M 75.694331 16.879354 
L 81.223471 16.419972 
L 86.75261 16.284904 
L 92.28175 16.575078 
L 97.810889 16.666361 
L 103.340029 15.804001 
L 108.869169 15.922 
L 114.398308 16.549104 
L 119.927448 16.631481 
L 125.456588 19.112436 
L 130.985727 18.023725 
L 136.514867 18.823004 
L 142.044006 21.993403 
L 147.573146 24.407567 
L 153.102286 28.152377 
L 158.631425 25.934137 
L 164.160565 33.715418 
L 169.689705 32.75287 
L 175.218844 30.057437 
L 180.747984 21.407117 
L 186.277123 26.236186 
L 191.806263 36.307694 
L 197.335403 57.947596 
L 202.864542 74.935798 
L 208.393682 93.855034 
L 213.922822 118.285361 
L 219.451961 138.76308 
L 224.981101 146.369959 
L 230.510241 151.006074 
L 236.03938 151.046891 
L 241.56852 155.546453 
L 247.097659 155.945721 
L 252.626799 155.815848 
L 258.155939 156.127544 
L 263.685078 154.80506 
L 269.214218 154.664055 
L 274.743358 155.096719 
L 280.272497 154.583904 
L 285.801637 151.765277 
L 291.330776 154.154951 
L 296.859916 154.847362 
L 302.389056 154.872595 
L 307.918195 154.767954 
L 313.447335 155.57317 
L 318.976475 154.629174 
L 324.505614 154.949777 
L 330.034754 154.574999 
L 335.563893 153.433596 
L 341.093033 154.273692 
L 346.622173 154.209868 
" style="fill:none;stroke:#ff7f0e;stroke-linecap:square;stroke-width:1.5;"/>
   </g>
   <g id="line2d_48">
    <path clip-path="url(#pe0d542d80e)" d="M 72.317485 17.699412 
L 77.846625 15.661511 
L 83.375764 15.896025 
L 88.904904 15.950201 
L 94.434044 16.041484 
L 99.963183 16.408098 
L 105.492323 15.841849 
L 111.021462 16.733153 
L 116.550602 17.467866 
L 122.079742 16.552814 
L 127.608881 18.566225 
L 133.138021 17.68828 
L 138.667161 19.216335 
L 144.1963 18.902412 
L 149.72544 17.796632 
L 155.254579 19.15177 
L 160.783719 19.65271 
L 166.312859 18.601106 
L 171.841998 20.437889 
L 177.371138 24.18641 
L 182.900278 28.387634 
L 188.429417 33.417822 
L 193.958557 35.388931 
L 199.487696 30.714968 
L 205.016836 30.542793 
L 210.545976 33.692412 
L 216.075115 53.909641 
L 221.604255 81.219451 
L 227.133395 94.407924 
L 232.662534 125.074408 
L 238.191674 129.510888 
L 243.720814 143.722765 
L 249.249953 149.386736 
L 254.779093 151.427606 
L 260.308232 150.894753 
L 265.837372 153.441759 
L 271.366512 152.045062 
L 276.895651 153.136742 
L 282.424791 149.118083 
L 287.953931 153.209471 
L 293.48307 151.563417 
L 299.01221 153.386841 
L 304.541349 153.925631 
L 310.070489 155.395057 
L 315.599629 155.334202 
L 321.128768 155.619182 
L 326.657908 156.37987 
L 332.187048 156.493416 
L 337.716187 156.306399 
L 343.245327 156.082274 
" style="fill:none;stroke:#2ca02c;stroke-linecap:square;stroke-width:1.5;"/>
   </g>
   <g id="line2d_49">
    <path clip-path="url(#pe0d542d80e)" d="M 87.108926 16.072653 
L 92.638065 17.260069 
L 98.167205 15.681548 
L 103.696344 16.758386 
L 109.225484 16.667845 
L 114.754624 17.638557 
L 120.283763 16.046679 
L 125.812903 16.076364 
L 131.342043 17.030007 
L 136.871182 18.998148 
L 142.400322 17.654142 
L 147.929462 19.834533 
L 153.458601 18.097196 
L 158.987741 25.923005 
L 164.51688 24.271014 
L 170.04602 29.086725 
L 175.57516 35.795621 
L 181.104299 29.710118 
L 186.633439 38.905165 
L 192.162579 44.112723 
L 197.691718 44.750959 
L 203.220858 54.238407 
L 208.749997 60.843405 
L 214.279137 47.415964 
L 219.808277 51.082851 
L 225.337416 52.691056 
L 230.866556 58.08118 
L 236.395696 68.790923 
L 241.924835 69.347524 
L 247.453975 84.620654 
L 252.983114 89.328755 
L 258.512254 106.590805 
L 264.041394 110.357138 
L 269.570533 120.819751 
L 275.099673 128.544629 
L 280.628813 129.821101 
L 286.157952 135.490266 
L 291.687092 139.815427 
L 297.216232 143.553558 
L 302.745371 144.560635 
L 308.274511 150.753748 
L 313.80365 149.56559 
L 319.33279 148.911028 
L 324.86193 151.446159 
L 330.391069 150.255033 
L 335.920209 151.386046 
L 341.449349 152.062873 
L 346.978488 152.668455 
L 352.507628 151.745982 
L 358.036767 151.134463 
" style="fill:none;stroke:#d62728;stroke-linecap:square;stroke-width:1.5;"/>
   </g>
   <g id="line2d_50">
    <path clip-path="url(#pe0d542d80e)" d="M 62.183807 16.230728 
L 67.712946 16.258187 
L 73.242086 17.395879 
L 78.771226 17.63262 
L 84.300365 18.530603 
L 89.829505 16.889743 
L 95.358645 16.746512 
L 100.887784 17.489388 
L 106.416924 19.539164 
L 111.946063 19.382573 
L 117.475203 20.78595 
L 123.004343 27.028786 
L 128.533482 26.38016 
L 134.062622 28.019535 
L 139.591762 32.738027 
L 145.120901 36.914018 
L 150.650041 44.140182 
L 156.179181 56.329742 
L 161.70832 48.490575 
L 167.23746 60.78626 
L 172.766599 67.160454 
L 178.295739 76.270156 
L 183.824879 75.85456 
L 189.354018 85.456297 
L 194.883158 100.053342 
L 200.412298 100.840746 
L 205.941437 97.113004 
L 211.470577 108.619801 
L 216.999716 118.385549 
L 222.528856 112.90637 
L 228.057996 114.757253 
L 233.587135 121.036454 
L 239.116275 121.258352 
L 244.645415 125.105578 
L 250.174554 132.867563 
L 255.703694 133.165901 
L 261.232834 133.487245 
L 266.761973 136.0721 
L 272.291113 138.866237 
L 277.820252 139.258826 
L 283.349392 139.532673 
L 288.878532 142.866342 
L 294.407671 140.964251 
L 299.936811 142.680066 
L 305.465951 146.956245 
L 310.99509 145.390341 
L 316.52423 147.363677 
L 322.053369 147.560343 
L 327.582509 147.627135 
L 333.111649 150.041299 
" style="fill:none;stroke:#9467bd;stroke-linecap:square;stroke-width:1.5;"/>
   </g>
   <g id="patch_3">
    <path d="M 46.965625 164.88 
L 46.965625 7.2 
" style="fill:none;stroke:#000000;stroke-linecap:square;stroke-linejoin:miter;stroke-width:0.8;"/>
   </g>
   <g id="patch_4">
    <path d="M 381.765625 164.88 
L 381.765625 7.2 
" style="fill:none;stroke:#000000;stroke-linecap:square;stroke-linejoin:miter;stroke-width:0.8;"/>
   </g>
   <g id="patch_5">
    <path d="M 46.965625 164.88 
L 381.765625 164.88 
" style="fill:none;stroke:#000000;stroke-linecap:square;stroke-linejoin:miter;stroke-width:0.8;"/>
   </g>
   <g id="patch_6">
    <path d="M 46.965625 7.2 
L 381.765625 7.2 
" style="fill:none;stroke:#000000;stroke-linecap:square;stroke-linejoin:miter;stroke-width:0.8;"/>
   </g>
   <g id="legend_1">
    <g id="patch_7">
     <path d="M 274.990625 88.590625 
L 374.765625 88.590625 
Q 376.765625 88.590625 376.765625 86.590625 
L 376.765625 14.2 
Q 376.765625 12.2 374.765625 12.2 
L 274.990625 12.2 
Q 272.990625 12.2 272.990625 14.2 
L 272.990625 86.590625 
Q 272.990625 88.590625 274.990625 88.590625 
z
" style="fill:#ffffff;opacity:0.8;stroke:#cccccc;stroke-linejoin:miter;"/>
    </g>
    <g id="line2d_51">
     <path d="M 276.990625 20.298438 
L 296.990625 20.298438 
" style="fill:none;stroke:#1f77b4;stroke-linecap:square;stroke-width:1.5;"/>
    </g>
    <g id="line2d_52"/>
    <g id="text_13">
     <!-- cart position -->
     <defs>
      <path d="M 18.109375 8.203125 
L 18.109375 -20.796875 
L 9.078125 -20.796875 
L 9.078125 54.6875 
L 18.109375 54.6875 
L 18.109375 46.390625 
Q 20.953125 51.265625 25.265625 53.625 
Q 29.59375 56 35.59375 56 
Q 45.5625 56 51.78125 48.09375 
Q 58.015625 40.1875 58.015625 27.296875 
Q 58.015625 14.40625 51.78125 6.484375 
Q 45.5625 -1.421875 35.59375 -1.421875 
Q 29.59375 -1.421875 25.265625 0.953125 
Q 20.953125 3.328125 18.109375 8.203125 
z
M 48.6875 27.296875 
Q 48.6875 37.203125 44.609375 42.84375 
Q 40.53125 48.484375 33.40625 48.484375 
Q 26.265625 48.484375 22.1875 42.84375 
Q 18.109375 37.203125 18.109375 27.296875 
Q 18.109375 17.390625 22.1875 11.75 
Q 26.265625 6.109375 33.40625 6.109375 
Q 40.53125 6.109375 44.609375 11.75 
Q 48.6875 17.390625 48.6875 27.296875 
z
" id="DejaVuSans-112"/>
     </defs>
     <g transform="translate(304.990625 23.798438)scale(0.1 -0.1)">
      <use xlink:href="#DejaVuSans-99"/>
      <use x="54.980469" xlink:href="#DejaVuSans-97"/>
      <use x="116.259766" xlink:href="#DejaVuSans-114"/>
      <use x="157.373047" xlink:href="#DejaVuSans-116"/>
      <use x="196.582031" xlink:href="#DejaVuSans-32"/>
      <use x="228.369141" xlink:href="#DejaVuSans-112"/>
      <use x="291.845703" xlink:href="#DejaVuSans-111"/>
      <use x="353.027344" xlink:href="#DejaVuSans-115"/>
      <use x="405.126953" xlink:href="#DejaVuSans-105"/>
      <use x="432.910156" xlink:href="#DejaVuSans-116"/>
      <use x="472.119141" xlink:href="#DejaVuSans-105"/>
      <use x="499.902344" xlink:href="#DejaVuSans-111"/>
      <use x="561.083984" xlink:href="#DejaVuSans-110"/>
     </g>
    </g>
    <g id="line2d_53">
     <path d="M 276.990625 34.976563 
L 296.990625 34.976563 
" style="fill:none;stroke:#ff7f0e;stroke-linecap:square;stroke-width:1.5;"/>
    </g>
    <g id="line2d_54"/>
    <g id="text_14">
     <!-- cart velocity -->
     <g transform="translate(304.990625 38.476563)scale(0.1 -0.1)">
      <use xlink:href="#DejaVuSans-99"/>
      <use x="54.980469" xlink:href="#DejaVuSans-97"/>
      <use x="116.259766" xlink:href="#DejaVuSans-114"/>
      <use x="157.373047" xlink:href="#DejaVuSans-116"/>
      <use x="196.582031" xlink:href="#DejaVuSans-32"/>
      <use x="228.369141" xlink:href="#DejaVuSans-118"/>
      <use x="287.548828" xlink:href="#DejaVuSans-101"/>
      <use x="349.072266" xlink:href="#DejaVuSans-108"/>
      <use x="376.855469" xlink:href="#DejaVuSans-111"/>
      <use x="438.037109" xlink:href="#DejaVuSans-99"/>
      <use x="493.017578" xlink:href="#DejaVuSans-105"/>
      <use x="520.800781" xlink:href="#DejaVuSans-116"/>
      <use x="560.009766" xlink:href="#DejaVuSans-121"/>
     </g>
    </g>
    <g id="line2d_55">
     <path d="M 276.990625 49.654688 
L 296.990625 49.654688 
" style="fill:none;stroke:#2ca02c;stroke-linecap:square;stroke-width:1.5;"/>
    </g>
    <g id="line2d_56"/>
    <g id="text_15">
     <!-- pole angle -->
     <defs>
      <path d="M 45.40625 27.984375 
Q 45.40625 37.75 41.375 43.109375 
Q 37.359375 48.484375 30.078125 48.484375 
Q 22.859375 48.484375 18.828125 43.109375 
Q 14.796875 37.75 14.796875 27.984375 
Q 14.796875 18.265625 18.828125 12.890625 
Q 22.859375 7.515625 30.078125 7.515625 
Q 37.359375 7.515625 41.375 12.890625 
Q 45.40625 18.265625 45.40625 27.984375 
z
M 54.390625 6.78125 
Q 54.390625 -7.171875 48.1875 -13.984375 
Q 42 -20.796875 29.203125 -20.796875 
Q 24.46875 -20.796875 20.265625 -20.09375 
Q 16.0625 -19.390625 12.109375 -17.921875 
L 12.109375 -9.1875 
Q 16.0625 -11.328125 19.921875 -12.34375 
Q 23.78125 -13.375 27.78125 -13.375 
Q 36.625 -13.375 41.015625 -8.765625 
Q 45.40625 -4.15625 45.40625 5.171875 
L 45.40625 9.625 
Q 42.625 4.78125 38.28125 2.390625 
Q 33.9375 0 27.875 0 
Q 17.828125 0 11.671875 7.65625 
Q 5.515625 15.328125 5.515625 27.984375 
Q 5.515625 40.671875 11.671875 48.328125 
Q 17.828125 56 27.875 56 
Q 33.9375 56 38.28125 53.609375 
Q 42.625 51.21875 45.40625 46.390625 
L 45.40625 54.6875 
L 54.390625 54.6875 
z
" id="DejaVuSans-103"/>
     </defs>
     <g transform="translate(304.990625 53.154688)scale(0.1 -0.1)">
      <use xlink:href="#DejaVuSans-112"/>
      <use x="63.476562" xlink:href="#DejaVuSans-111"/>
      <use x="124.658203" xlink:href="#DejaVuSans-108"/>
      <use x="152.441406" xlink:href="#DejaVuSans-101"/>
      <use x="213.964844" xlink:href="#DejaVuSans-32"/>
      <use x="245.751953" xlink:href="#DejaVuSans-97"/>
      <use x="307.03125" xlink:href="#DejaVuSans-110"/>
      <use x="370.410156" xlink:href="#DejaVuSans-103"/>
      <use x="433.886719" xlink:href="#DejaVuSans-108"/>
      <use x="461.669922" xlink:href="#DejaVuSans-101"/>
     </g>
    </g>
    <g id="line2d_57">
     <path d="M 276.990625 64.332813 
L 296.990625 64.332813 
" style="fill:none;stroke:#d62728;stroke-linecap:square;stroke-width:1.5;"/>
    </g>
    <g id="line2d_58"/>
    <g id="text_16">
     <!-- pole ang. vel. -->
     <defs>
      <path d="M 10.6875 12.40625 
L 21 12.40625 
L 21 0 
L 10.6875 0 
z
" id="DejaVuSans-46"/>
     </defs>
     <g transform="translate(304.990625 67.832813)scale(0.1 -0.1)">
      <use xlink:href="#DejaVuSans-112"/>
      <use x="63.476562" xlink:href="#DejaVuSans-111"/>
      <use x="124.658203" xlink:href="#DejaVuSans-108"/>
      <use x="152.441406" xlink:href="#DejaVuSans-101"/>
      <use x="213.964844" xlink:href="#DejaVuSans-32"/>
      <use x="245.751953" xlink:href="#DejaVuSans-97"/>
      <use x="307.03125" xlink:href="#DejaVuSans-110"/>
      <use x="370.410156" xlink:href="#DejaVuSans-103"/>
      <use x="433.886719" xlink:href="#DejaVuSans-46"/>
      <use x="465.673828" xlink:href="#DejaVuSans-32"/>
      <use x="497.460938" xlink:href="#DejaVuSans-118"/>
      <use x="556.640625" xlink:href="#DejaVuSans-101"/>
      <use x="618.164062" xlink:href="#DejaVuSans-108"/>
      <use x="645.947266" xlink:href="#DejaVuSans-46"/>
     </g>
    </g>
    <g id="line2d_59">
     <path d="M 276.990625 79.010938 
L 296.990625 79.010938 
" style="fill:none;stroke:#9467bd;stroke-linecap:square;stroke-width:1.5;"/>
    </g>
    <g id="line2d_60"/>
    <g id="text_17">
     <!-- reward -->
     <g transform="translate(304.990625 82.510938)scale(0.1 -0.1)">
      <use xlink:href="#DejaVuSans-114"/>
      <use x="38.863281" xlink:href="#DejaVuSans-101"/>
      <use x="100.386719" xlink:href="#DejaVuSans-119"/>
      <use x="182.173828" xlink:href="#DejaVuSans-97"/>
      <use x="243.453125" xlink:href="#DejaVuSans-114"/>
      <use x="282.816406" xlink:href="#DejaVuSans-100"/>
     </g>
    </g>
   </g>
  </g>
 </g>
 <defs>
  <clipPath id="pe0d542d80e">
   <rect height="157.68" width="334.8" x="46.965625" y="7.2"/>
  </clipPath>
 </defs>
</svg>
