<?xml version="1.0" encoding="utf-8" standalone="no"?>
<!DOCTYPE svg PUBLIC "-//W3C//DTD SVG 1.1//EN"
  "http://www.w3.org/Graphics/SVG/1.1/DTD/svg11.dtd">
<!-- Created with matplotlib (https://matplotlib.org/) -->
<svg height="210.427188pt" version="1.1" viewBox="0 0 472.665625 210.427188" width="472.665625pt" xmlns="http://www.w3.org/2000/svg" xmlns:xlink="http://www.w3.org/1999/xlink">
 <defs>
  <style type="text/css">
*{stroke-linecap:butt;stroke-linejoin:round;}
  </style>
 </defs>
 <g id="figure_1">
  <g id="patch_1">
   <path d="M 0 210.427188 
L 472.665625 210.427188 
L 472.665625 0 
L 0 0 
z
" style="fill:#ffffff;"/>
  </g>
  <g id="axes_1">
   <g id="patch_2">
    <path d="M 46.965625 186.549063 
L 465.465625 186.549063 
L 465.465625 20.229063 
L 46.965625 20.229063 
z
" style="fill:#ffffff;"/>
   </g>
   <g id="PolyCollection_1">
    <defs>
     <path d="M 116.752905 -49.550625 
L 116.678345 -49.550625 
L 116.679538 -50.894943 
L 116.685879 -52.239261 
L 116.694266 -53.58358 
L 116.701121 -54.927898 
L 116.70423 -56.272216 
L 116.703449 -57.616534 
L 116.700375 -58.960852 
L 116.697443 -60.30517 
L 116.696735 -61.649489 
L 116.69894 -62.993807 
L 116.703175 -64.338125 
L 116.707786 -65.682443 
L 116.711459 -67.026761 
L 116.713738 -68.37108 
L 116.714819 -69.715398 
L 116.715033 -71.059716 
L 116.714447 -72.404034 
L 116.7127 -73.748352 
L 116.709083 -75.09267 
L 116.702835 -76.436989 
L 116.693601 -77.781307 
L 116.681831 -79.125625 
L 116.668942 -80.469943 
L 116.657089 -81.814261 
L 116.648436 -83.15858 
L 116.643902 -84.502898 
L 116.642118 -85.847216 
L 116.639797 -87.191534 
L 116.633811 -88.535852 
L 116.623314 -89.88017 
L 116.609801 -91.224489 
L 116.594971 -92.568807 
L 116.578591 -93.913125 
L 116.558428 -95.257443 
L 116.531912 -96.601761 
L 116.497589 -97.94608 
L 116.455464 -99.290398 
L 116.406854 -100.634716 
L 116.353863 -101.979034 
L 116.297715 -103.323352 
L 116.236754 -104.66767 
L 116.166934 -106.011989 
L 116.085636 -107.356307 
L 115.995506 -108.700625 
L 115.90464 -110.044943 
L 115.823706 -111.389261 
L 115.762908 -112.73358 
L 115.729642 -114.077898 
L 115.726048 -115.422216 
L 115.747672 -116.766534 
L 115.785299 -118.110852 
L 115.82851 -119.45517 
L 115.867252 -120.799489 
L 115.891375 -122.143807 
L 115.892009 -123.488125 
L 115.865923 -124.832443 
L 115.818536 -126.176761 
L 115.761518 -127.52108 
L 115.706545 -128.865398 
L 115.66025 -130.209716 
L 115.623236 -131.554034 
L 115.592027 -132.898352 
L 115.56159 -134.24267 
L 115.52737 -135.586989 
L 115.486635 -136.931307 
L 115.438529 -138.275625 
L 115.382265 -139.619943 
L 115.314474 -140.964261 
L 115.228459 -142.30858 
L 115.11722 -143.652898 
L 114.978497 -144.997216 
L 114.81725 -146.341534 
L 114.642469 -147.685852 
L 114.460299 -149.03017 
L 114.269718 -150.374489 
L 114.065339 -151.718807 
L 113.84508 -153.063125 
L 113.616096 -154.407443 
L 113.394917 -155.751761 
L 113.202692 -157.09608 
L 113.058147 -158.440398 
L 112.970449 -159.784716 
L 112.934459 -161.129034 
L 112.930918 -162.473352 
L 112.932491 -163.81767 
L 112.913933 -165.161989 
L 112.86227 -166.506307 
L 112.781383 -167.850625 
L 112.684945 -169.194943 
L 112.56969 -170.539261 
L 112.352976 -171.88358 
L 111.750365 -173.227898 
L 110.100683 -174.572216 
L 106.281862 -175.916534 
L 99.054425 -177.260852 
L 88.089883 -178.60517 
L 75.231495 -179.949489 
L 64.652412 -181.293807 
L 60.915625 -182.638125 
L 172.515625 -182.638125 
L 172.515625 -182.638125 
L 168.778838 -181.293807 
L 158.199755 -179.949489 
L 145.341367 -178.60517 
L 134.376825 -177.260852 
L 127.149388 -175.916534 
L 123.330567 -174.572216 
L 121.680885 -173.227898 
L 121.078274 -171.88358 
L 120.86156 -170.539261 
L 120.746305 -169.194943 
L 120.649867 -167.850625 
L 120.56898 -166.506307 
L 120.517317 -165.161989 
L 120.498759 -163.81767 
L 120.500332 -162.473352 
L 120.496791 -161.129034 
L 120.460801 -159.784716 
L 120.373103 -158.440398 
L 120.228558 -157.09608 
L 120.036333 -155.751761 
L 119.815154 -154.407443 
L 119.58617 -153.063125 
L 119.365911 -151.718807 
L 119.161532 -150.374489 
L 118.970951 -149.03017 
L 118.788781 -147.685852 
L 118.614 -146.341534 
L 118.452753 -144.997216 
L 118.31403 -143.652898 
L 118.202791 -142.30858 
L 118.116776 -140.964261 
L 118.048985 -139.619943 
L 117.992721 -138.275625 
L 117.944615 -136.931307 
L 117.90388 -135.586989 
L 117.86966 -134.24267 
L 117.839223 -132.898352 
L 117.808014 -131.554034 
L 117.771 -130.209716 
L 117.724705 -128.865398 
L 117.669732 -127.52108 
L 117.612714 -126.176761 
L 117.565327 -124.832443 
L 117.539241 -123.488125 
L 117.539875 -122.143807 
L 117.563998 -120.799489 
L 117.60274 -119.45517 
L 117.645951 -118.110852 
L 117.683578 -116.766534 
L 117.705202 -115.422216 
L 117.701608 -114.077898 
L 117.668342 -112.73358 
L 117.607544 -111.389261 
L 117.52661 -110.044943 
L 117.435744 -108.700625 
L 117.345614 -107.356307 
L 117.264316 -106.011989 
L 117.194496 -104.66767 
L 117.133535 -103.323352 
L 117.077387 -101.979034 
L 117.024396 -100.634716 
L 116.975786 -99.290398 
L 116.933661 -97.94608 
L 116.899338 -96.601761 
L 116.872822 -95.257443 
L 116.852659 -93.913125 
L 116.836279 -92.568807 
L 116.821449 -91.224489 
L 116.807936 -89.88017 
L 116.797439 -88.535852 
L 116.791453 -87.191534 
L 116.789132 -85.847216 
L 116.787348 -84.502898 
L 116.782814 -83.15858 
L 116.774161 -81.814261 
L 116.762308 -80.469943 
L 116.749419 -79.125625 
L 116.737649 -77.781307 
L 116.728415 -76.436989 
L 116.722167 -75.09267 
L 116.71855 -73.748352 
L 116.716803 -72.404034 
L 116.716217 -71.059716 
L 116.716431 -69.715398 
L 116.717512 -68.37108 
L 116.719791 -67.026761 
L 116.723464 -65.682443 
L 116.728075 -64.338125 
L 116.73231 -62.993807 
L 116.734515 -61.649489 
L 116.733807 -60.30517 
L 116.730875 -58.960852 
L 116.727801 -57.616534 
L 116.72702 -56.272216 
L 116.730129 -54.927898 
L 116.736984 -53.58358 
L 116.745371 -52.239261 
L 116.751712 -50.894943 
L 116.752905 -49.550625 
z
" id="m5d4fbf10e0" style="stroke:#3d3d3d;stroke-width:1.5;"/>
    </defs>
    <g clip-path="url(#p4d81811f47)">
     <use style="fill:#3274a1;stroke:#3d3d3d;stroke-width:1.5;" x="0" xlink:href="#m5d4fbf10e0" y="210.427188"/>
    </g>
   </g>
   <g id="PolyCollection_2">
    <defs>
     <path d="M 256.654478 -31.438125 
L 255.776772 -31.438125 
L 255.737544 -32.965398 
L 255.728553 -34.49267 
L 255.742218 -36.019943 
L 255.765805 -37.547216 
L 255.787907 -39.074489 
L 255.802993 -40.601761 
L 255.811974 -42.129034 
L 255.819483 -43.656307 
L 255.830074 -45.18358 
L 255.845483 -46.710852 
L 255.864029 -48.238125 
L 255.882065 -49.765398 
L 255.896422 -51.29267 
L 255.90639 -52.819943 
L 255.914095 -54.347216 
L 255.923112 -55.874489 
L 255.936238 -57.401761 
L 255.953869 -58.929034 
L 255.973934 -60.456307 
L 255.993302 -61.98358 
L 256.00959 -63.510852 
L 256.022165 -65.038125 
L 256.031829 -66.565398 
L 256.039705 -68.09267 
L 256.046321 -69.619943 
L 256.051542 -71.147216 
L 256.055143 -72.674489 
L 256.057307 -74.201761 
L 256.058495 -75.729034 
L 256.058826 -77.256307 
L 256.057569 -78.78358 
L 256.053254 -80.310852 
L 256.044376 -81.838125 
L 256.030207 -83.365398 
L 256.011273 -84.89267 
L 255.989342 -86.419943 
L 255.967059 -87.947216 
L 255.947408 -89.474489 
L 255.933099 -91.001761 
L 255.926 -92.529034 
L 255.926791 -94.056307 
L 255.935027 -95.58358 
L 255.949551 -97.110852 
L 255.968939 -98.638125 
L 255.991653 -100.165398 
L 256.015899 -101.69267 
L 256.03955 -103.219943 
L 256.060441 -104.747216 
L 256.076946 -106.274489 
L 256.088371 -107.801761 
L 256.094837 -109.329034 
L 256.096781 -110.856307 
L 256.094483 -112.38358 
L 256.087854 -113.910852 
L 256.076453 -115.438125 
L 256.059594 -116.965398 
L 256.036617 -118.49267 
L 256.007498 -120.019943 
L 255.973603 -121.547216 
L 255.938004 -123.074489 
L 255.904749 -124.601761 
L 255.87722 -126.129034 
L 255.856526 -127.656307 
L 255.841074 -129.18358 
L 255.827644 -130.710852 
L 255.813243 -132.238125 
L 255.796572 -133.765398 
L 255.778365 -135.29267 
L 255.760701 -136.819943 
L 255.745867 -138.347216 
L 255.735322 -139.874489 
L 255.72898 -141.401761 
L 255.724839 -142.929034 
L 255.718971 -144.456307 
L 255.706067 -145.98358 
L 255.680783 -147.510852 
L 255.639834 -149.038125 
L 255.584196 -150.565398 
L 255.520234 -152.09267 
L 255.45867 -153.619943 
L 255.411284 -155.147216 
L 255.386578 -156.674489 
L 255.386456 -158.201761 
L 255.405571 -159.729034 
L 255.433427 -161.256307 
L 255.457304 -162.78358 
L 255.462197 -164.310852 
L 255.42226 -165.838125 
L 255.276961 -167.365398 
L 254.887016 -168.89267 
L 253.976189 -170.419943 
L 252.091203 -171.947216 
L 248.645321 -173.474489 
L 243.118123 -175.001761 
L 235.416339 -176.529034 
L 226.252232 -178.056307 
L 217.261116 -179.58358 
L 210.621002 -181.110852 
L 208.224561 -182.638125 
L 304.206689 -182.638125 
L 304.206689 -182.638125 
L 301.810248 -181.110852 
L 295.170134 -179.58358 
L 286.179018 -178.056307 
L 277.014911 -176.529034 
L 269.313127 -175.001761 
L 263.785929 -173.474489 
L 260.340047 -171.947216 
L 258.455061 -170.419943 
L 257.544234 -168.89267 
L 257.154289 -167.365398 
L 257.00899 -165.838125 
L 256.969053 -164.310852 
L 256.973946 -162.78358 
L 256.997823 -161.256307 
L 257.025679 -159.729034 
L 257.044794 -158.201761 
L 257.044672 -156.674489 
L 257.019966 -155.147216 
L 256.97258 -153.619943 
L 256.911016 -152.09267 
L 256.847054 -150.565398 
L 256.791416 -149.038125 
L 256.750467 -147.510852 
L 256.725183 -145.98358 
L 256.712279 -144.456307 
L 256.706411 -142.929034 
L 256.70227 -141.401761 
L 256.695928 -139.874489 
L 256.685383 -138.347216 
L 256.670549 -136.819943 
L 256.652885 -135.29267 
L 256.634678 -133.765398 
L 256.618007 -132.238125 
L 256.603606 -130.710852 
L 256.590176 -129.18358 
L 256.574724 -127.656307 
L 256.55403 -126.129034 
L 256.526501 -124.601761 
L 256.493246 -123.074489 
L 256.457647 -121.547216 
L 256.423752 -120.019943 
L 256.394633 -118.49267 
L 256.371656 -116.965398 
L 256.354797 -115.438125 
L 256.343396 -113.910852 
L 256.336767 -112.38358 
L 256.334469 -110.856307 
L 256.336413 -109.329034 
L 256.342879 -107.801761 
L 256.354304 -106.274489 
L 256.370809 -104.747216 
L 256.3917 -103.219943 
L 256.415351 -101.69267 
L 256.439597 -100.165398 
L 256.462311 -98.638125 
L 256.481699 -97.110852 
L 256.496223 -95.58358 
L 256.504459 -94.056307 
L 256.50525 -92.529034 
L 256.498151 -91.001761 
L 256.483842 -89.474489 
L 256.464191 -87.947216 
L 256.441908 -86.419943 
L 256.419977 -84.89267 
L 256.401043 -83.365398 
L 256.386874 -81.838125 
L 256.377996 -80.310852 
L 256.373681 -78.78358 
L 256.372424 -77.256307 
L 256.372755 -75.729034 
L 256.373943 -74.201761 
L 256.376107 -72.674489 
L 256.379708 -71.147216 
L 256.384929 -69.619943 
L 256.391545 -68.09267 
L 256.399421 -66.565398 
L 256.409085 -65.038125 
L 256.42166 -63.510852 
L 256.437948 -61.98358 
L 256.457316 -60.456307 
L 256.477381 -58.929034 
L 256.495012 -57.401761 
L 256.508138 -55.874489 
L 256.517155 -54.347216 
L 256.52486 -52.819943 
L 256.534828 -51.29267 
L 256.549185 -49.765398 
L 256.567221 -48.238125 
L 256.585767 -46.710852 
L 256.601176 -45.18358 
L 256.611767 -43.656307 
L 256.619276 -42.129034 
L 256.628257 -40.601761 
L 256.643343 -39.074489 
L 256.665445 -37.547216 
L 256.689032 -36.019943 
L 256.702697 -34.49267 
L 256.693706 -32.965398 
L 256.654478 -31.438125 
z
" id="m8de22ff96f" style="stroke:#3d3d3d;stroke-width:1.5;"/>
    </defs>
    <g clip-path="url(#p4d81811f47)">
     <use style="fill:#e1812c;stroke:#3d3d3d;stroke-width:1.5;" x="0" xlink:href="#m8de22ff96f" y="210.427188"/>
    </g>
   </g>
   <g id="PolyCollection_3">
    <defs>
     <path d="M 397.718478 -31.438125 
L 393.712772 -31.438125 
L 393.618023 -32.965398 
L 393.581217 -34.49267 
L 393.602684 -36.019943 
L 393.67728 -37.547216 
L 393.795413 -39.074489 
L 393.944704 -40.601761 
L 394.11191 -42.129034 
L 394.284715 -43.656307 
L 394.453047 -45.18358 
L 394.609774 -46.710852 
L 394.750754 -48.238125 
L 394.874397 -49.765398 
L 394.980939 -51.29267 
L 395.071667 -52.819943 
L 395.148263 -54.347216 
L 395.21237 -55.874489 
L 395.265397 -57.401761 
L 395.308511 -58.929034 
L 395.342741 -60.456307 
L 395.369113 -61.98358 
L 395.388755 -63.510852 
L 395.402931 -65.038125 
L 395.413011 -66.565398 
L 395.420381 -68.09267 
L 395.426337 -69.619943 
L 395.431972 -71.147216 
L 395.438098 -72.674489 
L 395.445206 -74.201761 
L 395.453464 -75.729034 
L 395.462762 -77.256307 
L 395.472771 -78.78358 
L 395.483017 -80.310852 
L 395.492955 -81.838125 
L 395.502023 -83.365398 
L 395.509687 -84.89267 
L 395.515463 -86.419943 
L 395.518928 -87.947216 
L 395.519736 -89.474489 
L 395.517625 -91.001761 
L 395.51244 -92.529034 
L 395.504157 -94.056307 
L 395.492913 -95.58358 
L 395.479011 -97.110852 
L 395.462919 -98.638125 
L 395.445224 -100.165398 
L 395.426573 -101.69267 
L 395.407583 -103.219943 
L 395.388753 -104.747216 
L 395.370395 -106.274489 
L 395.352598 -107.801761 
L 395.33524 -109.329034 
L 395.318038 -110.856307 
L 395.300641 -112.38358 
L 395.282718 -113.910852 
L 395.264043 -115.438125 
L 395.244547 -116.965398 
L 395.224331 -118.49267 
L 395.203632 -120.019943 
L 395.182778 -121.547216 
L 395.162126 -123.074489 
L 395.141998 -124.601761 
L 395.122651 -126.129034 
L 395.104249 -127.656307 
L 395.086861 -129.18358 
L 395.07047 -130.710852 
L 395.054986 -132.238125 
L 395.04026 -133.765398 
L 395.026099 -135.29267 
L 395.012276 -136.819943 
L 394.998546 -138.347216 
L 394.98465 -139.874489 
L 394.970326 -141.401761 
L 394.955309 -142.929034 
L 394.939317 -144.456307 
L 394.922014 -145.98358 
L 394.902933 -147.510852 
L 394.881307 -149.038125 
L 394.855768 -150.565398 
L 394.823842 -152.09267 
L 394.781138 -153.619943 
L 394.72019 -155.147216 
L 394.628913 -156.674489 
L 394.488793 -158.201761 
L 394.273063 -159.729034 
L 393.945384 -161.256307 
L 393.459741 -162.78358 
L 392.762426 -164.310852 
L 391.796898 -165.838125 
L 390.511957 -167.365398 
L 388.872926 -168.89267 
L 386.874519 -170.419943 
L 384.553035 -171.947216 
L 381.994723 -173.474489 
L 379.337093 -175.001761 
L 376.760852 -176.529034 
L 374.47193 -178.056307 
L 372.675544 -179.58358 
L 371.546592 -181.110852 
L 371.202204 -182.638125 
L 420.229046 -182.638125 
L 420.229046 -182.638125 
L 419.884658 -181.110852 
L 418.755706 -179.58358 
L 416.95932 -178.056307 
L 414.670398 -176.529034 
L 412.094157 -175.001761 
L 409.436527 -173.474489 
L 406.878215 -171.947216 
L 404.556731 -170.419943 
L 402.558324 -168.89267 
L 400.919293 -167.365398 
L 399.634352 -165.838125 
L 398.668824 -164.310852 
L 397.971509 -162.78358 
L 397.485866 -161.256307 
L 397.158187 -159.729034 
L 396.942457 -158.201761 
L 396.802337 -156.674489 
L 396.71106 -155.147216 
L 396.650112 -153.619943 
L 396.607408 -152.09267 
L 396.575482 -150.565398 
L 396.549943 -149.038125 
L 396.528317 -147.510852 
L 396.509236 -145.98358 
L 396.491933 -144.456307 
L 396.475941 -142.929034 
L 396.460924 -141.401761 
L 396.4466 -139.874489 
L 396.432704 -138.347216 
L 396.418974 -136.819943 
L 396.405151 -135.29267 
L 396.39099 -133.765398 
L 396.376264 -132.238125 
L 396.36078 -130.710852 
L 396.344389 -129.18358 
L 396.327001 -127.656307 
L 396.308599 -126.129034 
L 396.289252 -124.601761 
L 396.269124 -123.074489 
L 396.248472 -121.547216 
L 396.227618 -120.019943 
L 396.206919 -118.49267 
L 396.186703 -116.965398 
L 396.167207 -115.438125 
L 396.148532 -113.910852 
L 396.130609 -112.38358 
L 396.113212 -110.856307 
L 396.09601 -109.329034 
L 396.078652 -107.801761 
L 396.060855 -106.274489 
L 396.042497 -104.747216 
L 396.023667 -103.219943 
L 396.004677 -101.69267 
L 395.986026 -100.165398 
L 395.968331 -98.638125 
L 395.952239 -97.110852 
L 395.938337 -95.58358 
L 395.927093 -94.056307 
L 395.91881 -92.529034 
L 395.913625 -91.001761 
L 395.911514 -89.474489 
L 395.912322 -87.947216 
L 395.915787 -86.419943 
L 395.921563 -84.89267 
L 395.929227 -83.365398 
L 395.938295 -81.838125 
L 395.948233 -80.310852 
L 395.958479 -78.78358 
L 395.968488 -77.256307 
L 395.977786 -75.729034 
L 395.986044 -74.201761 
L 395.993152 -72.674489 
L 395.999278 -71.147216 
L 396.004913 -69.619943 
L 396.010869 -68.09267 
L 396.018239 -66.565398 
L 396.028319 -65.038125 
L 396.042495 -63.510852 
L 396.062137 -61.98358 
L 396.088509 -60.456307 
L 396.122739 -58.929034 
L 396.165853 -57.401761 
L 396.21888 -55.874489 
L 396.282987 -54.347216 
L 396.359583 -52.819943 
L 396.450311 -51.29267 
L 396.556853 -49.765398 
L 396.680496 -48.238125 
L 396.821476 -46.710852 
L 396.978203 -45.18358 
L 397.146535 -43.656307 
L 397.31934 -42.129034 
L 397.486546 -40.601761 
L 397.635837 -39.074489 
L 397.75397 -37.547216 
L 397.828566 -36.019943 
L 397.850033 -34.49267 
L 397.813227 -32.965398 
L 397.718478 -31.438125 
z
" id="m16e8832eb7" style="stroke:#3d3d3d;stroke-width:1.5;"/>
    </defs>
    <g clip-path="url(#p4d81811f47)">
     <use style="fill:#3a923a;stroke:#3d3d3d;stroke-width:1.5;" x="0" xlink:href="#m16e8832eb7" y="210.427188"/>
    </g>
   </g>
   <g id="matplotlib.axis_1">
    <g id="xtick_1">
     <g id="line2d_1">
      <defs>
       <path d="M 0 0 
L 0 3.5 
" id="mce12dc1387" style="stroke:#000000;stroke-width:0.8;"/>
      </defs>
      <g>
       <use style="stroke:#000000;stroke-width:0.8;" x="116.715625" xlink:href="#mce12dc1387" y="186.549063"/>
      </g>
     </g>
     <g id="text_1">
      <!-- train: real  / HP: vary -->
      <defs>
       <path d="M 18.3125 70.21875 
L 18.3125 54.6875 
L 36.8125 54.6875 
L 36.8125 47.703125 
L 18.3125 47.703125 
L 18.3125 18.015625 
Q 18.3125 11.328125 20.140625 9.421875 
Q 21.96875 7.515625 27.59375 7.515625 
L 36.8125 7.515625 
L 36.8125 0 
L 27.59375 0 
Q 17.1875 0 13.234375 3.875 
Q 9.28125 7.765625 9.28125 18.015625 
L 9.28125 47.703125 
L 2.6875 47.703125 
L 2.6875 54.6875 
L 9.28125 54.6875 
L 9.28125 70.21875 
z
" id="DejaVuSans-116"/>
       <path d="M 41.109375 46.296875 
Q 39.59375 47.171875 37.8125 47.578125 
Q 36.03125 48 33.890625 48 
Q 26.265625 48 22.1875 43.046875 
Q 18.109375 38.09375 18.109375 28.8125 
L 18.109375 0 
L 9.078125 0 
L 9.078125 54.6875 
L 18.109375 54.6875 
L 18.109375 46.1875 
Q 20.953125 51.171875 25.484375 53.578125 
Q 30.03125 56 36.53125 56 
Q 37.453125 56 38.578125 55.875 
Q 39.703125 55.765625 41.0625 55.515625 
z
" id="DejaVuSans-114"/>
       <path d="M 34.28125 27.484375 
Q 23.390625 27.484375 19.1875 25 
Q 14.984375 22.515625 14.984375 16.5 
Q 14.984375 11.71875 18.140625 8.90625 
Q 21.296875 6.109375 26.703125 6.109375 
Q 34.1875 6.109375 38.703125 11.40625 
Q 43.21875 16.703125 43.21875 25.484375 
L 43.21875 27.484375 
z
M 52.203125 31.203125 
L 52.203125 0 
L 43.21875 0 
L 43.21875 8.296875 
Q 40.140625 3.328125 35.546875 0.953125 
Q 30.953125 -1.421875 24.3125 -1.421875 
Q 15.921875 -1.421875 10.953125 3.296875 
Q 6 8.015625 6 15.921875 
Q 6 25.140625 12.171875 29.828125 
Q 18.359375 34.515625 30.609375 34.515625 
L 43.21875 34.515625 
L 43.21875 35.40625 
Q 43.21875 41.609375 39.140625 45 
Q 35.0625 48.390625 27.6875 48.390625 
Q 23 48.390625 18.546875 47.265625 
Q 14.109375 46.140625 10.015625 43.890625 
L 10.015625 52.203125 
Q 14.9375 54.109375 19.578125 55.046875 
Q 24.21875 56 28.609375 56 
Q 40.484375 56 46.34375 49.84375 
Q 52.203125 43.703125 52.203125 31.203125 
z
" id="DejaVuSans-97"/>
       <path d="M 9.421875 54.6875 
L 18.40625 54.6875 
L 18.40625 0 
L 9.421875 0 
z
M 9.421875 75.984375 
L 18.40625 75.984375 
L 18.40625 64.59375 
L 9.421875 64.59375 
z
" id="DejaVuSans-105"/>
       <path d="M 54.890625 33.015625 
L 54.890625 0 
L 45.90625 0 
L 45.90625 32.71875 
Q 45.90625 40.484375 42.875 44.328125 
Q 39.84375 48.1875 33.796875 48.1875 
Q 26.515625 48.1875 22.3125 43.546875 
Q 18.109375 38.921875 18.109375 30.90625 
L 18.109375 0 
L 9.078125 0 
L 9.078125 54.6875 
L 18.109375 54.6875 
L 18.109375 46.1875 
Q 21.34375 51.125 25.703125 53.5625 
Q 30.078125 56 35.796875 56 
Q 45.21875 56 50.046875 50.171875 
Q 54.890625 44.34375 54.890625 33.015625 
z
" id="DejaVuSans-110"/>
       <path d="M 11.71875 12.40625 
L 22.015625 12.40625 
L 22.015625 0 
L 11.71875 0 
z
M 11.71875 51.703125 
L 22.015625 51.703125 
L 22.015625 39.3125 
L 11.71875 39.3125 
z
" id="DejaVuSans-58"/>
       <path id="DejaVuSans-32"/>
       <path d="M 56.203125 29.59375 
L 56.203125 25.203125 
L 14.890625 25.203125 
Q 15.484375 15.921875 20.484375 11.0625 
Q 25.484375 6.203125 34.421875 6.203125 
Q 39.59375 6.203125 44.453125 7.46875 
Q 49.3125 8.734375 54.109375 11.28125 
L 54.109375 2.78125 
Q 49.265625 0.734375 44.1875 -0.34375 
Q 39.109375 -1.421875 33.890625 -1.421875 
Q 20.796875 -1.421875 13.15625 6.1875 
Q 5.515625 13.8125 5.515625 26.8125 
Q 5.515625 40.234375 12.765625 48.109375 
Q 20.015625 56 32.328125 56 
Q 43.359375 56 49.78125 48.890625 
Q 56.203125 41.796875 56.203125 29.59375 
z
M 47.21875 32.234375 
Q 47.125 39.59375 43.09375 43.984375 
Q 39.0625 48.390625 32.421875 48.390625 
Q 24.90625 48.390625 20.390625 44.140625 
Q 15.875 39.890625 15.1875 32.171875 
z
" id="DejaVuSans-101"/>
       <path d="M 9.421875 75.984375 
L 18.40625 75.984375 
L 18.40625 0 
L 9.421875 0 
z
" id="DejaVuSans-108"/>
       <path d="M 25.390625 72.90625 
L 33.6875 72.90625 
L 8.296875 -9.28125 
L 0 -9.28125 
z
" id="DejaVuSans-47"/>
       <path d="M 9.8125 72.90625 
L 19.671875 72.90625 
L 19.671875 43.015625 
L 55.515625 43.015625 
L 55.515625 72.90625 
L 65.375 72.90625 
L 65.375 0 
L 55.515625 0 
L 55.515625 34.71875 
L 19.671875 34.71875 
L 19.671875 0 
L 9.8125 0 
z
" id="DejaVuSans-72"/>
       <path d="M 19.671875 64.796875 
L 19.671875 37.40625 
L 32.078125 37.40625 
Q 38.96875 37.40625 42.71875 40.96875 
Q 46.484375 44.53125 46.484375 51.125 
Q 46.484375 57.671875 42.71875 61.234375 
Q 38.96875 64.796875 32.078125 64.796875 
z
M 9.8125 72.90625 
L 32.078125 72.90625 
Q 44.34375 72.90625 50.609375 67.359375 
Q 56.890625 61.8125 56.890625 51.125 
Q 56.890625 40.328125 50.609375 34.8125 
Q 44.34375 29.296875 32.078125 29.296875 
L 19.671875 29.296875 
L 19.671875 0 
L 9.8125 0 
z
" id="DejaVuSans-80"/>
       <path d="M 2.984375 54.6875 
L 12.5 54.6875 
L 29.59375 8.796875 
L 46.6875 54.6875 
L 56.203125 54.6875 
L 35.6875 0 
L 23.484375 0 
z
" id="DejaVuSans-118"/>
       <path d="M 32.171875 -5.078125 
Q 28.375 -14.84375 24.75 -17.8125 
Q 21.140625 -20.796875 15.09375 -20.796875 
L 7.90625 -20.796875 
L 7.90625 -13.28125 
L 13.1875 -13.28125 
Q 16.890625 -13.28125 18.9375 -11.515625 
Q 21 -9.765625 23.484375 -3.21875 
L 25.09375 0.875 
L 2.984375 54.6875 
L 12.5 54.6875 
L 29.59375 11.921875 
L 46.6875 54.6875 
L 56.203125 54.6875 
z
" id="DejaVuSans-121"/>
      </defs>
      <g transform="translate(64.79375 201.1475)scale(0.1 -0.1)">
       <use xlink:href="#DejaVuSans-116"/>
       <use x="39.208984" xlink:href="#DejaVuSans-114"/>
       <use x="80.322266" xlink:href="#DejaVuSans-97"/>
       <use x="141.601562" xlink:href="#DejaVuSans-105"/>
       <use x="169.384766" xlink:href="#DejaVuSans-110"/>
       <use x="232.763672" xlink:href="#DejaVuSans-58"/>
       <use x="266.455078" xlink:href="#DejaVuSans-32"/>
       <use x="298.242188" xlink:href="#DejaVuSans-114"/>
       <use x="337.105469" xlink:href="#DejaVuSans-101"/>
       <use x="398.628906" xlink:href="#DejaVuSans-97"/>
       <use x="459.908203" xlink:href="#DejaVuSans-108"/>
       <use x="487.691406" xlink:href="#DejaVuSans-32"/>
       <use x="519.478516" xlink:href="#DejaVuSans-32"/>
       <use x="551.265625" xlink:href="#DejaVuSans-47"/>
       <use x="584.957031" xlink:href="#DejaVuSans-32"/>
       <use x="616.744141" xlink:href="#DejaVuSans-72"/>
       <use x="691.939453" xlink:href="#DejaVuSans-80"/>
       <use x="752.242188" xlink:href="#DejaVuSans-58"/>
       <use x="785.933594" xlink:href="#DejaVuSans-32"/>
       <use x="817.720703" xlink:href="#DejaVuSans-118"/>
       <use x="876.900391" xlink:href="#DejaVuSans-97"/>
       <use x="938.179688" xlink:href="#DejaVuSans-114"/>
       <use x="979.292969" xlink:href="#DejaVuSans-121"/>
      </g>
     </g>
    </g>
    <g id="xtick_2">
     <g id="line2d_2">
      <g>
       <use style="stroke:#000000;stroke-width:0.8;" x="256.215625" xlink:href="#mce12dc1387" y="186.549063"/>
      </g>
     </g>
     <g id="text_2">
      <!-- train: synth. / HP: vary -->
      <defs>
       <path d="M 44.28125 53.078125 
L 44.28125 44.578125 
Q 40.484375 46.53125 36.375 47.5 
Q 32.28125 48.484375 27.875 48.484375 
Q 21.1875 48.484375 17.84375 46.4375 
Q 14.5 44.390625 14.5 40.28125 
Q 14.5 37.15625 16.890625 35.375 
Q 19.28125 33.59375 26.515625 31.984375 
L 29.59375 31.296875 
Q 39.15625 29.25 43.1875 25.515625 
Q 47.21875 21.78125 47.21875 15.09375 
Q 47.21875 7.46875 41.1875 3.015625 
Q 35.15625 -1.421875 24.609375 -1.421875 
Q 20.21875 -1.421875 15.453125 -0.5625 
Q 10.6875 0.296875 5.421875 2 
L 5.421875 11.28125 
Q 10.40625 8.6875 15.234375 7.390625 
Q 20.0625 6.109375 24.8125 6.109375 
Q 31.15625 6.109375 34.5625 8.28125 
Q 37.984375 10.453125 37.984375 14.40625 
Q 37.984375 18.0625 35.515625 20.015625 
Q 33.0625 21.96875 24.703125 23.78125 
L 21.578125 24.515625 
Q 13.234375 26.265625 9.515625 29.90625 
Q 5.8125 33.546875 5.8125 39.890625 
Q 5.8125 47.609375 11.28125 51.796875 
Q 16.75 56 26.8125 56 
Q 31.78125 56 36.171875 55.265625 
Q 40.578125 54.546875 44.28125 53.078125 
z
" id="DejaVuSans-115"/>
       <path d="M 54.890625 33.015625 
L 54.890625 0 
L 45.90625 0 
L 45.90625 32.71875 
Q 45.90625 40.484375 42.875 44.328125 
Q 39.84375 48.1875 33.796875 48.1875 
Q 26.515625 48.1875 22.3125 43.546875 
Q 18.109375 38.921875 18.109375 30.90625 
L 18.109375 0 
L 9.078125 0 
L 9.078125 75.984375 
L 18.109375 75.984375 
L 18.109375 46.1875 
Q 21.34375 51.125 25.703125 53.5625 
Q 30.078125 56 35.796875 56 
Q 45.21875 56 50.046875 50.171875 
Q 54.890625 44.34375 54.890625 33.015625 
z
" id="DejaVuSans-104"/>
       <path d="M 10.6875 12.40625 
L 21 12.40625 
L 21 0 
L 10.6875 0 
z
" id="DejaVuSans-46"/>
      </defs>
      <g transform="translate(199.904688 201.1475)scale(0.1 -0.1)">
       <use xlink:href="#DejaVuSans-116"/>
       <use x="39.208984" xlink:href="#DejaVuSans-114"/>
       <use x="80.322266" xlink:href="#DejaVuSans-97"/>
       <use x="141.601562" xlink:href="#DejaVuSans-105"/>
       <use x="169.384766" xlink:href="#DejaVuSans-110"/>
       <use x="232.763672" xlink:href="#DejaVuSans-58"/>
       <use x="266.455078" xlink:href="#DejaVuSans-32"/>
       <use x="298.242188" xlink:href="#DejaVuSans-115"/>
       <use x="350.341797" xlink:href="#DejaVuSans-121"/>
       <use x="409.521484" xlink:href="#DejaVuSans-110"/>
       <use x="472.900391" xlink:href="#DejaVuSans-116"/>
       <use x="512.109375" xlink:href="#DejaVuSans-104"/>
       <use x="575.488281" xlink:href="#DejaVuSans-46"/>
       <use x="607.275391" xlink:href="#DejaVuSans-32"/>
       <use x="639.0625" xlink:href="#DejaVuSans-47"/>
       <use x="672.753906" xlink:href="#DejaVuSans-32"/>
       <use x="704.541016" xlink:href="#DejaVuSans-72"/>
       <use x="779.736328" xlink:href="#DejaVuSans-80"/>
       <use x="840.039062" xlink:href="#DejaVuSans-58"/>
       <use x="873.730469" xlink:href="#DejaVuSans-32"/>
       <use x="905.517578" xlink:href="#DejaVuSans-118"/>
       <use x="964.697266" xlink:href="#DejaVuSans-97"/>
       <use x="1025.976562" xlink:href="#DejaVuSans-114"/>
       <use x="1067.089844" xlink:href="#DejaVuSans-121"/>
      </g>
     </g>
    </g>
    <g id="xtick_3">
     <g id="line2d_3">
      <g>
       <use style="stroke:#000000;stroke-width:0.8;" x="395.715625" xlink:href="#mce12dc1387" y="186.549063"/>
      </g>
     </g>
     <g id="text_3">
      <!-- train: synth. / HP: no vary -->
      <defs>
       <path d="M 30.609375 48.390625 
Q 23.390625 48.390625 19.1875 42.75 
Q 14.984375 37.109375 14.984375 27.296875 
Q 14.984375 17.484375 19.15625 11.84375 
Q 23.34375 6.203125 30.609375 6.203125 
Q 37.796875 6.203125 41.984375 11.859375 
Q 46.1875 17.53125 46.1875 27.296875 
Q 46.1875 37.015625 41.984375 42.703125 
Q 37.796875 48.390625 30.609375 48.390625 
z
M 30.609375 56 
Q 42.328125 56 49.015625 48.375 
Q 55.71875 40.765625 55.71875 27.296875 
Q 55.71875 13.875 49.015625 6.21875 
Q 42.328125 -1.421875 30.609375 -1.421875 
Q 18.84375 -1.421875 12.171875 6.21875 
Q 5.515625 13.875 5.515625 27.296875 
Q 5.515625 40.765625 12.171875 48.375 
Q 18.84375 56 30.609375 56 
z
" id="DejaVuSans-111"/>
      </defs>
      <g transform="translate(331.5875 201.1475)scale(0.1 -0.1)">
       <use xlink:href="#DejaVuSans-116"/>
       <use x="39.208984" xlink:href="#DejaVuSans-114"/>
       <use x="80.322266" xlink:href="#DejaVuSans-97"/>
       <use x="141.601562" xlink:href="#DejaVuSans-105"/>
       <use x="169.384766" xlink:href="#DejaVuSans-110"/>
       <use x="232.763672" xlink:href="#DejaVuSans-58"/>
       <use x="266.455078" xlink:href="#DejaVuSans-32"/>
       <use x="298.242188" xlink:href="#DejaVuSans-115"/>
       <use x="350.341797" xlink:href="#DejaVuSans-121"/>
       <use x="409.521484" xlink:href="#DejaVuSans-110"/>
       <use x="472.900391" xlink:href="#DejaVuSans-116"/>
       <use x="512.109375" xlink:href="#DejaVuSans-104"/>
       <use x="575.488281" xlink:href="#DejaVuSans-46"/>
       <use x="607.275391" xlink:href="#DejaVuSans-32"/>
       <use x="639.0625" xlink:href="#DejaVuSans-47"/>
       <use x="672.753906" xlink:href="#DejaVuSans-32"/>
       <use x="704.541016" xlink:href="#DejaVuSans-72"/>
       <use x="779.736328" xlink:href="#DejaVuSans-80"/>
       <use x="840.039062" xlink:href="#DejaVuSans-58"/>
       <use x="873.730469" xlink:href="#DejaVuSans-32"/>
       <use x="905.517578" xlink:href="#DejaVuSans-110"/>
       <use x="968.896484" xlink:href="#DejaVuSans-111"/>
       <use x="1030.078125" xlink:href="#DejaVuSans-32"/>
       <use x="1061.865234" xlink:href="#DejaVuSans-118"/>
       <use x="1121.044922" xlink:href="#DejaVuSans-97"/>
       <use x="1182.324219" xlink:href="#DejaVuSans-114"/>
       <use x="1223.4375" xlink:href="#DejaVuSans-121"/>
      </g>
     </g>
    </g>
   </g>
   <g id="matplotlib.axis_2">
    <g id="ytick_1">
     <g id="line2d_4">
      <defs>
       <path d="M 0 0 
L -3.5 0 
" id="mf8287d3e91" style="stroke:#000000;stroke-width:0.8;"/>
      </defs>
      <g>
       <use style="stroke:#000000;stroke-width:0.8;" x="46.965625" xlink:href="#mf8287d3e91" y="185.289063"/>
      </g>
     </g>
     <g id="text_4">
      <!-- 0 -->
      <defs>
       <path d="M 31.78125 66.40625 
Q 24.171875 66.40625 20.328125 58.90625 
Q 16.5 51.421875 16.5 36.375 
Q 16.5 21.390625 20.328125 13.890625 
Q 24.171875 6.390625 31.78125 6.390625 
Q 39.453125 6.390625 43.28125 13.890625 
Q 47.125 21.390625 47.125 36.375 
Q 47.125 51.421875 43.28125 58.90625 
Q 39.453125 66.40625 31.78125 66.40625 
z
M 31.78125 74.21875 
Q 44.046875 74.21875 50.515625 64.515625 
Q 56.984375 54.828125 56.984375 36.375 
Q 56.984375 17.96875 50.515625 8.265625 
Q 44.046875 -1.421875 31.78125 -1.421875 
Q 19.53125 -1.421875 13.0625 8.265625 
Q 6.59375 17.96875 6.59375 36.375 
Q 6.59375 54.828125 13.0625 64.515625 
Q 19.53125 74.21875 31.78125 74.21875 
z
" id="DejaVuSans-48"/>
      </defs>
      <g transform="translate(33.603125 189.088281)scale(0.1 -0.1)">
       <use xlink:href="#DejaVuSans-48"/>
      </g>
     </g>
    </g>
    <g id="ytick_2">
     <g id="line2d_5">
      <g>
       <use style="stroke:#000000;stroke-width:0.8;" x="46.965625" xlink:href="#mf8287d3e91" y="145.914063"/>
      </g>
     </g>
     <g id="text_5">
      <!-- 50 -->
      <defs>
       <path d="M 10.796875 72.90625 
L 49.515625 72.90625 
L 49.515625 64.59375 
L 19.828125 64.59375 
L 19.828125 46.734375 
Q 21.96875 47.46875 24.109375 47.828125 
Q 26.265625 48.1875 28.421875 48.1875 
Q 40.625 48.1875 47.75 41.5 
Q 54.890625 34.8125 54.890625 23.390625 
Q 54.890625 11.625 47.5625 5.09375 
Q 40.234375 -1.421875 26.90625 -1.421875 
Q 22.3125 -1.421875 17.546875 -0.640625 
Q 12.796875 0.140625 7.71875 1.703125 
L 7.71875 11.625 
Q 12.109375 9.234375 16.796875 8.0625 
Q 21.484375 6.890625 26.703125 6.890625 
Q 35.15625 6.890625 40.078125 11.328125 
Q 45.015625 15.765625 45.015625 23.390625 
Q 45.015625 31 40.078125 35.4375 
Q 35.15625 39.890625 26.703125 39.890625 
Q 22.75 39.890625 18.8125 39.015625 
Q 14.890625 38.140625 10.796875 36.28125 
z
" id="DejaVuSans-53"/>
      </defs>
      <g transform="translate(27.240625 149.713281)scale(0.1 -0.1)">
       <use xlink:href="#DejaVuSans-53"/>
       <use x="63.623047" xlink:href="#DejaVuSans-48"/>
      </g>
     </g>
    </g>
    <g id="ytick_3">
     <g id="line2d_6">
      <g>
       <use style="stroke:#000000;stroke-width:0.8;" x="46.965625" xlink:href="#mf8287d3e91" y="106.539063"/>
      </g>
     </g>
     <g id="text_6">
      <!-- 100 -->
      <defs>
       <path d="M 12.40625 8.296875 
L 28.515625 8.296875 
L 28.515625 63.921875 
L 10.984375 60.40625 
L 10.984375 69.390625 
L 28.421875 72.90625 
L 38.28125 72.90625 
L 38.28125 8.296875 
L 54.390625 8.296875 
L 54.390625 0 
L 12.40625 0 
z
" id="DejaVuSans-49"/>
      </defs>
      <g transform="translate(20.878125 110.338281)scale(0.1 -0.1)">
       <use xlink:href="#DejaVuSans-49"/>
       <use x="63.623047" xlink:href="#DejaVuSans-48"/>
       <use x="127.246094" xlink:href="#DejaVuSans-48"/>
      </g>
     </g>
    </g>
    <g id="ytick_4">
     <g id="line2d_7">
      <g>
       <use style="stroke:#000000;stroke-width:0.8;" x="46.965625" xlink:href="#mf8287d3e91" y="67.164063"/>
      </g>
     </g>
     <g id="text_7">
      <!-- 150 -->
      <g transform="translate(20.878125 70.963281)scale(0.1 -0.1)">
       <use xlink:href="#DejaVuSans-49"/>
       <use x="63.623047" xlink:href="#DejaVuSans-53"/>
       <use x="127.246094" xlink:href="#DejaVuSans-48"/>
      </g>
     </g>
    </g>
    <g id="ytick_5">
     <g id="line2d_8">
      <g>
       <use style="stroke:#000000;stroke-width:0.8;" x="46.965625" xlink:href="#mf8287d3e91" y="27.789063"/>
      </g>
     </g>
     <g id="text_8">
      <!-- 200 -->
      <defs>
       <path d="M 19.1875 8.296875 
L 53.609375 8.296875 
L 53.609375 0 
L 7.328125 0 
L 7.328125 8.296875 
Q 12.9375 14.109375 22.625 23.890625 
Q 32.328125 33.6875 34.8125 36.53125 
Q 39.546875 41.84375 41.421875 45.53125 
Q 43.3125 49.21875 43.3125 52.78125 
Q 43.3125 58.59375 39.234375 62.25 
Q 35.15625 65.921875 28.609375 65.921875 
Q 23.96875 65.921875 18.8125 64.3125 
Q 13.671875 62.703125 7.8125 59.421875 
L 7.8125 69.390625 
Q 13.765625 71.78125 18.9375 73 
Q 24.125 74.21875 28.421875 74.21875 
Q 39.75 74.21875 46.484375 68.546875 
Q 53.21875 62.890625 53.21875 53.421875 
Q 53.21875 48.921875 51.53125 44.890625 
Q 49.859375 40.875 45.40625 35.40625 
Q 44.1875 33.984375 37.640625 27.21875 
Q 31.109375 20.453125 19.1875 8.296875 
z
" id="DejaVuSans-50"/>
      </defs>
      <g transform="translate(20.878125 31.588281)scale(0.1 -0.1)">
       <use xlink:href="#DejaVuSans-50"/>
       <use x="63.623047" xlink:href="#DejaVuSans-48"/>
       <use x="127.246094" xlink:href="#DejaVuSans-48"/>
      </g>
     </g>
    </g>
    <g id="text_9">
     <!-- cumulative reward -->
     <defs>
      <path d="M 48.78125 52.59375 
L 48.78125 44.1875 
Q 44.96875 46.296875 41.140625 47.34375 
Q 37.3125 48.390625 33.40625 48.390625 
Q 24.65625 48.390625 19.8125 42.84375 
Q 14.984375 37.3125 14.984375 27.296875 
Q 14.984375 17.28125 19.8125 11.734375 
Q 24.65625 6.203125 33.40625 6.203125 
Q 37.3125 6.203125 41.140625 7.25 
Q 44.96875 8.296875 48.78125 10.40625 
L 48.78125 2.09375 
Q 45.015625 0.34375 40.984375 -0.53125 
Q 36.96875 -1.421875 32.421875 -1.421875 
Q 20.0625 -1.421875 12.78125 6.34375 
Q 5.515625 14.109375 5.515625 27.296875 
Q 5.515625 40.671875 12.859375 48.328125 
Q 20.21875 56 33.015625 56 
Q 37.15625 56 41.109375 55.140625 
Q 45.0625 54.296875 48.78125 52.59375 
z
" id="DejaVuSans-99"/>
      <path d="M 8.5 21.578125 
L 8.5 54.6875 
L 17.484375 54.6875 
L 17.484375 21.921875 
Q 17.484375 14.15625 20.5 10.265625 
Q 23.53125 6.390625 29.59375 6.390625 
Q 36.859375 6.390625 41.078125 11.03125 
Q 45.3125 15.671875 45.3125 23.6875 
L 45.3125 54.6875 
L 54.296875 54.6875 
L 54.296875 0 
L 45.3125 0 
L 45.3125 8.40625 
Q 42.046875 3.421875 37.71875 1 
Q 33.40625 -1.421875 27.6875 -1.421875 
Q 18.265625 -1.421875 13.375 4.4375 
Q 8.5 10.296875 8.5 21.578125 
z
M 31.109375 56 
z
" id="DejaVuSans-117"/>
      <path d="M 52 44.1875 
Q 55.375 50.25 60.0625 53.125 
Q 64.75 56 71.09375 56 
Q 79.640625 56 84.28125 50.015625 
Q 88.921875 44.046875 88.921875 33.015625 
L 88.921875 0 
L 79.890625 0 
L 79.890625 32.71875 
Q 79.890625 40.578125 77.09375 44.375 
Q 74.3125 48.1875 68.609375 48.1875 
Q 61.625 48.1875 57.5625 43.546875 
Q 53.515625 38.921875 53.515625 30.90625 
L 53.515625 0 
L 44.484375 0 
L 44.484375 32.71875 
Q 44.484375 40.625 41.703125 44.40625 
Q 38.921875 48.1875 33.109375 48.1875 
Q 26.21875 48.1875 22.15625 43.53125 
Q 18.109375 38.875 18.109375 30.90625 
L 18.109375 0 
L 9.078125 0 
L 9.078125 54.6875 
L 18.109375 54.6875 
L 18.109375 46.1875 
Q 21.1875 51.21875 25.484375 53.609375 
Q 29.78125 56 35.6875 56 
Q 41.65625 56 45.828125 52.96875 
Q 50 49.953125 52 44.1875 
z
" id="DejaVuSans-109"/>
      <path d="M 4.203125 54.6875 
L 13.1875 54.6875 
L 24.421875 12.015625 
L 35.59375 54.6875 
L 46.1875 54.6875 
L 57.421875 12.015625 
L 68.609375 54.6875 
L 77.59375 54.6875 
L 63.28125 0 
L 52.6875 0 
L 40.921875 44.828125 
L 29.109375 0 
L 18.5 0 
z
" id="DejaVuSans-119"/>
      <path d="M 45.40625 46.390625 
L 45.40625 75.984375 
L 54.390625 75.984375 
L 54.390625 0 
L 45.40625 0 
L 45.40625 8.203125 
Q 42.578125 3.328125 38.25 0.953125 
Q 33.9375 -1.421875 27.875 -1.421875 
Q 17.96875 -1.421875 11.734375 6.484375 
Q 5.515625 14.40625 5.515625 27.296875 
Q 5.515625 40.1875 11.734375 48.09375 
Q 17.96875 56 27.875 56 
Q 33.9375 56 38.25 53.625 
Q 42.578125 51.265625 45.40625 46.390625 
z
M 14.796875 27.296875 
Q 14.796875 17.390625 18.875 11.75 
Q 22.953125 6.109375 30.078125 6.109375 
Q 37.203125 6.109375 41.296875 11.75 
Q 45.40625 17.390625 45.40625 27.296875 
Q 45.40625 37.203125 41.296875 42.84375 
Q 37.203125 48.484375 30.078125 48.484375 
Q 22.953125 48.484375 18.875 42.84375 
Q 14.796875 37.203125 14.796875 27.296875 
z
" id="DejaVuSans-100"/>
     </defs>
     <g transform="translate(14.798438 150.088281)rotate(-90)scale(0.1 -0.1)">
      <use xlink:href="#DejaVuSans-99"/>
      <use x="54.980469" xlink:href="#DejaVuSans-117"/>
      <use x="118.359375" xlink:href="#DejaVuSans-109"/>
      <use x="215.771484" xlink:href="#DejaVuSans-117"/>
      <use x="279.150391" xlink:href="#DejaVuSans-108"/>
      <use x="306.933594" xlink:href="#DejaVuSans-97"/>
      <use x="368.212891" xlink:href="#DejaVuSans-116"/>
      <use x="407.421875" xlink:href="#DejaVuSans-105"/>
      <use x="435.205078" xlink:href="#DejaVuSans-118"/>
      <use x="494.384766" xlink:href="#DejaVuSans-101"/>
      <use x="555.908203" xlink:href="#DejaVuSans-32"/>
      <use x="587.695312" xlink:href="#DejaVuSans-114"/>
      <use x="626.558594" xlink:href="#DejaVuSans-101"/>
      <use x="688.082031" xlink:href="#DejaVuSans-119"/>
      <use x="769.869141" xlink:href="#DejaVuSans-97"/>
      <use x="831.148438" xlink:href="#DejaVuSans-114"/>
      <use x="870.511719" xlink:href="#DejaVuSans-100"/>
     </g>
    </g>
   </g>
   <g id="patch_3">
    <path d="M 46.965625 186.549063 
L 46.965625 20.229063 
" style="fill:none;stroke:#000000;stroke-linecap:square;stroke-linejoin:miter;stroke-width:0.8;"/>
   </g>
   <g id="patch_4">
    <path d="M 465.465625 186.549063 
L 465.465625 20.229063 
" style="fill:none;stroke:#000000;stroke-linecap:square;stroke-linejoin:miter;stroke-width:0.8;"/>
   </g>
   <g id="patch_5">
    <path d="M 46.965625 186.549063 
L 465.465625 186.549063 
" style="fill:none;stroke:#000000;stroke-linecap:square;stroke-linejoin:miter;stroke-width:0.8;"/>
   </g>
   <g id="patch_6">
    <path d="M 46.965625 20.229063 
L 465.465625 20.229063 
" style="fill:none;stroke:#000000;stroke-linecap:square;stroke-linejoin:miter;stroke-width:0.8;"/>
   </g>
   <g id="text_10">
    <!-- mean: 189.926 -->
    <defs>
     <path d="M 31.78125 34.625 
Q 24.75 34.625 20.71875 30.859375 
Q 16.703125 27.09375 16.703125 20.515625 
Q 16.703125 13.921875 20.71875 10.15625 
Q 24.75 6.390625 31.78125 6.390625 
Q 38.8125 6.390625 42.859375 10.171875 
Q 46.921875 13.96875 46.921875 20.515625 
Q 46.921875 27.09375 42.890625 30.859375 
Q 38.875 34.625 31.78125 34.625 
z
M 21.921875 38.8125 
Q 15.578125 40.375 12.03125 44.71875 
Q 8.5 49.078125 8.5 55.328125 
Q 8.5 64.0625 14.71875 69.140625 
Q 20.953125 74.21875 31.78125 74.21875 
Q 42.671875 74.21875 48.875 69.140625 
Q 55.078125 64.0625 55.078125 55.328125 
Q 55.078125 49.078125 51.53125 44.71875 
Q 48 40.375 41.703125 38.8125 
Q 48.828125 37.15625 52.796875 32.3125 
Q 56.78125 27.484375 56.78125 20.515625 
Q 56.78125 9.90625 50.3125 4.234375 
Q 43.84375 -1.421875 31.78125 -1.421875 
Q 19.734375 -1.421875 13.25 4.234375 
Q 6.78125 9.90625 6.78125 20.515625 
Q 6.78125 27.484375 10.78125 32.3125 
Q 14.796875 37.15625 21.921875 38.8125 
z
M 18.3125 54.390625 
Q 18.3125 48.734375 21.84375 45.5625 
Q 25.390625 42.390625 31.78125 42.390625 
Q 38.140625 42.390625 41.71875 45.5625 
Q 45.3125 48.734375 45.3125 54.390625 
Q 45.3125 60.0625 41.71875 63.234375 
Q 38.140625 66.40625 31.78125 66.40625 
Q 25.390625 66.40625 21.84375 63.234375 
Q 18.3125 60.0625 18.3125 54.390625 
z
" id="DejaVuSans-56"/>
     <path d="M 10.984375 1.515625 
L 10.984375 10.5 
Q 14.703125 8.734375 18.5 7.8125 
Q 22.3125 6.890625 25.984375 6.890625 
Q 35.75 6.890625 40.890625 13.453125 
Q 46.046875 20.015625 46.78125 33.40625 
Q 43.953125 29.203125 39.59375 26.953125 
Q 35.25 24.703125 29.984375 24.703125 
Q 19.046875 24.703125 12.671875 31.3125 
Q 6.296875 37.9375 6.296875 49.421875 
Q 6.296875 60.640625 12.9375 67.421875 
Q 19.578125 74.21875 30.609375 74.21875 
Q 43.265625 74.21875 49.921875 64.515625 
Q 56.59375 54.828125 56.59375 36.375 
Q 56.59375 19.140625 48.40625 8.859375 
Q 40.234375 -1.421875 26.421875 -1.421875 
Q 22.703125 -1.421875 18.890625 -0.6875 
Q 15.09375 0.046875 10.984375 1.515625 
z
M 30.609375 32.421875 
Q 37.25 32.421875 41.125 36.953125 
Q 45.015625 41.5 45.015625 49.421875 
Q 45.015625 57.28125 41.125 61.84375 
Q 37.25 66.40625 30.609375 66.40625 
Q 23.96875 66.40625 20.09375 61.84375 
Q 16.21875 57.28125 16.21875 49.421875 
Q 16.21875 41.5 20.09375 36.953125 
Q 23.96875 32.421875 30.609375 32.421875 
z
" id="DejaVuSans-57"/>
     <path d="M 33.015625 40.375 
Q 26.375 40.375 22.484375 35.828125 
Q 18.609375 31.296875 18.609375 23.390625 
Q 18.609375 15.53125 22.484375 10.953125 
Q 26.375 6.390625 33.015625 6.390625 
Q 39.65625 6.390625 43.53125 10.953125 
Q 47.40625 15.53125 47.40625 23.390625 
Q 47.40625 31.296875 43.53125 35.828125 
Q 39.65625 40.375 33.015625 40.375 
z
M 52.59375 71.296875 
L 52.59375 62.3125 
Q 48.875 64.0625 45.09375 64.984375 
Q 41.3125 65.921875 37.59375 65.921875 
Q 27.828125 65.921875 22.671875 59.328125 
Q 17.53125 52.734375 16.796875 39.40625 
Q 19.671875 43.65625 24.015625 45.921875 
Q 28.375 48.1875 33.59375 48.1875 
Q 44.578125 48.1875 50.953125 41.515625 
Q 57.328125 34.859375 57.328125 23.390625 
Q 57.328125 12.15625 50.6875 5.359375 
Q 44.046875 -1.421875 33.015625 -1.421875 
Q 20.359375 -1.421875 13.671875 8.265625 
Q 6.984375 17.96875 6.984375 36.375 
Q 6.984375 53.65625 15.1875 63.9375 
Q 23.390625 74.21875 37.203125 74.21875 
Q 40.921875 74.21875 44.703125 73.484375 
Q 48.484375 72.75 52.59375 71.296875 
z
" id="DejaVuSans-54"/>
    </defs>
    <g transform="translate(78.585938 14.798438)scale(0.1 -0.1)">
     <use xlink:href="#DejaVuSans-109"/>
     <use x="97.412109" xlink:href="#DejaVuSans-101"/>
     <use x="158.935547" xlink:href="#DejaVuSans-97"/>
     <use x="220.214844" xlink:href="#DejaVuSans-110"/>
     <use x="283.59375" xlink:href="#DejaVuSans-58"/>
     <use x="317.285156" xlink:href="#DejaVuSans-32"/>
     <use x="349.072266" xlink:href="#DejaVuSans-49"/>
     <use x="412.695312" xlink:href="#DejaVuSans-56"/>
     <use x="476.318359" xlink:href="#DejaVuSans-57"/>
     <use x="539.941406" xlink:href="#DejaVuSans-46"/>
     <use x="571.728516" xlink:href="#DejaVuSans-57"/>
     <use x="635.351562" xlink:href="#DejaVuSans-50"/>
     <use x="698.974609" xlink:href="#DejaVuSans-54"/>
    </g>
   </g>
   <g id="text_11">
    <!-- mean: 192.0995 -->
    <g transform="translate(214.904688 14.798438)scale(0.1 -0.1)">
     <use xlink:href="#DejaVuSans-109"/>
     <use x="97.412109" xlink:href="#DejaVuSans-101"/>
     <use x="158.935547" xlink:href="#DejaVuSans-97"/>
     <use x="220.214844" xlink:href="#DejaVuSans-110"/>
     <use x="283.59375" xlink:href="#DejaVuSans-58"/>
     <use x="317.285156" xlink:href="#DejaVuSans-32"/>
     <use x="349.072266" xlink:href="#DejaVuSans-49"/>
     <use x="412.695312" xlink:href="#DejaVuSans-57"/>
     <use x="476.318359" xlink:href="#DejaVuSans-50"/>
     <use x="539.941406" xlink:href="#DejaVuSans-46"/>
     <use x="571.728516" xlink:href="#DejaVuSans-48"/>
     <use x="635.351562" xlink:href="#DejaVuSans-57"/>
     <use x="698.974609" xlink:href="#DejaVuSans-57"/>
     <use x="762.597656" xlink:href="#DejaVuSans-53"/>
    </g>
   </g>
   <g id="text_12">
    <!-- mean: 177.8425 -->
    <defs>
     <path d="M 8.203125 72.90625 
L 55.078125 72.90625 
L 55.078125 68.703125 
L 28.609375 0 
L 18.3125 0 
L 43.21875 64.59375 
L 8.203125 64.59375 
z
" id="DejaVuSans-55"/>
     <path d="M 37.796875 64.3125 
L 12.890625 25.390625 
L 37.796875 25.390625 
z
M 35.203125 72.90625 
L 47.609375 72.90625 
L 47.609375 25.390625 
L 58.015625 25.390625 
L 58.015625 17.1875 
L 47.609375 17.1875 
L 47.609375 0 
L 37.796875 0 
L 37.796875 17.1875 
L 4.890625 17.1875 
L 4.890625 26.703125 
z
" id="DejaVuSans-52"/>
    </defs>
    <g transform="translate(354.404688 14.798438)scale(0.1 -0.1)">
     <use xlink:href="#DejaVuSans-109"/>
     <use x="97.412109" xlink:href="#DejaVuSans-101"/>
     <use x="158.935547" xlink:href="#DejaVuSans-97"/>
     <use x="220.214844" xlink:href="#DejaVuSans-110"/>
     <use x="283.59375" xlink:href="#DejaVuSans-58"/>
     <use x="317.285156" xlink:href="#DejaVuSans-32"/>
     <use x="349.072266" xlink:href="#DejaVuSans-49"/>
     <use x="412.695312" xlink:href="#DejaVuSans-55"/>
     <use x="476.318359" xlink:href="#DejaVuSans-55"/>
     <use x="539.941406" xlink:href="#DejaVuSans-46"/>
     <use x="571.728516" xlink:href="#DejaVuSans-56"/>
     <use x="635.351562" xlink:href="#DejaVuSans-52"/>
     <use x="698.974609" xlink:href="#DejaVuSans-50"/>
     <use x="762.597656" xlink:href="#DejaVuSans-53"/>
    </g>
   </g>
  </g>
 </g>
 <defs>
  <clipPath id="p4d81811f47">
   <rect height="166.32" width="418.5" x="46.965625" y="20.229063"/>
  </clipPath>
 </defs>
</svg>
