<?xml version="1.0" encoding="utf-8" standalone="no"?>
<!DOCTYPE svg PUBLIC "-//W3C//DTD SVG 1.1//EN"
  "http://www.w3.org/Graphics/SVG/1.1/DTD/svg11.dtd">
<!-- Created with matplotlib (https://matplotlib.org/) -->
<svg height="210.427188pt" version="1.1" viewBox="0 0 418.859375 210.427188" width="418.859375pt" xmlns="http://www.w3.org/2000/svg" xmlns:xlink="http://www.w3.org/1999/xlink">
 <defs>
  <style type="text/css">
*{stroke-linecap:butt;stroke-linejoin:round;}
  </style>
 </defs>
 <g id="figure_1">
  <g id="patch_1">
   <path d="M 0 210.427188 
L 418.859375 210.427188 
L 418.859375 0 
L 0 0 
z
" style="fill:#ffffff;"/>
  </g>
  <g id="axes_1">
   <g id="patch_2">
    <path d="M 46.965625 186.549063 
L 409.665625 186.549063 
L 409.665625 20.229063 
L 46.965625 20.229063 
z
" style="fill:#ffffff;"/>
   </g>
   <g id="PolyCollection_1">
    <defs>
     <path d="M 107.447934 -49.550625 
L 107.383316 -49.550625 
L 107.38435 -50.894943 
L 107.389845 -52.239261 
L 107.397114 -53.58358 
L 107.403055 -54.927898 
L 107.405749 -56.272216 
L 107.405072 -57.616534 
L 107.402408 -58.960852 
L 107.399867 -60.30517 
L 107.399253 -61.649489 
L 107.401165 -62.993807 
L 107.404835 -64.338125 
L 107.408832 -65.682443 
L 107.412015 -67.026761 
L 107.413989 -68.37108 
L 107.414926 -69.715398 
L 107.415112 -71.059716 
L 107.414604 -72.404034 
L 107.41309 -73.748352 
L 107.409955 -75.09267 
L 107.404541 -76.436989 
L 107.396537 -77.781307 
L 107.386337 -79.125625 
L 107.375166 -80.469943 
L 107.364894 -81.814261 
L 107.357394 -83.15858 
L 107.353465 -84.502898 
L 107.351919 -85.847216 
L 107.349907 -87.191534 
L 107.34472 -88.535852 
L 107.335622 -89.88017 
L 107.323911 -91.224489 
L 107.311058 -92.568807 
L 107.296862 -93.913125 
L 107.279388 -95.257443 
L 107.256407 -96.601761 
L 107.226661 -97.94608 
L 107.190152 -99.290398 
L 107.148023 -100.634716 
L 107.102098 -101.979034 
L 107.053436 -103.323352 
L 107.000603 -104.66767 
L 106.940092 -106.011989 
L 106.869635 -107.356307 
L 106.791522 -108.700625 
L 106.712771 -110.044943 
L 106.642628 -111.389261 
L 106.589937 -112.73358 
L 106.561107 -114.077898 
L 106.557991 -115.422216 
L 106.576732 -116.766534 
L 106.609342 -118.110852 
L 106.646792 -119.45517 
L 106.680368 -120.799489 
L 106.701275 -122.143807 
L 106.701825 -123.488125 
L 106.679217 -124.832443 
L 106.638148 -126.176761 
L 106.588732 -127.52108 
L 106.541089 -128.865398 
L 106.500967 -130.209716 
L 106.468888 -131.554034 
L 106.44184 -132.898352 
L 106.415461 -134.24267 
L 106.385804 -135.586989 
L 106.3505 -136.931307 
L 106.308809 -138.275625 
L 106.260046 -139.619943 
L 106.201294 -140.964261 
L 106.126748 -142.30858 
L 106.030341 -143.652898 
L 105.910114 -144.997216 
L 105.770367 -146.341534 
L 105.61889 -147.685852 
L 105.461009 -149.03017 
L 105.295839 -150.374489 
L 105.11871 -151.718807 
L 104.927819 -153.063125 
L 104.729366 -154.407443 
L 104.537678 -155.751761 
L 104.371083 -157.09608 
L 104.245811 -158.440398 
L 104.169806 -159.784716 
L 104.138614 -161.129034 
L 104.135546 -162.473352 
L 104.136909 -163.81767 
L 104.120825 -165.161989 
L 104.076051 -166.506307 
L 104.005949 -167.850625 
L 103.922369 -169.194943 
L 103.822481 -170.539261 
L 103.634663 -171.88358 
L 103.1124 -173.227898 
L 101.682675 -174.572216 
L 98.373031 -175.916534 
L 92.109251 -177.260852 
L 82.606648 -178.60517 
L 71.462712 -179.949489 
L 62.294174 -181.293807 
L 59.055625 -182.638125 
L 155.775625 -182.638125 
L 155.775625 -182.638125 
L 152.537076 -181.293807 
L 143.368538 -179.949489 
L 132.224602 -178.60517 
L 122.721999 -177.260852 
L 116.458219 -175.916534 
L 113.148575 -174.572216 
L 111.71885 -173.227898 
L 111.196587 -171.88358 
L 111.008769 -170.539261 
L 110.908881 -169.194943 
L 110.825301 -167.850625 
L 110.755199 -166.506307 
L 110.710425 -165.161989 
L 110.694341 -163.81767 
L 110.695704 -162.473352 
L 110.692636 -161.129034 
L 110.661444 -159.784716 
L 110.585439 -158.440398 
L 110.460167 -157.09608 
L 110.293572 -155.751761 
L 110.101884 -154.407443 
L 109.903431 -153.063125 
L 109.71254 -151.718807 
L 109.535411 -150.374489 
L 109.370241 -149.03017 
L 109.21236 -147.685852 
L 109.060883 -146.341534 
L 108.921136 -144.997216 
L 108.800909 -143.652898 
L 108.704502 -142.30858 
L 108.629956 -140.964261 
L 108.571204 -139.619943 
L 108.522441 -138.275625 
L 108.48075 -136.931307 
L 108.445446 -135.586989 
L 108.415789 -134.24267 
L 108.38941 -132.898352 
L 108.362362 -131.554034 
L 108.330283 -130.209716 
L 108.290161 -128.865398 
L 108.242518 -127.52108 
L 108.193102 -126.176761 
L 108.152033 -124.832443 
L 108.129425 -123.488125 
L 108.129975 -122.143807 
L 108.150882 -120.799489 
L 108.184458 -119.45517 
L 108.221908 -118.110852 
L 108.254518 -116.766534 
L 108.273259 -115.422216 
L 108.270143 -114.077898 
L 108.241313 -112.73358 
L 108.188622 -111.389261 
L 108.118479 -110.044943 
L 108.039728 -108.700625 
L 107.961615 -107.356307 
L 107.891158 -106.011989 
L 107.830647 -104.66767 
L 107.777814 -103.323352 
L 107.729152 -101.979034 
L 107.683227 -100.634716 
L 107.641098 -99.290398 
L 107.604589 -97.94608 
L 107.574843 -96.601761 
L 107.551862 -95.257443 
L 107.534388 -93.913125 
L 107.520192 -92.568807 
L 107.507339 -91.224489 
L 107.495628 -89.88017 
L 107.48653 -88.535852 
L 107.481343 -87.191534 
L 107.479331 -85.847216 
L 107.477785 -84.502898 
L 107.473856 -83.15858 
L 107.466356 -81.814261 
L 107.456084 -80.469943 
L 107.444913 -79.125625 
L 107.434713 -77.781307 
L 107.426709 -76.436989 
L 107.421295 -75.09267 
L 107.41816 -73.748352 
L 107.416646 -72.404034 
L 107.416138 -71.059716 
L 107.416324 -69.715398 
L 107.417261 -68.37108 
L 107.419235 -67.026761 
L 107.422418 -65.682443 
L 107.426415 -64.338125 
L 107.430085 -62.993807 
L 107.431997 -61.649489 
L 107.431383 -60.30517 
L 107.428842 -58.960852 
L 107.426178 -57.616534 
L 107.425501 -56.272216 
L 107.428195 -54.927898 
L 107.434136 -53.58358 
L 107.441405 -52.239261 
L 107.4469 -50.894943 
L 107.447934 -49.550625 
z
" id="m407610de87" style="stroke:#3d3d3d;stroke-width:1.5;"/>
    </defs>
    <g clip-path="url(#pc45470044a)">
     <use style="fill:#3274a1;stroke:#3d3d3d;stroke-width:1.5;" x="0" xlink:href="#m407610de87" y="210.427188"/>
    </g>
   </g>
   <g id="PolyCollection_2">
    <defs>
     <path d="M 228.695964 -31.438125 
L 227.935286 -31.438125 
L 227.901288 -32.965398 
L 227.893496 -34.49267 
L 227.905339 -36.019943 
L 227.925781 -37.547216 
L 227.944936 -39.074489 
L 227.95801 -40.601761 
L 227.965794 -42.129034 
L 227.972302 -43.656307 
L 227.981481 -45.18358 
L 227.994835 -46.710852 
L 228.010909 -48.238125 
L 228.02654 -49.765398 
L 228.038982 -51.29267 
L 228.047621 -52.819943 
L 228.054299 -54.347216 
L 228.062113 -55.874489 
L 228.07349 -57.401761 
L 228.08877 -58.929034 
L 228.10616 -60.456307 
L 228.122945 -61.98358 
L 228.137062 -63.510852 
L 228.14796 -65.038125 
L 228.156336 -66.565398 
L 228.163161 -68.09267 
L 228.168895 -69.619943 
L 228.17342 -71.147216 
L 228.176541 -72.674489 
L 228.178416 -74.201761 
L 228.179446 -75.729034 
L 228.179733 -77.256307 
L 228.178643 -78.78358 
L 228.174903 -80.310852 
L 228.167209 -81.838125 
L 228.15493 -83.365398 
L 228.13852 -84.89267 
L 228.119513 -86.419943 
L 228.100201 -87.947216 
L 228.08317 -89.474489 
L 228.070769 -91.001761 
L 228.064616 -92.529034 
L 228.065302 -94.056307 
L 228.07244 -95.58358 
L 228.085028 -97.110852 
L 228.10183 -98.638125 
L 228.121516 -100.165398 
L 228.142529 -101.69267 
L 228.163026 -103.219943 
L 228.181132 -104.747216 
L 228.195437 -106.274489 
L 228.205338 -107.801761 
L 228.210942 -109.329034 
L 228.212627 -110.856307 
L 228.210635 -112.38358 
L 228.20489 -113.910852 
L 228.19501 -115.438125 
L 228.180398 -116.965398 
L 228.160485 -118.49267 
L 228.135248 -120.019943 
L 228.105872 -121.547216 
L 228.07502 -123.074489 
L 228.046199 -124.601761 
L 228.022341 -126.129034 
L 228.004406 -127.656307 
L 227.991014 -129.18358 
L 227.979374 -130.710852 
L 227.966894 -132.238125 
L 227.952445 -133.765398 
L 227.936666 -135.29267 
L 227.921357 -136.819943 
L 227.908501 -138.347216 
L 227.899362 -139.874489 
L 227.893866 -141.401761 
L 227.890277 -142.929034 
L 227.885192 -144.456307 
L 227.874008 -145.98358 
L 227.852095 -147.510852 
L 227.816606 -149.038125 
L 227.768387 -150.565398 
L 227.712953 -152.09267 
L 227.659597 -153.619943 
L 227.618529 -155.147216 
L 227.597118 -156.674489 
L 227.597012 -158.201761 
L 227.613578 -159.729034 
L 227.63772 -161.256307 
L 227.658413 -162.78358 
L 227.662654 -164.310852 
L 227.628042 -165.838125 
L 227.502117 -167.365398 
L 227.164164 -168.89267 
L 226.374781 -170.419943 
L 224.741126 -171.947216 
L 221.754695 -173.474489 
L 216.964456 -175.001761 
L 210.289577 -176.529034 
L 202.347351 -178.056307 
L 194.55505 -179.58358 
L 188.800285 -181.110852 
L 186.72337 -182.638125 
L 269.90788 -182.638125 
L 269.90788 -182.638125 
L 267.830965 -181.110852 
L 262.0762 -179.58358 
L 254.283899 -178.056307 
L 246.341673 -176.529034 
L 239.666794 -175.001761 
L 234.876555 -173.474489 
L 231.890124 -171.947216 
L 230.256469 -170.419943 
L 229.467086 -168.89267 
L 229.129133 -167.365398 
L 229.003208 -165.838125 
L 228.968596 -164.310852 
L 228.972837 -162.78358 
L 228.99353 -161.256307 
L 229.017672 -159.729034 
L 229.034238 -158.201761 
L 229.034132 -156.674489 
L 229.012721 -155.147216 
L 228.971653 -153.619943 
L 228.918297 -152.09267 
L 228.862863 -150.565398 
L 228.814644 -149.038125 
L 228.779155 -147.510852 
L 228.757242 -145.98358 
L 228.746058 -144.456307 
L 228.740973 -142.929034 
L 228.737384 -141.401761 
L 228.731888 -139.874489 
L 228.722749 -138.347216 
L 228.709893 -136.819943 
L 228.694584 -135.29267 
L 228.678805 -133.765398 
L 228.664356 -132.238125 
L 228.651876 -130.710852 
L 228.640236 -129.18358 
L 228.626844 -127.656307 
L 228.608909 -126.129034 
L 228.585051 -124.601761 
L 228.55623 -123.074489 
L 228.525378 -121.547216 
L 228.496002 -120.019943 
L 228.470765 -118.49267 
L 228.450852 -116.965398 
L 228.43624 -115.438125 
L 228.42636 -113.910852 
L 228.420615 -112.38358 
L 228.418623 -110.856307 
L 228.420308 -109.329034 
L 228.425912 -107.801761 
L 228.435813 -106.274489 
L 228.450118 -104.747216 
L 228.468224 -103.219943 
L 228.488721 -101.69267 
L 228.509734 -100.165398 
L 228.52942 -98.638125 
L 228.546222 -97.110852 
L 228.55881 -95.58358 
L 228.565948 -94.056307 
L 228.566634 -92.529034 
L 228.560481 -91.001761 
L 228.54808 -89.474489 
L 228.531049 -87.947216 
L 228.511737 -86.419943 
L 228.49273 -84.89267 
L 228.47632 -83.365398 
L 228.464041 -81.838125 
L 228.456347 -80.310852 
L 228.452607 -78.78358 
L 228.451517 -77.256307 
L 228.451804 -75.729034 
L 228.452834 -74.201761 
L 228.454709 -72.674489 
L 228.45783 -71.147216 
L 228.462355 -69.619943 
L 228.468089 -68.09267 
L 228.474914 -66.565398 
L 228.48329 -65.038125 
L 228.494188 -63.510852 
L 228.508305 -61.98358 
L 228.52509 -60.456307 
L 228.54248 -58.929034 
L 228.55776 -57.401761 
L 228.569137 -55.874489 
L 228.576951 -54.347216 
L 228.583629 -52.819943 
L 228.592268 -51.29267 
L 228.60471 -49.765398 
L 228.620341 -48.238125 
L 228.636415 -46.710852 
L 228.649769 -45.18358 
L 228.658948 -43.656307 
L 228.665456 -42.129034 
L 228.67324 -40.601761 
L 228.686314 -39.074489 
L 228.705469 -37.547216 
L 228.725911 -36.019943 
L 228.737754 -34.49267 
L 228.729962 -32.965398 
L 228.695964 -31.438125 
z
" id="mb55e3b6dd8" style="stroke:#3d3d3d;stroke-width:1.5;"/>
    </defs>
    <g clip-path="url(#pc45470044a)">
     <use style="fill:#e1812c;stroke:#3d3d3d;stroke-width:1.5;" x="0" xlink:href="#mb55e3b6dd8" y="210.427188"/>
    </g>
   </g>
   <g id="PolyCollection_3">
    <defs>
     <path d="M 350.951431 -31.438125 
L 347.479819 -31.438125 
L 347.397703 -32.965398 
L 347.365804 -34.49267 
L 347.384409 -36.019943 
L 347.44906 -37.547216 
L 347.551442 -39.074489 
L 347.680826 -40.601761 
L 347.825739 -42.129034 
L 347.975503 -43.656307 
L 348.121391 -45.18358 
L 348.25722 -46.710852 
L 348.379403 -48.238125 
L 348.486561 -49.765398 
L 348.578897 -51.29267 
L 348.657528 -52.819943 
L 348.723911 -54.347216 
L 348.779471 -55.874489 
L 348.825428 -57.401761 
L 348.862793 -58.929034 
L 348.892459 -60.456307 
L 348.915315 -61.98358 
L 348.932338 -63.510852 
L 348.944624 -65.038125 
L 348.953359 -66.565398 
L 348.959747 -68.09267 
L 348.964909 -69.619943 
L 348.969792 -71.147216 
L 348.975102 -72.674489 
L 348.981262 -74.201761 
L 348.988419 -75.729034 
L 348.996477 -77.256307 
L 349.005151 -78.78358 
L 349.014031 -80.310852 
L 349.022644 -81.838125 
L 349.030503 -83.365398 
L 349.037146 -84.89267 
L 349.042151 -86.419943 
L 349.045155 -87.947216 
L 349.045855 -89.474489 
L 349.044025 -91.001761 
L 349.039531 -92.529034 
L 349.032353 -94.056307 
L 349.022608 -95.58358 
L 349.01056 -97.110852 
L 348.996613 -98.638125 
L 348.981277 -100.165398 
L 348.965113 -101.69267 
L 348.948655 -103.219943 
L 348.932336 -104.747216 
L 348.916425 -106.274489 
L 348.901002 -107.801761 
L 348.885958 -109.329034 
L 348.87105 -110.856307 
L 348.855972 -112.38358 
L 348.840439 -113.910852 
L 348.824254 -115.438125 
L 348.807358 -116.965398 
L 348.789836 -118.49267 
L 348.771897 -120.019943 
L 348.753825 -121.547216 
L 348.735926 -123.074489 
L 348.718482 -124.601761 
L 348.701715 -126.129034 
L 348.685766 -127.656307 
L 348.670696 -129.18358 
L 348.65649 -130.710852 
L 348.643071 -132.238125 
L 348.630309 -133.765398 
L 348.618036 -135.29267 
L 348.606056 -136.819943 
L 348.594156 -138.347216 
L 348.582113 -139.874489 
L 348.569699 -141.401761 
L 348.556684 -142.929034 
L 348.542824 -144.456307 
L 348.527829 -145.98358 
L 348.511292 -147.510852 
L 348.492549 -149.038125 
L 348.470416 -150.565398 
L 348.442746 -152.09267 
L 348.405736 -153.619943 
L 348.352914 -155.147216 
L 348.273808 -156.674489 
L 348.15237 -158.201761 
L 347.965404 -159.729034 
L 347.681416 -161.256307 
L 347.260526 -162.78358 
L 346.656186 -164.310852 
L 345.819395 -165.838125 
L 344.70578 -167.365398 
L 343.285286 -168.89267 
L 341.553333 -170.419943 
L 339.541381 -171.947216 
L 337.324176 -173.474489 
L 335.020898 -175.001761 
L 332.788155 -176.529034 
L 330.804422 -178.056307 
L 329.247555 -179.58358 
L 328.26913 -181.110852 
L 327.97066 -182.638125 
L 370.46059 -182.638125 
L 370.46059 -182.638125 
L 370.16212 -181.110852 
L 369.183695 -179.58358 
L 367.626828 -178.056307 
L 365.643095 -176.529034 
L 363.410352 -175.001761 
L 361.107074 -173.474489 
L 358.889869 -171.947216 
L 356.877917 -170.419943 
L 355.145964 -168.89267 
L 353.72547 -167.365398 
L 352.611855 -165.838125 
L 351.775064 -164.310852 
L 351.170724 -162.78358 
L 350.749834 -161.256307 
L 350.465846 -159.729034 
L 350.27888 -158.201761 
L 350.157442 -156.674489 
L 350.078336 -155.147216 
L 350.025514 -153.619943 
L 349.988504 -152.09267 
L 349.960834 -150.565398 
L 349.938701 -149.038125 
L 349.919958 -147.510852 
L 349.903421 -145.98358 
L 349.888426 -144.456307 
L 349.874566 -142.929034 
L 349.861551 -141.401761 
L 349.849137 -139.874489 
L 349.837094 -138.347216 
L 349.825194 -136.819943 
L 349.813214 -135.29267 
L 349.800941 -133.765398 
L 349.788179 -132.238125 
L 349.77476 -130.710852 
L 349.760554 -129.18358 
L 349.745484 -127.656307 
L 349.729535 -126.129034 
L 349.712768 -124.601761 
L 349.695324 -123.074489 
L 349.677425 -121.547216 
L 349.659353 -120.019943 
L 349.641414 -118.49267 
L 349.623892 -116.965398 
L 349.606996 -115.438125 
L 349.590811 -113.910852 
L 349.575278 -112.38358 
L 349.5602 -110.856307 
L 349.545292 -109.329034 
L 349.530248 -107.801761 
L 349.514825 -106.274489 
L 349.498914 -104.747216 
L 349.482595 -103.219943 
L 349.466137 -101.69267 
L 349.449973 -100.165398 
L 349.434637 -98.638125 
L 349.42069 -97.110852 
L 349.408642 -95.58358 
L 349.398897 -94.056307 
L 349.391719 -92.529034 
L 349.387225 -91.001761 
L 349.385395 -89.474489 
L 349.386095 -87.947216 
L 349.389099 -86.419943 
L 349.394104 -84.89267 
L 349.400747 -83.365398 
L 349.408606 -81.838125 
L 349.417219 -80.310852 
L 349.426099 -78.78358 
L 349.434773 -77.256307 
L 349.442831 -75.729034 
L 349.449988 -74.201761 
L 349.456148 -72.674489 
L 349.461458 -71.147216 
L 349.466341 -69.619943 
L 349.471503 -68.09267 
L 349.477891 -66.565398 
L 349.486626 -65.038125 
L 349.498912 -63.510852 
L 349.515935 -61.98358 
L 349.538791 -60.456307 
L 349.568457 -58.929034 
L 349.605822 -57.401761 
L 349.651779 -55.874489 
L 349.707339 -54.347216 
L 349.773722 -52.819943 
L 349.852353 -51.29267 
L 349.944689 -49.765398 
L 350.051847 -48.238125 
L 350.17403 -46.710852 
L 350.309859 -45.18358 
L 350.455747 -43.656307 
L 350.605511 -42.129034 
L 350.750424 -40.601761 
L 350.879808 -39.074489 
L 350.98219 -37.547216 
L 351.046841 -36.019943 
L 351.065446 -34.49267 
L 351.033547 -32.965398 
L 350.951431 -31.438125 
z
" id="ma96bb18913" style="stroke:#3d3d3d;stroke-width:1.5;"/>
    </defs>
    <g clip-path="url(#pc45470044a)">
     <use style="fill:#3a923a;stroke:#3d3d3d;stroke-width:1.5;" x="0" xlink:href="#ma96bb18913" y="210.427188"/>
    </g>
   </g>
   <g id="matplotlib.axis_1">
    <g id="xtick_1">
     <g id="line2d_1">
      <defs>
       <path d="M 0 0 
L 0 3.5 
" id="mc56ac36222" style="stroke:#000000;stroke-width:0.8;"/>
      </defs>
      <g>
       <use style="stroke:#000000;stroke-width:0.8;" x="107.415625" xlink:href="#mc56ac36222" y="186.549063"/>
      </g>
     </g>
     <g id="text_1">
      <!-- train: real  / HP vary -->
      <defs>
       <path d="M 18.3125 70.21875 
L 18.3125 54.6875 
L 36.8125 54.6875 
L 36.8125 47.703125 
L 18.3125 47.703125 
L 18.3125 18.015625 
Q 18.3125 11.328125 20.140625 9.421875 
Q 21.96875 7.515625 27.59375 7.515625 
L 36.8125 7.515625 
L 36.8125 0 
L 27.59375 0 
Q 17.1875 0 13.234375 3.875 
Q 9.28125 7.765625 9.28125 18.015625 
L 9.28125 47.703125 
L 2.6875 47.703125 
L 2.6875 54.6875 
L 9.28125 54.6875 
L 9.28125 70.21875 
z
" id="DejaVuSans-116"/>
       <path d="M 41.109375 46.296875 
Q 39.59375 47.171875 37.8125 47.578125 
Q 36.03125 48 33.890625 48 
Q 26.265625 48 22.1875 43.046875 
Q 18.109375 38.09375 18.109375 28.8125 
L 18.109375 0 
L 9.078125 0 
L 9.078125 54.6875 
L 18.109375 54.6875 
L 18.109375 46.1875 
Q 20.953125 51.171875 25.484375 53.578125 
Q 30.03125 56 36.53125 56 
Q 37.453125 56 38.578125 55.875 
Q 39.703125 55.765625 41.0625 55.515625 
z
" id="DejaVuSans-114"/>
       <path d="M 34.28125 27.484375 
Q 23.390625 27.484375 19.1875 25 
Q 14.984375 22.515625 14.984375 16.5 
Q 14.984375 11.71875 18.140625 8.90625 
Q 21.296875 6.109375 26.703125 6.109375 
Q 34.1875 6.109375 38.703125 11.40625 
Q 43.21875 16.703125 43.21875 25.484375 
L 43.21875 27.484375 
z
M 52.203125 31.203125 
L 52.203125 0 
L 43.21875 0 
L 43.21875 8.296875 
Q 40.140625 3.328125 35.546875 0.953125 
Q 30.953125 -1.421875 24.3125 -1.421875 
Q 15.921875 -1.421875 10.953125 3.296875 
Q 6 8.015625 6 15.921875 
Q 6 25.140625 12.171875 29.828125 
Q 18.359375 34.515625 30.609375 34.515625 
L 43.21875 34.515625 
L 43.21875 35.40625 
Q 43.21875 41.609375 39.140625 45 
Q 35.0625 48.390625 27.6875 48.390625 
Q 23 48.390625 18.546875 47.265625 
Q 14.109375 46.140625 10.015625 43.890625 
L 10.015625 52.203125 
Q 14.9375 54.109375 19.578125 55.046875 
Q 24.21875 56 28.609375 56 
Q 40.484375 56 46.34375 49.84375 
Q 52.203125 43.703125 52.203125 31.203125 
z
" id="DejaVuSans-97"/>
       <path d="M 9.421875 54.6875 
L 18.40625 54.6875 
L 18.40625 0 
L 9.421875 0 
z
M 9.421875 75.984375 
L 18.40625 75.984375 
L 18.40625 64.59375 
L 9.421875 64.59375 
z
" id="DejaVuSans-105"/>
       <path d="M 54.890625 33.015625 
L 54.890625 0 
L 45.90625 0 
L 45.90625 32.71875 
Q 45.90625 40.484375 42.875 44.328125 
Q 39.84375 48.1875 33.796875 48.1875 
Q 26.515625 48.1875 22.3125 43.546875 
Q 18.109375 38.921875 18.109375 30.90625 
L 18.109375 0 
L 9.078125 0 
L 9.078125 54.6875 
L 18.109375 54.6875 
L 18.109375 46.1875 
Q 21.34375 51.125 25.703125 53.5625 
Q 30.078125 56 35.796875 56 
Q 45.21875 56 50.046875 50.171875 
Q 54.890625 44.34375 54.890625 33.015625 
z
" id="DejaVuSans-110"/>
       <path d="M 11.71875 12.40625 
L 22.015625 12.40625 
L 22.015625 0 
L 11.71875 0 
z
M 11.71875 51.703125 
L 22.015625 51.703125 
L 22.015625 39.3125 
L 11.71875 39.3125 
z
" id="DejaVuSans-58"/>
       <path id="DejaVuSans-32"/>
       <path d="M 56.203125 29.59375 
L 56.203125 25.203125 
L 14.890625 25.203125 
Q 15.484375 15.921875 20.484375 11.0625 
Q 25.484375 6.203125 34.421875 6.203125 
Q 39.59375 6.203125 44.453125 7.46875 
Q 49.3125 8.734375 54.109375 11.28125 
L 54.109375 2.78125 
Q 49.265625 0.734375 44.1875 -0.34375 
Q 39.109375 -1.421875 33.890625 -1.421875 
Q 20.796875 -1.421875 13.15625 6.1875 
Q 5.515625 13.8125 5.515625 26.8125 
Q 5.515625 40.234375 12.765625 48.109375 
Q 20.015625 56 32.328125 56 
Q 43.359375 56 49.78125 48.890625 
Q 56.203125 41.796875 56.203125 29.59375 
z
M 47.21875 32.234375 
Q 47.125 39.59375 43.09375 43.984375 
Q 39.0625 48.390625 32.421875 48.390625 
Q 24.90625 48.390625 20.390625 44.140625 
Q 15.875 39.890625 15.1875 32.171875 
z
" id="DejaVuSans-101"/>
       <path d="M 9.421875 75.984375 
L 18.40625 75.984375 
L 18.40625 0 
L 9.421875 0 
z
" id="DejaVuSans-108"/>
       <path d="M 25.390625 72.90625 
L 33.6875 72.90625 
L 8.296875 -9.28125 
L 0 -9.28125 
z
" id="DejaVuSans-47"/>
       <path d="M 9.8125 72.90625 
L 19.671875 72.90625 
L 19.671875 43.015625 
L 55.515625 43.015625 
L 55.515625 72.90625 
L 65.375 72.90625 
L 65.375 0 
L 55.515625 0 
L 55.515625 34.71875 
L 19.671875 34.71875 
L 19.671875 0 
L 9.8125 0 
z
" id="DejaVuSans-72"/>
       <path d="M 19.671875 64.796875 
L 19.671875 37.40625 
L 32.078125 37.40625 
Q 38.96875 37.40625 42.71875 40.96875 
Q 46.484375 44.53125 46.484375 51.125 
Q 46.484375 57.671875 42.71875 61.234375 
Q 38.96875 64.796875 32.078125 64.796875 
z
M 9.8125 72.90625 
L 32.078125 72.90625 
Q 44.34375 72.90625 50.609375 67.359375 
Q 56.890625 61.8125 56.890625 51.125 
Q 56.890625 40.328125 50.609375 34.8125 
Q 44.34375 29.296875 32.078125 29.296875 
L 19.671875 29.296875 
L 19.671875 0 
L 9.8125 0 
z
" id="DejaVuSans-80"/>
       <path d="M 2.984375 54.6875 
L 12.5 54.6875 
L 29.59375 8.796875 
L 46.6875 54.6875 
L 56.203125 54.6875 
L 35.6875 0 
L 23.484375 0 
z
" id="DejaVuSans-118"/>
       <path d="M 32.171875 -5.078125 
Q 28.375 -14.84375 24.75 -17.8125 
Q 21.140625 -20.796875 15.09375 -20.796875 
L 7.90625 -20.796875 
L 7.90625 -13.28125 
L 13.1875 -13.28125 
Q 16.890625 -13.28125 18.9375 -11.515625 
Q 21 -9.765625 23.484375 -3.21875 
L 25.09375 0.875 
L 2.984375 54.6875 
L 12.5 54.6875 
L 29.59375 11.921875 
L 46.6875 54.6875 
L 56.203125 54.6875 
z
" id="DejaVuSans-121"/>
      </defs>
      <g transform="translate(57.178125 201.1475)scale(0.1 -0.1)">
       <use xlink:href="#DejaVuSans-116"/>
       <use x="39.208984" xlink:href="#DejaVuSans-114"/>
       <use x="80.322266" xlink:href="#DejaVuSans-97"/>
       <use x="141.601562" xlink:href="#DejaVuSans-105"/>
       <use x="169.384766" xlink:href="#DejaVuSans-110"/>
       <use x="232.763672" xlink:href="#DejaVuSans-58"/>
       <use x="266.455078" xlink:href="#DejaVuSans-32"/>
       <use x="298.242188" xlink:href="#DejaVuSans-114"/>
       <use x="337.105469" xlink:href="#DejaVuSans-101"/>
       <use x="398.628906" xlink:href="#DejaVuSans-97"/>
       <use x="459.908203" xlink:href="#DejaVuSans-108"/>
       <use x="487.691406" xlink:href="#DejaVuSans-32"/>
       <use x="519.478516" xlink:href="#DejaVuSans-32"/>
       <use x="551.265625" xlink:href="#DejaVuSans-47"/>
       <use x="584.957031" xlink:href="#DejaVuSans-32"/>
       <use x="616.744141" xlink:href="#DejaVuSans-72"/>
       <use x="691.939453" xlink:href="#DejaVuSans-80"/>
       <use x="752.242188" xlink:href="#DejaVuSans-32"/>
       <use x="784.029297" xlink:href="#DejaVuSans-118"/>
       <use x="843.208984" xlink:href="#DejaVuSans-97"/>
       <use x="904.488281" xlink:href="#DejaVuSans-114"/>
       <use x="945.601562" xlink:href="#DejaVuSans-121"/>
      </g>
     </g>
    </g>
    <g id="xtick_2">
     <g id="line2d_2">
      <g>
       <use style="stroke:#000000;stroke-width:0.8;" x="228.315625" xlink:href="#mc56ac36222" y="186.549063"/>
      </g>
     </g>
     <g id="text_2">
      <!-- train: synth. / HP vary -->
      <defs>
       <path d="M 44.28125 53.078125 
L 44.28125 44.578125 
Q 40.484375 46.53125 36.375 47.5 
Q 32.28125 48.484375 27.875 48.484375 
Q 21.1875 48.484375 17.84375 46.4375 
Q 14.5 44.390625 14.5 40.28125 
Q 14.5 37.15625 16.890625 35.375 
Q 19.28125 33.59375 26.515625 31.984375 
L 29.59375 31.296875 
Q 39.15625 29.25 43.1875 25.515625 
Q 47.21875 21.78125 47.21875 15.09375 
Q 47.21875 7.46875 41.1875 3.015625 
Q 35.15625 -1.421875 24.609375 -1.421875 
Q 20.21875 -1.421875 15.453125 -0.5625 
Q 10.6875 0.296875 5.421875 2 
L 5.421875 11.28125 
Q 10.40625 8.6875 15.234375 7.390625 
Q 20.0625 6.109375 24.8125 6.109375 
Q 31.15625 6.109375 34.5625 8.28125 
Q 37.984375 10.453125 37.984375 14.40625 
Q 37.984375 18.0625 35.515625 20.015625 
Q 33.0625 21.96875 24.703125 23.78125 
L 21.578125 24.515625 
Q 13.234375 26.265625 9.515625 29.90625 
Q 5.8125 33.546875 5.8125 39.890625 
Q 5.8125 47.609375 11.28125 51.796875 
Q 16.75 56 26.8125 56 
Q 31.78125 56 36.171875 55.265625 
Q 40.578125 54.546875 44.28125 53.078125 
z
" id="DejaVuSans-115"/>
       <path d="M 54.890625 33.015625 
L 54.890625 0 
L 45.90625 0 
L 45.90625 32.71875 
Q 45.90625 40.484375 42.875 44.328125 
Q 39.84375 48.1875 33.796875 48.1875 
Q 26.515625 48.1875 22.3125 43.546875 
Q 18.109375 38.921875 18.109375 30.90625 
L 18.109375 0 
L 9.078125 0 
L 9.078125 75.984375 
L 18.109375 75.984375 
L 18.109375 46.1875 
Q 21.34375 51.125 25.703125 53.5625 
Q 30.078125 56 35.796875 56 
Q 45.21875 56 50.046875 50.171875 
Q 54.890625 44.34375 54.890625 33.015625 
z
" id="DejaVuSans-104"/>
       <path d="M 10.6875 12.40625 
L 21 12.40625 
L 21 0 
L 10.6875 0 
z
" id="DejaVuSans-46"/>
      </defs>
      <g transform="translate(173.689063 201.1475)scale(0.1 -0.1)">
       <use xlink:href="#DejaVuSans-116"/>
       <use x="39.208984" xlink:href="#DejaVuSans-114"/>
       <use x="80.322266" xlink:href="#DejaVuSans-97"/>
       <use x="141.601562" xlink:href="#DejaVuSans-105"/>
       <use x="169.384766" xlink:href="#DejaVuSans-110"/>
       <use x="232.763672" xlink:href="#DejaVuSans-58"/>
       <use x="266.455078" xlink:href="#DejaVuSans-32"/>
       <use x="298.242188" xlink:href="#DejaVuSans-115"/>
       <use x="350.341797" xlink:href="#DejaVuSans-121"/>
       <use x="409.521484" xlink:href="#DejaVuSans-110"/>
       <use x="472.900391" xlink:href="#DejaVuSans-116"/>
       <use x="512.109375" xlink:href="#DejaVuSans-104"/>
       <use x="575.488281" xlink:href="#DejaVuSans-46"/>
       <use x="607.275391" xlink:href="#DejaVuSans-32"/>
       <use x="639.0625" xlink:href="#DejaVuSans-47"/>
       <use x="672.753906" xlink:href="#DejaVuSans-32"/>
       <use x="704.541016" xlink:href="#DejaVuSans-72"/>
       <use x="779.736328" xlink:href="#DejaVuSans-80"/>
       <use x="840.039062" xlink:href="#DejaVuSans-32"/>
       <use x="871.826172" xlink:href="#DejaVuSans-118"/>
       <use x="931.005859" xlink:href="#DejaVuSans-97"/>
       <use x="992.285156" xlink:href="#DejaVuSans-114"/>
       <use x="1033.398438" xlink:href="#DejaVuSans-121"/>
      </g>
     </g>
    </g>
    <g id="xtick_3">
     <g id="line2d_3">
      <g>
       <use style="stroke:#000000;stroke-width:0.8;" x="349.215625" xlink:href="#mc56ac36222" y="186.549063"/>
      </g>
     </g>
     <g id="text_3">
      <!-- train: synth. / no HP vary -->
      <defs>
       <path d="M 30.609375 48.390625 
Q 23.390625 48.390625 19.1875 42.75 
Q 14.984375 37.109375 14.984375 27.296875 
Q 14.984375 17.484375 19.15625 11.84375 
Q 23.34375 6.203125 30.609375 6.203125 
Q 37.796875 6.203125 41.984375 11.859375 
Q 46.1875 17.53125 46.1875 27.296875 
Q 46.1875 37.015625 41.984375 42.703125 
Q 37.796875 48.390625 30.609375 48.390625 
z
M 30.609375 56 
Q 42.328125 56 49.015625 48.375 
Q 55.71875 40.765625 55.71875 27.296875 
Q 55.71875 13.875 49.015625 6.21875 
Q 42.328125 -1.421875 30.609375 -1.421875 
Q 18.84375 -1.421875 12.171875 6.21875 
Q 5.515625 13.875 5.515625 27.296875 
Q 5.515625 40.765625 12.171875 48.375 
Q 18.84375 56 30.609375 56 
z
" id="DejaVuSans-111"/>
      </defs>
      <g transform="translate(286.771875 201.1475)scale(0.1 -0.1)">
       <use xlink:href="#DejaVuSans-116"/>
       <use x="39.208984" xlink:href="#DejaVuSans-114"/>
       <use x="80.322266" xlink:href="#DejaVuSans-97"/>
       <use x="141.601562" xlink:href="#DejaVuSans-105"/>
       <use x="169.384766" xlink:href="#DejaVuSans-110"/>
       <use x="232.763672" xlink:href="#DejaVuSans-58"/>
       <use x="266.455078" xlink:href="#DejaVuSans-32"/>
       <use x="298.242188" xlink:href="#DejaVuSans-115"/>
       <use x="350.341797" xlink:href="#DejaVuSans-121"/>
       <use x="409.521484" xlink:href="#DejaVuSans-110"/>
       <use x="472.900391" xlink:href="#DejaVuSans-116"/>
       <use x="512.109375" xlink:href="#DejaVuSans-104"/>
       <use x="575.488281" xlink:href="#DejaVuSans-46"/>
       <use x="607.275391" xlink:href="#DejaVuSans-32"/>
       <use x="639.0625" xlink:href="#DejaVuSans-47"/>
       <use x="672.753906" xlink:href="#DejaVuSans-32"/>
       <use x="704.541016" xlink:href="#DejaVuSans-110"/>
       <use x="767.919922" xlink:href="#DejaVuSans-111"/>
       <use x="829.101562" xlink:href="#DejaVuSans-32"/>
       <use x="860.888672" xlink:href="#DejaVuSans-72"/>
       <use x="936.083984" xlink:href="#DejaVuSans-80"/>
       <use x="996.386719" xlink:href="#DejaVuSans-32"/>
       <use x="1028.173828" xlink:href="#DejaVuSans-118"/>
       <use x="1087.353516" xlink:href="#DejaVuSans-97"/>
       <use x="1148.632812" xlink:href="#DejaVuSans-114"/>
       <use x="1189.746094" xlink:href="#DejaVuSans-121"/>
      </g>
     </g>
    </g>
   </g>
   <g id="matplotlib.axis_2">
    <g id="ytick_1">
     <g id="line2d_4">
      <defs>
       <path d="M 0 0 
L -3.5 0 
" id="m144c30bc64" style="stroke:#000000;stroke-width:0.8;"/>
      </defs>
      <g>
       <use style="stroke:#000000;stroke-width:0.8;" x="46.965625" xlink:href="#m144c30bc64" y="185.289063"/>
      </g>
     </g>
     <g id="text_4">
      <!-- 0 -->
      <defs>
       <path d="M 31.78125 66.40625 
Q 24.171875 66.40625 20.328125 58.90625 
Q 16.5 51.421875 16.5 36.375 
Q 16.5 21.390625 20.328125 13.890625 
Q 24.171875 6.390625 31.78125 6.390625 
Q 39.453125 6.390625 43.28125 13.890625 
Q 47.125 21.390625 47.125 36.375 
Q 47.125 51.421875 43.28125 58.90625 
Q 39.453125 66.40625 31.78125 66.40625 
z
M 31.78125 74.21875 
Q 44.046875 74.21875 50.515625 64.515625 
Q 56.984375 54.828125 56.984375 36.375 
Q 56.984375 17.96875 50.515625 8.265625 
Q 44.046875 -1.421875 31.78125 -1.421875 
Q 19.53125 -1.421875 13.0625 8.265625 
Q 6.59375 17.96875 6.59375 36.375 
Q 6.59375 54.828125 13.0625 64.515625 
Q 19.53125 74.21875 31.78125 74.21875 
z
" id="DejaVuSans-48"/>
      </defs>
      <g transform="translate(33.603125 189.088281)scale(0.1 -0.1)">
       <use xlink:href="#DejaVuSans-48"/>
      </g>
     </g>
    </g>
    <g id="ytick_2">
     <g id="line2d_5">
      <g>
       <use style="stroke:#000000;stroke-width:0.8;" x="46.965625" xlink:href="#m144c30bc64" y="145.914063"/>
      </g>
     </g>
     <g id="text_5">
      <!-- 50 -->
      <defs>
       <path d="M 10.796875 72.90625 
L 49.515625 72.90625 
L 49.515625 64.59375 
L 19.828125 64.59375 
L 19.828125 46.734375 
Q 21.96875 47.46875 24.109375 47.828125 
Q 26.265625 48.1875 28.421875 48.1875 
Q 40.625 48.1875 47.75 41.5 
Q 54.890625 34.8125 54.890625 23.390625 
Q 54.890625 11.625 47.5625 5.09375 
Q 40.234375 -1.421875 26.90625 -1.421875 
Q 22.3125 -1.421875 17.546875 -0.640625 
Q 12.796875 0.140625 7.71875 1.703125 
L 7.71875 11.625 
Q 12.109375 9.234375 16.796875 8.0625 
Q 21.484375 6.890625 26.703125 6.890625 
Q 35.15625 6.890625 40.078125 11.328125 
Q 45.015625 15.765625 45.015625 23.390625 
Q 45.015625 31 40.078125 35.4375 
Q 35.15625 39.890625 26.703125 39.890625 
Q 22.75 39.890625 18.8125 39.015625 
Q 14.890625 38.140625 10.796875 36.28125 
z
" id="DejaVuSans-53"/>
      </defs>
      <g transform="translate(27.240625 149.713281)scale(0.1 -0.1)">
       <use xlink:href="#DejaVuSans-53"/>
       <use x="63.623047" xlink:href="#DejaVuSans-48"/>
      </g>
     </g>
    </g>
    <g id="ytick_3">
     <g id="line2d_6">
      <g>
       <use style="stroke:#000000;stroke-width:0.8;" x="46.965625" xlink:href="#m144c30bc64" y="106.539063"/>
      </g>
     </g>
     <g id="text_6">
      <!-- 100 -->
      <defs>
       <path d="M 12.40625 8.296875 
L 28.515625 8.296875 
L 28.515625 63.921875 
L 10.984375 60.40625 
L 10.984375 69.390625 
L 28.421875 72.90625 
L 38.28125 72.90625 
L 38.28125 8.296875 
L 54.390625 8.296875 
L 54.390625 0 
L 12.40625 0 
z
" id="DejaVuSans-49"/>
      </defs>
      <g transform="translate(20.878125 110.338281)scale(0.1 -0.1)">
       <use xlink:href="#DejaVuSans-49"/>
       <use x="63.623047" xlink:href="#DejaVuSans-48"/>
       <use x="127.246094" xlink:href="#DejaVuSans-48"/>
      </g>
     </g>
    </g>
    <g id="ytick_4">
     <g id="line2d_7">
      <g>
       <use style="stroke:#000000;stroke-width:0.8;" x="46.965625" xlink:href="#m144c30bc64" y="67.164063"/>
      </g>
     </g>
     <g id="text_7">
      <!-- 150 -->
      <g transform="translate(20.878125 70.963281)scale(0.1 -0.1)">
       <use xlink:href="#DejaVuSans-49"/>
       <use x="63.623047" xlink:href="#DejaVuSans-53"/>
       <use x="127.246094" xlink:href="#DejaVuSans-48"/>
      </g>
     </g>
    </g>
    <g id="ytick_5">
     <g id="line2d_8">
      <g>
       <use style="stroke:#000000;stroke-width:0.8;" x="46.965625" xlink:href="#m144c30bc64" y="27.789063"/>
      </g>
     </g>
     <g id="text_8">
      <!-- 200 -->
      <defs>
       <path d="M 19.1875 8.296875 
L 53.609375 8.296875 
L 53.609375 0 
L 7.328125 0 
L 7.328125 8.296875 
Q 12.9375 14.109375 22.625 23.890625 
Q 32.328125 33.6875 34.8125 36.53125 
Q 39.546875 41.84375 41.421875 45.53125 
Q 43.3125 49.21875 43.3125 52.78125 
Q 43.3125 58.59375 39.234375 62.25 
Q 35.15625 65.921875 28.609375 65.921875 
Q 23.96875 65.921875 18.8125 64.3125 
Q 13.671875 62.703125 7.8125 59.421875 
L 7.8125 69.390625 
Q 13.765625 71.78125 18.9375 73 
Q 24.125 74.21875 28.421875 74.21875 
Q 39.75 74.21875 46.484375 68.546875 
Q 53.21875 62.890625 53.21875 53.421875 
Q 53.21875 48.921875 51.53125 44.890625 
Q 49.859375 40.875 45.40625 35.40625 
Q 44.1875 33.984375 37.640625 27.21875 
Q 31.109375 20.453125 19.1875 8.296875 
z
" id="DejaVuSans-50"/>
      </defs>
      <g transform="translate(20.878125 31.588281)scale(0.1 -0.1)">
       <use xlink:href="#DejaVuSans-50"/>
       <use x="63.623047" xlink:href="#DejaVuSans-48"/>
       <use x="127.246094" xlink:href="#DejaVuSans-48"/>
      </g>
     </g>
    </g>
    <g id="text_9">
     <!-- cumulative reward -->
     <defs>
      <path d="M 48.78125 52.59375 
L 48.78125 44.1875 
Q 44.96875 46.296875 41.140625 47.34375 
Q 37.3125 48.390625 33.40625 48.390625 
Q 24.65625 48.390625 19.8125 42.84375 
Q 14.984375 37.3125 14.984375 27.296875 
Q 14.984375 17.28125 19.8125 11.734375 
Q 24.65625 6.203125 33.40625 6.203125 
Q 37.3125 6.203125 41.140625 7.25 
Q 44.96875 8.296875 48.78125 10.40625 
L 48.78125 2.09375 
Q 45.015625 0.34375 40.984375 -0.53125 
Q 36.96875 -1.421875 32.421875 -1.421875 
Q 20.0625 -1.421875 12.78125 6.34375 
Q 5.515625 14.109375 5.515625 27.296875 
Q 5.515625 40.671875 12.859375 48.328125 
Q 20.21875 56 33.015625 56 
Q 37.15625 56 41.109375 55.140625 
Q 45.0625 54.296875 48.78125 52.59375 
z
" id="DejaVuSans-99"/>
      <path d="M 8.5 21.578125 
L 8.5 54.6875 
L 17.484375 54.6875 
L 17.484375 21.921875 
Q 17.484375 14.15625 20.5 10.265625 
Q 23.53125 6.390625 29.59375 6.390625 
Q 36.859375 6.390625 41.078125 11.03125 
Q 45.3125 15.671875 45.3125 23.6875 
L 45.3125 54.6875 
L 54.296875 54.6875 
L 54.296875 0 
L 45.3125 0 
L 45.3125 8.40625 
Q 42.046875 3.421875 37.71875 1 
Q 33.40625 -1.421875 27.6875 -1.421875 
Q 18.265625 -1.421875 13.375 4.4375 
Q 8.5 10.296875 8.5 21.578125 
z
M 31.109375 56 
z
" id="DejaVuSans-117"/>
      <path d="M 52 44.1875 
Q 55.375 50.25 60.0625 53.125 
Q 64.75 56 71.09375 56 
Q 79.640625 56 84.28125 50.015625 
Q 88.921875 44.046875 88.921875 33.015625 
L 88.921875 0 
L 79.890625 0 
L 79.890625 32.71875 
Q 79.890625 40.578125 77.09375 44.375 
Q 74.3125 48.1875 68.609375 48.1875 
Q 61.625 48.1875 57.5625 43.546875 
Q 53.515625 38.921875 53.515625 30.90625 
L 53.515625 0 
L 44.484375 0 
L 44.484375 32.71875 
Q 44.484375 40.625 41.703125 44.40625 
Q 38.921875 48.1875 33.109375 48.1875 
Q 26.21875 48.1875 22.15625 43.53125 
Q 18.109375 38.875 18.109375 30.90625 
L 18.109375 0 
L 9.078125 0 
L 9.078125 54.6875 
L 18.109375 54.6875 
L 18.109375 46.1875 
Q 21.1875 51.21875 25.484375 53.609375 
Q 29.78125 56 35.6875 56 
Q 41.65625 56 45.828125 52.96875 
Q 50 49.953125 52 44.1875 
z
" id="DejaVuSans-109"/>
      <path d="M 4.203125 54.6875 
L 13.1875 54.6875 
L 24.421875 12.015625 
L 35.59375 54.6875 
L 46.1875 54.6875 
L 57.421875 12.015625 
L 68.609375 54.6875 
L 77.59375 54.6875 
L 63.28125 0 
L 52.6875 0 
L 40.921875 44.828125 
L 29.109375 0 
L 18.5 0 
z
" id="DejaVuSans-119"/>
      <path d="M 45.40625 46.390625 
L 45.40625 75.984375 
L 54.390625 75.984375 
L 54.390625 0 
L 45.40625 0 
L 45.40625 8.203125 
Q 42.578125 3.328125 38.25 0.953125 
Q 33.9375 -1.421875 27.875 -1.421875 
Q 17.96875 -1.421875 11.734375 6.484375 
Q 5.515625 14.40625 5.515625 27.296875 
Q 5.515625 40.1875 11.734375 48.09375 
Q 17.96875 56 27.875 56 
Q 33.9375 56 38.25 53.625 
Q 42.578125 51.265625 45.40625 46.390625 
z
M 14.796875 27.296875 
Q 14.796875 17.390625 18.875 11.75 
Q 22.953125 6.109375 30.078125 6.109375 
Q 37.203125 6.109375 41.296875 11.75 
Q 45.40625 17.390625 45.40625 27.296875 
Q 45.40625 37.203125 41.296875 42.84375 
Q 37.203125 48.484375 30.078125 48.484375 
Q 22.953125 48.484375 18.875 42.84375 
Q 14.796875 37.203125 14.796875 27.296875 
z
" id="DejaVuSans-100"/>
     </defs>
     <g transform="translate(14.798438 150.088281)rotate(-90)scale(0.1 -0.1)">
      <use xlink:href="#DejaVuSans-99"/>
      <use x="54.980469" xlink:href="#DejaVuSans-117"/>
      <use x="118.359375" xlink:href="#DejaVuSans-109"/>
      <use x="215.771484" xlink:href="#DejaVuSans-117"/>
      <use x="279.150391" xlink:href="#DejaVuSans-108"/>
      <use x="306.933594" xlink:href="#DejaVuSans-97"/>
      <use x="368.212891" xlink:href="#DejaVuSans-116"/>
      <use x="407.421875" xlink:href="#DejaVuSans-105"/>
      <use x="435.205078" xlink:href="#DejaVuSans-118"/>
      <use x="494.384766" xlink:href="#DejaVuSans-101"/>
      <use x="555.908203" xlink:href="#DejaVuSans-32"/>
      <use x="587.695312" xlink:href="#DejaVuSans-114"/>
      <use x="626.558594" xlink:href="#DejaVuSans-101"/>
      <use x="688.082031" xlink:href="#DejaVuSans-119"/>
      <use x="769.869141" xlink:href="#DejaVuSans-97"/>
      <use x="831.148438" xlink:href="#DejaVuSans-114"/>
      <use x="870.511719" xlink:href="#DejaVuSans-100"/>
     </g>
    </g>
   </g>
   <g id="patch_3">
    <path d="M 46.965625 186.549063 
L 46.965625 20.229063 
" style="fill:none;stroke:#000000;stroke-linecap:square;stroke-linejoin:miter;stroke-width:0.8;"/>
   </g>
   <g id="patch_4">
    <path d="M 409.665625 186.549063 
L 409.665625 20.229063 
" style="fill:none;stroke:#000000;stroke-linecap:square;stroke-linejoin:miter;stroke-width:0.8;"/>
   </g>
   <g id="patch_5">
    <path d="M 46.965625 186.549063 
L 409.665625 186.549063 
" style="fill:none;stroke:#000000;stroke-linecap:square;stroke-linejoin:miter;stroke-width:0.8;"/>
   </g>
   <g id="patch_6">
    <path d="M 46.965625 20.229063 
L 409.665625 20.229063 
" style="fill:none;stroke:#000000;stroke-linecap:square;stroke-linejoin:miter;stroke-width:0.8;"/>
   </g>
   <g id="text_10">
    <!-- mean: 189.926 -->
    <defs>
     <path d="M 31.78125 34.625 
Q 24.75 34.625 20.71875 30.859375 
Q 16.703125 27.09375 16.703125 20.515625 
Q 16.703125 13.921875 20.71875 10.15625 
Q 24.75 6.390625 31.78125 6.390625 
Q 38.8125 6.390625 42.859375 10.171875 
Q 46.921875 13.96875 46.921875 20.515625 
Q 46.921875 27.09375 42.890625 30.859375 
Q 38.875 34.625 31.78125 34.625 
z
M 21.921875 38.8125 
Q 15.578125 40.375 12.03125 44.71875 
Q 8.5 49.078125 8.5 55.328125 
Q 8.5 64.0625 14.71875 69.140625 
Q 20.953125 74.21875 31.78125 74.21875 
Q 42.671875 74.21875 48.875 69.140625 
Q 55.078125 64.0625 55.078125 55.328125 
Q 55.078125 49.078125 51.53125 44.71875 
Q 48 40.375 41.703125 38.8125 
Q 48.828125 37.15625 52.796875 32.3125 
Q 56.78125 27.484375 56.78125 20.515625 
Q 56.78125 9.90625 50.3125 4.234375 
Q 43.84375 -1.421875 31.78125 -1.421875 
Q 19.734375 -1.421875 13.25 4.234375 
Q 6.78125 9.90625 6.78125 20.515625 
Q 6.78125 27.484375 10.78125 32.3125 
Q 14.796875 37.15625 21.921875 38.8125 
z
M 18.3125 54.390625 
Q 18.3125 48.734375 21.84375 45.5625 
Q 25.390625 42.390625 31.78125 42.390625 
Q 38.140625 42.390625 41.71875 45.5625 
Q 45.3125 48.734375 45.3125 54.390625 
Q 45.3125 60.0625 41.71875 63.234375 
Q 38.140625 66.40625 31.78125 66.40625 
Q 25.390625 66.40625 21.84375 63.234375 
Q 18.3125 60.0625 18.3125 54.390625 
z
" id="DejaVuSans-56"/>
     <path d="M 10.984375 1.515625 
L 10.984375 10.5 
Q 14.703125 8.734375 18.5 7.8125 
Q 22.3125 6.890625 25.984375 6.890625 
Q 35.75 6.890625 40.890625 13.453125 
Q 46.046875 20.015625 46.78125 33.40625 
Q 43.953125 29.203125 39.59375 26.953125 
Q 35.25 24.703125 29.984375 24.703125 
Q 19.046875 24.703125 12.671875 31.3125 
Q 6.296875 37.9375 6.296875 49.421875 
Q 6.296875 60.640625 12.9375 67.421875 
Q 19.578125 74.21875 30.609375 74.21875 
Q 43.265625 74.21875 49.921875 64.515625 
Q 56.59375 54.828125 56.59375 36.375 
Q 56.59375 19.140625 48.40625 8.859375 
Q 40.234375 -1.421875 26.421875 -1.421875 
Q 22.703125 -1.421875 18.890625 -0.6875 
Q 15.09375 0.046875 10.984375 1.515625 
z
M 30.609375 32.421875 
Q 37.25 32.421875 41.125 36.953125 
Q 45.015625 41.5 45.015625 49.421875 
Q 45.015625 57.28125 41.125 61.84375 
Q 37.25 66.40625 30.609375 66.40625 
Q 23.96875 66.40625 20.09375 61.84375 
Q 16.21875 57.28125 16.21875 49.421875 
Q 16.21875 41.5 20.09375 36.953125 
Q 23.96875 32.421875 30.609375 32.421875 
z
" id="DejaVuSans-57"/>
     <path d="M 33.015625 40.375 
Q 26.375 40.375 22.484375 35.828125 
Q 18.609375 31.296875 18.609375 23.390625 
Q 18.609375 15.53125 22.484375 10.953125 
Q 26.375 6.390625 33.015625 6.390625 
Q 39.65625 6.390625 43.53125 10.953125 
Q 47.40625 15.53125 47.40625 23.390625 
Q 47.40625 31.296875 43.53125 35.828125 
Q 39.65625 40.375 33.015625 40.375 
z
M 52.59375 71.296875 
L 52.59375 62.3125 
Q 48.875 64.0625 45.09375 64.984375 
Q 41.3125 65.921875 37.59375 65.921875 
Q 27.828125 65.921875 22.671875 59.328125 
Q 17.53125 52.734375 16.796875 39.40625 
Q 19.671875 43.65625 24.015625 45.921875 
Q 28.375 48.1875 33.59375 48.1875 
Q 44.578125 48.1875 50.953125 41.515625 
Q 57.328125 34.859375 57.328125 23.390625 
Q 57.328125 12.15625 50.6875 5.359375 
Q 44.046875 -1.421875 33.015625 -1.421875 
Q 20.359375 -1.421875 13.671875 8.265625 
Q 6.984375 17.96875 6.984375 36.375 
Q 6.984375 53.65625 15.1875 63.9375 
Q 23.390625 74.21875 37.203125 74.21875 
Q 40.921875 74.21875 44.703125 73.484375 
Q 48.484375 72.75 52.59375 71.296875 
z
" id="DejaVuSans-54"/>
    </defs>
    <g transform="translate(69.285938 14.798438)scale(0.1 -0.1)">
     <use xlink:href="#DejaVuSans-109"/>
     <use x="97.412109" xlink:href="#DejaVuSans-101"/>
     <use x="158.935547" xlink:href="#DejaVuSans-97"/>
     <use x="220.214844" xlink:href="#DejaVuSans-110"/>
     <use x="283.59375" xlink:href="#DejaVuSans-58"/>
     <use x="317.285156" xlink:href="#DejaVuSans-32"/>
     <use x="349.072266" xlink:href="#DejaVuSans-49"/>
     <use x="412.695312" xlink:href="#DejaVuSans-56"/>
     <use x="476.318359" xlink:href="#DejaVuSans-57"/>
     <use x="539.941406" xlink:href="#DejaVuSans-46"/>
     <use x="571.728516" xlink:href="#DejaVuSans-57"/>
     <use x="635.351562" xlink:href="#DejaVuSans-50"/>
     <use x="698.974609" xlink:href="#DejaVuSans-54"/>
    </g>
   </g>
   <g id="text_11">
    <!-- mean: 192.0995 -->
    <g transform="translate(187.004688 14.798438)scale(0.1 -0.1)">
     <use xlink:href="#DejaVuSans-109"/>
     <use x="97.412109" xlink:href="#DejaVuSans-101"/>
     <use x="158.935547" xlink:href="#DejaVuSans-97"/>
     <use x="220.214844" xlink:href="#DejaVuSans-110"/>
     <use x="283.59375" xlink:href="#DejaVuSans-58"/>
     <use x="317.285156" xlink:href="#DejaVuSans-32"/>
     <use x="349.072266" xlink:href="#DejaVuSans-49"/>
     <use x="412.695312" xlink:href="#DejaVuSans-57"/>
     <use x="476.318359" xlink:href="#DejaVuSans-50"/>
     <use x="539.941406" xlink:href="#DejaVuSans-46"/>
     <use x="571.728516" xlink:href="#DejaVuSans-48"/>
     <use x="635.351562" xlink:href="#DejaVuSans-57"/>
     <use x="698.974609" xlink:href="#DejaVuSans-57"/>
     <use x="762.597656" xlink:href="#DejaVuSans-53"/>
    </g>
   </g>
   <g id="text_12">
    <!-- mean: 177.8425 -->
    <defs>
     <path d="M 8.203125 72.90625 
L 55.078125 72.90625 
L 55.078125 68.703125 
L 28.609375 0 
L 18.3125 0 
L 43.21875 64.59375 
L 8.203125 64.59375 
z
" id="DejaVuSans-55"/>
     <path d="M 37.796875 64.3125 
L 12.890625 25.390625 
L 37.796875 25.390625 
z
M 35.203125 72.90625 
L 47.609375 72.90625 
L 47.609375 25.390625 
L 58.015625 25.390625 
L 58.015625 17.1875 
L 47.609375 17.1875 
L 47.609375 0 
L 37.796875 0 
L 37.796875 17.1875 
L 4.890625 17.1875 
L 4.890625 26.703125 
z
" id="DejaVuSans-52"/>
    </defs>
    <g transform="translate(307.904687 14.798438)scale(0.1 -0.1)">
     <use xlink:href="#DejaVuSans-109"/>
     <use x="97.412109" xlink:href="#DejaVuSans-101"/>
     <use x="158.935547" xlink:href="#DejaVuSans-97"/>
     <use x="220.214844" xlink:href="#DejaVuSans-110"/>
     <use x="283.59375" xlink:href="#DejaVuSans-58"/>
     <use x="317.285156" xlink:href="#DejaVuSans-32"/>
     <use x="349.072266" xlink:href="#DejaVuSans-49"/>
     <use x="412.695312" xlink:href="#DejaVuSans-55"/>
     <use x="476.318359" xlink:href="#DejaVuSans-55"/>
     <use x="539.941406" xlink:href="#DejaVuSans-46"/>
     <use x="571.728516" xlink:href="#DejaVuSans-56"/>
     <use x="635.351562" xlink:href="#DejaVuSans-52"/>
     <use x="698.974609" xlink:href="#DejaVuSans-50"/>
     <use x="762.597656" xlink:href="#DejaVuSans-53"/>
    </g>
   </g>
  </g>
 </g>
 <defs>
  <clipPath id="pc45470044a">
   <rect height="166.32" width="362.7" x="46.965625" y="20.229063"/>
  </clipPath>
 </defs>
</svg>
