<?xml version="1.0" encoding="utf-8" standalone="no"?>
<!DOCTYPE svg PUBLIC "-//W3C//DTD SVG 1.1//EN"
  "http://www.w3.org/Graphics/SVG/1.1/DTD/svg11.dtd">
<!-- Created with matplotlib (https://matplotlib.org/) -->
<svg height="242.480497pt" version="1.1" viewBox="0 0 616.124539 242.480497" width="616.124539pt" xmlns="http://www.w3.org/2000/svg" xmlns:xlink="http://www.w3.org/1999/xlink">
 <defs>
  <style type="text/css">
*{stroke-linecap:butt;stroke-linejoin:round;}
  </style>
 </defs>
 <g id="figure_1">
  <g id="patch_1">
   <path d="M 0 242.480497 
L 616.124539 242.480497 
L 616.124539 0 
L 0 0 
z
" style="fill:#ffffff;"/>
  </g>
  <g id="axes_1">
   <g id="patch_2">
    <path d="M 48.641463 205.46218 
L 108.003165 205.46218 
L 108.003165 21.50218 
L 48.641463 21.50218 
z
" style="fill:#ffffff;"/>
   </g>
   <g id="patch_3">
    <path clip-path="url(#p2e4e3bc77e)" d="M 51.339722 150.27418 
L 55.49089 150.27418 
L 55.49089 150.27418 
L 51.339722 150.27418 
z
" style="fill:#78b0d7;"/>
   </g>
   <g id="patch_4">
    <path clip-path="url(#p2e4e3bc77e)" d="M 56.528682 150.27418 
L 60.67985 150.27418 
L 60.67985 126.727395 
L 56.528682 126.727395 
z
" style="fill:#78b0d7;"/>
   </g>
   <g id="patch_5">
    <path clip-path="url(#p2e4e3bc77e)" d="M 61.717642 150.27418 
L 65.86881 150.27418 
L 65.86881 100.136449 
L 61.717642 100.136449 
z
" style="fill:#78b0d7;"/>
   </g>
   <g id="patch_6">
    <path clip-path="url(#p2e4e3bc77e)" d="M 66.906602 150.27418 
L 71.05777 150.27418 
L 71.05777 76.116482 
L 66.906602 76.116482 
z
" style="fill:#78b0d7;"/>
   </g>
   <g id="patch_7">
    <path clip-path="url(#p2e4e3bc77e)" d="M 72.095562 150.27418 
L 76.24673 150.27418 
L 76.24673 75.05981 
L 72.095562 75.05981 
z
" style="fill:#78b0d7;"/>
   </g>
   <g id="patch_8">
    <path clip-path="url(#p2e4e3bc77e)" d="M 77.284522 150.27418 
L 81.43569 150.27418 
L 81.43569 69.152709 
L 77.284522 69.152709 
z
" style="fill:#78b0d7;"/>
   </g>
   <g id="patch_9">
    <path clip-path="url(#p2e4e3bc77e)" d="M 82.473482 150.27418 
L 86.62465 150.27418 
L 86.62465 64.235117 
L 82.473482 64.235117 
z
" style="fill:#78b0d7;"/>
   </g>
   <g id="patch_10">
    <path clip-path="url(#p2e4e3bc77e)" d="M 87.662442 150.27418 
L 91.81361 150.27418 
L 91.81361 34.423826 
L 87.662442 34.423826 
z
" style="fill:#78b0d7;"/>
   </g>
   <g id="patch_11">
    <path clip-path="url(#p2e4e3bc77e)" d="M 92.851402 150.27418 
L 97.00257 150.27418 
L 97.00257 31.087312 
L 92.851402 31.087312 
z
" style="fill:#78b0d7;"/>
   </g>
   <g id="patch_12">
    <path clip-path="url(#p2e4e3bc77e)" d="M 98.040362 150.27418 
L 102.19153 150.27418 
L 102.19153 27.63418 
L 98.040362 27.63418 
z
" style="fill:#78b0d7;"/>
   </g>
   <g id="matplotlib.axis_1">
    <g id="xtick_1">
     <g id="line2d_1">
      <defs>
       <path d="M 0 0 
L 0 3.5 
" id="m03a2fa2aa8" style="stroke:#000000;stroke-width:0.8;"/>
      </defs>
      <g>
       <use style="stroke:#000000;stroke-width:0.8;" x="53.415306" xlink:href="#m03a2fa2aa8" y="205.46218"/>
      </g>
     </g>
     <g id="text_1">
      <!-- $0$ -->
      <defs>
       <path d="M 42 31.640625 
C 42 37.75 41.90625 48.125 37.703125 56.109375 
C 34 63.109375 28.09375 65.59375 22.90625 65.59375 
C 18.09375 65.59375 12 63.40625 8.203125 56.203125 
C 4.203125 48.71875 3.796875 39.4375 3.796875 31.640625 
C 3.796875 25.953125 3.90625 17.28125 7 9.671875 
C 11.296875 -0.609375 19 -2 22.90625 -2 
C 27.5 -2 34.5 -0.109375 38.59375 9.375 
C 41.59375 16.28125 42 24.359375 42 31.640625 
z
M 22.90625 -0.40625 
C 16.5 -0.40625 12.703125 5.078125 11.296875 12.6875 
C 10.203125 18.5625 10.203125 27.15625 10.203125 32.75 
C 10.203125 40.4375 10.203125 46.828125 11.5 52.921875 
C 13.40625 61.390625 19 64 22.90625 64 
C 27 64 32.296875 61.296875 34.203125 53.125 
C 35.5 47.4375 35.59375 40.734375 35.59375 32.75 
C 35.59375 26.25 35.59375 18.265625 34.40625 12.375 
C 32.296875 1.484375 26.40625 -0.40625 22.90625 -0.40625 
z
" id="CMR17-48"/>
      </defs>
      <g transform="translate(50.924638 219.380678)scale(0.1 -0.1)">
       <use transform="scale(0.996264)" xlink:href="#CMR17-48"/>
      </g>
     </g>
    </g>
    <g id="xtick_2">
     <g id="line2d_2">
      <g>
       <use style="stroke:#000000;stroke-width:0.8;" x="105.304906" xlink:href="#m03a2fa2aa8" y="205.46218"/>
      </g>
     </g>
     <g id="text_2">
      <!-- $10$ -->
      <defs>
       <path d="M 26.59375 63.40625 
C 26.59375 65.5 26.5 65.5 25.09375 65.5 
C 21.203125 61.1875 15.296875 59.796875 9.703125 59.796875 
C 9.40625 59.796875 8.90625 59.796875 8.796875 59.5 
C 8.703125 59.296875 8.703125 59.09375 8.703125 57 
C 11.796875 57 17 57.59375 21 59.984375 
L 21 7.203125 
C 21 3.6875 20.796875 2.5 12.203125 2.5 
L 9.203125 2.5 
L 9.203125 0 
C 14 0 19 0 23.796875 0 
C 28.59375 0 33.59375 0 38.40625 0 
L 38.40625 2.5 
L 35.40625 2.5 
C 26.796875 2.5 26.59375 3.59375 26.59375 7.15625 
z
" id="CMR17-49"/>
      </defs>
      <g transform="translate(100.32357 219.380678)scale(0.1 -0.1)">
       <use transform="scale(0.996264)" xlink:href="#CMR17-49"/>
       <use transform="translate(45.690477 0)scale(0.996264)" xlink:href="#CMR17-48"/>
      </g>
     </g>
    </g>
    <g id="text_3">
     <!-- i (population member) -->
     <defs>
      <path d="M 15.296875 65.359375 
L 6.90625 65.359375 
L 6.90625 57 
L 15.296875 57 
z
M 14.796875 42.796875 
L 7.40625 42.796875 
L 7.40625 0 
L 14.796875 0 
z
" id="CMSS17-105"/>
      <path d="M 25.203125 74.5 
C 19.796875 69.015625 7.40625 56.265625 7.40625 24.8125 
C 7.40625 -6.765625 19.796875 -19.421875 25.203125 -25 
L 31.296875 -25 
C 19 -12.25 15 5.578125 15 24.703125 
C 15 43.71875 18.796875 61.65625 31.296875 74.5 
z
" id="CMSS17-40"/>
      <path d="M 15.09375 5.203125 
C 18.40625 2.015625 22.90625 -0.078125 27.703125 -0.078125 
C 37 -0.078125 45 9.421875 45 22.0625 
C 45 33.734375 39 44 30.40625 44 
C 25.40625 44 19.40625 42.21875 14.90625 38.625 
L 14.90625 43.203125 
L 7.5 43.203125 
L 7.5 -19 
L 15.09375 -19 
z
M 15.09375 32.8125 
C 15.90625 34 19.296875 37.734375 24.796875 37.734375 
C 31.796875 37.734375 37.40625 30.625 37.40625 22.0625 
C 37.40625 12.296875 30.59375 6 23.90625 6 
C 21.90625 6 19.796875 6.484375 17.796875 8.171875 
C 15.09375 10.53125 15.09375 12 15.09375 13.390625 
z
" id="CMSS17-112"/>
      <path d="M 44.203125 21.1875 
C 44.203125 34 34.703125 44 23.5 44 
C 12 44 2.703125 33.703125 2.703125 21.1875 
C 2.703125 8.5 12.296875 -1 23.40625 -1 
C 34.796875 -1 44.203125 8.796875 44.203125 21.1875 
z
M 23.5 5.265625 
C 16.40625 5.265625 10.296875 11.078125 10.296875 22 
C 10.296875 33.609375 17.40625 37.921875 23.40625 37.921875 
C 29.90625 37.921875 36.59375 33.21875 36.59375 22 
C 36.59375 10.671875 30.09375 5.265625 23.5 5.265625 
z
" id="CMSS17-111"/>
      <path d="M 40.90625 42.796875 
L 33.296875 42.796875 
L 33.296875 15.1875 
C 33.296875 7.78125 27.90625 4.78125 22.203125 4.78125 
C 15.59375 4.78125 15 6.984375 15 11.078125 
L 15 42.796875 
L 7.40625 42.796875 
L 7.40625 10.59375 
C 7.40625 2.796875 10.09375 -1 17 -1 
C 20.40625 -1 28.09375 -0.203125 33.5 4.78125 
L 33.5 0 
L 40.90625 0 
z
" id="CMSS17-117"/>
      <path d="M 14.796875 69 
L 7.40625 69 
L 7.40625 0 
L 14.796875 0 
z
" id="CMSS17-108"/>
      <path d="M 37.59375 27.984375 
C 37.59375 37.375 30.90625 43.875 21.90625 43.875 
C 17.5 43.875 12.703125 43.078125 7.203125 39.890625 
L 7.796875 33.359375 
C 10.296875 35.125 14.59375 38 21.796875 38 
C 26.90625 38 30 34.0625 30 27.84375 
L 30 24 
C 14 24 4 19.34375 4 11.34375 
C 4 7.203125 6.5 -1 14.796875 -1 
C 16.296875 -1 24.40625 -1 30.203125 3.390625 
L 30.203125 -0.296875 
L 37.59375 -0.296875 
z
M 30 12.75 
C 30 10.953125 30 8.5625 27 6.78125 
C 24.40625 5.078125 21.09375 5.078125 19.703125 5.078125 
C 14.703125 5.078125 11.296875 7.984375 11.296875 11.625 
C 11.296875 18.921875 26.90625 18.921875 30 18.921875 
z
" id="CMSS17-97"/>
      <path d="M 16.703125 37 
L 29.703125 37 
L 29.703125 42.765625 
L 16.703125 42.765625 
L 16.703125 55 
L 9.59375 55 
L 9.59375 42.765625 
L 1.703125 42.765625 
L 1.703125 37 
L 9.40625 37 
L 9.40625 11.703125 
C 9.40625 6 10.703125 -1 17.296875 -1 
C 22.296875 -1 26.90625 0.390625 31.296875 2.6875 
L 29.703125 8.5625 
C 27.296875 6.46875 24.40625 5.265625 21.296875 5.265625 
C 16.90625 5.265625 16.703125 10.875 16.703125 13.375 
z
" id="CMSS17-116"/>
      <path d="M 40.90625 29.328125 
C 40.90625 35.671875 39.40625 44 28.09375 44 
C 21.703125 44 17.5 40.71875 14.703125 37.328125 
L 14.703125 43.09375 
L 7.40625 43.09375 
L 7.40625 0 
L 15 0 
L 15 24.359375 
C 15 30.6875 17.40625 37.9375 24.203125 37.9375 
C 33 37.9375 33.296875 32 33.296875 28.578125 
L 33.296875 0 
L 40.90625 0 
z
" id="CMSS17-110"/>
      <path d="M 67 29.328125 
C 67 36.0625 65.296875 44 54.09375 44 
C 46.59375 44 42.09375 39.3125 40.09375 36.421875 
C 38.296875 41.71875 34.09375 44 28.09375 44 
C 21.296875 44 17 40.125 14.703125 37.328125 
L 14.703125 43.09375 
L 7.40625 43.09375 
L 7.40625 0 
L 15 0 
L 15 24.359375 
C 15 30.296875 17.203125 37.9375 24.296875 37.9375 
C 33.40625 37.9375 33.40625 31.5 33.40625 28.578125 
L 33.40625 0 
L 41 0 
L 41 24.359375 
C 41 30.296875 43.203125 37.9375 50.296875 37.9375 
C 59.40625 37.9375 59.40625 31.5 59.40625 28.578125 
L 59.40625 0 
L 67 0 
z
" id="CMSS17-109"/>
      <path d="M 39.09375 21.515625 
C 39.09375 24.84375 38.90625 31.296875 35.703125 36.640625 
C 32.203125 42.390625 26.5 44 22.203125 44 
C 11.796875 44 3 34.1875 3 21.484375 
C 3 9.09375 12.09375 -1 23.59375 -1 
C 28.09375 -1 33.59375 0.296875 38.59375 3.875 
C 38.59375 4.28125 38.40625 6.46875 38.296875 6.5625 
C 38.296875 6.765625 38 9.84375 38 10.25 
C 33.203125 6.359375 27.703125 5.078125 23.703125 5.078125 
C 17.296875 5.078125 10.40625 10.421875 10.09375 21.515625 
z
M 10.90625 27 
C 12.203125 32.5625 16.59375 37.828125 22.203125 37.828125 
C 23.703125 37.828125 30.703125 37.828125 32.5 27 
z
" id="CMSS17-101"/>
      <path d="M 14.90625 69 
L 7.5 69 
L 7.5 -0.203125 
L 15.09375 -0.203125 
L 15.09375 4.28125 
C 18.90625 0.59375 23.5 -1 27.59375 -1 
C 37.203125 -1 45 8.578125 45 21.125 
C 45 32.59375 39 43.0625 30.09375 43.0625 
C 23.796875 43.0625 18.203125 40.484375 14.90625 37.796875 
z
M 15.09375 31.96875 
C 17.296875 34.71875 20.40625 37 24.796875 37 
C 30.703125 37 37.40625 32.765625 37.40625 21.125 
C 37.40625 8.71875 29.40625 5.078125 23.90625 5.078125 
C 21.90625 5.078125 19.796875 5.5625 17.796875 7.25 
C 15.09375 9.609375 15.09375 11.078125 15.09375 12.453125 
z
" id="CMSS17-98"/>
      <path d="M 14.90625 21.296875 
C 14.90625 30.703125 21.796875 37 30.59375 37 
L 30.59375 43.578125 
C 24.203125 43.578125 18.203125 40.390625 14.59375 35.203125 
L 14.59375 43.09375 
L 7.5 43.09375 
L 7.5 0 
L 14.90625 0 
z
" id="CMSS17-114"/>
      <path d="M 11.296875 -25 
C 16.703125 -19.515625 29.09375 -6.765625 29.09375 24.703125 
C 29.09375 56.265625 16.703125 68.921875 11.296875 74.5 
L 5.203125 74.5 
C 17.5 61.75 21.5 43.921875 21.5 24.8125 
C 21.5 5.78125 17.703125 -12.15625 5.203125 -25 
z
" id="CMSS17-41"/>
     </defs>
     <g transform="translate(31.193421 232.789837)scale(0.1 -0.1)">
      <use transform="scale(0.996264)" xlink:href="#CMSS17-105"/>
      <use transform="translate(53.409836 0)scale(0.996264)" xlink:href="#CMSS17-40"/>
      <use transform="translate(89.84375 0)scale(0.996264)" xlink:href="#CMSS17-112"/>
      <use transform="translate(140.651132 0)scale(0.996264)" xlink:href="#CMSS17-111"/>
      <use transform="translate(187.494755 0)scale(0.996264)" xlink:href="#CMSS17-112"/>
      <use transform="translate(235.699699 0)scale(0.996264)" xlink:href="#CMSS17-117"/>
      <use transform="translate(283.904642 0)scale(0.996264)" xlink:href="#CMSS17-108"/>
      <use transform="translate(306.085365 0)scale(0.996264)" xlink:href="#CMSS17-97"/>
      <use transform="translate(351.007285 0)scale(0.996264)" xlink:href="#CMSS17-116"/>
      <use transform="translate(384.838852 0)scale(0.996264)" xlink:href="#CMSS17-105"/>
      <use transform="translate(407.019575 0)scale(0.996264)" xlink:href="#CMSS17-111"/>
      <use transform="translate(453.863199 0)scale(0.996264)" xlink:href="#CMSS17-110"/>
      <use transform="translate(533.297254 0)scale(0.996264)" xlink:href="#CMSS17-109"/>
      <use transform="translate(607.526509 0)scale(0.996264)" xlink:href="#CMSS17-101"/>
      <use transform="translate(649.165331 0)scale(0.996264)" xlink:href="#CMSS17-109"/>
      <use transform="translate(723.394585 0)scale(0.996264)" xlink:href="#CMSS17-98"/>
      <use transform="translate(774.201967 0)scale(0.996264)" xlink:href="#CMSS17-101"/>
      <use transform="translate(815.840789 0)scale(0.996264)" xlink:href="#CMSS17-114"/>
      <use transform="translate(847.750562 0)scale(0.996264)" xlink:href="#CMSS17-41"/>
     </g>
    </g>
   </g>
   <g id="matplotlib.axis_2">
    <g id="ytick_1">
     <g id="line2d_3">
      <defs>
       <path d="M 0 0 
L -3.5 0 
" id="m4faccd3b37" style="stroke:#000000;stroke-width:0.8;"/>
      </defs>
      <g>
       <use style="stroke:#000000;stroke-width:0.8;" x="48.641463" xlink:href="#m4faccd3b37" y="199.33018"/>
      </g>
     </g>
     <g id="text_4">
      <!-- $-0.4$ -->
      <defs>
       <path d="M 65.90625 23 
C 67.59375 23 69.40625 23 69.40625 25 
C 69.40625 27 67.59375 27 65.90625 27 
L 11.796875 27 
C 10.09375 27 8.296875 27 8.296875 25 
C 8.296875 23 10.09375 23 11.796875 23 
z
" id="CMSY10-0"/>
       <path d="M 18.40625 4.796875 
C 18.40625 7.6875 16 9.671875 13.59375 9.671875 
C 10.703125 9.671875 8.703125 7.28125 8.703125 4.890625 
C 8.703125 2 11.09375 0 13.5 0 
C 16.40625 0 18.40625 2.390625 18.40625 4.796875 
z
" id="CMMI12-58"/>
       <path d="M 33.59375 64.40625 
C 33.59375 66.5 33.5 66.5 31.703125 66.5 
L 2 19.59375 
L 2 17 
L 27.796875 17 
L 27.796875 7.140625 
C 27.796875 3.5 27.59375 2.5 20.59375 2.5 
L 18.703125 2.5 
L 18.703125 0 
C 21.90625 0 27.296875 0 30.703125 0 
C 34.09375 0 39.5 0 42.703125 0 
L 42.703125 2.5 
L 40.796875 2.5 
C 33.796875 2.5 33.59375 3.5 33.59375 7.140625 
L 33.59375 17 
L 43.796875 17 
L 43.796875 19.59375 
L 33.59375 19.59375 
z
M 28.09375 57.859375 
L 28.09375 19.59375 
L 4 19.59375 
z
" id="CMR17-52"/>
      </defs>
      <g transform="translate(21.16264 202.789429)scale(0.1 -0.1)">
       <use transform="scale(0.996264)" xlink:href="#CMSY10-0"/>
       <use transform="translate(77.487468 0)scale(0.996264)" xlink:href="#CMR17-48"/>
       <use transform="translate(123.177945 0)scale(0.996264)" xlink:href="#CMMI12-58"/>
       <use transform="translate(150.275122 0)scale(0.996264)" xlink:href="#CMR17-52"/>
      </g>
     </g>
    </g>
    <g id="ytick_2">
     <g id="line2d_4">
      <g>
       <use style="stroke:#000000;stroke-width:0.8;" x="48.641463" xlink:href="#m4faccd3b37" y="174.80218"/>
      </g>
     </g>
     <g id="text_5">
      <!-- $-0.2$ -->
      <defs>
       <path d="M 41.703125 15.453125 
L 39.90625 15.453125 
C 38.90625 8.375 38.09375 7.171875 37.703125 6.5625 
C 37.203125 5.765625 30 5.765625 28.59375 5.765625 
L 9.40625 5.765625 
C 13 9.671875 20 16.75 28.5 24.953125 
C 34.59375 30.734375 41.703125 37.53125 41.703125 47.421875 
C 41.703125 59.21875 32.296875 66 21.796875 66 
C 10.796875 66 4.09375 56.3125 4.09375 47.34375 
C 4.09375 43.4375 7 42.9375 8.203125 42.9375 
C 9.203125 42.9375 12.203125 43.546875 12.203125 47.03125 
C 12.203125 50.109375 9.59375 51 8.203125 51 
C 7.59375 51 7 50.90625 6.59375 50.703125 
C 8.5 59.21875 14.296875 63.40625 20.40625 63.40625 
C 29.09375 63.40625 34.796875 56.515625 34.796875 47.421875 
C 34.796875 38.734375 29.703125 31.25 24 24.75 
L 4.09375 2.28125 
L 4.09375 0 
L 39.296875 0 
z
" id="CMR17-50"/>
      </defs>
      <g transform="translate(21.16264 178.261429)scale(0.1 -0.1)">
       <use transform="scale(0.996264)" xlink:href="#CMSY10-0"/>
       <use transform="translate(77.487468 0)scale(0.996264)" xlink:href="#CMR17-48"/>
       <use transform="translate(123.177945 0)scale(0.996264)" xlink:href="#CMMI12-58"/>
       <use transform="translate(150.275122 0)scale(0.996264)" xlink:href="#CMR17-50"/>
      </g>
     </g>
    </g>
    <g id="ytick_3">
     <g id="line2d_5">
      <g>
       <use style="stroke:#000000;stroke-width:0.8;" x="48.641463" xlink:href="#m4faccd3b37" y="150.27418"/>
      </g>
     </g>
     <g id="text_6">
      <!-- $0.0$ -->
      <g transform="translate(28.911384 153.733429)scale(0.1 -0.1)">
       <use transform="scale(0.996264)" xlink:href="#CMR17-48"/>
       <use transform="translate(45.690477 0)scale(0.996264)" xlink:href="#CMMI12-58"/>
       <use transform="translate(72.787654 0)scale(0.996264)" xlink:href="#CMR17-48"/>
      </g>
     </g>
    </g>
    <g id="ytick_4">
     <g id="line2d_6">
      <g>
       <use style="stroke:#000000;stroke-width:0.8;" x="48.641463" xlink:href="#m4faccd3b37" y="125.74618"/>
      </g>
     </g>
     <g id="text_7">
      <!-- $0.2$ -->
      <g transform="translate(28.911384 129.205429)scale(0.1 -0.1)">
       <use transform="scale(0.996264)" xlink:href="#CMR17-48"/>
       <use transform="translate(45.690477 0)scale(0.996264)" xlink:href="#CMMI12-58"/>
       <use transform="translate(72.787654 0)scale(0.996264)" xlink:href="#CMR17-50"/>
      </g>
     </g>
    </g>
    <g id="ytick_5">
     <g id="line2d_7">
      <g>
       <use style="stroke:#000000;stroke-width:0.8;" x="48.641463" xlink:href="#m4faccd3b37" y="101.21818"/>
      </g>
     </g>
     <g id="text_8">
      <!-- $0.4$ -->
      <g transform="translate(28.911384 104.677429)scale(0.1 -0.1)">
       <use transform="scale(0.996264)" xlink:href="#CMR17-48"/>
       <use transform="translate(45.690477 0)scale(0.996264)" xlink:href="#CMMI12-58"/>
       <use transform="translate(72.787654 0)scale(0.996264)" xlink:href="#CMR17-52"/>
      </g>
     </g>
    </g>
    <g id="ytick_6">
     <g id="line2d_8">
      <g>
       <use style="stroke:#000000;stroke-width:0.8;" x="48.641463" xlink:href="#m4faccd3b37" y="76.69018"/>
      </g>
     </g>
     <g id="text_9">
      <!-- $0.6$ -->
      <defs>
       <path d="M 10.59375 34 
C 10.59375 57.65625 21.796875 63 28.296875 63 
C 30.40625 63 35.5 62.640625 37.5 59 
C 35.90625 59 32.90625 59 32.90625 55.515625 
C 32.90625 52.828125 35.09375 51.921875 36.5 51.921875 
C 37.40625 51.921875 40.09375 52.3125 40.09375 55.625 
C 40.09375 61.78125 35.09375 65.296875 28.203125 65.296875 
C 16.296875 65.296875 3.796875 52.96875 3.796875 31 
C 3.796875 3.953125 15.09375 -2 23.09375 -2 
C 32.796875 -2 42 6.671875 42 20.046875 
C 42 32.515625 33.90625 41.59375 23.703125 41.59375 
C 17.59375 41.59375 13.09375 37.609375 10.59375 30.625 
z
M 23.09375 0.390625 
C 10.796875 0.390625 10.796875 18.75 10.796875 22.4375 
C 10.796875 29.625 14.203125 40 23.5 40 
C 25.203125 40 30.09375 40 33.40625 33.125 
C 35.203125 29.21875 35.203125 25.140625 35.203125 20.140625 
C 35.203125 14.75 35.203125 10.78125 33.09375 6.78125 
C 30.90625 2.671875 27.703125 0.390625 23.09375 0.390625 
z
" id="CMR17-54"/>
      </defs>
      <g transform="translate(28.911384 80.149429)scale(0.1 -0.1)">
       <use transform="scale(0.996264)" xlink:href="#CMR17-48"/>
       <use transform="translate(45.690477 0)scale(0.996264)" xlink:href="#CMMI12-58"/>
       <use transform="translate(72.787654 0)scale(0.996264)" xlink:href="#CMR17-54"/>
      </g>
     </g>
    </g>
    <g id="ytick_7">
     <g id="line2d_9">
      <g>
       <use style="stroke:#000000;stroke-width:0.8;" x="48.641463" xlink:href="#m4faccd3b37" y="52.16218"/>
      </g>
     </g>
     <g id="text_10">
      <!-- $0.8$ -->
      <defs>
       <path d="M 27.203125 35.375 
C 33.5 38.546875 39.90625 43.328125 39.90625 50.984375 
C 39.90625 60.015625 31.09375 65.296875 23 65.296875 
C 13.90625 65.296875 5.90625 58.734375 5.90625 49.6875 
C 5.90625 47.203125 6.5 42.921875 10.40625 39.140625 
C 11.40625 38.15625 15.59375 35.171875 18.296875 33.28125 
C 13.796875 30.984375 3.296875 25.53125 3.296875 14.59375 
C 3.296875 4.359375 13.09375 -2 22.796875 -2 
C 33.5 -2 42.5 5.65625 42.5 15.78125 
C 42.5 24.84375 36.40625 29.015625 32.40625 31.703125 
z
M 14.09375 44.09375 
C 13.296875 44.59375 9.296875 47.671875 9.296875 52.359375 
C 9.296875 58.421875 15.59375 63 22.796875 63 
C 30.703125 63 36.5 57.4375 36.5 50.96875 
C 36.5 41.703125 26.09375 36.421875 25.59375 36.421875 
C 25.5 36.421875 25.40625 36.421875 24.59375 37.03125 
z
M 32.5 23.734375 
C 34 22.640625 38.796875 19.375 38.796875 13.296875 
C 38.796875 5.953125 31.40625 0.390625 23 0.390625 
C 13.90625 0.390625 7 6.84375 7 14.6875 
C 7 22.546875 13.09375 29.09375 20 32.1875 
z
" id="CMR17-56"/>
      </defs>
      <g transform="translate(28.911384 55.621429)scale(0.1 -0.1)">
       <use transform="scale(0.996264)" xlink:href="#CMR17-48"/>
       <use transform="translate(45.690477 0)scale(0.996264)" xlink:href="#CMMI12-58"/>
       <use transform="translate(72.787654 0)scale(0.996264)" xlink:href="#CMR17-56"/>
      </g>
     </g>
    </g>
    <g id="ytick_8">
     <g id="line2d_10">
      <g>
       <use style="stroke:#000000;stroke-width:0.8;" x="48.641463" xlink:href="#m4faccd3b37" y="27.63418"/>
      </g>
     </g>
     <g id="text_11">
      <!-- $1.0$ -->
      <g transform="translate(28.911384 31.093429)scale(0.1 -0.1)">
       <use transform="scale(0.996264)" xlink:href="#CMR17-49"/>
       <use transform="translate(45.690477 0)scale(0.996264)" xlink:href="#CMMI12-58"/>
       <use transform="translate(72.787654 0)scale(0.996264)" xlink:href="#CMR17-48"/>
      </g>
     </g>
    </g>
    <g id="text_12">
     <!-- expected cumulative reward / fitness value -->
     <defs>
      <path d="M 24.796875 22.09375 
L 41.5 42.796875 
L 32.796875 42.796875 
L 21.296875 27.765625 
L 9.40625 42.796875 
L 0.5 42.796875 
L 17.796875 22.09375 
L 0 0 
L 8.796875 0 
L 21.296875 17.515625 
L 34.296875 0 
L 43.09375 0 
z
" id="CMSS17-120"/>
      <path d="M 38.5 39.703125 
C 38.5 40.390625 33.90625 42.40625 32.703125 42.796875 
C 29.40625 44 25.203125 44 24.09375 44 
C 11.09375 44 3.296875 32.703125 3.296875 21.296875 
C 3.296875 9.296875 12 -1 23.703125 -1 
C 30.40625 -1 35.203125 1.1875 39.09375 3.78125 
L 38.5 10.375 
C 34.203125 7.078125 29.203125 5.265625 23.796875 5.265625 
C 16 5.265625 10.90625 12.09375 10.90625 21.390625 
C 10.90625 28.609375 14.203125 37.71875 24.203125 37.71875 
C 29.703125 37.71875 32.796875 36.609375 37.40625 33.515625 
z
" id="CMSS17-99"/>
      <path d="M 40.796875 69 
L 33.40625 69 
L 33.40625 38.09375 
C 30.296875 40.671875 25.203125 43.0625 19.59375 43.0625 
C 10.5 43.0625 3.296875 33.296875 3.296875 21.046875 
C 3.296875 8.78125 10.40625 -1 19.296875 -1 
C 26.203125 -1 30.796875 2.6875 33.203125 4.78125 
L 33.203125 -0.203125 
L 40.796875 -0.203125 
z
M 33.203125 13.0625 
C 33.203125 11.671875 33.203125 10.203125 30.09375 7.53125 
C 28.09375 5.859375 25.703125 5.078125 23.40625 5.078125 
C 18 5.078125 10.90625 9 10.90625 20.9375 
C 10.90625 33.34375 18.90625 37 24.40625 37 
C 28.09375 37 31.09375 35.21875 33.203125 32.265625 
z
" id="CMSS17-100"/>
      <path d="M 41.796875 43 
L 34 43 
L 27.296875 24.3125 
C 25.203125 18.203125 22.203125 9.796875 21.703125 5.5 
L 21.59375 5.5 
C 21.40625 7.3125 20.59375 9.90625 20.09375 11.703125 
C 19.5 13.90625 18.703125 16.5 18.09375 18.3125 
L 9.296875 43 
L 1.296875 43 
L 17.09375 0 
L 26 0 
z
" id="CMSS17-118"/>
      <path d="M 62.703125 43 
L 55.09375 43 
L 49.796875 25.015625 
C 48.703125 21.21875 45.59375 10.703125 45.203125 5.796875 
L 45.09375 5.796875 
C 44.90625 8.8125 43.203125 16 40.40625 25.515625 
L 35.296875 43 
L 28.40625 43 
L 23.40625 25.90625 
C 20.90625 17.203125 19 9.796875 18.796875 5.796875 
L 18.703125 5.796875 
C 18.296875 11.703125 14.203125 25.515625 13.59375 27.703125 
L 9.09375 43 
L 1.296875 43 
L 14.296875 0 
L 21.90625 0 
C 27.09375 17.125 31.09375 30.359375 31.40625 37.03125 
C 31.59375 33.75 33.296875 26.671875 34.296875 23.1875 
L 40.90625 0 
L 49.703125 0 
z
" id="CMSS17-119"/>
      <path d="M 41.203125 71.015625 
C 41.703125 72.296875 41.703125 72.5 41.703125 72.703125 
C 41.703125 73.890625 40.796875 74.5 40 74.5 
C 38.796875 74.5 38.40625 73.703125 38 72.5 
L 5.703125 -21.515625 
C 5.203125 -22.8125 5.203125 -23.015625 5.203125 -23.21875 
C 5.203125 -24.40625 6.09375 -25 6.90625 -25 
C 8.09375 -25 8.5 -24.203125 8.90625 -23.015625 
z
" id="CMSS17-47"/>
      <path d="M 43 69 
L 35 69 
L 35 61.03125 
L 43 61.03125 
z
M 42.703125 42.765625 
L 35.296875 42.765625 
L 35.296875 0 
L 42.703125 0 
z
M 16.796875 37 
L 27.703125 37 
L 27.703125 42.765625 
L 16.59375 42.765625 
L 16.59375 55.90625 
C 16.59375 61.234375 19 63.9375 22.203125 63.9375 
C 24.09375 63.9375 26 63.375 27.703125 62.375 
L 27.703125 68.90625 
C 26.90625 69.1875 24.59375 70 22.203125 70 
C 14.703125 70 9.40625 62.390625 9.40625 52.6875 
L 9.40625 42.765625 
L 2.5 42.765625 
L 2.5 37 
L 9.40625 37 
L 9.40625 0 
L 16.796875 0 
z
" id="CMSS17-12"/>
      <path d="M 32.203125 41.046875 
C 26.296875 43.859375 21.703125 43.859375 18.703125 43.859375 
C 11.59375 43.859375 3.09375 41.375 3.09375 31.296875 
C 3.09375 21.234375 14.09375 19.03125 17.09375 18.421875 
C 21.703125 17.53125 26.796875 16.53125 26.796875 11.5625 
C 26.796875 5.265625 19.59375 5.265625 18.296875 5.265625 
C 14.296875 5.265625 8.796875 6.359375 3.796875 9.96875 
L 2.59375 3.28125 
C 8.296875 0 13.796875 -1 18.40625 -1 
C 30.703125 -1 33.796875 6.5 33.796875 12.203125 
C 33.796875 17.09375 31 20.390625 29.09375 21.890625 
C 25.796875 24.5 24.59375 24.796875 16.40625 26.5 
C 15 26.703125 10.09375 27.796875 10.09375 32.28125 
C 10.09375 38 16.40625 38 17.796875 38 
C 24.296875 38 28.296875 35.984375 31 34.5 
z
" id="CMSS17-115"/>
     </defs>
     <g transform="translate(14.67198 202.371159)rotate(-90)scale(0.1 -0.1)">
      <use transform="scale(0.996264)" xlink:href="#CMSS17-101"/>
      <use transform="translate(41.638822 0)scale(0.996264)" xlink:href="#CMSS17-120"/>
      <use transform="translate(84.638964 0)scale(0.996264)" xlink:href="#CMSS17-112"/>
      <use transform="translate(135.446346 0)scale(0.996264)" xlink:href="#CMSS17-101"/>
      <use transform="translate(177.085168 0)scale(0.996264)" xlink:href="#CMSS17-99"/>
      <use transform="translate(218.72399 0)scale(0.996264)" xlink:href="#CMSS17-116"/>
      <use transform="translate(252.555556 0)scale(0.996264)" xlink:href="#CMSS17-101"/>
      <use transform="translate(294.194379 0)scale(0.996264)" xlink:href="#CMSS17-100"/>
      <use transform="translate(373.628434 0)scale(0.996264)" xlink:href="#CMSS17-99"/>
      <use transform="translate(415.267256 0)scale(0.996264)" xlink:href="#CMSS17-117"/>
      <use transform="translate(463.4722 0)scale(0.996264)" xlink:href="#CMSS17-109"/>
      <use transform="translate(537.701454 0)scale(0.996264)" xlink:href="#CMSS17-117"/>
      <use transform="translate(585.906397 0)scale(0.996264)" xlink:href="#CMSS17-108"/>
      <use transform="translate(608.08712 0)scale(0.996264)" xlink:href="#CMSS17-97"/>
      <use transform="translate(653.009041 0)scale(0.996264)" xlink:href="#CMSS17-116"/>
      <use transform="translate(686.840607 0)scale(0.996264)" xlink:href="#CMSS17-105"/>
      <use transform="translate(709.021331 0)scale(0.996264)" xlink:href="#CMSS17-118"/>
      <use transform="translate(752.021472 0)scale(0.996264)" xlink:href="#CMSS17-101"/>
      <use transform="translate(824.889407 0)scale(0.996264)" xlink:href="#CMSS17-114"/>
      <use transform="translate(856.79918 0)scale(0.996264)" xlink:href="#CMSS17-101"/>
      <use transform="translate(898.438002 0)scale(0.996264)" xlink:href="#CMSS17-119"/>
      <use transform="translate(959.655093 0)scale(0.996264)" xlink:href="#CMSS17-97"/>
      <use transform="translate(1001.97456 0)scale(0.996264)" xlink:href="#CMSS17-114"/>
      <use transform="translate(1033.884332 0)scale(0.996264)" xlink:href="#CMSS17-100"/>
      <use transform="translate(1113.318388 0)scale(0.996264)" xlink:href="#CMSS17-47"/>
      <use transform="translate(1191.391124 0)scale(0.996264)" xlink:href="#CMSS17-12"/>
      <use transform="translate(1241.517861 0)scale(0.996264)" xlink:href="#CMSS17-116"/>
      <use transform="translate(1275.349428 0)scale(0.996264)" xlink:href="#CMSS17-110"/>
      <use transform="translate(1323.554371 0)scale(0.996264)" xlink:href="#CMSS17-101"/>
      <use transform="translate(1365.193193 0)scale(0.996264)" xlink:href="#CMSS17-115"/>
      <use transform="translate(1401.106735 0)scale(0.996264)" xlink:href="#CMSS17-115"/>
      <use transform="translate(1468.24939 0)scale(0.996264)" xlink:href="#CMSS17-118"/>
      <use transform="translate(1511.249532 0)scale(0.996264)" xlink:href="#CMSS17-97"/>
      <use transform="translate(1556.171452 0)scale(0.996264)" xlink:href="#CMSS17-108"/>
      <use transform="translate(1578.352175 0)scale(0.996264)" xlink:href="#CMSS17-117"/>
      <use transform="translate(1626.557119 0)scale(0.996264)" xlink:href="#CMSS17-101"/>
     </g>
    </g>
   </g>
   <g id="line2d_11">
    <defs>
     <path d="M 0 3 
C 0.795609 3 1.55874 2.683901 2.12132 2.12132 
C 2.683901 1.55874 3 0.795609 3 0 
C 3 -0.795609 2.683901 -1.55874 2.12132 -2.12132 
C 1.55874 -2.683901 0.795609 -3 0 -3 
C -0.795609 -3 -1.55874 -2.683901 -2.12132 -2.12132 
C -2.683901 -1.55874 -3 -0.795609 -3 0 
C -3 0.795609 -2.683901 1.55874 -2.12132 2.12132 
C -1.55874 2.683901 -0.795609 3 0 3 
z
" id="m9f0a06afdf" style="stroke:#1f77b4;"/>
    </defs>
    <g clip-path="url(#p2e4e3bc77e)">
     <use style="fill:#1f77b4;stroke:#1f77b4;" x="53.415306" xlink:href="#m9f0a06afdf" y="77.775095"/>
     <use style="fill:#1f77b4;stroke:#1f77b4;" x="58.604266" xlink:href="#m9f0a06afdf" y="68.39791"/>
     <use style="fill:#1f77b4;stroke:#1f77b4;" x="63.793226" xlink:href="#m9f0a06afdf" y="57.808429"/>
     <use style="fill:#1f77b4;stroke:#1f77b4;" x="68.982186" xlink:href="#m9f0a06afdf" y="48.242806"/>
     <use style="fill:#1f77b4;stroke:#1f77b4;" x="74.171146" xlink:href="#m9f0a06afdf" y="47.822"/>
     <use style="fill:#1f77b4;stroke:#1f77b4;" x="79.360106" xlink:href="#m9f0a06afdf" y="45.469578"/>
     <use style="fill:#1f77b4;stroke:#1f77b4;" x="84.549066" xlink:href="#m9f0a06afdf" y="43.511214"/>
     <use style="fill:#1f77b4;stroke:#1f77b4;" x="89.738026" xlink:href="#m9f0a06afdf" y="31.639275"/>
     <use style="fill:#1f77b4;stroke:#1f77b4;" x="94.926986" xlink:href="#m9f0a06afdf" y="30.310554"/>
     <use style="fill:#1f77b4;stroke:#1f77b4;" x="100.115946" xlink:href="#m9f0a06afdf" y="28.935392"/>
    </g>
   </g>
   <g id="line2d_12">
    <path clip-path="url(#p2e4e3bc77e)" d="M 53.415306 46.03018 
L 105.304906 46.03018 
" style="fill:none;stroke:#ff0000;stroke-linecap:square;stroke-width:1.5;"/>
   </g>
   <g id="patch_13">
    <path d="M 48.641463 205.46218 
L 48.641463 21.50218 
" style="fill:none;stroke:#000000;stroke-linecap:square;stroke-linejoin:miter;stroke-width:0.8;"/>
   </g>
   <g id="patch_14">
    <path d="M 108.003165 205.46218 
L 108.003165 21.50218 
" style="fill:none;stroke:#000000;stroke-linecap:square;stroke-linejoin:miter;stroke-width:0.8;"/>
   </g>
   <g id="patch_15">
    <path d="M 48.641463 205.46218 
L 108.003165 205.46218 
" style="fill:none;stroke:#000000;stroke-linecap:square;stroke-linejoin:miter;stroke-width:0.8;"/>
   </g>
   <g id="patch_16">
    <path d="M 48.641463 21.50218 
L 108.003165 21.50218 
" style="fill:none;stroke:#000000;stroke-linecap:square;stroke-linejoin:miter;stroke-width:0.8;"/>
   </g>
   <g id="text_13">
    <!-- linear transf. -->
    <defs>
     <path d="M 16.796875 37 
L 26.90625 37 
L 26.90625 42.765625 
L 16.59375 42.765625 
L 16.59375 55.609375 
C 16.59375 62.71875 22 63.9375 25.09375 63.9375 
C 26.09375 63.9375 28.90625 63.9375 32.5 62.640625 
L 32.5 69.203125 
C 30.203125 69.703125 27.40625 70 25.203125 70 
C 15.90625 70 9.40625 62.390625 9.40625 52.484375 
L 9.40625 42.765625 
L 2.5 42.765625 
L 2.5 37 
L 9.40625 37 
L 9.40625 0 
L 16.796875 0 
z
" id="CMSS17-102"/>
     <path d="M 17 7.96875 
L 9 7.96875 
L 9 0 
L 17 0 
z
" id="CMSS17-46"/>
    </defs>
    <g transform="translate(47.820394 15.50218)scale(0.12 -0.12)">
     <use transform="scale(0.996264)" xlink:href="#CMSS17-108"/>
     <use transform="translate(22.180723 0)scale(0.996264)" xlink:href="#CMSS17-105"/>
     <use transform="translate(44.361446 0)scale(0.996264)" xlink:href="#CMSS17-110"/>
     <use transform="translate(92.566389 0)scale(0.996264)" xlink:href="#CMSS17-101"/>
     <use transform="translate(134.205211 0)scale(0.996264)" xlink:href="#CMSS17-97"/>
     <use transform="translate(176.524678 0)scale(0.996264)" xlink:href="#CMSS17-114"/>
     <use transform="translate(239.663563 0)scale(0.996264)" xlink:href="#CMSS17-116"/>
     <use transform="translate(273.49513 0)scale(0.996264)" xlink:href="#CMSS17-114"/>
     <use transform="translate(305.404903 0)scale(0.996264)" xlink:href="#CMSS17-97"/>
     <use transform="translate(350.326823 0)scale(0.996264)" xlink:href="#CMSS17-110"/>
     <use transform="translate(398.531766 0)scale(0.996264)" xlink:href="#CMSS17-115"/>
     <use transform="translate(434.445308 0)scale(0.996264)" xlink:href="#CMSS17-102"/>
     <use transform="translate(463.071967 0)scale(0.996264)" xlink:href="#CMSS17-46"/>
    </g>
   </g>
   <g id="legend_1">
    <g id="patch_17">
     <path d="M 55.641463 200.46218 
L 102.305513 200.46218 
Q 104.305513 200.46218 104.305513 198.46218 
L 104.305513 157.650645 
Q 104.305513 155.650645 102.305513 155.650645 
L 55.641463 155.650645 
Q 53.641463 155.650645 53.641463 157.650645 
L 53.641463 198.46218 
Q 53.641463 200.46218 55.641463 200.46218 
z
" style="fill:#ffffff;opacity:0.8;stroke:#cccccc;stroke-linejoin:miter;"/>
    </g>
    <g id="line2d_13"/>
    <g id="line2d_14">
     <g>
      <use style="fill:#1f77b4;stroke:#1f77b4;" x="67.641463" xlink:href="#m9f0a06afdf" y="163.150645"/>
     </g>
    </g>
    <g id="text_14">
     <!-- $K_i$ -->
     <defs>
      <path d="M 50 40.171875 
C 49.90625 40.46875 49.5 41.265625 49.5 41.578125 
C 49.5 41.671875 49.59375 41.765625 51.296875 43.0625 
L 61 50.65625 
C 74.40625 61.015625 78.796875 64.5 85.703125 65.109375 
C 86.40625 65.109375 87.40625 65.109375 87.40625 66.90625 
C 87.40625 67.5 87.09375 68 86.296875 68 
C 85.203125 68 84 68 82.90625 68 
L 79.09375 68 
C 76 68 72.703125 68 69.703125 68 
C 69 68 67.796875 68 67.796875 66.203125 
C 67.796875 65.203125 68.5 65.109375 69.09375 65.109375 
C 70.203125 65 71.5 64.609375 71.5 63.21875 
C 71.5 61.234375 68.5 58.828125 67.703125 58.234375 
L 28.5 27.875 
L 36.796875 60.734375 
C 37.703125 64.109375 37.90625 65.109375 45 65.109375 
C 46.90625 65.109375 47.796875 65.109375 47.796875 67 
C 47.796875 68 46.796875 68 46.296875 68 
C 44.5 68 42.40625 68 40.5 68 
L 28.703125 68 
C 26.90625 68 24.703125 68 22.90625 68 
C 22.09375 68 21 68 21 66.109375 
C 21 65.109375 21.90625 65.109375 23.40625 65.109375 
C 29.5 65.109375 29.5 64.3125 29.5 63.21875 
C 29.5 63.03125 29.5 62.421875 29.09375 60.921875 
L 15.59375 7.375 
C 14.703125 3.890625 14.5 2.890625 7.5 2.890625 
C 5.59375 2.890625 4.59375 2.890625 4.59375 1.09375 
C 4.59375 0 5.5 0 6.09375 0 
C 8 0 10 0 11.90625 0 
L 23.59375 0 
C 25.5 0 27.59375 0 29.5 0 
C 30.296875 0 31.40625 0 31.40625 1.890625 
C 31.40625 2.890625 30.5 2.890625 29 2.890625 
C 22.90625 2.890625 22.90625 3.6875 22.90625 4.6875 
C 22.90625 5.390625 23.5 7.875 23.90625 9.46875 
L 27.796875 24.890625 
L 43 36.734375 
C 45.90625 30.359375 51.203125 17.625 55.296875 7.890625 
C 55.59375 7.28125 55.796875 6.6875 55.796875 5.984375 
C 55.796875 2.890625 51.796875 2.890625 50.90625 2.890625 
C 50 2.890625 49 2.890625 49 1 
C 49 0 50.09375 0 50.40625 0 
C 53.90625 0 57.59375 0 61.09375 0 
L 65.90625 0 
C 67.40625 0 69.09375 0 70.59375 0 
C 71.203125 0 72.296875 0 72.296875 1.890625 
C 72.296875 2.890625 71.40625 2.890625 70.40625 2.890625 
C 66.703125 2.890625 65.40625 3.6875 63.90625 7.28125 
z
" id="CMMI12-75"/>
      <path d="M 28.296875 14.265625 
C 28.296875 14.765625 27.90625 15.171875 27.296875 15.171875 
C 26.40625 15.171875 26.296875 14.875 25.796875 13.171875 
C 23.203125 4.09375 19.09375 1 15.796875 1 
C 14.59375 1 13.203125 1.296875 13.203125 4.296875 
C 13.203125 6.984375 14.40625 9.984375 15.5 12.96875 
L 22.5 31.53125 
C 22.796875 32.328125 23.5 34.125 23.5 36.015625 
C 23.5 40.21875 20.5 44 15.59375 44 
C 6.40625 44 2.703125 29.53125 2.703125 28.734375 
C 2.703125 28.34375 3.09375 27.84375 3.796875 27.84375 
C 4.703125 27.84375 4.796875 28.234375 5.203125 29.625 
C 7.59375 37.9375 11.40625 41.90625 15.296875 41.90625 
C 16.203125 41.90625 17.90625 41.90625 17.90625 38.71875 
C 17.90625 36.125 16.59375 32.828125 15.796875 30.640625 
L 8.796875 12.078125 
C 8.203125 10.484375 7.59375 8.875 7.59375 7.078125 
C 7.59375 2.59375 10.703125 -1 15.5 -1 
C 24.703125 -1 28.296875 13.578125 28.296875 14.265625 
z
M 27.5 62.703125 
C 27.5 64.203125 26.296875 66 24.09375 66 
C 21.796875 66 19.203125 63.796875 19.203125 61.203125 
C 19.203125 58.71875 21.296875 57.921875 22.5 57.921875 
C 25.203125 57.921875 27.5 60.515625 27.5 62.703125 
z
" id="CMMI12-105"/>
     </defs>
     <g transform="translate(85.641463 166.650645)scale(0.1 -0.1)">
      <use transform="translate(0 14.943915)scale(0.996264)" xlink:href="#CMMI12-75"/>
      <use transform="translate(82.992611 0)scale(0.697382)" xlink:href="#CMMI12-105"/>
     </g>
    </g>
    <g id="line2d_15">
     <path d="M 57.641463 177.087823 
L 77.641463 177.087823 
" style="fill:none;stroke:#ff0000;stroke-linecap:square;stroke-width:1.5;"/>
    </g>
    <g id="line2d_16"/>
    <g id="text_15">
     <!-- $K_G$ -->
     <defs>
      <path d="M 74.59375 69.109375 
C 74.59375 70 73.90625 70 73.703125 70 
C 73.5 70 73.09375 70 72.296875 69 
L 65.40625 60.765625 
C 64.90625 61.5625 62.90625 65.046875 59 67.328125 
C 54.703125 70 50.40625 70 48.90625 70 
C 27.5 70 5 48.359375 5 24.921875 
C 5 8.53125 16.40625 -2 31.40625 -2 
C 38.59375 -2 47.703125 0.390625 52.703125 6.671875 
C 53.796875 2.890625 56 0.1875 56.703125 0.1875 
C 57.203125 0.1875 57.296875 0.5 57.40625 0.5 
C 57.5 0.6875 58.296875 4.21875 58.796875 6.015625 
L 60.40625 12.453125 
C 61.203125 15.765625 61.59375 17.171875 62.296875 20.171875 
C 63.296875 24 63.5 24 69 24 
C 69.40625 24 70.59375 24 70.59375 26.03125 
C 70.59375 27.09375 69.59375 27.09375 69.296875 27.09375 
C 67.59375 27.09375 65.703125 27.09375 63.90625 27.09375 
L 58.5 27.09375 
C 54.296875 27.09375 49.90625 27.09375 45.796875 27.09375 
C 44.90625 27.09375 43.703125 27.09375 43.703125 25.171875 
C 43.703125 24.09375 44.5 24.09375 44.5 24 
L 47 24 
C 54.90625 24 54.90625 23.265625 54.90625 21.90625 
C 54.90625 21.796875 53 11.734375 51.09375 8.765625 
C 47.296875 3.1875 39.40625 0.890625 33.5 0.890625 
C 25.796875 0.890625 13.296875 4.875 13.296875 22.03125 
C 13.296875 28.6875 15.703125 43.875 25.40625 55.09375 
C 31.703125 62.25 41 67.109375 49.796875 67.109375 
C 61.59375 67.109375 65.796875 57.109375 65.796875 47.984375 
C 65.796875 46.40625 65.40625 44.234375 65.40625 42.84375 
C 65.40625 41.953125 66.40625 41.953125 66.703125 41.953125 
C 67.796875 41.953125 67.90625 42.046875 68.296875 43.828125 
z
" id="CMMI12-71"/>
     </defs>
     <g transform="translate(85.641463 180.587823)scale(0.1 -0.1)">
      <use transform="translate(0 14.943915)scale(0.996264)" xlink:href="#CMMI12-75"/>
      <use transform="translate(82.992611 0)scale(0.697382)" xlink:href="#CMMI12-71"/>
     </g>
    </g>
    <g id="patch_18">
     <path d="M 57.641463 194.525001 
L 77.641463 194.525001 
L 77.641463 187.525001 
L 57.641463 187.525001 
z
" style="fill:#78b0d7;"/>
    </g>
    <g id="text_16">
     <!-- $F_i$ -->
     <defs>
      <path d="M 29.703125 32.109375 
L 39.296875 32.109375 
C 46.90625 32.109375 47.5 30.40625 47.5 27.515625 
C 47.5 26.21875 47.296875 24.828125 46.796875 22.625 
C 46.59375 22.234375 46.5 21.734375 46.5 21.53125 
C 46.5 20.828125 46.90625 20.4375 47.59375 20.4375 
C 48.40625 20.4375 48.5 20.828125 48.90625 22.421875 
L 54.703125 45.859375 
C 54.703125 46.265625 54.40625 46.859375 53.703125 46.859375 
C 52.796875 46.859375 52.703125 46.46875 52.296875 44.734375 
C 50.203125 37.125 48.203125 35 39.5 35 
L 30.40625 35 
L 36.90625 61.34375 
C 37.796875 64.90625 38 64.90625 42.09375 64.90625 
L 55.5 64.90625 
C 68 64.90625 69.796875 61.21875 69.796875 54.125 
C 69.796875 53.53125 69.796875 51.328125 69.5 48.734375 
C 69.40625 48.34375 69.203125 47.046875 69.203125 46.640625 
C 69.203125 45.84375 69.703125 45.546875 70.296875 45.546875 
C 71 45.546875 71.40625 45.953125 71.59375 47.734375 
L 73.703125 65.21875 
C 73.703125 65.546875 73.90625 66.609375 73.90625 66.828125 
C 73.90625 68 73 68 71.203125 68 
L 23.796875 68 
C 21.90625 68 20.90625 68 20.90625 66.078125 
C 20.90625 64.90625 21.59375 64.90625 23.296875 64.90625 
C 29.5 64.90625 29.5 64.265625 29.5 63.28125 
C 29.5 62.78125 29.40625 62.375 29.09375 61.28125 
L 15.59375 7.390625 
C 14.703125 3.890625 14.5 2.890625 7.5 2.890625 
C 5.59375 2.890625 4.59375 2.890625 4.59375 1.09375 
C 4.59375 0 5.5 0 6.09375 0 
C 8 0 10 0 11.90625 0 
L 24.90625 0 
C 27.09375 0 29.5 0 31.703125 0 
C 32.59375 0 33.796875 0 33.796875 1.796875 
C 33.796875 2.890625 33.203125 2.890625 31 2.890625 
C 23.09375 2.890625 22.90625 3.578125 22.90625 5.0625 
C 22.90625 5.5625 23.09375 6.34375 23.296875 7.015625 
z
" id="CMMI12-70"/>
     </defs>
     <g transform="translate(85.641463 194.525001)scale(0.1 -0.1)">
      <use transform="translate(0 14.943915)scale(0.996264)" xlink:href="#CMMI12-70"/>
      <use transform="translate(63.148204 0)scale(0.697382)" xlink:href="#CMMI12-105"/>
     </g>
    </g>
   </g>
  </g>
  <g id="axes_2">
   <g id="patch_19">
    <path d="M 119.875505 205.46218 
L 179.237207 205.46218 
L 179.237207 21.50218 
L 119.875505 21.50218 
z
" style="fill:#ffffff;"/>
   </g>
   <g id="patch_20">
    <path clip-path="url(#pb9242bced5)" d="M 122.573765 150.27418 
L 126.724933 150.27418 
L 126.724933 150.27418 
L 122.573765 150.27418 
z
" style="fill:#78b0d7;"/>
   </g>
   <g id="patch_21">
    <path clip-path="url(#pb9242bced5)" d="M 127.762725 150.27418 
L 131.913892 150.27418 
L 131.913892 136.647513 
L 127.762725 136.647513 
z
" style="fill:#78b0d7;"/>
   </g>
   <g id="patch_22">
    <path clip-path="url(#pb9242bced5)" d="M 132.951684 150.27418 
L 137.102852 150.27418 
L 137.102852 123.020846 
L 132.951684 123.020846 
z
" style="fill:#78b0d7;"/>
   </g>
   <g id="patch_23">
    <path clip-path="url(#pb9242bced5)" d="M 138.140644 150.27418 
L 142.291812 150.27418 
L 142.291812 109.39418 
L 138.140644 109.39418 
z
" style="fill:#78b0d7;"/>
   </g>
   <g id="patch_24">
    <path clip-path="url(#pb9242bced5)" d="M 143.329604 150.27418 
L 147.480772 150.27418 
L 147.480772 95.767513 
L 143.329604 95.767513 
z
" style="fill:#78b0d7;"/>
   </g>
   <g id="patch_25">
    <path clip-path="url(#pb9242bced5)" d="M 148.518564 150.27418 
L 152.669732 150.27418 
L 152.669732 82.140846 
L 148.518564 82.140846 
z
" style="fill:#78b0d7;"/>
   </g>
   <g id="patch_26">
    <path clip-path="url(#pb9242bced5)" d="M 153.707524 150.27418 
L 157.858692 150.27418 
L 157.858692 68.51418 
L 153.707524 68.51418 
z
" style="fill:#78b0d7;"/>
   </g>
   <g id="patch_27">
    <path clip-path="url(#pb9242bced5)" d="M 158.896484 150.27418 
L 163.047652 150.27418 
L 163.047652 54.887513 
L 158.896484 54.887513 
z
" style="fill:#78b0d7;"/>
   </g>
   <g id="patch_28">
    <path clip-path="url(#pb9242bced5)" d="M 164.085444 150.27418 
L 168.236612 150.27418 
L 168.236612 41.260846 
L 164.085444 41.260846 
z
" style="fill:#78b0d7;"/>
   </g>
   <g id="patch_29">
    <path clip-path="url(#pb9242bced5)" d="M 169.274404 150.27418 
L 173.425572 150.27418 
L 173.425572 27.63418 
L 169.274404 27.63418 
z
" style="fill:#78b0d7;"/>
   </g>
   <g id="matplotlib.axis_3">
    <g id="xtick_3">
     <g id="line2d_17">
      <g>
       <use style="stroke:#000000;stroke-width:0.8;" x="124.649349" xlink:href="#m03a2fa2aa8" y="205.46218"/>
      </g>
     </g>
     <g id="text_17">
      <!-- $0$ -->
      <g transform="translate(122.158681 219.380678)scale(0.1 -0.1)">
       <use transform="scale(0.996264)" xlink:href="#CMR17-48"/>
      </g>
     </g>
    </g>
    <g id="xtick_4">
     <g id="line2d_18">
      <g>
       <use style="stroke:#000000;stroke-width:0.8;" x="176.538948" xlink:href="#m03a2fa2aa8" y="205.46218"/>
      </g>
     </g>
     <g id="text_18">
      <!-- $10$ -->
      <g transform="translate(171.557613 219.380678)scale(0.1 -0.1)">
       <use transform="scale(0.996264)" xlink:href="#CMR17-49"/>
       <use transform="translate(45.690477 0)scale(0.996264)" xlink:href="#CMR17-48"/>
      </g>
     </g>
    </g>
   </g>
   <g id="matplotlib.axis_4"/>
   <g id="line2d_19">
    <g clip-path="url(#pb9242bced5)">
     <use style="fill:#1f77b4;stroke:#1f77b4;" x="124.649349" xlink:href="#m9f0a06afdf" y="77.775095"/>
     <use style="fill:#1f77b4;stroke:#1f77b4;" x="129.838309" xlink:href="#m9f0a06afdf" y="68.39791"/>
     <use style="fill:#1f77b4;stroke:#1f77b4;" x="135.027268" xlink:href="#m9f0a06afdf" y="57.808429"/>
     <use style="fill:#1f77b4;stroke:#1f77b4;" x="140.216228" xlink:href="#m9f0a06afdf" y="48.242806"/>
     <use style="fill:#1f77b4;stroke:#1f77b4;" x="145.405188" xlink:href="#m9f0a06afdf" y="47.822"/>
     <use style="fill:#1f77b4;stroke:#1f77b4;" x="150.594148" xlink:href="#m9f0a06afdf" y="45.469578"/>
     <use style="fill:#1f77b4;stroke:#1f77b4;" x="155.783108" xlink:href="#m9f0a06afdf" y="43.511214"/>
     <use style="fill:#1f77b4;stroke:#1f77b4;" x="160.972068" xlink:href="#m9f0a06afdf" y="31.639275"/>
     <use style="fill:#1f77b4;stroke:#1f77b4;" x="166.161028" xlink:href="#m9f0a06afdf" y="30.310554"/>
     <use style="fill:#1f77b4;stroke:#1f77b4;" x="171.349988" xlink:href="#m9f0a06afdf" y="28.935392"/>
    </g>
   </g>
   <g id="line2d_20">
    <path clip-path="url(#pb9242bced5)" d="M 124.649349 46.03018 
L 176.538948 46.03018 
" style="fill:none;stroke:#ff0000;stroke-linecap:square;stroke-width:1.5;"/>
   </g>
   <g id="patch_30">
    <path d="M 119.875505 205.46218 
L 119.875505 21.50218 
" style="fill:none;stroke:#000000;stroke-linecap:square;stroke-linejoin:miter;stroke-width:0.8;"/>
   </g>
   <g id="patch_31">
    <path d="M 179.237207 205.46218 
L 179.237207 21.50218 
" style="fill:none;stroke:#000000;stroke-linecap:square;stroke-linejoin:miter;stroke-width:0.8;"/>
   </g>
   <g id="patch_32">
    <path d="M 119.875505 205.46218 
L 179.237207 205.46218 
" style="fill:none;stroke:#000000;stroke-linecap:square;stroke-linejoin:miter;stroke-width:0.8;"/>
   </g>
   <g id="patch_33">
    <path d="M 119.875505 21.50218 
L 179.237207 21.50218 
" style="fill:none;stroke:#000000;stroke-linecap:square;stroke-linejoin:miter;stroke-width:0.8;"/>
   </g>
   <g id="text_19">
    <!-- rank transf. -->
    <defs>
     <path d="M 26.5 26.375 
L 42 42.796875 
L 32.40625 42.796875 
L 14.90625 24.28125 
L 14.90625 69 
L 7.5 69 
L 7.5 0 
L 14.796875 0 
L 14.796875 13.9375 
L 21.5 21 
L 35.59375 0 
L 44.09375 0 
z
" id="CMSS17-107"/>
    </defs>
    <g transform="translate(121.406692 15.50218)scale(0.12 -0.12)">
     <use transform="scale(0.996264)" xlink:href="#CMSS17-114"/>
     <use transform="translate(31.909773 0)scale(0.996264)" xlink:href="#CMSS17-97"/>
     <use transform="translate(76.831693 0)scale(0.996264)" xlink:href="#CMSS17-110"/>
     <use transform="translate(125.036636 0)scale(0.996264)" xlink:href="#CMSS17-107"/>
     <use transform="translate(201.868238 0)scale(0.996264)" xlink:href="#CMSS17-116"/>
     <use transform="translate(235.699805 0)scale(0.996264)" xlink:href="#CMSS17-114"/>
     <use transform="translate(267.609577 0)scale(0.996264)" xlink:href="#CMSS17-97"/>
     <use transform="translate(312.531498 0)scale(0.996264)" xlink:href="#CMSS17-110"/>
     <use transform="translate(360.736441 0)scale(0.996264)" xlink:href="#CMSS17-115"/>
     <use transform="translate(396.649983 0)scale(0.996264)" xlink:href="#CMSS17-102"/>
     <use transform="translate(425.276642 0)scale(0.996264)" xlink:href="#CMSS17-46"/>
    </g>
   </g>
  </g>
  <g id="axes_3">
   <g id="patch_34">
    <path d="M 191.109548 205.46218 
L 250.47125 205.46218 
L 250.47125 21.50218 
L 191.109548 21.50218 
z
" style="fill:#ffffff;"/>
   </g>
   <g id="patch_35">
    <path clip-path="url(#pdba7509f65)" d="M 193.807807 150.27418 
L 197.958975 150.27418 
L 197.958975 187.489236 
L 193.807807 187.489236 
z
" style="fill:#78b0d7;"/>
   </g>
   <g id="patch_36">
    <path clip-path="url(#pdba7509f65)" d="M 198.996767 150.27418 
L 203.147935 150.27418 
L 203.147935 187.489236 
L 198.996767 187.489236 
z
" style="fill:#78b0d7;"/>
   </g>
   <g id="patch_37">
    <path clip-path="url(#pdba7509f65)" d="M 204.185727 150.27418 
L 208.336895 150.27418 
L 208.336895 187.489236 
L 204.185727 187.489236 
z
" style="fill:#78b0d7;"/>
   </g>
   <g id="patch_38">
    <path clip-path="url(#pdba7509f65)" d="M 209.374687 150.27418 
L 213.525855 150.27418 
L 213.525855 187.489236 
L 209.374687 187.489236 
z
" style="fill:#78b0d7;"/>
   </g>
   <g id="patch_39">
    <path clip-path="url(#pdba7509f65)" d="M 214.563647 150.27418 
L 218.714815 150.27418 
L 218.714815 187.489236 
L 214.563647 187.489236 
z
" style="fill:#78b0d7;"/>
   </g>
   <g id="patch_40">
    <path clip-path="url(#pdba7509f65)" d="M 219.752607 150.27418 
L 223.903775 150.27418 
L 223.903775 171.223089 
L 219.752607 171.223089 
z
" style="fill:#78b0d7;"/>
   </g>
   <g id="patch_41">
    <path clip-path="url(#pdba7509f65)" d="M 224.941567 150.27418 
L 229.092735 150.27418 
L 229.092735 151.314934 
L 224.941567 151.314934 
z
" style="fill:#78b0d7;"/>
   </g>
   <g id="patch_42">
    <path clip-path="url(#pdba7509f65)" d="M 230.130527 150.27418 
L 234.281695 150.27418 
L 234.281695 125.648859 
L 230.130527 125.648859 
z
" style="fill:#78b0d7;"/>
   </g>
   <g id="patch_43">
    <path clip-path="url(#pdba7509f65)" d="M 235.319487 150.27418 
L 239.470655 150.27418 
L 239.470655 89.474557 
L 235.319487 89.474557 
z
" style="fill:#78b0d7;"/>
   </g>
   <g id="patch_44">
    <path clip-path="url(#pdba7509f65)" d="M 240.508447 150.27418 
L 244.659615 150.27418 
L 244.659615 27.63418 
L 240.508447 27.63418 
z
" style="fill:#78b0d7;"/>
   </g>
   <g id="matplotlib.axis_5">
    <g id="xtick_5">
     <g id="line2d_21">
      <g>
       <use style="stroke:#000000;stroke-width:0.8;" x="195.883391" xlink:href="#m03a2fa2aa8" y="205.46218"/>
      </g>
     </g>
     <g id="text_20">
      <!-- $0$ -->
      <g transform="translate(193.392723 219.380678)scale(0.1 -0.1)">
       <use transform="scale(0.996264)" xlink:href="#CMR17-48"/>
      </g>
     </g>
    </g>
    <g id="xtick_6">
     <g id="line2d_22">
      <g>
       <use style="stroke:#000000;stroke-width:0.8;" x="247.772991" xlink:href="#m03a2fa2aa8" y="205.46218"/>
      </g>
     </g>
     <g id="text_21">
      <!-- $10$ -->
      <g transform="translate(242.791656 219.380678)scale(0.1 -0.1)">
       <use transform="scale(0.996264)" xlink:href="#CMR17-49"/>
       <use transform="translate(45.690477 0)scale(0.996264)" xlink:href="#CMR17-48"/>
      </g>
     </g>
    </g>
   </g>
   <g id="matplotlib.axis_6"/>
   <g id="line2d_23">
    <g clip-path="url(#pdba7509f65)">
     <use style="fill:#1f77b4;stroke:#1f77b4;" x="195.883391" xlink:href="#m9f0a06afdf" y="77.775095"/>
     <use style="fill:#1f77b4;stroke:#1f77b4;" x="201.072351" xlink:href="#m9f0a06afdf" y="68.39791"/>
     <use style="fill:#1f77b4;stroke:#1f77b4;" x="206.261311" xlink:href="#m9f0a06afdf" y="57.808429"/>
     <use style="fill:#1f77b4;stroke:#1f77b4;" x="211.450271" xlink:href="#m9f0a06afdf" y="48.242806"/>
     <use style="fill:#1f77b4;stroke:#1f77b4;" x="216.639231" xlink:href="#m9f0a06afdf" y="47.822"/>
     <use style="fill:#1f77b4;stroke:#1f77b4;" x="221.828191" xlink:href="#m9f0a06afdf" y="45.469578"/>
     <use style="fill:#1f77b4;stroke:#1f77b4;" x="227.017151" xlink:href="#m9f0a06afdf" y="43.511214"/>
     <use style="fill:#1f77b4;stroke:#1f77b4;" x="232.206111" xlink:href="#m9f0a06afdf" y="31.639275"/>
     <use style="fill:#1f77b4;stroke:#1f77b4;" x="237.395071" xlink:href="#m9f0a06afdf" y="30.310554"/>
     <use style="fill:#1f77b4;stroke:#1f77b4;" x="242.584031" xlink:href="#m9f0a06afdf" y="28.935392"/>
    </g>
   </g>
   <g id="line2d_24">
    <path clip-path="url(#pdba7509f65)" d="M 195.883391 46.03018 
L 247.772991 46.03018 
" style="fill:none;stroke:#ff0000;stroke-linecap:square;stroke-width:1.5;"/>
   </g>
   <g id="patch_45">
    <path d="M 191.109548 205.46218 
L 191.109548 21.50218 
" style="fill:none;stroke:#000000;stroke-linecap:square;stroke-linejoin:miter;stroke-width:0.8;"/>
   </g>
   <g id="patch_46">
    <path d="M 250.47125 205.46218 
L 250.47125 21.50218 
" style="fill:none;stroke:#000000;stroke-linecap:square;stroke-linejoin:miter;stroke-width:0.8;"/>
   </g>
   <g id="patch_47">
    <path d="M 191.109548 205.46218 
L 250.47125 205.46218 
" style="fill:none;stroke:#000000;stroke-linecap:square;stroke-linejoin:miter;stroke-width:0.8;"/>
   </g>
   <g id="patch_48">
    <path d="M 191.109548 21.50218 
L 250.47125 21.50218 
" style="fill:none;stroke:#000000;stroke-linecap:square;stroke-linejoin:miter;stroke-width:0.8;"/>
   </g>
   <g id="text_22">
    <!-- NES -->
    <defs>
     <path d="M 22.90625 65.3125 
L 21.09375 69 
L 8.796875 69 
L 8.796875 0 
L 16.59375 0 
L 16.59375 61.34375 
L 16.703125 61.4375 
C 17.40625 59.640625 17.796875 58.75 21.90625 49.90625 
L 43.296875 3.6875 
L 45.09375 0 
L 57.40625 0 
L 57.40625 69 
L 49.59375 69 
L 49.59375 7.65625 
L 49.5 7.546875 
C 48.796875 9.34375 48.40625 10.234375 44.296875 19.078125 
z
" id="CMSS17-78"/>
     <path d="M 30.59375 6.765625 
C 22.59375 6.765625 19 6.765625 17.203125 6.765625 
L 17.203125 32.921875 
L 48.203125 32.921875 
L 48.203125 39 
L 17.203125 39 
L 17.203125 62.640625 
L 30.09375 62.640625 
C 31.296875 62.640625 32.5 62.640625 33.703125 62.640625 
L 50.796875 62.640625 
L 50.796875 69 
L 8.796875 69 
L 8.796875 0 
L 52.09375 0 
L 52.09375 6.765625 
z
" id="CMSS17-69"/>
     <path d="M 43.703125 65.140625 
C 39.296875 67.71875 34.5 70 26.40625 70 
C 13.5 70 5.203125 60.609375 5.203125 51.03125 
C 5.203125 47.265625 6.296875 43.015625 10.203125 38.671875 
C 14.09375 34.3125 18.5 33.140625 24.09375 31.765625 
C 26.40625 31.15625 30.296875 30.0625 31 29.78125 
C 36.59375 27.609375 39.296875 22.5625 39.296875 17.8125 
C 39.296875 11.59375 34.40625 4.96875 25.703125 4.96875 
C 22.703125 4.96875 13.90625 4.96875 5.59375 12.796875 
L 4.203125 4.96875 
C 12.40625 -1 21.296875 -2 25.796875 -2 
C 38.09375 -2 46.90625 7.625 46.90625 18.53125 
C 46.90625 22.5 45.703125 27.546875 41.5 32.203125 
C 37.40625 36.671875 33.796875 37.65625 25.59375 39.828125 
C 20.90625 41.03125 17.90625 41.828125 15.40625 44.890625 
C 13.703125 47.078125 12.796875 49.15625 12.796875 51.828125 
C 12.796875 57.390625 17.59375 63.4375 26.40625 63.4375 
C 30.796875 63.4375 36.5 62.53125 42.296875 57.1875 
z
" id="CMSS17-83"/>
    </defs>
    <g transform="translate(209.94924 15.50218)scale(0.12 -0.12)">
     <use transform="scale(0.996264)" xlink:href="#CMSS17-78"/>
     <use transform="translate(66.061519 0)scale(0.996264)" xlink:href="#CMSS17-69"/>
     <use transform="translate(121.953532 0)scale(0.996264)" xlink:href="#CMSS17-83"/>
    </g>
   </g>
  </g>
  <g id="axes_4">
   <g id="patch_49">
    <path d="M 262.34359 205.46218 
L 321.705293 205.46218 
L 321.705293 21.50218 
L 262.34359 21.50218 
z
" style="fill:#ffffff;"/>
   </g>
   <g id="patch_50">
    <path clip-path="url(#p1371fbf16a)" d="M 265.04185 150.27418 
L 269.193018 150.27418 
L 269.193018 150.27418 
L 265.04185 150.27418 
z
" style="fill:#78b0d7;"/>
   </g>
   <g id="patch_51">
    <path clip-path="url(#p1371fbf16a)" d="M 270.23081 150.27418 
L 274.381978 150.27418 
L 274.381978 150.27418 
L 270.23081 150.27418 
z
" style="fill:#78b0d7;"/>
   </g>
   <g id="patch_52">
    <path clip-path="url(#p1371fbf16a)" d="M 275.41977 150.27418 
L 279.570938 150.27418 
L 279.570938 150.27418 
L 275.41977 150.27418 
z
" style="fill:#78b0d7;"/>
   </g>
   <g id="patch_53">
    <path clip-path="url(#p1371fbf16a)" d="M 280.60873 150.27418 
L 284.759898 150.27418 
L 284.759898 150.27418 
L 280.60873 150.27418 
z
" style="fill:#78b0d7;"/>
   </g>
   <g id="patch_54">
    <path clip-path="url(#p1371fbf16a)" d="M 285.79769 150.27418 
L 289.948858 150.27418 
L 289.948858 150.27418 
L 285.79769 150.27418 
z
" style="fill:#78b0d7;"/>
   </g>
   <g id="patch_55">
    <path clip-path="url(#p1371fbf16a)" d="M 290.98665 150.27418 
L 295.137818 150.27418 
L 295.137818 137.794873 
L 290.98665 137.794873 
z
" style="fill:#78b0d7;"/>
   </g>
   <g id="patch_56">
    <path clip-path="url(#p1371fbf16a)" d="M 296.17561 150.27418 
L 300.326777 150.27418 
L 300.326777 122.521436 
L 296.17561 122.521436 
z
" style="fill:#78b0d7;"/>
   </g>
   <g id="patch_57">
    <path clip-path="url(#p1371fbf16a)" d="M 301.364569 150.27418 
L 305.515737 150.27418 
L 305.515737 102.830552 
L 301.364569 102.830552 
z
" style="fill:#78b0d7;"/>
   </g>
   <g id="patch_58">
    <path clip-path="url(#p1371fbf16a)" d="M 306.553529 150.27418 
L 310.704697 150.27418 
L 310.704697 75.077808 
L 306.553529 75.077808 
z
" style="fill:#78b0d7;"/>
   </g>
   <g id="patch_59">
    <path clip-path="url(#p1371fbf16a)" d="M 311.742489 150.27418 
L 315.893657 150.27418 
L 315.893657 27.63418 
L 311.742489 27.63418 
z
" style="fill:#78b0d7;"/>
   </g>
   <g id="matplotlib.axis_7">
    <g id="xtick_7">
     <g id="line2d_25">
      <g>
       <use style="stroke:#000000;stroke-width:0.8;" x="267.117434" xlink:href="#m03a2fa2aa8" y="205.46218"/>
      </g>
     </g>
     <g id="text_23">
      <!-- $0$ -->
      <g transform="translate(264.626766 219.380678)scale(0.1 -0.1)">
       <use transform="scale(0.996264)" xlink:href="#CMR17-48"/>
      </g>
     </g>
    </g>
    <g id="xtick_8">
     <g id="line2d_26">
      <g>
       <use style="stroke:#000000;stroke-width:0.8;" x="319.007033" xlink:href="#m03a2fa2aa8" y="205.46218"/>
      </g>
     </g>
     <g id="text_24">
      <!-- $10$ -->
      <g transform="translate(314.025698 219.380678)scale(0.1 -0.1)">
       <use transform="scale(0.996264)" xlink:href="#CMR17-49"/>
       <use transform="translate(45.690477 0)scale(0.996264)" xlink:href="#CMR17-48"/>
      </g>
     </g>
    </g>
   </g>
   <g id="matplotlib.axis_8"/>
   <g id="line2d_27">
    <g clip-path="url(#p1371fbf16a)">
     <use style="fill:#1f77b4;stroke:#1f77b4;" x="267.117434" xlink:href="#m9f0a06afdf" y="77.775095"/>
     <use style="fill:#1f77b4;stroke:#1f77b4;" x="272.306394" xlink:href="#m9f0a06afdf" y="68.39791"/>
     <use style="fill:#1f77b4;stroke:#1f77b4;" x="277.495354" xlink:href="#m9f0a06afdf" y="57.808429"/>
     <use style="fill:#1f77b4;stroke:#1f77b4;" x="282.684314" xlink:href="#m9f0a06afdf" y="48.242806"/>
     <use style="fill:#1f77b4;stroke:#1f77b4;" x="287.873274" xlink:href="#m9f0a06afdf" y="47.822"/>
     <use style="fill:#1f77b4;stroke:#1f77b4;" x="293.062234" xlink:href="#m9f0a06afdf" y="45.469578"/>
     <use style="fill:#1f77b4;stroke:#1f77b4;" x="298.251193" xlink:href="#m9f0a06afdf" y="43.511214"/>
     <use style="fill:#1f77b4;stroke:#1f77b4;" x="303.440153" xlink:href="#m9f0a06afdf" y="31.639275"/>
     <use style="fill:#1f77b4;stroke:#1f77b4;" x="308.629113" xlink:href="#m9f0a06afdf" y="30.310554"/>
     <use style="fill:#1f77b4;stroke:#1f77b4;" x="313.818073" xlink:href="#m9f0a06afdf" y="28.935392"/>
    </g>
   </g>
   <g id="line2d_28">
    <path clip-path="url(#p1371fbf16a)" d="M 267.117434 46.03018 
L 319.007033 46.03018 
" style="fill:none;stroke:#ff0000;stroke-linecap:square;stroke-width:1.5;"/>
   </g>
   <g id="patch_60">
    <path d="M 262.34359 205.46218 
L 262.34359 21.50218 
" style="fill:none;stroke:#000000;stroke-linecap:square;stroke-linejoin:miter;stroke-width:0.8;"/>
   </g>
   <g id="patch_61">
    <path d="M 321.705293 205.46218 
L 321.705293 21.50218 
" style="fill:none;stroke:#000000;stroke-linecap:square;stroke-linejoin:miter;stroke-width:0.8;"/>
   </g>
   <g id="patch_62">
    <path d="M 262.34359 205.46218 
L 321.705293 205.46218 
" style="fill:none;stroke:#000000;stroke-linecap:square;stroke-linejoin:miter;stroke-width:0.8;"/>
   </g>
   <g id="patch_63">
    <path d="M 262.34359 21.50218 
L 321.705293 21.50218 
" style="fill:none;stroke:#000000;stroke-linecap:square;stroke-linejoin:miter;stroke-width:0.8;"/>
   </g>
   <g id="text_25">
    <!-- NES unnorm. -->
    <g transform="translate(259.217315 15.50218)scale(0.12 -0.12)">
     <use transform="scale(0.996264)" xlink:href="#CMSS17-78"/>
     <use transform="translate(66.061519 0)scale(0.996264)" xlink:href="#CMSS17-69"/>
     <use transform="translate(121.953532 0)scale(0.996264)" xlink:href="#CMSS17-83"/>
     <use transform="translate(205.231161 0)scale(0.996264)" xlink:href="#CMSS17-117"/>
     <use transform="translate(253.436104 0)scale(0.996264)" xlink:href="#CMSS17-110"/>
     <use transform="translate(301.641048 0)scale(0.996264)" xlink:href="#CMSS17-110"/>
     <use transform="translate(349.845991 0)scale(0.996264)" xlink:href="#CMSS17-111"/>
     <use transform="translate(394.08716 0)scale(0.996264)" xlink:href="#CMSS17-114"/>
     <use transform="translate(425.996933 0)scale(0.996264)" xlink:href="#CMSS17-109"/>
     <use transform="translate(500.226187 0)scale(0.996264)" xlink:href="#CMSS17-46"/>
    </g>
   </g>
  </g>
  <g id="axes_5">
   <g id="patch_64">
    <path d="M 333.577633 205.46218 
L 392.939335 205.46218 
L 392.939335 21.50218 
L 333.577633 21.50218 
z
" style="fill:#ffffff;"/>
   </g>
   <g id="patch_65">
    <path clip-path="url(#pd8fc7c67ca)" d="M 336.275892 150.27418 
L 340.42706 150.27418 
L 340.42706 150.27418 
L 336.275892 150.27418 
z
" style="fill:#78b0d7;"/>
   </g>
   <g id="patch_66">
    <path clip-path="url(#pd8fc7c67ca)" d="M 341.464852 150.27418 
L 345.61602 150.27418 
L 345.61602 150.27418 
L 341.464852 150.27418 
z
" style="fill:#78b0d7;"/>
   </g>
   <g id="patch_67">
    <path clip-path="url(#pd8fc7c67ca)" d="M 346.653812 150.27418 
L 350.80498 150.27418 
L 350.80498 150.27418 
L 346.653812 150.27418 
z
" style="fill:#78b0d7;"/>
   </g>
   <g id="patch_68">
    <path clip-path="url(#pd8fc7c67ca)" d="M 351.842772 150.27418 
L 355.99394 150.27418 
L 355.99394 150.27418 
L 351.842772 150.27418 
z
" style="fill:#78b0d7;"/>
   </g>
   <g id="patch_69">
    <path clip-path="url(#pd8fc7c67ca)" d="M 357.031732 150.27418 
L 361.1829 150.27418 
L 361.1829 150.27418 
L 357.031732 150.27418 
z
" style="fill:#78b0d7;"/>
   </g>
   <g id="patch_70">
    <path clip-path="url(#pd8fc7c67ca)" d="M 362.220692 150.27418 
L 366.37186 150.27418 
L 366.37186 150.27418 
L 362.220692 150.27418 
z
" style="fill:#78b0d7;"/>
   </g>
   <g id="patch_71">
    <path clip-path="url(#pd8fc7c67ca)" d="M 367.409652 150.27418 
L 371.56082 150.27418 
L 371.56082 150.27418 
L 367.409652 150.27418 
z
" style="fill:#78b0d7;"/>
   </g>
   <g id="patch_72">
    <path clip-path="url(#pd8fc7c67ca)" d="M 372.598612 150.27418 
L 376.74978 150.27418 
L 376.74978 150.27418 
L 372.598612 150.27418 
z
" style="fill:#78b0d7;"/>
   </g>
   <g id="patch_73">
    <path clip-path="url(#pd8fc7c67ca)" d="M 377.787572 150.27418 
L 381.93874 150.27418 
L 381.93874 150.27418 
L 377.787572 150.27418 
z
" style="fill:#78b0d7;"/>
   </g>
   <g id="patch_74">
    <path clip-path="url(#pd8fc7c67ca)" d="M 382.976532 150.27418 
L 387.1277 150.27418 
L 387.1277 27.63418 
L 382.976532 27.63418 
z
" style="fill:#78b0d7;"/>
   </g>
   <g id="matplotlib.axis_9">
    <g id="xtick_9">
     <g id="line2d_29">
      <g>
       <use style="stroke:#000000;stroke-width:0.8;" x="338.351476" xlink:href="#m03a2fa2aa8" y="205.46218"/>
      </g>
     </g>
     <g id="text_26">
      <!-- $0$ -->
      <g transform="translate(335.860809 219.380678)scale(0.1 -0.1)">
       <use transform="scale(0.996264)" xlink:href="#CMR17-48"/>
      </g>
     </g>
    </g>
    <g id="xtick_10">
     <g id="line2d_30">
      <g>
       <use style="stroke:#000000;stroke-width:0.8;" x="390.241076" xlink:href="#m03a2fa2aa8" y="205.46218"/>
      </g>
     </g>
     <g id="text_27">
      <!-- $10$ -->
      <g transform="translate(385.259741 219.380678)scale(0.1 -0.1)">
       <use transform="scale(0.996264)" xlink:href="#CMR17-49"/>
       <use transform="translate(45.690477 0)scale(0.996264)" xlink:href="#CMR17-48"/>
      </g>
     </g>
    </g>
   </g>
   <g id="matplotlib.axis_10"/>
   <g id="line2d_31">
    <g clip-path="url(#pd8fc7c67ca)">
     <use style="fill:#1f77b4;stroke:#1f77b4;" x="338.351476" xlink:href="#m9f0a06afdf" y="77.775095"/>
     <use style="fill:#1f77b4;stroke:#1f77b4;" x="343.540436" xlink:href="#m9f0a06afdf" y="68.39791"/>
     <use style="fill:#1f77b4;stroke:#1f77b4;" x="348.729396" xlink:href="#m9f0a06afdf" y="57.808429"/>
     <use style="fill:#1f77b4;stroke:#1f77b4;" x="353.918356" xlink:href="#m9f0a06afdf" y="48.242806"/>
     <use style="fill:#1f77b4;stroke:#1f77b4;" x="359.107316" xlink:href="#m9f0a06afdf" y="47.822"/>
     <use style="fill:#1f77b4;stroke:#1f77b4;" x="364.296276" xlink:href="#m9f0a06afdf" y="45.469578"/>
     <use style="fill:#1f77b4;stroke:#1f77b4;" x="369.485236" xlink:href="#m9f0a06afdf" y="43.511214"/>
     <use style="fill:#1f77b4;stroke:#1f77b4;" x="374.674196" xlink:href="#m9f0a06afdf" y="31.639275"/>
     <use style="fill:#1f77b4;stroke:#1f77b4;" x="379.863156" xlink:href="#m9f0a06afdf" y="30.310554"/>
     <use style="fill:#1f77b4;stroke:#1f77b4;" x="385.052116" xlink:href="#m9f0a06afdf" y="28.935392"/>
    </g>
   </g>
   <g id="line2d_32">
    <path clip-path="url(#pd8fc7c67ca)" d="M 338.351476 46.03018 
L 390.241076 46.03018 
" style="fill:none;stroke:#ff0000;stroke-linecap:square;stroke-width:1.5;"/>
   </g>
   <g id="patch_75">
    <path d="M 333.577633 205.46218 
L 333.577633 21.50218 
" style="fill:none;stroke:#000000;stroke-linecap:square;stroke-linejoin:miter;stroke-width:0.8;"/>
   </g>
   <g id="patch_76">
    <path d="M 392.939335 205.46218 
L 392.939335 21.50218 
" style="fill:none;stroke:#000000;stroke-linecap:square;stroke-linejoin:miter;stroke-width:0.8;"/>
   </g>
   <g id="patch_77">
    <path d="M 333.577633 205.46218 
L 392.939335 205.46218 
" style="fill:none;stroke:#000000;stroke-linecap:square;stroke-linejoin:miter;stroke-width:0.8;"/>
   </g>
   <g id="patch_78">
    <path d="M 333.577633 21.50218 
L 392.939335 21.50218 
" style="fill:none;stroke:#000000;stroke-linecap:square;stroke-linejoin:miter;stroke-width:0.8;"/>
   </g>
   <g id="text_28">
    <!-- single best -->
    <defs>
     <path d="M 44.5 43.875 
C 38.796875 43.875 33.90625 42.78125 29.90625 40.890625 
C 26.59375 43.390625 23.203125 43.875 20.90625 43.875 
C 12.203125 43.875 5.59375 36.703125 5.59375 28.34375 
C 5.59375 22.9375 8.59375 18.859375 8.796875 18.671875 
C 7 16.171875 6 13.484375 6 10.5 
C 6 7 7.40625 4.515625 8.5 3.125 
C 3.296875 -0.046875 2.59375 -4.90625 2.59375 -6.796875 
C 2.59375 -14.03125 11.703125 -20 23.40625 -20 
C 35.203125 -20 44.296875 -14.03125 44.296875 -6.6875 
C 44.296875 7 29 7 24.796875 7 
L 16.703125 7 
C 15.203125 7 11.203125 7 11.203125 12.359375 
C 11.203125 14.390625 12.09375 15.6875 12.203125 15.78125 
C 13.703125 14.6875 16.796875 13 20.90625 13 
C 29.203125 13 36.09375 19.96875 36.09375 28.546875 
C 36.09375 33.3125 33.90625 36.796875 33 38 
L 33.296875 38 
C 33.59375 38 37.796875 38 39.296875 38 
C 42.5 38 42.796875 37.953125 45.59375 37.796875 
z
M 20.90625 18.46875 
C 17.5 18.46875 12.703125 20.546875 12.703125 28.484375 
C 12.703125 37.109375 18.203125 38.5 20.796875 38.5 
C 24.203125 38.5 29 36.421875 29 28.484375 
C 29 19.859375 23.5 18.46875 20.90625 18.46875 
z
M 24.703125 -0.15625 
C 27.09375 -0.15625 37.203125 -0.15625 37.203125 -6.90625 
C 37.203125 -11.15625 31 -14.515625 23.5 -14.515625 
C 15.90625 -14.515625 9.703125 -11.25 9.703125 -6.796875 
C 9.703125 -6.296875 9.703125 -0.15625 16.59375 -0.15625 
z
" id="CMSS17-103"/>
    </defs>
    <g transform="translate(337.656189 15.50218)scale(0.12 -0.12)">
     <use transform="scale(0.996264)" xlink:href="#CMSS17-115"/>
     <use transform="translate(35.913542 0)scale(0.996264)" xlink:href="#CMSS17-105"/>
     <use transform="translate(58.094265 0)scale(0.996264)" xlink:href="#CMSS17-110"/>
     <use transform="translate(106.299208 0)scale(0.996264)" xlink:href="#CMSS17-103"/>
     <use transform="translate(153.142832 0)scale(0.996264)" xlink:href="#CMSS17-108"/>
     <use transform="translate(175.323555 0)scale(0.996264)" xlink:href="#CMSS17-101"/>
     <use transform="translate(248.19149 0)scale(0.996264)" xlink:href="#CMSS17-98"/>
     <use transform="translate(298.998871 0)scale(0.996264)" xlink:href="#CMSS17-101"/>
     <use transform="translate(340.637693 0)scale(0.996264)" xlink:href="#CMSS17-115"/>
     <use transform="translate(376.551235 0)scale(0.996264)" xlink:href="#CMSS17-116"/>
    </g>
   </g>
  </g>
  <g id="axes_6">
   <g id="patch_79">
    <path d="M 404.811676 205.46218 
L 464.173378 205.46218 
L 464.173378 21.50218 
L 404.811676 21.50218 
z
" style="fill:#ffffff;"/>
   </g>
   <g id="patch_80">
    <path clip-path="url(#p25314bf513)" d="M 407.509935 150.27418 
L 411.661103 150.27418 
L 411.661103 150.27418 
L 407.509935 150.27418 
z
" style="fill:#78b0d7;"/>
   </g>
   <g id="patch_81">
    <path clip-path="url(#p25314bf513)" d="M 412.698895 150.27418 
L 416.850063 150.27418 
L 416.850063 150.27418 
L 412.698895 150.27418 
z
" style="fill:#78b0d7;"/>
   </g>
   <g id="patch_82">
    <path clip-path="url(#p25314bf513)" d="M 417.887855 150.27418 
L 422.039023 150.27418 
L 422.039023 150.27418 
L 417.887855 150.27418 
z
" style="fill:#78b0d7;"/>
   </g>
   <g id="patch_83">
    <path clip-path="url(#p25314bf513)" d="M 423.076815 150.27418 
L 427.227983 150.27418 
L 427.227983 150.27418 
L 423.076815 150.27418 
z
" style="fill:#78b0d7;"/>
   </g>
   <g id="patch_84">
    <path clip-path="url(#p25314bf513)" d="M 428.265775 150.27418 
L 432.416943 150.27418 
L 432.416943 150.27418 
L 428.265775 150.27418 
z
" style="fill:#78b0d7;"/>
   </g>
   <g id="patch_85">
    <path clip-path="url(#p25314bf513)" d="M 433.454735 150.27418 
L 437.605903 150.27418 
L 437.605903 150.27418 
L 433.454735 150.27418 
z
" style="fill:#78b0d7;"/>
   </g>
   <g id="patch_86">
    <path clip-path="url(#p25314bf513)" d="M 438.643695 150.27418 
L 442.794863 150.27418 
L 442.794863 150.27418 
L 438.643695 150.27418 
z
" style="fill:#78b0d7;"/>
   </g>
   <g id="patch_87">
    <path clip-path="url(#p25314bf513)" d="M 443.832655 150.27418 
L 447.983823 150.27418 
L 447.983823 150.27418 
L 443.832655 150.27418 
z
" style="fill:#78b0d7;"/>
   </g>
   <g id="patch_88">
    <path clip-path="url(#p25314bf513)" d="M 449.021615 150.27418 
L 453.172783 150.27418 
L 453.172783 150.27418 
L 449.021615 150.27418 
z
" style="fill:#78b0d7;"/>
   </g>
   <g id="patch_89">
    <path clip-path="url(#p25314bf513)" d="M 454.210575 150.27418 
L 458.361743 150.27418 
L 458.361743 27.63418 
L 454.210575 27.63418 
z
" style="fill:#78b0d7;"/>
   </g>
   <g id="matplotlib.axis_11">
    <g id="xtick_11">
     <g id="line2d_33">
      <g>
       <use style="stroke:#000000;stroke-width:0.8;" x="409.585519" xlink:href="#m03a2fa2aa8" y="205.46218"/>
      </g>
     </g>
     <g id="text_29">
      <!-- $0$ -->
      <g transform="translate(407.094851 219.380678)scale(0.1 -0.1)">
       <use transform="scale(0.996264)" xlink:href="#CMR17-48"/>
      </g>
     </g>
    </g>
    <g id="xtick_12">
     <g id="line2d_34">
      <g>
       <use style="stroke:#000000;stroke-width:0.8;" x="461.475119" xlink:href="#m03a2fa2aa8" y="205.46218"/>
      </g>
     </g>
     <g id="text_30">
      <!-- $10$ -->
      <g transform="translate(456.493783 219.380678)scale(0.1 -0.1)">
       <use transform="scale(0.996264)" xlink:href="#CMR17-49"/>
       <use transform="translate(45.690477 0)scale(0.996264)" xlink:href="#CMR17-48"/>
      </g>
     </g>
    </g>
   </g>
   <g id="matplotlib.axis_12"/>
   <g id="line2d_35">
    <g clip-path="url(#p25314bf513)">
     <use style="fill:#1f77b4;stroke:#1f77b4;" x="409.585519" xlink:href="#m9f0a06afdf" y="77.775095"/>
     <use style="fill:#1f77b4;stroke:#1f77b4;" x="414.774479" xlink:href="#m9f0a06afdf" y="68.39791"/>
     <use style="fill:#1f77b4;stroke:#1f77b4;" x="419.963439" xlink:href="#m9f0a06afdf" y="57.808429"/>
     <use style="fill:#1f77b4;stroke:#1f77b4;" x="425.152399" xlink:href="#m9f0a06afdf" y="48.242806"/>
     <use style="fill:#1f77b4;stroke:#1f77b4;" x="430.341359" xlink:href="#m9f0a06afdf" y="47.822"/>
     <use style="fill:#1f77b4;stroke:#1f77b4;" x="435.530319" xlink:href="#m9f0a06afdf" y="45.469578"/>
     <use style="fill:#1f77b4;stroke:#1f77b4;" x="440.719279" xlink:href="#m9f0a06afdf" y="43.511214"/>
     <use style="fill:#1f77b4;stroke:#1f77b4;" x="445.908239" xlink:href="#m9f0a06afdf" y="31.639275"/>
     <use style="fill:#1f77b4;stroke:#1f77b4;" x="451.097199" xlink:href="#m9f0a06afdf" y="30.310554"/>
     <use style="fill:#1f77b4;stroke:#1f77b4;" x="456.286159" xlink:href="#m9f0a06afdf" y="28.935392"/>
    </g>
   </g>
   <g id="line2d_36">
    <path clip-path="url(#p25314bf513)" d="M 409.585519 46.03018 
L 461.475119 46.03018 
" style="fill:none;stroke:#ff0000;stroke-linecap:square;stroke-width:1.5;"/>
   </g>
   <g id="patch_90">
    <path d="M 404.811676 205.46218 
L 404.811676 21.50218 
" style="fill:none;stroke:#000000;stroke-linecap:square;stroke-linejoin:miter;stroke-width:0.8;"/>
   </g>
   <g id="patch_91">
    <path d="M 464.173378 205.46218 
L 464.173378 21.50218 
" style="fill:none;stroke:#000000;stroke-linecap:square;stroke-linejoin:miter;stroke-width:0.8;"/>
   </g>
   <g id="patch_92">
    <path d="M 404.811676 205.46218 
L 464.173378 205.46218 
" style="fill:none;stroke:#000000;stroke-linecap:square;stroke-linejoin:miter;stroke-width:0.8;"/>
   </g>
   <g id="patch_93">
    <path d="M 404.811676 21.50218 
L 464.173378 21.50218 
" style="fill:none;stroke:#000000;stroke-linecap:square;stroke-linejoin:miter;stroke-width:0.8;"/>
   </g>
   <g id="text_31">
    <!-- single better -->
    <g transform="translate(404.429923 15.50218)scale(0.12 -0.12)">
     <use transform="scale(0.996264)" xlink:href="#CMSS17-115"/>
     <use transform="translate(35.913542 0)scale(0.996264)" xlink:href="#CMSS17-105"/>
     <use transform="translate(58.094265 0)scale(0.996264)" xlink:href="#CMSS17-110"/>
     <use transform="translate(106.299208 0)scale(0.996264)" xlink:href="#CMSS17-103"/>
     <use transform="translate(153.142832 0)scale(0.996264)" xlink:href="#CMSS17-108"/>
     <use transform="translate(175.323555 0)scale(0.996264)" xlink:href="#CMSS17-101"/>
     <use transform="translate(248.19149 0)scale(0.996264)" xlink:href="#CMSS17-98"/>
     <use transform="translate(298.998871 0)scale(0.996264)" xlink:href="#CMSS17-101"/>
     <use transform="translate(340.637693 0)scale(0.996264)" xlink:href="#CMSS17-116"/>
     <use transform="translate(374.46926 0)scale(0.996264)" xlink:href="#CMSS17-116"/>
     <use transform="translate(408.300827 0)scale(0.996264)" xlink:href="#CMSS17-101"/>
     <use transform="translate(449.939649 0)scale(0.996264)" xlink:href="#CMSS17-114"/>
    </g>
   </g>
  </g>
  <g id="axes_7">
   <g id="patch_94">
    <path d="M 476.045718 205.46218 
L 535.40742 205.46218 
L 535.40742 21.50218 
L 476.045718 21.50218 
z
" style="fill:#ffffff;"/>
   </g>
   <g id="patch_95">
    <path clip-path="url(#p1f51e24fcc)" d="M 478.743977 150.27418 
L 482.895145 150.27418 
L 482.895145 150.27418 
L 478.743977 150.27418 
z
" style="fill:#78b0d7;"/>
   </g>
   <g id="patch_96">
    <path clip-path="url(#p1f51e24fcc)" d="M 483.932937 150.27418 
L 488.084105 150.27418 
L 488.084105 150.27418 
L 483.932937 150.27418 
z
" style="fill:#78b0d7;"/>
   </g>
   <g id="patch_97">
    <path clip-path="url(#p1f51e24fcc)" d="M 489.121897 150.27418 
L 493.273065 150.27418 
L 493.273065 150.27418 
L 489.121897 150.27418 
z
" style="fill:#78b0d7;"/>
   </g>
   <g id="patch_98">
    <path clip-path="url(#p1f51e24fcc)" d="M 494.310857 150.27418 
L 498.462025 150.27418 
L 498.462025 150.27418 
L 494.310857 150.27418 
z
" style="fill:#78b0d7;"/>
   </g>
   <g id="patch_99">
    <path clip-path="url(#p1f51e24fcc)" d="M 499.499817 150.27418 
L 503.650985 150.27418 
L 503.650985 150.27418 
L 499.499817 150.27418 
z
" style="fill:#78b0d7;"/>
   </g>
   <g id="patch_100">
    <path clip-path="url(#p1f51e24fcc)" d="M 504.688777 150.27418 
L 508.839945 150.27418 
L 508.839945 146.252358 
L 504.688777 146.252358 
z
" style="fill:#78b0d7;"/>
   </g>
   <g id="patch_101">
    <path clip-path="url(#p1f51e24fcc)" d="M 509.877737 150.27418 
L 514.028905 150.27418 
L 514.028905 132.202828 
L 509.877737 132.202828 
z
" style="fill:#78b0d7;"/>
   </g>
   <g id="patch_102">
    <path clip-path="url(#p1f51e24fcc)" d="M 515.066697 150.27418 
L 519.217865 150.27418 
L 519.217865 47.032155 
L 515.066697 47.032155 
z
" style="fill:#78b0d7;"/>
   </g>
   <g id="patch_103">
    <path clip-path="url(#p1f51e24fcc)" d="M 520.255657 150.27418 
L 524.406825 150.27418 
L 524.406825 37.499756 
L 520.255657 37.499756 
z
" style="fill:#78b0d7;"/>
   </g>
   <g id="patch_104">
    <path clip-path="url(#p1f51e24fcc)" d="M 525.444617 150.27418 
L 529.595785 150.27418 
L 529.595785 27.63418 
L 525.444617 27.63418 
z
" style="fill:#78b0d7;"/>
   </g>
   <g id="matplotlib.axis_13">
    <g id="xtick_13">
     <g id="line2d_37">
      <g>
       <use style="stroke:#000000;stroke-width:0.8;" x="480.819561" xlink:href="#m03a2fa2aa8" y="205.46218"/>
      </g>
     </g>
     <g id="text_32">
      <!-- $0$ -->
      <g transform="translate(478.328894 219.380678)scale(0.1 -0.1)">
       <use transform="scale(0.996264)" xlink:href="#CMR17-48"/>
      </g>
     </g>
    </g>
    <g id="xtick_14">
     <g id="line2d_38">
      <g>
       <use style="stroke:#000000;stroke-width:0.8;" x="532.709161" xlink:href="#m03a2fa2aa8" y="205.46218"/>
      </g>
     </g>
     <g id="text_33">
      <!-- $10$ -->
      <g transform="translate(527.727826 219.380678)scale(0.1 -0.1)">
       <use transform="scale(0.996264)" xlink:href="#CMR17-49"/>
       <use transform="translate(45.690477 0)scale(0.996264)" xlink:href="#CMR17-48"/>
      </g>
     </g>
    </g>
   </g>
   <g id="matplotlib.axis_14"/>
   <g id="line2d_39">
    <g clip-path="url(#p1f51e24fcc)">
     <use style="fill:#1f77b4;stroke:#1f77b4;" x="480.819561" xlink:href="#m9f0a06afdf" y="77.775095"/>
     <use style="fill:#1f77b4;stroke:#1f77b4;" x="486.008521" xlink:href="#m9f0a06afdf" y="68.39791"/>
     <use style="fill:#1f77b4;stroke:#1f77b4;" x="491.197481" xlink:href="#m9f0a06afdf" y="57.808429"/>
     <use style="fill:#1f77b4;stroke:#1f77b4;" x="496.386441" xlink:href="#m9f0a06afdf" y="48.242806"/>
     <use style="fill:#1f77b4;stroke:#1f77b4;" x="501.575401" xlink:href="#m9f0a06afdf" y="47.822"/>
     <use style="fill:#1f77b4;stroke:#1f77b4;" x="506.764361" xlink:href="#m9f0a06afdf" y="45.469578"/>
     <use style="fill:#1f77b4;stroke:#1f77b4;" x="511.953321" xlink:href="#m9f0a06afdf" y="43.511214"/>
     <use style="fill:#1f77b4;stroke:#1f77b4;" x="517.142281" xlink:href="#m9f0a06afdf" y="31.639275"/>
     <use style="fill:#1f77b4;stroke:#1f77b4;" x="522.331241" xlink:href="#m9f0a06afdf" y="30.310554"/>
     <use style="fill:#1f77b4;stroke:#1f77b4;" x="527.520201" xlink:href="#m9f0a06afdf" y="28.935392"/>
    </g>
   </g>
   <g id="line2d_40">
    <path clip-path="url(#p1f51e24fcc)" d="M 480.819561 46.03018 
L 532.709161 46.03018 
" style="fill:none;stroke:#ff0000;stroke-linecap:square;stroke-width:1.5;"/>
   </g>
   <g id="patch_105">
    <path d="M 476.045718 205.46218 
L 476.045718 21.50218 
" style="fill:none;stroke:#000000;stroke-linecap:square;stroke-linejoin:miter;stroke-width:0.8;"/>
   </g>
   <g id="patch_106">
    <path d="M 535.40742 205.46218 
L 535.40742 21.50218 
" style="fill:none;stroke:#000000;stroke-linecap:square;stroke-linejoin:miter;stroke-width:0.8;"/>
   </g>
   <g id="patch_107">
    <path d="M 476.045718 205.46218 
L 535.40742 205.46218 
" style="fill:none;stroke:#000000;stroke-linecap:square;stroke-linejoin:miter;stroke-width:0.8;"/>
   </g>
   <g id="patch_108">
    <path d="M 476.045718 21.50218 
L 535.40742 21.50218 
" style="fill:none;stroke:#000000;stroke-linecap:square;stroke-linejoin:miter;stroke-width:0.8;"/>
   </g>
   <g id="text_34">
    <!-- all better 1 -->
    <defs>
     <path d="M 28.40625 67 
L 26.5 67 
C 21.09375 61.5625 14.796875 60.78125 8.40625 60.78125 
L 8.40625 55 
C 11.296875 55 16 55 20.703125 57.296875 
L 20.703125 5.765625 
L 8.90625 5.765625 
L 8.90625 0 
L 40.203125 0 
L 40.203125 5.765625 
L 28.40625 5.765625 
z
" id="CMSS17-49"/>
    </defs>
    <g transform="translate(478.758569 15.50218)scale(0.12 -0.12)">
     <use transform="scale(0.996264)" xlink:href="#CMSS17-97"/>
     <use transform="translate(44.921921 0)scale(0.996264)" xlink:href="#CMSS17-108"/>
     <use transform="translate(67.102644 0)scale(0.996264)" xlink:href="#CMSS17-108"/>
     <use transform="translate(120.512479 0)scale(0.996264)" xlink:href="#CMSS17-98"/>
     <use transform="translate(171.319861 0)scale(0.996264)" xlink:href="#CMSS17-101"/>
     <use transform="translate(212.958683 0)scale(0.996264)" xlink:href="#CMSS17-116"/>
     <use transform="translate(246.79025 0)scale(0.996264)" xlink:href="#CMSS17-116"/>
     <use transform="translate(280.621817 0)scale(0.996264)" xlink:href="#CMSS17-101"/>
     <use transform="translate(322.260639 0)scale(0.996264)" xlink:href="#CMSS17-114"/>
     <use transform="translate(385.399524 0)scale(0.996264)" xlink:href="#CMSS17-49"/>
    </g>
   </g>
  </g>
  <g id="axes_8">
   <g id="patch_109">
    <path d="M 547.279761 205.46218 
L 606.641463 205.46218 
L 606.641463 21.50218 
L 547.279761 21.50218 
z
" style="fill:#ffffff;"/>
   </g>
   <g id="patch_110">
    <path clip-path="url(#p769adb5a2a)" d="M 549.97802 150.27418 
L 554.129188 150.27418 
L 554.129188 150.27418 
L 549.97802 150.27418 
z
" style="fill:#78b0d7;"/>
   </g>
   <g id="patch_111">
    <path clip-path="url(#p769adb5a2a)" d="M 555.16698 150.27418 
L 559.318148 150.27418 
L 559.318148 150.27418 
L 555.16698 150.27418 
z
" style="fill:#78b0d7;"/>
   </g>
   <g id="patch_112">
    <path clip-path="url(#p769adb5a2a)" d="M 560.35594 150.27418 
L 564.507108 150.27418 
L 564.507108 150.27418 
L 560.35594 150.27418 
z
" style="fill:#78b0d7;"/>
   </g>
   <g id="patch_113">
    <path clip-path="url(#p769adb5a2a)" d="M 565.5449 150.27418 
L 569.696068 150.27418 
L 569.696068 150.27418 
L 565.5449 150.27418 
z
" style="fill:#78b0d7;"/>
   </g>
   <g id="patch_114">
    <path clip-path="url(#p769adb5a2a)" d="M 570.73386 150.27418 
L 574.885028 150.27418 
L 574.885028 150.27418 
L 570.73386 150.27418 
z
" style="fill:#78b0d7;"/>
   </g>
   <g id="patch_115">
    <path clip-path="url(#p769adb5a2a)" d="M 575.92282 150.27418 
L 580.073988 150.27418 
L 580.073988 148.906926 
L 575.92282 148.906926 
z
" style="fill:#78b0d7;"/>
   </g>
   <g id="patch_116">
    <path clip-path="url(#p769adb5a2a)" d="M 581.11178 150.27418 
L 585.262948 150.27418 
L 585.262948 144.130665 
L 581.11178 144.130665 
z
" style="fill:#78b0d7;"/>
   </g>
   <g id="patch_117">
    <path clip-path="url(#p769adb5a2a)" d="M 586.30074 150.27418 
L 590.451908 150.27418 
L 590.451908 115.176147 
L 586.30074 115.176147 
z
" style="fill:#78b0d7;"/>
   </g>
   <g id="patch_118">
    <path clip-path="url(#p769adb5a2a)" d="M 591.4897 150.27418 
L 595.640868 150.27418 
L 595.640868 111.935525 
L 591.4897 111.935525 
z
" style="fill:#78b0d7;"/>
   </g>
   <g id="patch_119">
    <path clip-path="url(#p769adb5a2a)" d="M 596.67866 150.27418 
L 600.829828 150.27418 
L 600.829828 108.581636 
L 596.67866 108.581636 
z
" style="fill:#78b0d7;"/>
   </g>
   <g id="matplotlib.axis_15">
    <g id="xtick_15">
     <g id="line2d_41">
      <g>
       <use style="stroke:#000000;stroke-width:0.8;" x="552.053604" xlink:href="#m03a2fa2aa8" y="205.46218"/>
      </g>
     </g>
     <g id="text_35">
      <!-- $0$ -->
      <g transform="translate(549.562936 219.380678)scale(0.1 -0.1)">
       <use transform="scale(0.996264)" xlink:href="#CMR17-48"/>
      </g>
     </g>
    </g>
    <g id="xtick_16">
     <g id="line2d_42">
      <g>
       <use style="stroke:#000000;stroke-width:0.8;" x="603.943204" xlink:href="#m03a2fa2aa8" y="205.46218"/>
      </g>
     </g>
     <g id="text_36">
      <!-- $10$ -->
      <g transform="translate(598.961868 219.380678)scale(0.1 -0.1)">
       <use transform="scale(0.996264)" xlink:href="#CMR17-49"/>
       <use transform="translate(45.690477 0)scale(0.996264)" xlink:href="#CMR17-48"/>
      </g>
     </g>
    </g>
   </g>
   <g id="matplotlib.axis_16"/>
   <g id="line2d_43">
    <g clip-path="url(#p769adb5a2a)">
     <use style="fill:#1f77b4;stroke:#1f77b4;" x="552.053604" xlink:href="#m9f0a06afdf" y="77.775095"/>
     <use style="fill:#1f77b4;stroke:#1f77b4;" x="557.242564" xlink:href="#m9f0a06afdf" y="68.39791"/>
     <use style="fill:#1f77b4;stroke:#1f77b4;" x="562.431524" xlink:href="#m9f0a06afdf" y="57.808429"/>
     <use style="fill:#1f77b4;stroke:#1f77b4;" x="567.620484" xlink:href="#m9f0a06afdf" y="48.242806"/>
     <use style="fill:#1f77b4;stroke:#1f77b4;" x="572.809444" xlink:href="#m9f0a06afdf" y="47.822"/>
     <use style="fill:#1f77b4;stroke:#1f77b4;" x="577.998404" xlink:href="#m9f0a06afdf" y="45.469578"/>
     <use style="fill:#1f77b4;stroke:#1f77b4;" x="583.187364" xlink:href="#m9f0a06afdf" y="43.511214"/>
     <use style="fill:#1f77b4;stroke:#1f77b4;" x="588.376324" xlink:href="#m9f0a06afdf" y="31.639275"/>
     <use style="fill:#1f77b4;stroke:#1f77b4;" x="593.565284" xlink:href="#m9f0a06afdf" y="30.310554"/>
     <use style="fill:#1f77b4;stroke:#1f77b4;" x="598.754244" xlink:href="#m9f0a06afdf" y="28.935392"/>
    </g>
   </g>
   <g id="line2d_44">
    <path clip-path="url(#p769adb5a2a)" d="M 552.053604 46.03018 
L 603.943204 46.03018 
" style="fill:none;stroke:#ff0000;stroke-linecap:square;stroke-width:1.5;"/>
   </g>
   <g id="patch_120">
    <path d="M 547.279761 205.46218 
L 547.279761 21.50218 
" style="fill:none;stroke:#000000;stroke-linecap:square;stroke-linejoin:miter;stroke-width:0.8;"/>
   </g>
   <g id="patch_121">
    <path d="M 606.641463 205.46218 
L 606.641463 21.50218 
" style="fill:none;stroke:#000000;stroke-linecap:square;stroke-linejoin:miter;stroke-width:0.8;"/>
   </g>
   <g id="patch_122">
    <path d="M 547.279761 205.46218 
L 606.641463 205.46218 
" style="fill:none;stroke:#000000;stroke-linecap:square;stroke-linejoin:miter;stroke-width:0.8;"/>
   </g>
   <g id="patch_123">
    <path d="M 547.279761 21.50218 
L 606.641463 21.50218 
" style="fill:none;stroke:#000000;stroke-linecap:square;stroke-linejoin:miter;stroke-width:0.8;"/>
   </g>
   <g id="text_37">
    <!-- all better 2 -->
    <defs>
     <path d="M 25.796875 21.203125 
C 28.59375 24.078125 32.796875 27.5625 35.703125 31.046875 
C 38.5 34.4375 42.203125 39.234375 42.203125 46.203125 
C 42.203125 57.140625 34.796875 67 22.203125 67 
C 12.296875 67 6.59375 60.828125 3.90625 51.15625 
L 7.796875 45.765625 
C 10 54.84375 13.09375 60.625 20.90625 60.625 
C 29.5 60.625 34.296875 53.640625 34.296875 45.96875 
C 34.296875 36.796875 27.296875 29.703125 22 24.421875 
C 16.09375 18.546875 10.296875 12.5625 4.703125 6.375 
L 4.703125 0 
L 42.203125 0 
L 42.203125 6.765625 
L 25.203125 6.765625 
C 24 6.765625 22.796875 6.765625 21.59375 6.765625 
L 11.59375 6.765625 
L 11.59375 6.859375 
z
" id="CMSS17-50"/>
    </defs>
    <g transform="translate(549.992612 15.50218)scale(0.12 -0.12)">
     <use transform="scale(0.996264)" xlink:href="#CMSS17-97"/>
     <use transform="translate(44.921921 0)scale(0.996264)" xlink:href="#CMSS17-108"/>
     <use transform="translate(67.102644 0)scale(0.996264)" xlink:href="#CMSS17-108"/>
     <use transform="translate(120.512479 0)scale(0.996264)" xlink:href="#CMSS17-98"/>
     <use transform="translate(171.319861 0)scale(0.996264)" xlink:href="#CMSS17-101"/>
     <use transform="translate(212.958683 0)scale(0.996264)" xlink:href="#CMSS17-116"/>
     <use transform="translate(246.79025 0)scale(0.996264)" xlink:href="#CMSS17-116"/>
     <use transform="translate(280.621817 0)scale(0.996264)" xlink:href="#CMSS17-101"/>
     <use transform="translate(322.260639 0)scale(0.996264)" xlink:href="#CMSS17-114"/>
     <use transform="translate(385.399524 0)scale(0.996264)" xlink:href="#CMSS17-50"/>
    </g>
   </g>
  </g>
 </g>
 <defs>
  <clipPath id="p2e4e3bc77e">
   <rect height="183.96" width="59.361702" x="48.641463" y="21.50218"/>
  </clipPath>
  <clipPath id="pb9242bced5">
   <rect height="183.96" width="59.361702" x="119.875505" y="21.50218"/>
  </clipPath>
  <clipPath id="pdba7509f65">
   <rect height="183.96" width="59.361702" x="191.109548" y="21.50218"/>
  </clipPath>
  <clipPath id="p1371fbf16a">
   <rect height="183.96" width="59.361702" x="262.34359" y="21.50218"/>
  </clipPath>
  <clipPath id="pd8fc7c67ca">
   <rect height="183.96" width="59.361702" x="333.577633" y="21.50218"/>
  </clipPath>
  <clipPath id="p25314bf513">
   <rect height="183.96" width="59.361702" x="404.811676" y="21.50218"/>
  </clipPath>
  <clipPath id="p1f51e24fcc">
   <rect height="183.96" width="59.361702" x="476.045718" y="21.50218"/>
  </clipPath>
  <clipPath id="p769adb5a2a">
   <rect height="183.96" width="59.361702" x="547.279761" y="21.50218"/>
  </clipPath>
 </defs>
</svg>
