<?xml version="1.0" encoding="utf-8" standalone="no"?>
<!DOCTYPE svg PUBLIC "-//W3C//DTD SVG 1.1//EN"
  "http://www.w3.org/Graphics/SVG/1.1/DTD/svg11.dtd">
<!-- Created with matplotlib (https://matplotlib.org/) -->
<svg height="345.6pt" version="1.1" viewBox="0 0 460.8 345.6" width="460.8pt" xmlns="http://www.w3.org/2000/svg" xmlns:xlink="http://www.w3.org/1999/xlink">
 <defs>
  <style type="text/css">
*{stroke-linecap:butt;stroke-linejoin:round;}
  </style>
 </defs>
 <g id="figure_1">
  <g id="patch_1">
   <path d="M 0 345.6 
L 460.8 345.6 
L 460.8 0 
L 0 0 
z
" style="fill:#ffffff;"/>
  </g>
  <g id="axes_1">
   <g id="patch_2">
    <path clip-path="url(#p73ef838a66)" d="M 88.386207 129.748063 
C 91.355151 129.748063 94.202895 128.568489 96.302256 126.469128 
C 98.401617 124.369767 99.581191 121.522023 99.581191 118.553078 
C 99.581191 115.584134 98.401617 112.73639 96.302256 110.637029 
C 94.202895 108.537668 91.355151 107.358094 88.386207 107.358094 
C 85.417262 107.358094 82.569518 108.537668 80.470158 110.637029 
C 78.370797 112.73639 77.191223 115.584134 77.191223 118.553078 
C 77.191223 121.522023 78.370797 124.369767 80.470158 126.469128 
C 82.569518 128.568489 85.417262 129.748063 88.386207 129.748063 
z
" style="fill:#fafcfd;stroke:#000000;stroke-linejoin:miter;stroke-width:0.2;"/>
   </g>
   <g id="patch_3">
    <path clip-path="url(#p73ef838a66)" d="M 88.386207 126.949317 
C 90.612915 126.949317 92.748723 126.064636 94.323244 124.490115 
C 95.897765 122.915595 96.782445 120.779787 96.782445 118.553078 
C 96.782445 116.32637 95.897765 114.190562 94.323244 112.616041 
C 92.748723 111.041521 90.612915 110.15684 88.386207 110.15684 
C 86.159498 110.15684 84.023691 111.041521 82.44917 112.616041 
C 80.874649 114.190562 79.989969 116.32637 79.989969 118.553078 
C 79.989969 120.779787 80.874649 122.915595 82.44917 124.490115 
C 84.023691 126.064636 86.159498 126.949317 88.386207 126.949317 
z
" style="fill:#cee1ee;stroke:#000000;stroke-linejoin:miter;stroke-width:0.2;"/>
   </g>
   <g id="patch_4">
    <path clip-path="url(#p73ef838a66)" d="M 88.386207 124.150571 
C 89.870679 124.150571 91.294551 123.560783 92.344232 122.511103 
C 93.393912 121.461423 93.983699 120.037551 93.983699 118.553078 
C 93.983699 117.068606 93.393912 115.644734 92.344232 114.595054 
C 91.294551 113.545373 89.870679 112.955586 88.386207 112.955586 
C 86.901735 112.955586 85.477863 113.545373 84.428182 114.595054 
C 83.378502 115.644734 82.788715 117.068606 82.788715 118.553078 
C 82.788715 120.037551 83.378502 121.461423 84.428182 122.511103 
C 85.477863 123.560783 86.901735 124.150571 88.386207 124.150571 
z
" style="fill:#9fc5df;stroke:#000000;stroke-linejoin:miter;stroke-width:0.2;"/>
   </g>
   <g id="patch_5">
    <path clip-path="url(#p73ef838a66)" d="M 124.210157 93.924113 
C 127.179101 93.924113 130.026845 92.744539 132.126206 90.645178 
C 134.225567 88.545817 135.405141 85.698073 135.405141 82.729129 
C 135.405141 79.760184 134.225567 76.91244 132.126206 74.813079 
C 130.026845 72.713718 127.179101 71.534144 124.210157 71.534144 
C 121.241212 71.534144 118.393468 72.713718 116.294107 74.813079 
C 114.194747 76.91244 113.015172 79.760184 113.015172 82.729129 
C 113.015172 85.698073 114.194747 88.545817 116.294107 90.645178 
C 118.393468 92.744539 121.241212 93.924113 124.210157 93.924113 
z
" style="fill:#fbfdfd;stroke:#000000;stroke-linejoin:miter;stroke-width:0.2;"/>
   </g>
   <g id="patch_6">
    <path clip-path="url(#p73ef838a66)" d="M 124.210157 91.125367 
C 126.436865 91.125367 128.572673 90.240686 130.147194 88.666166 
C 131.721714 87.091645 132.606395 84.955837 132.606395 82.729129 
C 132.606395 80.50242 131.721714 78.366612 130.147194 76.792092 
C 128.572673 75.217571 126.436865 74.33289 124.210157 74.33289 
C 121.983448 74.33289 119.84764 75.217571 118.27312 76.792092 
C 116.698599 78.366612 115.813918 80.50242 115.813918 82.729129 
C 115.813918 84.955837 116.698599 87.091645 118.27312 88.666166 
C 119.84764 90.240686 121.983448 91.125367 124.210157 91.125367 
z
" style="fill:#afcee4;stroke:#000000;stroke-linejoin:miter;stroke-width:0.2;"/>
   </g>
   <g id="patch_7">
    <path clip-path="url(#p73ef838a66)" d="M 124.210157 88.326621 
C 125.694629 88.326621 127.118501 87.736834 128.168181 86.687153 
C 129.217862 85.637473 129.807649 84.213601 129.807649 82.729129 
C 129.807649 81.244656 129.217862 79.820784 128.168181 78.771104 
C 127.118501 77.721423 125.694629 77.131636 124.210157 77.131636 
C 122.725684 77.131636 121.301812 77.721423 120.252132 78.771104 
C 119.202452 79.820784 118.612665 81.244656 118.612665 82.729129 
C 118.612665 84.213601 119.202452 85.637473 120.252132 86.687153 
C 121.301812 87.736834 122.725684 88.326621 124.210157 88.326621 
z
" style="fill:#98c0dc;stroke:#000000;stroke-linejoin:miter;stroke-width:0.2;"/>
   </g>
   <g id="patch_8">
    <path clip-path="url(#p73ef838a66)" d="M 160.034107 129.748063 
C 163.003051 129.748063 165.850795 128.568489 167.950156 126.469128 
C 170.049517 124.369767 171.229091 121.522023 171.229091 118.553078 
C 171.229091 115.584134 170.049517 112.73639 167.950156 110.637029 
C 165.850795 108.537668 163.003051 107.358094 160.034107 107.358094 
C 157.065162 107.358094 154.217418 108.537668 152.118057 110.637029 
C 150.018696 112.73639 148.839122 115.584134 148.839122 118.553078 
C 148.839122 121.522023 150.018696 124.369767 152.118057 126.469128 
C 154.217418 128.568489 157.065162 129.748063 160.034107 129.748063 
z
" style="fill:#fafcfd;stroke:#000000;stroke-linejoin:miter;stroke-width:0.2;"/>
   </g>
   <g id="patch_9">
    <path clip-path="url(#p73ef838a66)" d="M 160.034107 126.949317 
C 162.260815 126.949317 164.396623 126.064636 165.971144 124.490115 
C 167.545664 122.915595 168.430345 120.779787 168.430345 118.553078 
C 168.430345 116.32637 167.545664 114.190562 165.971144 112.616041 
C 164.396623 111.041521 162.260815 110.15684 160.034107 110.15684 
C 157.807398 110.15684 155.67159 111.041521 154.09707 112.616041 
C 152.522549 114.190562 151.637868 116.32637 151.637868 118.553078 
C 151.637868 120.779787 152.522549 122.915595 154.09707 124.490115 
C 155.67159 126.064636 157.807398 126.949317 160.034107 126.949317 
z
" style="fill:#75abd1;stroke:#000000;stroke-linejoin:miter;stroke-width:0.2;"/>
   </g>
   <g id="patch_10">
    <path clip-path="url(#p73ef838a66)" d="M 160.034107 124.150571 
C 161.518579 124.150571 162.942451 123.560783 163.992131 122.511103 
C 165.041812 121.461423 165.631599 120.037551 165.631599 118.553078 
C 165.631599 117.068606 165.041812 115.644734 163.992131 114.595054 
C 162.942451 113.545373 161.518579 112.955586 160.034107 112.955586 
C 158.549634 112.955586 157.125762 113.545373 156.076082 114.595054 
C 155.026402 115.644734 154.436614 117.068606 154.436614 118.553078 
C 154.436614 120.037551 155.026402 121.461423 156.076082 122.511103 
C 157.125762 123.560783 158.549634 124.150571 160.034107 124.150571 
z
" style="fill:#abcce3;stroke:#000000;stroke-linejoin:miter;stroke-width:0.2;"/>
   </g>
   <g id="patch_11">
    <path clip-path="url(#p73ef838a66)" d="M 124.210157 165.572013 
C 127.179101 165.572013 130.026845 164.392438 132.126206 162.293078 
C 134.225567 160.193717 135.405141 157.345973 135.405141 154.377028 
C 135.405141 151.408084 134.225567 148.56034 132.126206 146.460979 
C 130.026845 144.361618 127.179101 143.182044 124.210157 143.182044 
C 121.241212 143.182044 118.393468 144.361618 116.294107 146.460979 
C 114.194747 148.56034 113.015172 151.408084 113.015172 154.377028 
C 113.015172 157.345973 114.194747 160.193717 116.294107 162.293078 
C 118.393468 164.392438 121.241212 165.572013 124.210157 165.572013 
z
" style="fill:#d8e7f2;stroke:#000000;stroke-linejoin:miter;stroke-width:0.2;"/>
   </g>
   <g id="patch_12">
    <path clip-path="url(#p73ef838a66)" d="M 124.210157 162.773266 
C 126.436865 162.773266 128.572673 161.888586 130.147194 160.314065 
C 131.721714 158.739545 132.606395 156.603737 132.606395 154.377028 
C 132.606395 152.15032 131.721714 150.014512 130.147194 148.439991 
C 128.572673 146.865471 126.436865 145.98079 124.210157 145.98079 
C 121.983448 145.98079 119.84764 146.865471 118.27312 148.439991 
C 116.698599 150.014512 115.813918 152.15032 115.813918 154.377028 
C 115.813918 156.603737 116.698599 158.739545 118.27312 160.314065 
C 119.84764 161.888586 121.983448 162.773266 124.210157 162.773266 
z
" style="fill:#72a9cf;stroke:#000000;stroke-linejoin:miter;stroke-width:0.2;"/>
   </g>
   <g id="patch_13">
    <path clip-path="url(#p73ef838a66)" d="M 124.210157 159.97452 
C 125.694629 159.97452 127.118501 159.384733 128.168181 158.335053 
C 129.217862 157.285372 129.807649 155.8615 129.807649 154.377028 
C 129.807649 152.892556 129.217862 151.468684 128.168181 150.419004 
C 127.118501 149.369323 125.694629 148.779536 124.210157 148.779536 
C 122.725684 148.779536 121.301812 149.369323 120.252132 150.419004 
C 119.202452 151.468684 118.612665 152.892556 118.612665 154.377028 
C 118.612665 155.8615 119.202452 157.285372 120.252132 158.335053 
C 121.301812 159.384733 122.725684 159.97452 124.210157 159.97452 
z
" style="fill:#76acd1;stroke:#000000;stroke-linejoin:miter;stroke-width:0.2;"/>
   </g>
   <g id="patch_14">
    <path clip-path="url(#p73ef838a66)" d="M 236.16 277.521856 
C 239.128945 277.521856 241.976689 276.342282 244.076049 274.242921 
C 246.17541 272.14356 247.354984 269.295816 247.354984 266.326871 
C 247.354984 263.357927 246.17541 260.510183 244.076049 258.410822 
C 241.976689 256.311461 239.128945 255.131887 236.16 255.131887 
C 233.191055 255.131887 230.343311 256.311461 228.243951 258.410822 
C 226.14459 260.510183 224.965016 263.357927 224.965016 266.326871 
C 224.965016 269.295816 226.14459 272.14356 228.243951 274.242921 
C 230.343311 276.342282 233.191055 277.521856 236.16 277.521856 
z
" style="fill:#fbfcfd;stroke:#000000;stroke-linejoin:miter;stroke-width:0.2;"/>
   </g>
   <g id="patch_15">
    <path clip-path="url(#p73ef838a66)" d="M 236.16 274.72311 
C 238.386708 274.72311 240.522516 273.838429 242.097037 272.263908 
C 243.671558 270.689388 244.556238 268.55358 244.556238 266.326871 
C 244.556238 264.100163 243.671558 261.964355 242.097037 260.389834 
C 240.522516 258.815314 238.386708 257.930633 236.16 257.930633 
C 233.933292 257.930633 231.797484 258.815314 230.222963 260.389834 
C 228.648442 261.964355 227.763762 264.100163 227.763762 266.326871 
C 227.763762 268.55358 228.648442 270.689388 230.222963 272.263908 
C 231.797484 273.838429 233.933292 274.72311 236.16 274.72311 
z
" style="fill:#82b3d5;stroke:#000000;stroke-linejoin:miter;stroke-width:0.2;"/>
   </g>
   <g id="patch_16">
    <path clip-path="url(#p73ef838a66)" d="M 236.16 271.924364 
C 237.644472 271.924364 239.068344 271.334577 240.118025 270.284896 
C 241.167705 269.235216 241.757492 267.811344 241.757492 266.326871 
C 241.757492 264.842399 241.167705 263.418527 240.118025 262.368847 
C 239.068344 261.319166 237.644472 260.729379 236.16 260.729379 
C 234.675528 260.729379 233.251656 261.319166 232.201975 262.368847 
C 231.152295 263.418527 230.562508 264.842399 230.562508 266.326871 
C 230.562508 267.811344 231.152295 269.235216 232.201975 270.284896 
C 233.251656 271.334577 234.675528 271.924364 236.16 271.924364 
z
" style="fill:#cee1ee;stroke:#000000;stroke-linejoin:miter;stroke-width:0.2;"/>
   </g>
   <g id="patch_17">
    <path clip-path="url(#p73ef838a66)" d="M 236.16 205.873956 
C 239.128945 205.873956 241.976689 204.694382 244.076049 202.595021 
C 246.17541 200.49566 247.354984 197.647916 247.354984 194.678972 
C 247.354984 191.710027 246.17541 188.862283 244.076049 186.762922 
C 241.976689 184.663562 239.128945 183.483987 236.16 183.483987 
C 233.191055 183.483987 230.343311 184.663562 228.243951 186.762922 
C 226.14459 188.862283 224.965016 191.710027 224.965016 194.678972 
C 224.965016 197.647916 226.14459 200.49566 228.243951 202.595021 
C 230.343311 204.694382 233.191055 205.873956 236.16 205.873956 
z
" style="fill:#fbfdfd;stroke:#000000;stroke-linejoin:miter;stroke-width:0.2;"/>
   </g>
   <g id="patch_18">
    <path clip-path="url(#p73ef838a66)" d="M 236.16 203.07521 
C 238.386708 203.07521 240.522516 202.190529 242.097037 200.616009 
C 243.671558 199.041488 244.556238 196.90568 244.556238 194.678972 
C 244.556238 192.452263 243.671558 190.316455 242.097037 188.741935 
C 240.522516 187.167414 238.386708 186.282734 236.16 186.282734 
C 233.933292 186.282734 231.797484 187.167414 230.222963 188.741935 
C 228.648442 190.316455 227.763762 192.452263 227.763762 194.678972 
C 227.763762 196.90568 228.648442 199.041488 230.222963 200.616009 
C 231.797484 202.190529 233.933292 203.07521 236.16 203.07521 
z
" style="fill:#bbd5e8;stroke:#000000;stroke-linejoin:miter;stroke-width:0.2;"/>
   </g>
   <g id="patch_19">
    <path clip-path="url(#p73ef838a66)" d="M 236.16 200.276464 
C 237.644472 200.276464 239.068344 199.686677 240.118025 198.636996 
C 241.167705 197.587316 241.757492 196.163444 241.757492 194.678972 
C 241.757492 193.1945 241.167705 191.770628 240.118025 190.720947 
C 239.068344 189.671267 237.644472 189.08148 236.16 189.08148 
C 234.675528 189.08148 233.251656 189.671267 232.201975 190.720947 
C 231.152295 191.770628 230.562508 193.1945 230.562508 194.678972 
C 230.562508 196.163444 231.152295 197.587316 232.201975 198.636996 
C 233.251656 199.686677 234.675528 200.276464 236.16 200.276464 
z
" style="fill:#cadeed;stroke:#000000;stroke-linejoin:miter;stroke-width:0.2;"/>
   </g>
   <g id="patch_20">
    <path clip-path="url(#p73ef838a66)" d="M 200.33605 229.383423 
C 203.304995 229.383423 206.152739 228.203849 208.252099 226.104488 
C 210.35146 224.005127 211.531034 221.157383 211.531034 218.188439 
C 211.531034 215.219494 210.35146 212.37175 208.252099 210.27239 
C 206.152739 208.173029 203.304995 206.993455 200.33605 206.993455 
C 197.367106 206.993455 194.519362 208.173029 192.420001 210.27239 
C 190.32064 212.37175 189.141066 215.219494 189.141066 218.188439 
C 189.141066 221.157383 190.32064 224.005127 192.420001 226.104488 
C 194.519362 228.203849 197.367106 229.383423 200.33605 229.383423 
z
" style="fill:#fefefe;stroke:#000000;stroke-linejoin:miter;stroke-width:0.2;"/>
   </g>
   <g id="patch_21">
    <path clip-path="url(#p73ef838a66)" d="M 200.33605 226.584677 
C 202.562759 226.584677 204.698567 225.699996 206.273087 224.125476 
C 207.847608 222.550955 208.732288 220.415147 208.732288 218.188439 
C 208.732288 215.96173 207.847608 213.825922 206.273087 212.251402 
C 204.698567 210.676881 202.562759 209.792201 200.33605 209.792201 
C 198.109342 209.792201 195.973534 210.676881 194.399013 212.251402 
C 192.824493 213.825922 191.939812 215.96173 191.939812 218.188439 
C 191.939812 220.415147 192.824493 222.550955 194.399013 224.125476 
C 195.973534 225.699996 198.109342 226.584677 200.33605 226.584677 
z
" style="fill:#ffffff;stroke:#000000;stroke-linejoin:miter;stroke-width:0.2;"/>
   </g>
   <g id="patch_22">
    <path clip-path="url(#p73ef838a66)" d="M 200.33605 223.785931 
C 201.820522 223.785931 203.244394 223.196144 204.294075 222.146464 
C 205.343755 221.096783 205.933542 219.672911 205.933542 218.188439 
C 205.933542 216.703967 205.343755 215.280095 204.294075 214.230414 
C 203.244394 213.180734 201.820522 212.590947 200.33605 212.590947 
C 198.851578 212.590947 197.427706 213.180734 196.378025 214.230414 
C 195.328345 215.280095 194.738558 216.703967 194.738558 218.188439 
C 194.738558 219.672911 195.328345 221.096783 196.378025 222.146464 
C 197.427706 223.196144 198.851578 223.785931 200.33605 223.785931 
z
" style="fill:#d4e4f0;stroke:#000000;stroke-linejoin:miter;stroke-width:0.2;"/>
   </g>
   <g id="patch_23">
    <path clip-path="url(#p73ef838a66)" d="M 200.33605 254.012389 
C 203.304995 254.012389 206.152739 252.832815 208.252099 250.733454 
C 210.35146 248.634093 211.531034 245.786349 211.531034 242.817404 
C 211.531034 239.84846 210.35146 237.000716 208.252099 234.901355 
C 206.152739 232.801994 203.304995 231.62242 200.33605 231.62242 
C 197.367106 231.62242 194.519362 232.801994 192.420001 234.901355 
C 190.32064 237.000716 189.141066 239.84846 189.141066 242.817404 
C 189.141066 245.786349 190.32064 248.634093 192.420001 250.733454 
C 194.519362 252.832815 197.367106 254.012389 200.33605 254.012389 
z
" style="fill:#fbfdfd;stroke:#000000;stroke-linejoin:miter;stroke-width:0.2;"/>
   </g>
   <g id="patch_24">
    <path clip-path="url(#p73ef838a66)" d="M 200.33605 251.213643 
C 202.562759 251.213643 204.698567 250.328962 206.273087 248.754441 
C 207.847608 247.179921 208.732288 245.044113 208.732288 242.817404 
C 208.732288 240.590696 207.847608 238.454888 206.273087 236.880367 
C 204.698567 235.305847 202.562759 234.421166 200.33605 234.421166 
C 198.109342 234.421166 195.973534 235.305847 194.399013 236.880367 
C 192.824493 238.454888 191.939812 240.590696 191.939812 242.817404 
C 191.939812 245.044113 192.824493 247.179921 194.399013 248.754441 
C 195.973534 250.328962 198.109342 251.213643 200.33605 251.213643 
z
" style="fill:#d2e3ef;stroke:#000000;stroke-linejoin:miter;stroke-width:0.2;"/>
   </g>
   <g id="patch_25">
    <path clip-path="url(#p73ef838a66)" d="M 200.33605 248.414897 
C 201.820522 248.414897 203.244394 247.825109 204.294075 246.775429 
C 205.343755 245.725749 205.933542 244.301877 205.933542 242.817404 
C 205.933542 241.332932 205.343755 239.90906 204.294075 238.85938 
C 203.244394 237.809699 201.820522 237.219912 200.33605 237.219912 
C 198.851578 237.219912 197.427706 237.809699 196.378025 238.85938 
C 195.328345 239.90906 194.738558 241.332932 194.738558 242.817404 
C 194.738558 244.301877 195.328345 245.725749 196.378025 246.775429 
C 197.427706 247.825109 198.851578 248.414897 200.33605 248.414897 
z
" style="fill:#d4e4f0;stroke:#000000;stroke-linejoin:miter;stroke-width:0.2;"/>
   </g>
   <g id="patch_26">
    <path clip-path="url(#p73ef838a66)" d="M 271.98395 229.383423 
C 274.952894 229.383423 277.800638 228.203849 279.899999 226.104488 
C 281.99936 224.005127 283.178934 221.157383 283.178934 218.188439 
C 283.178934 215.219494 281.99936 212.37175 279.899999 210.27239 
C 277.800638 208.173029 274.952894 206.993455 271.98395 206.993455 
C 269.015005 206.993455 266.167261 208.173029 264.067901 210.27239 
C 261.96854 212.37175 260.788966 215.219494 260.788966 218.188439 
C 260.788966 221.157383 261.96854 224.005127 264.067901 226.104488 
C 266.167261 228.203849 269.015005 229.383423 271.98395 229.383423 
z
" style="fill:#dce9f3;stroke:#000000;stroke-linejoin:miter;stroke-width:0.2;"/>
   </g>
   <g id="patch_27">
    <path clip-path="url(#p73ef838a66)" d="M 271.98395 226.584677 
C 274.210658 226.584677 276.346466 225.699996 277.920987 224.125476 
C 279.495507 222.550955 280.380188 220.415147 280.380188 218.188439 
C 280.380188 215.96173 279.495507 213.825922 277.920987 212.251402 
C 276.346466 210.676881 274.210658 209.792201 271.98395 209.792201 
C 269.757241 209.792201 267.621433 210.676881 266.046913 212.251402 
C 264.472392 213.825922 263.587712 215.96173 263.587712 218.188439 
C 263.587712 220.415147 264.472392 222.550955 266.046913 224.125476 
C 267.621433 225.699996 269.757241 226.584677 271.98395 226.584677 
z
" style="fill:#629fca;stroke:#000000;stroke-linejoin:miter;stroke-width:0.2;"/>
   </g>
   <g id="patch_28">
    <path clip-path="url(#p73ef838a66)" d="M 271.98395 223.785931 
C 273.468422 223.785931 274.892294 223.196144 275.941975 222.146464 
C 276.991655 221.096783 277.581442 219.672911 277.581442 218.188439 
C 277.581442 216.703967 276.991655 215.280095 275.941975 214.230414 
C 274.892294 213.180734 273.468422 212.590947 271.98395 212.590947 
C 270.499478 212.590947 269.075606 213.180734 268.025925 214.230414 
C 266.976245 215.280095 266.386458 216.703967 266.386458 218.188439 
C 266.386458 219.672911 266.976245 221.096783 268.025925 222.146464 
C 269.075606 223.196144 270.499478 223.785931 271.98395 223.785931 
z
" style="fill:#67a3cc;stroke:#000000;stroke-linejoin:miter;stroke-width:0.2;"/>
   </g>
   <g id="patch_29">
    <path clip-path="url(#p73ef838a66)" d="M 271.98395 254.012389 
C 274.952894 254.012389 277.800638 252.832815 279.899999 250.733454 
C 281.99936 248.634093 283.178934 245.786349 283.178934 242.817404 
C 283.178934 239.84846 281.99936 237.000716 279.899999 234.901355 
C 277.800638 232.801994 274.952894 231.62242 271.98395 231.62242 
C 269.015005 231.62242 266.167261 232.801994 264.067901 234.901355 
C 261.96854 237.000716 260.788966 239.84846 260.788966 242.817404 
C 260.788966 245.786349 261.96854 248.634093 264.067901 250.733454 
C 266.167261 252.832815 269.015005 254.012389 271.98395 254.012389 
z
" style="fill:#fdfefe;stroke:#000000;stroke-linejoin:miter;stroke-width:0.2;"/>
   </g>
   <g id="patch_30">
    <path clip-path="url(#p73ef838a66)" d="M 271.98395 251.213643 
C 274.210658 251.213643 276.346466 250.328962 277.920987 248.754441 
C 279.495507 247.179921 280.380188 245.044113 280.380188 242.817404 
C 280.380188 240.590696 279.495507 238.454888 277.920987 236.880367 
C 276.346466 235.305847 274.210658 234.421166 271.98395 234.421166 
C 269.757241 234.421166 267.621433 235.305847 266.046913 236.880367 
C 264.472392 238.454888 263.587712 240.590696 263.587712 242.817404 
C 263.587712 245.044113 264.472392 247.179921 266.046913 248.754441 
C 267.621433 250.328962 269.757241 251.213643 271.98395 251.213643 
z
" style="fill:#7bafd3;stroke:#000000;stroke-linejoin:miter;stroke-width:0.2;"/>
   </g>
   <g id="patch_31">
    <path clip-path="url(#p73ef838a66)" d="M 271.98395 248.414897 
C 273.468422 248.414897 274.892294 247.825109 275.941975 246.775429 
C 276.991655 245.725749 277.581442 244.301877 277.581442 242.817404 
C 277.581442 241.332932 276.991655 239.90906 275.941975 238.85938 
C 274.892294 237.809699 273.468422 237.219912 271.98395 237.219912 
C 270.499478 237.219912 269.075606 237.809699 268.025925 238.85938 
C 266.976245 239.90906 266.386458 241.332932 266.386458 242.817404 
C 266.386458 244.301877 266.976245 245.725749 268.025925 246.775429 
C 269.075606 247.825109 270.499478 248.414897 271.98395 248.414897 
z
" style="fill:#67a3cc;stroke:#000000;stroke-linejoin:miter;stroke-width:0.2;"/>
   </g>
   <g id="patch_32">
    <path clip-path="url(#p73ef838a66)" d="M 88.386207 229.383423 
C 91.355151 229.383423 94.202895 228.203849 96.302256 226.104488 
C 98.401617 224.005127 99.581191 221.157383 99.581191 218.188439 
C 99.581191 215.219494 98.401617 212.37175 96.302256 210.27239 
C 94.202895 208.173029 91.355151 206.993455 88.386207 206.993455 
C 85.417262 206.993455 82.569518 208.173029 80.470158 210.27239 
C 78.370797 212.37175 77.191223 215.219494 77.191223 218.188439 
C 77.191223 221.157383 78.370797 224.005127 80.470158 226.104488 
C 82.569518 228.203849 85.417262 229.383423 88.386207 229.383423 
z
" style="fill:#f2f7fa;stroke:#000000;stroke-linejoin:miter;stroke-width:0.2;"/>
   </g>
   <g id="patch_33">
    <path clip-path="url(#p73ef838a66)" d="M 88.386207 226.584677 
C 90.612915 226.584677 92.748723 225.699996 94.323244 224.125476 
C 95.897765 222.550955 96.782445 220.415147 96.782445 218.188439 
C 96.782445 215.96173 95.897765 213.825922 94.323244 212.251402 
C 92.748723 210.676881 90.612915 209.792201 88.386207 209.792201 
C 86.159498 209.792201 84.023691 210.676881 82.44917 212.251402 
C 80.874649 213.825922 79.989969 215.96173 79.989969 218.188439 
C 79.989969 220.415147 80.874649 222.550955 82.44917 224.125476 
C 84.023691 225.699996 86.159498 226.584677 88.386207 226.584677 
z
" style="fill:#eff5f9;stroke:#000000;stroke-linejoin:miter;stroke-width:0.2;"/>
   </g>
   <g id="patch_34">
    <path clip-path="url(#p73ef838a66)" d="M 88.386207 223.785931 
C 89.870679 223.785931 91.294551 223.196144 92.344232 222.146464 
C 93.393912 221.096783 93.983699 219.672911 93.983699 218.188439 
C 93.983699 216.703967 93.393912 215.280095 92.344232 214.230414 
C 91.294551 213.180734 89.870679 212.590947 88.386207 212.590947 
C 86.901735 212.590947 85.477863 213.180734 84.428182 214.230414 
C 83.378502 215.280095 82.788715 216.703967 82.788715 218.188439 
C 82.788715 219.672911 83.378502 221.096783 84.428182 222.146464 
C 85.477863 223.196144 86.901735 223.785931 88.386207 223.785931 
z
" style="fill:#ffffff;stroke:#000000;stroke-linejoin:miter;stroke-width:0.2;"/>
   </g>
   <g id="patch_35">
    <path clip-path="url(#p73ef838a66)" d="M 88.386207 254.012389 
C 91.355151 254.012389 94.202895 252.832815 96.302256 250.733454 
C 98.401617 248.634093 99.581191 245.786349 99.581191 242.817404 
C 99.581191 239.84846 98.401617 237.000716 96.302256 234.901355 
C 94.202895 232.801994 91.355151 231.62242 88.386207 231.62242 
C 85.417262 231.62242 82.569518 232.801994 80.470158 234.901355 
C 78.370797 237.000716 77.191223 239.84846 77.191223 242.817404 
C 77.191223 245.786349 78.370797 248.634093 80.470158 250.733454 
C 82.569518 252.832815 85.417262 254.012389 88.386207 254.012389 
z
" style="fill:#f7fafc;stroke:#000000;stroke-linejoin:miter;stroke-width:0.2;"/>
   </g>
   <g id="patch_36">
    <path clip-path="url(#p73ef838a66)" d="M 88.386207 251.213643 
C 90.612915 251.213643 92.748723 250.328962 94.323244 248.754441 
C 95.897765 247.179921 96.782445 245.044113 96.782445 242.817404 
C 96.782445 240.590696 95.897765 238.454888 94.323244 236.880367 
C 92.748723 235.305847 90.612915 234.421166 88.386207 234.421166 
C 86.159498 234.421166 84.023691 235.305847 82.44917 236.880367 
C 80.874649 238.454888 79.989969 240.590696 79.989969 242.817404 
C 79.989969 245.044113 80.874649 247.179921 82.44917 248.754441 
C 84.023691 250.328962 86.159498 251.213643 88.386207 251.213643 
z
" style="fill:#eef4f9;stroke:#000000;stroke-linejoin:miter;stroke-width:0.2;"/>
   </g>
   <g id="patch_37">
    <path clip-path="url(#p73ef838a66)" d="M 88.386207 248.414897 
C 89.870679 248.414897 91.294551 247.825109 92.344232 246.775429 
C 93.393912 245.725749 93.983699 244.301877 93.983699 242.817404 
C 93.983699 241.332932 93.393912 239.90906 92.344232 238.85938 
C 91.294551 237.809699 89.870679 237.219912 88.386207 237.219912 
C 86.901735 237.219912 85.477863 237.809699 84.428182 238.85938 
C 83.378502 239.90906 82.788715 241.332932 82.788715 242.817404 
C 82.788715 244.301877 83.378502 245.725749 84.428182 246.775429 
C 85.477863 247.825109 86.901735 248.414897 88.386207 248.414897 
z
" style="fill:#ffffff;stroke:#000000;stroke-linejoin:miter;stroke-width:0.2;"/>
   </g>
   <g id="patch_38">
    <path clip-path="url(#p73ef838a66)" d="M 99.581191 205.873956 
C 102.550136 205.873956 105.39788 204.694382 107.497241 202.595021 
C 109.596601 200.49566 110.776176 197.647916 110.776176 194.678972 
C 110.776176 191.710027 109.596601 188.862283 107.497241 186.762922 
C 105.39788 184.663562 102.550136 183.483987 99.581191 183.483987 
C 96.612247 183.483987 93.764503 184.663562 91.665142 186.762922 
C 89.565781 188.862283 88.386207 191.710027 88.386207 194.678972 
C 88.386207 197.647916 89.565781 200.49566 91.665142 202.595021 
C 93.764503 204.694382 96.612247 205.873956 99.581191 205.873956 
z
" style="fill:#fdfefe;stroke:#000000;stroke-linejoin:miter;stroke-width:0.2;"/>
   </g>
   <g id="patch_39">
    <path clip-path="url(#p73ef838a66)" d="M 99.581191 203.07521 
C 101.8079 203.07521 103.943708 202.190529 105.518228 200.616009 
C 107.092749 199.041488 107.977429 196.90568 107.977429 194.678972 
C 107.977429 192.452263 107.092749 190.316455 105.518228 188.741935 
C 103.943708 187.167414 101.8079 186.282734 99.581191 186.282734 
C 97.354483 186.282734 95.218675 187.167414 93.644154 188.741935 
C 92.069634 190.316455 91.184953 192.452263 91.184953 194.678972 
C 91.184953 196.90568 92.069634 199.041488 93.644154 200.616009 
C 95.218675 202.190529 97.354483 203.07521 99.581191 203.07521 
z
" style="fill:#c3dbeb;stroke:#000000;stroke-linejoin:miter;stroke-width:0.2;"/>
   </g>
   <g id="patch_40">
    <path clip-path="url(#p73ef838a66)" d="M 99.581191 200.276464 
C 101.065663 200.276464 102.489535 199.686677 103.539216 198.636996 
C 104.588896 197.587316 105.178683 196.163444 105.178683 194.678972 
C 105.178683 193.1945 104.588896 191.770628 103.539216 190.720947 
C 102.489535 189.671267 101.065663 189.08148 99.581191 189.08148 
C 98.096719 189.08148 96.672847 189.671267 95.623167 190.720947 
C 94.573486 191.770628 93.983699 193.1945 93.983699 194.678972 
C 93.983699 196.163444 94.573486 197.587316 95.623167 198.636996 
C 96.672847 199.686677 98.096719 200.276464 99.581191 200.276464 
z
" style="fill:#f8fafc;stroke:#000000;stroke-linejoin:miter;stroke-width:0.2;"/>
   </g>
   <g id="patch_41">
    <path clip-path="url(#p73ef838a66)" d="M 124.210157 205.873956 
C 127.179101 205.873956 130.026845 204.694382 132.126206 202.595021 
C 134.225567 200.49566 135.405141 197.647916 135.405141 194.678972 
C 135.405141 191.710027 134.225567 188.862283 132.126206 186.762922 
C 130.026845 184.663562 127.179101 183.483987 124.210157 183.483987 
C 121.241212 183.483987 118.393468 184.663562 116.294107 186.762922 
C 114.194747 188.862283 113.015172 191.710027 113.015172 194.678972 
C 113.015172 197.647916 114.194747 200.49566 116.294107 202.595021 
C 118.393468 204.694382 121.241212 205.873956 124.210157 205.873956 
z
" style="fill:#f0f5fa;stroke:#000000;stroke-linejoin:miter;stroke-width:0.2;"/>
   </g>
   <g id="patch_42">
    <path clip-path="url(#p73ef838a66)" d="M 124.210157 203.07521 
C 126.436865 203.07521 128.572673 202.190529 130.147194 200.616009 
C 131.721714 199.041488 132.606395 196.90568 132.606395 194.678972 
C 132.606395 192.452263 131.721714 190.316455 130.147194 188.741935 
C 128.572673 187.167414 126.436865 186.282734 124.210157 186.282734 
C 121.983448 186.282734 119.84764 187.167414 118.27312 188.741935 
C 116.698599 190.316455 115.813918 192.452263 115.813918 194.678972 
C 115.813918 196.90568 116.698599 199.041488 118.27312 200.616009 
C 119.84764 202.190529 121.983448 203.07521 124.210157 203.07521 
z
" style="fill:#c7ddec;stroke:#000000;stroke-linejoin:miter;stroke-width:0.2;"/>
   </g>
   <g id="patch_43">
    <path clip-path="url(#p73ef838a66)" d="M 124.210157 200.276464 
C 125.694629 200.276464 127.118501 199.686677 128.168181 198.636996 
C 129.217862 197.587316 129.807649 196.163444 129.807649 194.678972 
C 129.807649 193.1945 129.217862 191.770628 128.168181 190.720947 
C 127.118501 189.671267 125.694629 189.08148 124.210157 189.08148 
C 122.725684 189.08148 121.301812 189.671267 120.252132 190.720947 
C 119.202452 191.770628 118.612665 193.1945 118.612665 194.678972 
C 118.612665 196.163444 119.202452 197.587316 120.252132 198.636996 
C 121.301812 199.686677 122.725684 200.276464 124.210157 200.276464 
z
" style="fill:#f8fafc;stroke:#000000;stroke-linejoin:miter;stroke-width:0.2;"/>
   </g>
   <g id="patch_44">
    <path clip-path="url(#p73ef838a66)" d="M 148.839122 205.873956 
C 151.808067 205.873956 154.655811 204.694382 156.755172 202.595021 
C 158.854532 200.49566 160.034107 197.647916 160.034107 194.678972 
C 160.034107 191.710027 158.854532 188.862283 156.755172 186.762922 
C 154.655811 184.663562 151.808067 183.483987 148.839122 183.483987 
C 145.870178 183.483987 143.022434 184.663562 140.923073 186.762922 
C 138.823712 188.862283 137.644138 191.710027 137.644138 194.678972 
C 137.644138 197.647916 138.823712 200.49566 140.923073 202.595021 
C 143.022434 204.694382 145.870178 205.873956 148.839122 205.873956 
z
" style="fill:#fafcfd;stroke:#000000;stroke-linejoin:miter;stroke-width:0.2;"/>
   </g>
   <g id="patch_45">
    <path clip-path="url(#p73ef838a66)" d="M 148.839122 203.07521 
C 151.065831 203.07521 153.201639 202.190529 154.776159 200.616009 
C 156.35068 199.041488 157.235361 196.90568 157.235361 194.678972 
C 157.235361 192.452263 156.35068 190.316455 154.776159 188.741935 
C 153.201639 187.167414 151.065831 186.282734 148.839122 186.282734 
C 146.612414 186.282734 144.476606 187.167414 142.902085 188.741935 
C 141.327565 190.316455 140.442884 192.452263 140.442884 194.678972 
C 140.442884 196.90568 141.327565 199.041488 142.902085 200.616009 
C 144.476606 202.190529 146.612414 203.07521 148.839122 203.07521 
z
" style="fill:#c0d8ea;stroke:#000000;stroke-linejoin:miter;stroke-width:0.2;"/>
   </g>
   <g id="patch_46">
    <path clip-path="url(#p73ef838a66)" d="M 148.839122 200.276464 
C 150.323595 200.276464 151.747467 199.686677 152.797147 198.636996 
C 153.846827 197.587316 154.436614 196.163444 154.436614 194.678972 
C 154.436614 193.1945 153.846827 191.770628 152.797147 190.720947 
C 151.747467 189.671267 150.323595 189.08148 148.839122 189.08148 
C 147.35465 189.08148 145.930778 189.671267 144.881098 190.720947 
C 143.831417 191.770628 143.24163 193.1945 143.24163 194.678972 
C 143.24163 196.163444 143.831417 197.587316 144.881098 198.636996 
C 145.930778 199.686677 147.35465 200.276464 148.839122 200.276464 
z
" style="fill:#f8fafc;stroke:#000000;stroke-linejoin:miter;stroke-width:0.2;"/>
   </g>
   <g id="patch_47">
    <path clip-path="url(#p73ef838a66)" d="M 111.895674 277.521856 
C 114.864619 277.521856 117.712362 276.342282 119.811723 274.242921 
C 121.911084 272.14356 123.090658 269.295816 123.090658 266.326871 
C 123.090658 263.357927 121.911084 260.510183 119.811723 258.410822 
C 117.712362 256.311461 114.864619 255.131887 111.895674 255.131887 
C 108.926729 255.131887 106.078985 256.311461 103.979625 258.410822 
C 101.880264 260.510183 100.70069 263.357927 100.70069 266.326871 
C 100.70069 269.295816 101.880264 272.14356 103.979625 274.242921 
C 106.078985 276.342282 108.926729 277.521856 111.895674 277.521856 
z
" style="fill:#fefefe;stroke:#000000;stroke-linejoin:miter;stroke-width:0.2;"/>
   </g>
   <g id="patch_48">
    <path clip-path="url(#p73ef838a66)" d="M 111.895674 274.72311 
C 114.122382 274.72311 116.25819 273.838429 117.832711 272.263908 
C 119.407232 270.689388 120.291912 268.55358 120.291912 266.326871 
C 120.291912 264.100163 119.407232 261.964355 117.832711 260.389834 
C 116.25819 258.815314 114.122382 257.930633 111.895674 257.930633 
C 109.668966 257.930633 107.533158 258.815314 105.958637 260.389834 
C 104.384116 261.964355 103.499436 264.100163 103.499436 266.326871 
C 103.499436 268.55358 104.384116 270.689388 105.958637 272.263908 
C 107.533158 273.838429 109.668966 274.72311 111.895674 274.72311 
z
" style="fill:#91bcda;stroke:#000000;stroke-linejoin:miter;stroke-width:0.2;"/>
   </g>
   <g id="patch_49">
    <path clip-path="url(#p73ef838a66)" d="M 111.895674 271.924364 
C 113.380146 271.924364 114.804018 271.334577 115.853699 270.284896 
C 116.903379 269.235216 117.493166 267.811344 117.493166 266.326871 
C 117.493166 264.842399 116.903379 263.418527 115.853699 262.368847 
C 114.804018 261.319166 113.380146 260.729379 111.895674 260.729379 
C 110.411202 260.729379 108.98733 261.319166 107.937649 262.368847 
C 106.887969 263.418527 106.298182 264.842399 106.298182 266.326871 
C 106.298182 267.811344 106.887969 269.235216 107.937649 270.284896 
C 108.98733 271.334577 110.411202 271.924364 111.895674 271.924364 
z
" style="fill:#dceaf3;stroke:#000000;stroke-linejoin:miter;stroke-width:0.2;"/>
   </g>
   <g id="patch_50">
    <path clip-path="url(#p73ef838a66)" d="M 136.524639 277.521856 
C 139.493584 277.521856 142.341328 276.342282 144.440689 274.242921 
C 146.54005 272.14356 147.719624 269.295816 147.719624 266.326871 
C 147.719624 263.357927 146.54005 260.510183 144.440689 258.410822 
C 142.341328 256.311461 139.493584 255.131887 136.524639 255.131887 
C 133.555695 255.131887 130.707951 256.311461 128.60859 258.410822 
C 126.509229 260.510183 125.329655 263.357927 125.329655 266.326871 
C 125.329655 269.295816 126.509229 272.14356 128.60859 274.242921 
C 130.707951 276.342282 133.555695 277.521856 136.524639 277.521856 
z
" style="fill:#e6eff6;stroke:#000000;stroke-linejoin:miter;stroke-width:0.2;"/>
   </g>
   <g id="patch_51">
    <path clip-path="url(#p73ef838a66)" d="M 136.524639 274.72311 
C 138.751348 274.72311 140.887156 273.838429 142.461676 272.263908 
C 144.036197 270.689388 144.920878 268.55358 144.920878 266.326871 
C 144.920878 264.100163 144.036197 261.964355 142.461676 260.389834 
C 140.887156 258.815314 138.751348 257.930633 136.524639 257.930633 
C 134.297931 257.930633 132.162123 258.815314 130.587602 260.389834 
C 129.013082 261.964355 128.128401 264.100163 128.128401 266.326871 
C 128.128401 268.55358 129.013082 270.689388 130.587602 272.263908 
C 132.162123 273.838429 134.297931 274.72311 136.524639 274.72311 
z
" style="fill:#94bedb;stroke:#000000;stroke-linejoin:miter;stroke-width:0.2;"/>
   </g>
   <g id="patch_52">
    <path clip-path="url(#p73ef838a66)" d="M 136.524639 271.924364 
C 138.009112 271.924364 139.432984 271.334577 140.482664 270.284896 
C 141.532345 269.235216 142.122132 267.811344 142.122132 266.326871 
C 142.122132 264.842399 141.532345 263.418527 140.482664 262.368847 
C 139.432984 261.319166 138.009112 260.729379 136.524639 260.729379 
C 135.040167 260.729379 133.616295 261.319166 132.566615 262.368847 
C 131.516934 263.418527 130.927147 264.842399 130.927147 266.326871 
C 130.927147 267.811344 131.516934 269.235216 132.566615 270.284896 
C 133.616295 271.334577 135.040167 271.924364 136.524639 271.924364 
z
" style="fill:#dceaf3;stroke:#000000;stroke-linejoin:miter;stroke-width:0.2;"/>
   </g>
   <g id="patch_53">
    <path clip-path="url(#p73ef838a66)" d="M 160.034107 241.697906 
C 163.003051 241.697906 165.850795 240.518332 167.950156 238.418971 
C 170.049517 236.31961 171.229091 233.471866 171.229091 230.502922 
C 171.229091 227.533977 170.049517 224.686233 167.950156 222.586872 
C 165.850795 220.487511 163.003051 219.307937 160.034107 219.307937 
C 157.065162 219.307937 154.217418 220.487511 152.118057 222.586872 
C 150.018696 224.686233 148.839122 227.533977 148.839122 230.502922 
C 148.839122 233.471866 150.018696 236.31961 152.118057 238.418971 
C 154.217418 240.518332 157.065162 241.697906 160.034107 241.697906 
z
" style="fill:#8cb9d8;stroke:#000000;stroke-linejoin:miter;stroke-width:0.2;"/>
   </g>
   <g id="patch_54">
    <path clip-path="url(#p73ef838a66)" d="M 160.034107 238.89916 
C 162.260815 238.89916 164.396623 238.014479 165.971144 236.439959 
C 167.545664 234.865438 168.430345 232.72963 168.430345 230.502922 
C 168.430345 228.276213 167.545664 226.140405 165.971144 224.565885 
C 164.396623 222.991364 162.260815 222.106683 160.034107 222.106683 
C 157.807398 222.106683 155.67159 222.991364 154.09707 224.565885 
C 152.522549 226.140405 151.637868 228.276213 151.637868 230.502922 
C 151.637868 232.72963 152.522549 234.865438 154.09707 236.439959 
C 155.67159 238.014479 157.807398 238.89916 160.034107 238.89916 
z
" style="fill:#6ea7ce;stroke:#000000;stroke-linejoin:miter;stroke-width:0.2;"/>
   </g>
   <g id="patch_55">
    <path clip-path="url(#p73ef838a66)" d="M 160.034107 236.100414 
C 161.518579 236.100414 162.942451 235.510627 163.992131 234.460946 
C 165.041812 233.411266 165.631599 231.987394 165.631599 230.502922 
C 165.631599 229.018449 165.041812 227.594577 163.992131 226.544897 
C 162.942451 225.495217 161.518579 224.905429 160.034107 224.905429 
C 158.549634 224.905429 157.125762 225.495217 156.076082 226.544897 
C 155.026402 227.594577 154.436614 229.018449 154.436614 230.502922 
C 154.436614 231.987394 155.026402 233.411266 156.076082 234.460946 
C 157.125762 235.510627 158.549634 236.100414 160.034107 236.100414 
z
" style="fill:#c9deed;stroke:#000000;stroke-linejoin:miter;stroke-width:0.2;"/>
   </g>
   <g id="patch_56">
    <path clip-path="url(#p73ef838a66)" d="M 323.480878 205.873956 
C 326.449822 205.873956 329.297566 204.694382 331.396927 202.595021 
C 333.496288 200.49566 334.675862 197.647916 334.675862 194.678972 
C 334.675862 191.710027 333.496288 188.862283 331.396927 186.762922 
C 329.297566 184.663562 326.449822 183.483987 323.480878 183.483987 
C 320.511933 183.483987 317.664189 184.663562 315.564828 186.762922 
C 313.465468 188.862283 312.285893 191.710027 312.285893 194.678972 
C 312.285893 197.647916 313.465468 200.49566 315.564828 202.595021 
C 317.664189 204.694382 320.511933 205.873956 323.480878 205.873956 
z
" style="fill:#fefefe;stroke:#000000;stroke-linejoin:miter;stroke-width:0.2;"/>
   </g>
   <g id="patch_57">
    <path clip-path="url(#p73ef838a66)" d="M 323.480878 203.07521 
C 325.707586 203.07521 327.843394 202.190529 329.417915 200.616009 
C 330.992435 199.041488 331.877116 196.90568 331.877116 194.678972 
C 331.877116 192.452263 330.992435 190.316455 329.417915 188.741935 
C 327.843394 187.167414 325.707586 186.282734 323.480878 186.282734 
C 321.254169 186.282734 319.118361 187.167414 317.543841 188.741935 
C 315.96932 190.316455 315.084639 192.452263 315.084639 194.678972 
C 315.084639 196.90568 315.96932 199.041488 317.543841 200.616009 
C 319.118361 202.190529 321.254169 203.07521 323.480878 203.07521 
z
" style="fill:#c8ddec;stroke:#000000;stroke-linejoin:miter;stroke-width:0.2;"/>
   </g>
   <g id="patch_58">
    <path clip-path="url(#p73ef838a66)" d="M 323.480878 200.276464 
C 324.96535 200.276464 326.389222 199.686677 327.438902 198.636996 
C 328.488583 197.587316 329.07837 196.163444 329.07837 194.678972 
C 329.07837 193.1945 328.488583 191.770628 327.438902 190.720947 
C 326.389222 189.671267 324.96535 189.08148 323.480878 189.08148 
C 321.996405 189.08148 320.572533 189.671267 319.522853 190.720947 
C 318.473173 191.770628 317.883386 193.1945 317.883386 194.678972 
C 317.883386 196.163444 318.473173 197.587316 319.522853 198.636996 
C 320.572533 199.686677 321.996405 200.276464 323.480878 200.276464 
z
" style="fill:#dfecf4;stroke:#000000;stroke-linejoin:miter;stroke-width:0.2;"/>
   </g>
   <g id="patch_59">
    <path clip-path="url(#p73ef838a66)" d="M 348.109843 205.873956 
C 351.078788 205.873956 353.926532 204.694382 356.025893 202.595021 
C 358.125253 200.49566 359.304828 197.647916 359.304828 194.678972 
C 359.304828 191.710027 358.125253 188.862283 356.025893 186.762922 
C 353.926532 184.663562 351.078788 183.483987 348.109843 183.483987 
C 345.140899 183.483987 342.293155 184.663562 340.193794 186.762922 
C 338.094433 188.862283 336.914859 191.710027 336.914859 194.678972 
C 336.914859 197.647916 338.094433 200.49566 340.193794 202.595021 
C 342.293155 204.694382 345.140899 205.873956 348.109843 205.873956 
z
" style="fill:#fdfdfe;stroke:#000000;stroke-linejoin:miter;stroke-width:0.2;"/>
   </g>
   <g id="patch_60">
    <path clip-path="url(#p73ef838a66)" d="M 348.109843 203.07521 
C 350.336552 203.07521 352.47236 202.190529 354.04688 200.616009 
C 355.621401 199.041488 356.506082 196.90568 356.506082 194.678972 
C 356.506082 192.452263 355.621401 190.316455 354.04688 188.741935 
C 352.47236 187.167414 350.336552 186.282734 348.109843 186.282734 
C 345.883135 186.282734 343.747327 187.167414 342.172806 188.741935 
C 340.598286 190.316455 339.713605 192.452263 339.713605 194.678972 
C 339.713605 196.90568 340.598286 199.041488 342.172806 200.616009 
C 343.747327 202.190529 345.883135 203.07521 348.109843 203.07521 
z
" style="fill:#c0d9ea;stroke:#000000;stroke-linejoin:miter;stroke-width:0.2;"/>
   </g>
   <g id="patch_61">
    <path clip-path="url(#p73ef838a66)" d="M 348.109843 200.276464 
C 349.594316 200.276464 351.018188 199.686677 352.067868 198.636996 
C 353.117548 197.587316 353.707335 196.163444 353.707335 194.678972 
C 353.707335 193.1945 353.117548 191.770628 352.067868 190.720947 
C 351.018188 189.671267 349.594316 189.08148 348.109843 189.08148 
C 346.625371 189.08148 345.201499 189.671267 344.151819 190.720947 
C 343.102138 191.770628 342.512351 193.1945 342.512351 194.678972 
C 342.512351 196.163444 343.102138 197.587316 344.151819 198.636996 
C 345.201499 199.686677 346.625371 200.276464 348.109843 200.276464 
z
" style="fill:#dfecf4;stroke:#000000;stroke-linejoin:miter;stroke-width:0.2;"/>
   </g>
   <g id="patch_62">
    <path clip-path="url(#p73ef838a66)" d="M 372.738809 205.873956 
C 375.707753 205.873956 378.555497 204.694382 380.654858 202.595021 
C 382.754219 200.49566 383.933793 197.647916 383.933793 194.678972 
C 383.933793 191.710027 382.754219 188.862283 380.654858 186.762922 
C 378.555497 184.663562 375.707753 183.483987 372.738809 183.483987 
C 369.769864 183.483987 366.92212 184.663562 364.822759 186.762922 
C 362.723399 188.862283 361.543824 191.710027 361.543824 194.678972 
C 361.543824 197.647916 362.723399 200.49566 364.822759 202.595021 
C 366.92212 204.694382 369.769864 205.873956 372.738809 205.873956 
z
" style="fill:#fbfdfd;stroke:#000000;stroke-linejoin:miter;stroke-width:0.2;"/>
   </g>
   <g id="patch_63">
    <path clip-path="url(#p73ef838a66)" d="M 372.738809 203.07521 
C 374.965517 203.07521 377.101325 202.190529 378.675846 200.616009 
C 380.250366 199.041488 381.135047 196.90568 381.135047 194.678972 
C 381.135047 192.452263 380.250366 190.316455 378.675846 188.741935 
C 377.101325 187.167414 374.965517 186.282734 372.738809 186.282734 
C 370.5121 186.282734 368.376292 187.167414 366.801772 188.741935 
C 365.227251 190.316455 364.342571 192.452263 364.342571 194.678972 
C 364.342571 196.90568 365.227251 199.041488 366.801772 200.616009 
C 368.376292 202.190529 370.5121 203.07521 372.738809 203.07521 
z
" style="fill:#cadfed;stroke:#000000;stroke-linejoin:miter;stroke-width:0.2;"/>
   </g>
   <g id="patch_64">
    <path clip-path="url(#p73ef838a66)" d="M 372.738809 200.276464 
C 374.223281 200.276464 375.647153 199.686677 376.696833 198.636996 
C 377.746514 197.587316 378.336301 196.163444 378.336301 194.678972 
C 378.336301 193.1945 377.746514 191.770628 376.696833 190.720947 
C 375.647153 189.671267 374.223281 189.08148 372.738809 189.08148 
C 371.254337 189.08148 369.830465 189.671267 368.780784 190.720947 
C 367.731104 191.770628 367.141317 193.1945 367.141317 194.678972 
C 367.141317 196.163444 367.731104 197.587316 368.780784 198.636996 
C 369.830465 199.686677 371.254337 200.276464 372.738809 200.276464 
z
" style="fill:#dfecf4;stroke:#000000;stroke-linejoin:miter;stroke-width:0.2;"/>
   </g>
   <g id="patch_65">
    <path clip-path="url(#p73ef838a66)" d="M 348.109843 277.521856 
C 351.078788 277.521856 353.926532 276.342282 356.025893 274.242921 
C 358.125253 272.14356 359.304828 269.295816 359.304828 266.326871 
C 359.304828 263.357927 358.125253 260.510183 356.025893 258.410822 
C 353.926532 256.311461 351.078788 255.131887 348.109843 255.131887 
C 345.140899 255.131887 342.293155 256.311461 340.193794 258.410822 
C 338.094433 260.510183 336.914859 263.357927 336.914859 266.326871 
C 336.914859 269.295816 338.094433 272.14356 340.193794 274.242921 
C 342.293155 276.342282 345.140899 277.521856 348.109843 277.521856 
z
" style="fill:#fafcfd;stroke:#000000;stroke-linejoin:miter;stroke-width:0.2;"/>
   </g>
   <g id="patch_66">
    <path clip-path="url(#p73ef838a66)" d="M 348.109843 274.72311 
C 350.336552 274.72311 352.47236 273.838429 354.04688 272.263908 
C 355.621401 270.689388 356.506082 268.55358 356.506082 266.326871 
C 356.506082 264.100163 355.621401 261.964355 354.04688 260.389834 
C 352.47236 258.815314 350.336552 257.930633 348.109843 257.930633 
C 345.883135 257.930633 343.747327 258.815314 342.172806 260.389834 
C 340.598286 261.964355 339.713605 264.100163 339.713605 266.326871 
C 339.713605 268.55358 340.598286 270.689388 342.172806 272.263908 
C 343.747327 273.838429 345.883135 274.72311 348.109843 274.72311 
z
" style="fill:#8cb9d8;stroke:#000000;stroke-linejoin:miter;stroke-width:0.2;"/>
   </g>
   <g id="patch_67">
    <path clip-path="url(#p73ef838a66)" d="M 348.109843 271.924364 
C 349.594316 271.924364 351.018188 271.334577 352.067868 270.284896 
C 353.117548 269.235216 353.707335 267.811344 353.707335 266.326871 
C 353.707335 264.842399 353.117548 263.418527 352.067868 262.368847 
C 351.018188 261.319166 349.594316 260.729379 348.109843 260.729379 
C 346.625371 260.729379 345.201499 261.319166 344.151819 262.368847 
C 343.102138 263.418527 342.512351 264.842399 342.512351 266.326871 
C 342.512351 267.811344 343.102138 269.235216 344.151819 270.284896 
C 345.201499 271.334577 346.625371 271.924364 348.109843 271.924364 
z
" style="fill:#d1e3ef;stroke:#000000;stroke-linejoin:miter;stroke-width:0.2;"/>
   </g>
   <g id="patch_68">
    <path clip-path="url(#p73ef838a66)" d="M 312.285893 241.697906 
C 315.254838 241.697906 318.102582 240.518332 320.201943 238.418971 
C 322.301304 236.31961 323.480878 233.471866 323.480878 230.502922 
C 323.480878 227.533977 322.301304 224.686233 320.201943 222.586872 
C 318.102582 220.487511 315.254838 219.307937 312.285893 219.307937 
C 309.316949 219.307937 306.469205 220.487511 304.369844 222.586872 
C 302.270483 224.686233 301.090909 227.533977 301.090909 230.502922 
C 301.090909 233.471866 302.270483 236.31961 304.369844 238.418971 
C 306.469205 240.518332 309.316949 241.697906 312.285893 241.697906 
z
" style="fill:#fcfdfe;stroke:#000000;stroke-linejoin:miter;stroke-width:0.2;"/>
   </g>
   <g id="patch_69">
    <path clip-path="url(#p73ef838a66)" d="M 312.285893 238.89916 
C 314.512602 238.89916 316.64841 238.014479 318.22293 236.439959 
C 319.797451 234.865438 320.682132 232.72963 320.682132 230.502922 
C 320.682132 228.276213 319.797451 226.140405 318.22293 224.565885 
C 316.64841 222.991364 314.512602 222.106683 312.285893 222.106683 
C 310.059185 222.106683 307.923377 222.991364 306.348856 224.565885 
C 304.774336 226.140405 303.889655 228.276213 303.889655 230.502922 
C 303.889655 232.72963 304.774336 234.865438 306.348856 236.439959 
C 307.923377 238.014479 310.059185 238.89916 312.285893 238.89916 
z
" style="fill:#eff5f9;stroke:#000000;stroke-linejoin:miter;stroke-width:0.2;"/>
   </g>
   <g id="patch_70">
    <path clip-path="url(#p73ef838a66)" d="M 312.285893 236.100414 
C 313.770366 236.100414 315.194238 235.510627 316.243918 234.460946 
C 317.293598 233.411266 317.883386 231.987394 317.883386 230.502922 
C 317.883386 229.018449 317.293598 227.594577 316.243918 226.544897 
C 315.194238 225.495217 313.770366 224.905429 312.285893 224.905429 
C 310.801421 224.905429 309.377549 225.495217 308.327869 226.544897 
C 307.278188 227.594577 306.688401 229.018449 306.688401 230.502922 
C 306.688401 231.987394 307.278188 233.411266 308.327869 234.460946 
C 309.377549 235.510627 310.801421 236.100414 312.285893 236.100414 
z
" style="fill:#f7fafc;stroke:#000000;stroke-linejoin:miter;stroke-width:0.2;"/>
   </g>
   <g id="patch_71">
    <path clip-path="url(#p73ef838a66)" d="M 383.933793 241.697906 
C 386.902738 241.697906 389.750482 240.518332 391.849842 238.418971 
C 393.949203 236.31961 395.128777 233.471866 395.128777 230.502922 
C 395.128777 227.533977 393.949203 224.686233 391.849842 222.586872 
C 389.750482 220.487511 386.902738 219.307937 383.933793 219.307937 
C 380.964849 219.307937 378.117105 220.487511 376.017744 222.586872 
C 373.918383 224.686233 372.738809 227.533977 372.738809 230.502922 
C 372.738809 233.471866 373.918383 236.31961 376.017744 238.418971 
C 378.117105 240.518332 380.964849 241.697906 383.933793 241.697906 
z
" style="fill:#f9fbfd;stroke:#000000;stroke-linejoin:miter;stroke-width:0.2;"/>
   </g>
   <g id="patch_72">
    <path clip-path="url(#p73ef838a66)" d="M 383.933793 238.89916 
C 386.160502 238.89916 388.296309 238.014479 389.87083 236.439959 
C 391.445351 234.865438 392.330031 232.72963 392.330031 230.502922 
C 392.330031 228.276213 391.445351 226.140405 389.87083 224.565885 
C 388.296309 222.991364 386.160502 222.106683 383.933793 222.106683 
C 381.707085 222.106683 379.571277 222.991364 377.996756 224.565885 
C 376.422235 226.140405 375.537555 228.276213 375.537555 230.502922 
C 375.537555 232.72963 376.422235 234.865438 377.996756 236.439959 
C 379.571277 238.014479 381.707085 238.89916 383.933793 238.89916 
z
" style="fill:#6fa7ce;stroke:#000000;stroke-linejoin:miter;stroke-width:0.2;"/>
   </g>
   <g id="patch_73">
    <path clip-path="url(#p73ef838a66)" d="M 383.933793 236.100414 
C 385.418265 236.100414 386.842137 235.510627 387.891818 234.460946 
C 388.941498 233.411266 389.531285 231.987394 389.531285 230.502922 
C 389.531285 229.018449 388.941498 227.594577 387.891818 226.544897 
C 386.842137 225.495217 385.418265 224.905429 383.933793 224.905429 
C 382.449321 224.905429 381.025449 225.495217 379.975768 226.544897 
C 378.926088 227.594577 378.336301 229.018449 378.336301 230.502922 
C 378.336301 231.987394 378.926088 233.411266 379.975768 234.460946 
C 381.025449 235.510627 382.449321 236.100414 383.933793 236.100414 
z
" style="fill:#c5dbeb;stroke:#000000;stroke-linejoin:miter;stroke-width:0.2;"/>
   </g>
   <g id="patch_74">
    <path clip-path="url(#p73ef838a66)" d="M 323.480878 93.924113 
C 326.449822 93.924113 329.297566 92.744539 331.396927 90.645178 
C 333.496288 88.545817 334.675862 85.698073 334.675862 82.729129 
C 334.675862 79.760184 333.496288 76.91244 331.396927 74.813079 
C 329.297566 72.713718 326.449822 71.534144 323.480878 71.534144 
C 320.511933 71.534144 317.664189 72.713718 315.564828 74.813079 
C 313.465468 76.91244 312.285893 79.760184 312.285893 82.729129 
C 312.285893 85.698073 313.465468 88.545817 315.564828 90.645178 
C 317.664189 92.744539 320.511933 93.924113 323.480878 93.924113 
z
" style="fill:#fefefe;stroke:#000000;stroke-linejoin:miter;stroke-width:0.2;"/>
   </g>
   <g id="patch_75">
    <path clip-path="url(#p73ef838a66)" d="M 323.480878 91.125367 
C 325.707586 91.125367 327.843394 90.240686 329.417915 88.666166 
C 330.992435 87.091645 331.877116 84.955837 331.877116 82.729129 
C 331.877116 80.50242 330.992435 78.366612 329.417915 76.792092 
C 327.843394 75.217571 325.707586 74.33289 323.480878 74.33289 
C 321.254169 74.33289 319.118361 75.217571 317.543841 76.792092 
C 315.96932 78.366612 315.084639 80.50242 315.084639 82.729129 
C 315.084639 84.955837 315.96932 87.091645 317.543841 88.666166 
C 319.118361 90.240686 321.254169 91.125367 323.480878 91.125367 
z
" style="fill:#bbd6e8;stroke:#000000;stroke-linejoin:miter;stroke-width:0.2;"/>
   </g>
   <g id="patch_76">
    <path clip-path="url(#p73ef838a66)" d="M 323.480878 88.326621 
C 324.96535 88.326621 326.389222 87.736834 327.438902 86.687153 
C 328.488583 85.637473 329.07837 84.213601 329.07837 82.729129 
C 329.07837 81.244656 328.488583 79.820784 327.438902 78.771104 
C 326.389222 77.721423 324.96535 77.131636 323.480878 77.131636 
C 321.996405 77.131636 320.572533 77.721423 319.522853 78.771104 
C 318.473173 79.820784 317.883386 81.244656 317.883386 82.729129 
C 317.883386 84.213601 318.473173 85.637473 319.522853 86.687153 
C 320.572533 87.736834 321.996405 88.326621 323.480878 88.326621 
z
" style="fill:#cfe2ef;stroke:#000000;stroke-linejoin:miter;stroke-width:0.2;"/>
   </g>
   <g id="patch_77">
    <path clip-path="url(#p73ef838a66)" d="M 348.109843 93.924113 
C 351.078788 93.924113 353.926532 92.744539 356.025893 90.645178 
C 358.125253 88.545817 359.304828 85.698073 359.304828 82.729129 
C 359.304828 79.760184 358.125253 76.91244 356.025893 74.813079 
C 353.926532 72.713718 351.078788 71.534144 348.109843 71.534144 
C 345.140899 71.534144 342.293155 72.713718 340.193794 74.813079 
C 338.094433 76.91244 336.914859 79.760184 336.914859 82.729129 
C 336.914859 85.698073 338.094433 88.545817 340.193794 90.645178 
C 342.293155 92.744539 345.140899 93.924113 348.109843 93.924113 
z
" style="fill:#fefefe;stroke:#000000;stroke-linejoin:miter;stroke-width:0.2;"/>
   </g>
   <g id="patch_78">
    <path clip-path="url(#p73ef838a66)" d="M 348.109843 91.125367 
C 350.336552 91.125367 352.47236 90.240686 354.04688 88.666166 
C 355.621401 87.091645 356.506082 84.955837 356.506082 82.729129 
C 356.506082 80.50242 355.621401 78.366612 354.04688 76.792092 
C 352.47236 75.217571 350.336552 74.33289 348.109843 74.33289 
C 345.883135 74.33289 343.747327 75.217571 342.172806 76.792092 
C 340.598286 78.366612 339.713605 80.50242 339.713605 82.729129 
C 339.713605 84.955837 340.598286 87.091645 342.172806 88.666166 
C 343.747327 90.240686 345.883135 91.125367 348.109843 91.125367 
z
" style="fill:#bed7e9;stroke:#000000;stroke-linejoin:miter;stroke-width:0.2;"/>
   </g>
   <g id="patch_79">
    <path clip-path="url(#p73ef838a66)" d="M 348.109843 88.326621 
C 349.594316 88.326621 351.018188 87.736834 352.067868 86.687153 
C 353.117548 85.637473 353.707335 84.213601 353.707335 82.729129 
C 353.707335 81.244656 353.117548 79.820784 352.067868 78.771104 
C 351.018188 77.721423 349.594316 77.131636 348.109843 77.131636 
C 346.625371 77.131636 345.201499 77.721423 344.151819 78.771104 
C 343.102138 79.820784 342.512351 81.244656 342.512351 82.729129 
C 342.512351 84.213601 343.102138 85.637473 344.151819 86.687153 
C 345.201499 87.736834 346.625371 88.326621 348.109843 88.326621 
z
" style="fill:#cfe2ef;stroke:#000000;stroke-linejoin:miter;stroke-width:0.2;"/>
   </g>
   <g id="patch_80">
    <path clip-path="url(#p73ef838a66)" d="M 372.738809 93.924113 
C 375.707753 93.924113 378.555497 92.744539 380.654858 90.645178 
C 382.754219 88.545817 383.933793 85.698073 383.933793 82.729129 
C 383.933793 79.760184 382.754219 76.91244 380.654858 74.813079 
C 378.555497 72.713718 375.707753 71.534144 372.738809 71.534144 
C 369.769864 71.534144 366.92212 72.713718 364.822759 74.813079 
C 362.723399 76.91244 361.543824 79.760184 361.543824 82.729129 
C 361.543824 85.698073 362.723399 88.545817 364.822759 90.645178 
C 366.92212 92.744539 369.769864 93.924113 372.738809 93.924113 
z
" style="fill:#fcfdfe;stroke:#000000;stroke-linejoin:miter;stroke-width:0.2;"/>
   </g>
   <g id="patch_81">
    <path clip-path="url(#p73ef838a66)" d="M 372.738809 91.125367 
C 374.965517 91.125367 377.101325 90.240686 378.675846 88.666166 
C 380.250366 87.091645 381.135047 84.955837 381.135047 82.729129 
C 381.135047 80.50242 380.250366 78.366612 378.675846 76.792092 
C 377.101325 75.217571 374.965517 74.33289 372.738809 74.33289 
C 370.5121 74.33289 368.376292 75.217571 366.801772 76.792092 
C 365.227251 78.366612 364.342571 80.50242 364.342571 82.729129 
C 364.342571 84.955837 365.227251 87.091645 366.801772 88.666166 
C 368.376292 90.240686 370.5121 91.125367 372.738809 91.125367 
z
" style="fill:#b8d4e7;stroke:#000000;stroke-linejoin:miter;stroke-width:0.2;"/>
   </g>
   <g id="patch_82">
    <path clip-path="url(#p73ef838a66)" d="M 372.738809 88.326621 
C 374.223281 88.326621 375.647153 87.736834 376.696833 86.687153 
C 377.746514 85.637473 378.336301 84.213601 378.336301 82.729129 
C 378.336301 81.244656 377.746514 79.820784 376.696833 78.771104 
C 375.647153 77.721423 374.223281 77.131636 372.738809 77.131636 
C 371.254337 77.131636 369.830465 77.721423 368.780784 78.771104 
C 367.731104 79.820784 367.141317 81.244656 367.141317 82.729129 
C 367.141317 84.213601 367.731104 85.637473 368.780784 86.687153 
C 369.830465 87.736834 371.254337 88.326621 372.738809 88.326621 
z
" style="fill:#cfe2ef;stroke:#000000;stroke-linejoin:miter;stroke-width:0.2;"/>
   </g>
   <g id="patch_83">
    <path clip-path="url(#p73ef838a66)" d="M 312.285893 117.43358 
C 315.254838 117.43358 318.102582 116.254006 320.201943 114.154645 
C 322.301304 112.055284 323.480878 109.20754 323.480878 106.238596 
C 323.480878 103.269651 322.301304 100.421907 320.201943 98.322546 
C 318.102582 96.223185 315.254838 95.043611 312.285893 95.043611 
C 309.316949 95.043611 306.469205 96.223185 304.369844 98.322546 
C 302.270483 100.421907 301.090909 103.269651 301.090909 106.238596 
C 301.090909 109.20754 302.270483 112.055284 304.369844 114.154645 
C 306.469205 116.254006 309.316949 117.43358 312.285893 117.43358 
z
" style="fill:#fcfdfe;stroke:#000000;stroke-linejoin:miter;stroke-width:0.2;"/>
   </g>
   <g id="patch_84">
    <path clip-path="url(#p73ef838a66)" d="M 312.285893 114.634834 
C 314.512602 114.634834 316.64841 113.750153 318.22293 112.175633 
C 319.797451 110.601112 320.682132 108.465304 320.682132 106.238596 
C 320.682132 104.011887 319.797451 101.876079 318.22293 100.301559 
C 316.64841 98.727038 314.512602 97.842357 312.285893 97.842357 
C 310.059185 97.842357 307.923377 98.727038 306.348856 100.301559 
C 304.774336 101.876079 303.889655 104.011887 303.889655 106.238596 
C 303.889655 108.465304 304.774336 110.601112 306.348856 112.175633 
C 307.923377 113.750153 310.059185 114.634834 312.285893 114.634834 
z
" style="fill:#e5eff6;stroke:#000000;stroke-linejoin:miter;stroke-width:0.2;"/>
   </g>
   <g id="patch_85">
    <path clip-path="url(#p73ef838a66)" d="M 312.285893 111.836088 
C 313.770366 111.836088 315.194238 111.246301 316.243918 110.19662 
C 317.293598 109.14694 317.883386 107.723068 317.883386 106.238596 
C 317.883386 104.754123 317.293598 103.330251 316.243918 102.280571 
C 315.194238 101.230891 313.770366 100.641103 312.285893 100.641103 
C 310.801421 100.641103 309.377549 101.230891 308.327869 102.280571 
C 307.278188 103.330251 306.688401 104.754123 306.688401 106.238596 
C 306.688401 107.723068 307.278188 109.14694 308.327869 110.19662 
C 309.377549 111.246301 310.801421 111.836088 312.285893 111.836088 
z
" style="fill:#e7f0f7;stroke:#000000;stroke-linejoin:miter;stroke-width:0.2;"/>
   </g>
   <g id="patch_86">
    <path clip-path="url(#p73ef838a66)" d="M 312.285893 142.062545 
C 315.254838 142.062545 318.102582 140.882971 320.201943 138.78361 
C 322.301304 136.68425 323.480878 133.836506 323.480878 130.867561 
C 323.480878 127.898617 322.301304 125.050873 320.201943 122.951512 
C 318.102582 120.852151 315.254838 119.672577 312.285893 119.672577 
C 309.316949 119.672577 306.469205 120.852151 304.369844 122.951512 
C 302.270483 125.050873 301.090909 127.898617 301.090909 130.867561 
C 301.090909 133.836506 302.270483 136.68425 304.369844 138.78361 
C 306.469205 140.882971 309.316949 142.062545 312.285893 142.062545 
z
" style="fill:#fdfefe;stroke:#000000;stroke-linejoin:miter;stroke-width:0.2;"/>
   </g>
   <g id="patch_87">
    <path clip-path="url(#p73ef838a66)" d="M 312.285893 139.263799 
C 314.512602 139.263799 316.64841 138.379119 318.22293 136.804598 
C 319.797451 135.230078 320.682132 133.09427 320.682132 130.867561 
C 320.682132 128.640853 319.797451 126.505045 318.22293 124.930524 
C 316.64841 123.356004 314.512602 122.471323 312.285893 122.471323 
C 310.059185 122.471323 307.923377 123.356004 306.348856 124.930524 
C 304.774336 126.505045 303.889655 128.640853 303.889655 130.867561 
C 303.889655 133.09427 304.774336 135.230078 306.348856 136.804598 
C 307.923377 138.379119 310.059185 139.263799 312.285893 139.263799 
z
" style="fill:#deebf4;stroke:#000000;stroke-linejoin:miter;stroke-width:0.2;"/>
   </g>
   <g id="patch_88">
    <path clip-path="url(#p73ef838a66)" d="M 312.285893 136.465053 
C 313.770366 136.465053 315.194238 135.875266 316.243918 134.825586 
C 317.293598 133.775905 317.883386 132.352033 317.883386 130.867561 
C 317.883386 129.383089 317.293598 127.959217 316.243918 126.909536 
C 315.194238 125.859856 313.770366 125.270069 312.285893 125.270069 
C 310.801421 125.270069 309.377549 125.859856 308.327869 126.909536 
C 307.278188 127.959217 306.688401 129.383089 306.688401 130.867561 
C 306.688401 132.352033 307.278188 133.775905 308.327869 134.825586 
C 309.377549 135.875266 310.801421 136.465053 312.285893 136.465053 
z
" style="fill:#e7f0f7;stroke:#000000;stroke-linejoin:miter;stroke-width:0.2;"/>
   </g>
   <g id="patch_89">
    <path clip-path="url(#p73ef838a66)" d="M 348.109843 165.572013 
C 351.078788 165.572013 353.926532 164.392438 356.025893 162.293078 
C 358.125253 160.193717 359.304828 157.345973 359.304828 154.377028 
C 359.304828 151.408084 358.125253 148.56034 356.025893 146.460979 
C 353.926532 144.361618 351.078788 143.182044 348.109843 143.182044 
C 345.140899 143.182044 342.293155 144.361618 340.193794 146.460979 
C 338.094433 148.56034 336.914859 151.408084 336.914859 154.377028 
C 336.914859 157.345973 338.094433 160.193717 340.193794 162.293078 
C 342.293155 164.392438 345.140899 165.572013 348.109843 165.572013 
z
" style="fill:#fbfdfd;stroke:#000000;stroke-linejoin:miter;stroke-width:0.2;"/>
   </g>
   <g id="patch_90">
    <path clip-path="url(#p73ef838a66)" d="M 348.109843 162.773266 
C 350.336552 162.773266 352.47236 161.888586 354.04688 160.314065 
C 355.621401 158.739545 356.506082 156.603737 356.506082 154.377028 
C 356.506082 152.15032 355.621401 150.014512 354.04688 148.439991 
C 352.47236 146.865471 350.336552 145.98079 348.109843 145.98079 
C 345.883135 145.98079 343.747327 146.865471 342.172806 148.439991 
C 340.598286 150.014512 339.713605 152.15032 339.713605 154.377028 
C 339.713605 156.603737 340.598286 158.739545 342.172806 160.314065 
C 343.747327 161.888586 345.883135 162.773266 348.109843 162.773266 
z
" style="fill:#89b7d7;stroke:#000000;stroke-linejoin:miter;stroke-width:0.2;"/>
   </g>
   <g id="patch_91">
    <path clip-path="url(#p73ef838a66)" d="M 348.109843 159.97452 
C 349.594316 159.97452 351.018188 159.384733 352.067868 158.335053 
C 353.117548 157.285372 353.707335 155.8615 353.707335 154.377028 
C 353.707335 152.892556 353.117548 151.468684 352.067868 150.419004 
C 351.018188 149.369323 349.594316 148.779536 348.109843 148.779536 
C 346.625371 148.779536 345.201499 149.369323 344.151819 150.419004 
C 343.102138 151.468684 342.512351 152.892556 342.512351 154.377028 
C 342.512351 155.8615 343.102138 157.285372 344.151819 158.335053 
C 345.201499 159.384733 346.625371 159.97452 348.109843 159.97452 
z
" style="fill:#d1e3ef;stroke:#000000;stroke-linejoin:miter;stroke-width:0.2;"/>
   </g>
   <g id="patch_92">
    <path clip-path="url(#p73ef838a66)" d="M 383.933793 129.748063 
C 386.902738 129.748063 389.750482 128.568489 391.849842 126.469128 
C 393.949203 124.369767 395.128777 121.522023 395.128777 118.553078 
C 395.128777 115.584134 393.949203 112.73639 391.849842 110.637029 
C 389.750482 108.537668 386.902738 107.358094 383.933793 107.358094 
C 380.964849 107.358094 378.117105 108.537668 376.017744 110.637029 
C 373.918383 112.73639 372.738809 115.584134 372.738809 118.553078 
C 372.738809 121.522023 373.918383 124.369767 376.017744 126.469128 
C 378.117105 128.568489 380.964849 129.748063 383.933793 129.748063 
z
" style="fill:#f9fbfd;stroke:#000000;stroke-linejoin:miter;stroke-width:0.2;"/>
   </g>
   <g id="patch_93">
    <path clip-path="url(#p73ef838a66)" d="M 383.933793 126.949317 
C 386.160502 126.949317 388.296309 126.064636 389.87083 124.490115 
C 391.445351 122.915595 392.330031 120.779787 392.330031 118.553078 
C 392.330031 116.32637 391.445351 114.190562 389.87083 112.616041 
C 388.296309 111.041521 386.160502 110.15684 383.933793 110.15684 
C 381.707085 110.15684 379.571277 111.041521 377.996756 112.616041 
C 376.422235 114.190562 375.537555 116.32637 375.537555 118.553078 
C 375.537555 120.779787 376.422235 122.915595 377.996756 124.490115 
C 379.571277 126.064636 381.707085 126.949317 383.933793 126.949317 
z
" style="fill:#69a4cd;stroke:#000000;stroke-linejoin:miter;stroke-width:0.2;"/>
   </g>
   <g id="patch_94">
    <path clip-path="url(#p73ef838a66)" d="M 383.933793 124.150571 
C 385.418265 124.150571 386.842137 123.560783 387.891818 122.511103 
C 388.941498 121.461423 389.531285 120.037551 389.531285 118.553078 
C 389.531285 117.068606 388.941498 115.644734 387.891818 114.595054 
C 386.842137 113.545373 385.418265 112.955586 383.933793 112.955586 
C 382.449321 112.955586 381.025449 113.545373 379.975768 114.595054 
C 378.926088 115.644734 378.336301 117.068606 378.336301 118.553078 
C 378.336301 120.037551 378.926088 121.461423 379.975768 122.511103 
C 381.025449 123.560783 382.449321 124.150571 383.933793 124.150571 
z
" style="fill:#b8d4e7;stroke:#000000;stroke-linejoin:miter;stroke-width:0.2;"/>
   </g>
   <g id="patch_95">
    <path clip-path="url(#p73ef838a66)" d="M 236.16 93.924113 
C 239.128945 93.924113 241.976689 92.744539 244.076049 90.645178 
C 246.17541 88.545817 247.354984 85.698073 247.354984 82.729129 
C 247.354984 79.760184 246.17541 76.91244 244.076049 74.813079 
C 241.976689 72.713718 239.128945 71.534144 236.16 71.534144 
C 233.191055 71.534144 230.343311 72.713718 228.243951 74.813079 
C 226.14459 76.91244 224.965016 79.760184 224.965016 82.729129 
C 224.965016 85.698073 226.14459 88.545817 228.243951 90.645178 
C 230.343311 92.744539 233.191055 93.924113 236.16 93.924113 
z
" style="fill:#fefefe;stroke:#000000;stroke-linejoin:miter;stroke-width:0.2;"/>
   </g>
   <g id="patch_96">
    <path clip-path="url(#p73ef838a66)" d="M 236.16 91.125367 
C 238.386708 91.125367 240.522516 90.240686 242.097037 88.666166 
C 243.671558 87.091645 244.556238 84.955837 244.556238 82.729129 
C 244.556238 80.50242 243.671558 78.366612 242.097037 76.792092 
C 240.522516 75.217571 238.386708 74.33289 236.16 74.33289 
C 233.933292 74.33289 231.797484 75.217571 230.222963 76.792092 
C 228.648442 78.366612 227.763762 80.50242 227.763762 82.729129 
C 227.763762 84.955837 228.648442 87.091645 230.222963 88.666166 
C 231.797484 90.240686 233.933292 91.125367 236.16 91.125367 
z
" style="fill:#d7e7f1;stroke:#000000;stroke-linejoin:miter;stroke-width:0.2;"/>
   </g>
   <g id="patch_97">
    <path clip-path="url(#p73ef838a66)" d="M 236.16 88.326621 
C 237.644472 88.326621 239.068344 87.736834 240.118025 86.687153 
C 241.167705 85.637473 241.757492 84.213601 241.757492 82.729129 
C 241.757492 81.244656 241.167705 79.820784 240.118025 78.771104 
C 239.068344 77.721423 237.644472 77.131636 236.16 77.131636 
C 234.675528 77.131636 233.251656 77.721423 232.201975 78.771104 
C 231.152295 79.820784 230.562508 81.244656 230.562508 82.729129 
C 230.562508 84.213601 231.152295 85.637473 232.201975 86.687153 
C 233.251656 87.736834 234.675528 88.326621 236.16 88.326621 
z
" style="fill:#8ab8d8;stroke:#000000;stroke-linejoin:miter;stroke-width:0.2;"/>
   </g>
   <g id="patch_98">
    <path clip-path="url(#p73ef838a66)" d="M 236.16 165.572013 
C 239.128945 165.572013 241.976689 164.392438 244.076049 162.293078 
C 246.17541 160.193717 247.354984 157.345973 247.354984 154.377028 
C 247.354984 151.408084 246.17541 148.56034 244.076049 146.460979 
C 241.976689 144.361618 239.128945 143.182044 236.16 143.182044 
C 233.191055 143.182044 230.343311 144.361618 228.243951 146.460979 
C 226.14459 148.56034 224.965016 151.408084 224.965016 154.377028 
C 224.965016 157.345973 226.14459 160.193717 228.243951 162.293078 
C 230.343311 164.392438 233.191055 165.572013 236.16 165.572013 
z
" style="fill:#fefefe;stroke:#000000;stroke-linejoin:miter;stroke-width:0.2;"/>
   </g>
   <g id="patch_99">
    <path clip-path="url(#p73ef838a66)" d="M 236.16 162.773266 
C 238.386708 162.773266 240.522516 161.888586 242.097037 160.314065 
C 243.671558 158.739545 244.556238 156.603737 244.556238 154.377028 
C 244.556238 152.15032 243.671558 150.014512 242.097037 148.439991 
C 240.522516 146.865471 238.386708 145.98079 236.16 145.98079 
C 233.933292 145.98079 231.797484 146.865471 230.222963 148.439991 
C 228.648442 150.014512 227.763762 152.15032 227.763762 154.377028 
C 227.763762 156.603737 228.648442 158.739545 230.222963 160.314065 
C 231.797484 161.888586 233.933292 162.773266 236.16 162.773266 
z
" style="fill:#a5c8e1;stroke:#000000;stroke-linejoin:miter;stroke-width:0.2;"/>
   </g>
   <g id="patch_100">
    <path clip-path="url(#p73ef838a66)" d="M 236.16 159.97452 
C 237.644472 159.97452 239.068344 159.384733 240.118025 158.335053 
C 241.167705 157.285372 241.757492 155.8615 241.757492 154.377028 
C 241.757492 152.892556 241.167705 151.468684 240.118025 150.419004 
C 239.068344 149.369323 237.644472 148.779536 236.16 148.779536 
C 234.675528 148.779536 233.251656 149.369323 232.201975 150.419004 
C 231.152295 151.468684 230.562508 152.892556 230.562508 154.377028 
C 230.562508 155.8615 231.152295 157.285372 232.201975 158.335053 
C 233.251656 159.384733 234.675528 159.97452 236.16 159.97452 
z
" style="fill:#69a4cd;stroke:#000000;stroke-linejoin:miter;stroke-width:0.2;"/>
   </g>
   <g id="patch_101">
    <path clip-path="url(#p73ef838a66)" d="M 271.98395 129.748063 
C 274.952894 129.748063 277.800638 128.568489 279.899999 126.469128 
C 281.99936 124.369767 283.178934 121.522023 283.178934 118.553078 
C 283.178934 115.584134 281.99936 112.73639 279.899999 110.637029 
C 277.800638 108.537668 274.952894 107.358094 271.98395 107.358094 
C 269.015005 107.358094 266.167261 108.537668 264.067901 110.637029 
C 261.96854 112.73639 260.788966 115.584134 260.788966 118.553078 
C 260.788966 121.522023 261.96854 124.369767 264.067901 126.469128 
C 266.167261 128.568489 269.015005 129.748063 271.98395 129.748063 
z
" style="fill:#fefefe;stroke:#000000;stroke-linejoin:miter;stroke-width:0.2;"/>
   </g>
   <g id="patch_102">
    <path clip-path="url(#p73ef838a66)" d="M 271.98395 126.949317 
C 274.210658 126.949317 276.346466 126.064636 277.920987 124.490115 
C 279.495507 122.915595 280.380188 120.779787 280.380188 118.553078 
C 280.380188 116.32637 279.495507 114.190562 277.920987 112.616041 
C 276.346466 111.041521 274.210658 110.15684 271.98395 110.15684 
C 269.757241 110.15684 267.621433 111.041521 266.046913 112.616041 
C 264.472392 114.190562 263.587712 116.32637 263.587712 118.553078 
C 263.587712 120.779787 264.472392 122.915595 266.046913 124.490115 
C 267.621433 126.064636 269.757241 126.949317 271.98395 126.949317 
z
" style="fill:#7cafd3;stroke:#000000;stroke-linejoin:miter;stroke-width:0.2;"/>
   </g>
   <g id="patch_103">
    <path clip-path="url(#p73ef838a66)" d="M 271.98395 124.150571 
C 273.468422 124.150571 274.892294 123.560783 275.941975 122.511103 
C 276.991655 121.461423 277.581442 120.037551 277.581442 118.553078 
C 277.581442 117.068606 276.991655 115.644734 275.941975 114.595054 
C 274.892294 113.545373 273.468422 112.955586 271.98395 112.955586 
C 270.499478 112.955586 269.075606 113.545373 268.025925 114.595054 
C 266.976245 115.644734 266.386458 117.068606 266.386458 118.553078 
C 266.386458 120.037551 266.976245 121.461423 268.025925 122.511103 
C 269.075606 123.560783 270.499478 124.150571 271.98395 124.150571 
z
" style="fill:#629fca;stroke:#000000;stroke-linejoin:miter;stroke-width:0.2;"/>
   </g>
   <g id="line2d_1">
    <path clip-path="url(#p73ef838a66)" d="M 73.832727 168.930508 
L 73.832727 68.175649 
L 174.587586 68.175649 
L 174.587586 168.930508 
L 73.832727 168.930508 
" style="fill:none;stroke:#1f77b4;stroke-linecap:square;"/>
   </g>
   <g id="line2d_2">
    <path clip-path="url(#p73ef838a66)" d="M 185.782571 168.930508 
L 185.782571 68.175649 
L 286.537429 68.175649 
L 286.537429 168.930508 
L 185.782571 168.930508 
" style="fill:none;stroke:#1f77b4;stroke-linecap:square;"/>
   </g>
   <g id="line2d_3">
    <path clip-path="url(#p73ef838a66)" d="M 297.732414 168.930508 
L 297.732414 68.175649 
L 398.487273 68.175649 
L 398.487273 168.930508 
L 297.732414 168.930508 
" style="fill:none;stroke:#1f77b4;stroke-linecap:square;"/>
   </g>
   <g id="line2d_4">
    <path clip-path="url(#p73ef838a66)" d="M 73.832727 280.880351 
L 73.832727 180.125492 
L 174.587586 180.125492 
L 174.587586 280.880351 
L 73.832727 280.880351 
" style="fill:none;stroke:#1f77b4;stroke-linecap:square;"/>
   </g>
   <g id="line2d_5">
    <path clip-path="url(#p73ef838a66)" d="M 185.782571 280.880351 
L 185.782571 180.125492 
L 286.537429 180.125492 
L 286.537429 280.880351 
L 185.782571 280.880351 
" style="fill:none;stroke:#1f77b4;stroke-linecap:square;"/>
   </g>
   <g id="line2d_6">
    <path clip-path="url(#p73ef838a66)" d="M 297.732414 280.880351 
L 297.732414 180.125492 
L 398.487273 180.125492 
L 398.487273 280.880351 
L 297.732414 280.880351 
" style="fill:none;stroke:#1f77b4;stroke-linecap:square;"/>
   </g>
   <g id="text_1">
    <!-- 0(S) -->
    <defs>
     <path d="M 46 36.53125 
Q 46 50.203125 43.4375 55.78125 
Q 40.875 61.375 34.8125 61.375 
Q 28.765625 61.375 26.171875 55.78125 
Q 23.578125 50.203125 23.578125 36.53125 
Q 23.578125 22.703125 26.171875 17.03125 
Q 28.765625 11.375 34.8125 11.375 
Q 40.828125 11.375 43.40625 17.03125 
Q 46 22.703125 46 36.53125 
z
M 64.796875 36.375 
Q 64.796875 18.265625 56.984375 8.421875 
Q 49.171875 -1.421875 34.8125 -1.421875 
Q 20.40625 -1.421875 12.59375 8.421875 
Q 4.78125 18.265625 4.78125 36.375 
Q 4.78125 54.546875 12.59375 64.375 
Q 20.40625 74.21875 34.8125 74.21875 
Q 49.171875 74.21875 56.984375 64.375 
Q 64.796875 54.546875 64.796875 36.375 
z
" id="DejaVuSans-Bold-48"/>
     <path d="M 37.703125 -13.1875 
L 23.1875 -13.1875 
Q 15.71875 -1.125 12.15625 9.734375 
Q 8.59375 20.609375 8.59375 31.296875 
Q 8.59375 42 12.171875 52.953125 
Q 15.765625 63.921875 23.1875 75.875 
L 37.703125 75.875 
Q 31.453125 64.3125 28.328125 53.25 
Q 25.203125 42.1875 25.203125 31.390625 
Q 25.203125 20.609375 28.296875 9.515625 
Q 31.390625 -1.5625 37.703125 -13.1875 
z
" id="DejaVuSans-Bold-40"/>
     <path d="M 59.90625 70.609375 
L 59.90625 55.171875 
Q 53.90625 57.859375 48.1875 59.21875 
Q 42.484375 60.59375 37.40625 60.59375 
Q 30.671875 60.59375 27.4375 58.734375 
Q 24.21875 56.890625 24.21875 52.984375 
Q 24.21875 50.046875 26.390625 48.40625 
Q 28.5625 46.78125 34.28125 45.609375 
L 42.28125 44 
Q 54.4375 41.546875 59.5625 36.5625 
Q 64.703125 31.59375 64.703125 22.40625 
Q 64.703125 10.359375 57.546875 4.46875 
Q 50.390625 -1.421875 35.6875 -1.421875 
Q 28.765625 -1.421875 21.78125 -0.09375 
Q 14.796875 1.21875 7.8125 3.8125 
L 7.8125 19.671875 
Q 14.796875 15.96875 21.3125 14.078125 
Q 27.828125 12.203125 33.890625 12.203125 
Q 40.046875 12.203125 43.3125 14.25 
Q 46.578125 16.3125 46.578125 20.125 
Q 46.578125 23.53125 44.359375 25.390625 
Q 42.140625 27.25 35.5 28.71875 
L 28.21875 30.328125 
Q 17.28125 32.671875 12.21875 37.796875 
Q 7.171875 42.921875 7.171875 51.609375 
Q 7.171875 62.5 14.203125 68.359375 
Q 21.234375 74.21875 34.421875 74.21875 
Q 40.4375 74.21875 46.78125 73.3125 
Q 53.125 72.40625 59.90625 70.609375 
z
" id="DejaVuSans-Bold-83"/>
     <path d="M 8.015625 -13.1875 
Q 14.265625 -1.5625 17.390625 9.515625 
Q 20.515625 20.609375 20.515625 31.390625 
Q 20.515625 42.1875 17.390625 53.25 
Q 14.265625 64.3125 8.015625 75.875 
L 22.515625 75.875 
Q 29.9375 63.921875 33.515625 52.953125 
Q 37.109375 42 37.109375 31.296875 
Q 37.109375 20.609375 33.546875 9.734375 
Q 29.984375 -1.125 22.515625 -13.1875 
z
" id="DejaVuSans-Bold-41"/>
    </defs>
    <g transform="translate(107.900157 122.416203)scale(0.14 -0.14)">
     <use xlink:href="#DejaVuSans-Bold-48"/>
     <use x="69.580078" xlink:href="#DejaVuSans-Bold-40"/>
     <use x="115.283203" xlink:href="#DejaVuSans-Bold-83"/>
     <use x="187.304688" xlink:href="#DejaVuSans-Bold-41"/>
    </g>
   </g>
   <g id="text_2">
    <!-- 1 -->
    <defs>
     <path d="M 11.71875 12.984375 
L 28.328125 12.984375 
L 28.328125 60.109375 
L 11.28125 56.59375 
L 11.28125 69.390625 
L 28.21875 72.90625 
L 46.09375 72.90625 
L 46.09375 12.984375 
L 62.703125 12.984375 
L 62.703125 0 
L 11.71875 0 
z
" id="DejaVuSans-Bold-49"/>
    </defs>
    <g transform="translate(231.289531 122.416203)scale(0.14 -0.14)">
     <use xlink:href="#DejaVuSans-Bold-49"/>
    </g>
   </g>
   <g id="text_3">
    <!-- 2 -->
    <defs>
     <path d="M 28.8125 13.8125 
L 60.890625 13.8125 
L 60.890625 0 
L 7.90625 0 
L 7.90625 13.8125 
L 34.515625 37.3125 
Q 38.09375 40.53125 39.796875 43.609375 
Q 41.5 46.6875 41.5 50 
Q 41.5 55.125 38.0625 58.25 
Q 34.625 61.375 28.90625 61.375 
Q 24.515625 61.375 19.28125 59.5 
Q 14.0625 57.625 8.109375 53.90625 
L 8.109375 69.921875 
Q 14.453125 72.015625 20.65625 73.109375 
Q 26.859375 74.21875 32.8125 74.21875 
Q 45.90625 74.21875 53.15625 68.453125 
Q 60.40625 62.703125 60.40625 52.390625 
Q 60.40625 46.4375 57.328125 41.28125 
Q 54.25 36.140625 44.390625 27.484375 
z
" id="DejaVuSans-Bold-50"/>
    </defs>
    <g transform="translate(343.239375 122.416203)scale(0.14 -0.14)">
     <use xlink:href="#DejaVuSans-Bold-50"/>
    </g>
   </g>
   <g id="text_4">
    <!-- 3 -->
    <defs>
     <path d="M 46.578125 39.3125 
Q 53.953125 37.40625 57.78125 32.6875 
Q 61.625 27.984375 61.625 20.703125 
Q 61.625 9.859375 53.3125 4.21875 
Q 45.015625 -1.421875 29.109375 -1.421875 
Q 23.484375 -1.421875 17.84375 -0.515625 
Q 12.203125 0.390625 6.6875 2.203125 
L 6.6875 16.703125 
Q 11.96875 14.0625 17.15625 12.71875 
Q 22.359375 11.375 27.390625 11.375 
Q 34.859375 11.375 38.84375 13.953125 
Q 42.828125 16.546875 42.828125 21.390625 
Q 42.828125 26.375 38.75 28.9375 
Q 34.671875 31.5 26.703125 31.5 
L 19.1875 31.5 
L 19.1875 43.609375 
L 27.09375 43.609375 
Q 34.1875 43.609375 37.640625 45.828125 
Q 41.109375 48.046875 41.109375 52.59375 
Q 41.109375 56.78125 37.734375 59.078125 
Q 34.375 61.375 28.21875 61.375 
Q 23.6875 61.375 19.046875 60.34375 
Q 14.40625 59.328125 9.8125 57.328125 
L 9.8125 71.09375 
Q 15.375 72.65625 20.84375 73.4375 
Q 26.3125 74.21875 31.59375 74.21875 
Q 45.796875 74.21875 52.84375 69.546875 
Q 59.90625 64.890625 59.90625 55.515625 
Q 59.90625 49.125 56.53125 45.046875 
Q 53.171875 40.96875 46.578125 39.3125 
z
" id="DejaVuSans-Bold-51"/>
    </defs>
    <g transform="translate(119.339688 234.366047)scale(0.14 -0.14)">
     <use xlink:href="#DejaVuSans-Bold-51"/>
    </g>
   </g>
   <g id="text_5">
    <!-- 4 -->
    <defs>
     <path d="M 36.8125 57.421875 
L 16.21875 26.90625 
L 36.8125 26.90625 
z
M 33.6875 72.90625 
L 54.59375 72.90625 
L 54.59375 26.90625 
L 64.984375 26.90625 
L 64.984375 13.28125 
L 54.59375 13.28125 
L 54.59375 0 
L 36.8125 0 
L 36.8125 13.28125 
L 4.5 13.28125 
L 4.5 29.390625 
z
" id="DejaVuSans-Bold-52"/>
    </defs>
    <g transform="translate(231.289531 234.366047)scale(0.14 -0.14)">
     <use xlink:href="#DejaVuSans-Bold-52"/>
    </g>
   </g>
   <g id="text_6">
    <!-- 5(G) -->
    <defs>
     <path d="M 10.59375 72.90625 
L 57.328125 72.90625 
L 57.328125 59.078125 
L 25.59375 59.078125 
L 25.59375 47.796875 
Q 27.734375 48.390625 29.90625 48.703125 
Q 32.078125 49.03125 34.421875 49.03125 
Q 47.75 49.03125 55.171875 42.359375 
Q 62.59375 35.6875 62.59375 23.78125 
Q 62.59375 11.96875 54.515625 5.265625 
Q 46.4375 -1.421875 32.078125 -1.421875 
Q 25.875 -1.421875 19.796875 -0.21875 
Q 13.71875 0.984375 7.71875 3.421875 
L 7.71875 18.21875 
Q 13.671875 14.796875 19.015625 13.078125 
Q 24.359375 11.375 29.109375 11.375 
Q 35.9375 11.375 39.859375 14.71875 
Q 43.796875 18.0625 43.796875 23.78125 
Q 43.796875 29.546875 39.859375 32.859375 
Q 35.9375 36.1875 29.109375 36.1875 
Q 25.046875 36.1875 20.453125 35.125 
Q 15.875 34.078125 10.59375 31.890625 
z
" id="DejaVuSans-Bold-53"/>
     <path d="M 74.703125 5.421875 
Q 67.671875 2 60.109375 0.28125 
Q 52.546875 -1.421875 44.484375 -1.421875 
Q 26.265625 -1.421875 15.625 8.765625 
Q 4.984375 18.953125 4.984375 36.375 
Q 4.984375 54 15.8125 64.109375 
Q 26.65625 74.21875 45.515625 74.21875 
Q 52.78125 74.21875 59.4375 72.84375 
Q 66.109375 71.484375 72.015625 68.796875 
L 72.015625 53.71875 
Q 65.921875 57.171875 59.890625 58.875 
Q 53.859375 60.59375 47.796875 60.59375 
Q 36.578125 60.59375 30.5 54.3125 
Q 24.421875 48.046875 24.421875 36.375 
Q 24.421875 24.8125 30.28125 18.5 
Q 36.140625 12.203125 46.921875 12.203125 
Q 49.859375 12.203125 52.375 12.5625 
Q 54.890625 12.9375 56.890625 13.71875 
L 56.890625 27.875 
L 45.40625 27.875 
L 45.40625 40.484375 
L 74.703125 40.484375 
z
" id="DejaVuSans-Bold-71"/>
    </defs>
    <g transform="translate(331.095468 234.366047)scale(0.14 -0.14)">
     <use xlink:href="#DejaVuSans-Bold-53"/>
     <use x="69.580078" xlink:href="#DejaVuSans-Bold-40"/>
     <use x="115.283203" xlink:href="#DejaVuSans-Bold-71"/>
     <use x="197.363281" xlink:href="#DejaVuSans-Bold-41"/>
    </g>
   </g>
   <g id="text_7">
    <!-- 4 -->
    <defs>
     <path d="M 37.796875 64.3125 
L 12.890625 25.390625 
L 37.796875 25.390625 
z
M 35.203125 72.90625 
L 47.609375 72.90625 
L 47.609375 25.390625 
L 58.015625 25.390625 
L 58.015625 17.1875 
L 47.609375 17.1875 
L 47.609375 0 
L 37.796875 0 
L 37.796875 17.1875 
L 4.890625 17.1875 
L 4.890625 26.703125 
z
" id="DejaVuSans-52"/>
    </defs>
    <g transform="translate(84.568707 122.759927)scale(0.12 -0.12)">
     <use xlink:href="#DejaVuSans-52"/>
    </g>
   </g>
   <g id="text_8">
    <!-- 4 -->
    <g transform="translate(120.392657 86.935977)scale(0.12 -0.12)">
     <use xlink:href="#DejaVuSans-52"/>
    </g>
   </g>
   <g id="text_9">
    <!-- 5 -->
    <defs>
     <path d="M 10.796875 72.90625 
L 49.515625 72.90625 
L 49.515625 64.59375 
L 19.828125 64.59375 
L 19.828125 46.734375 
Q 21.96875 47.46875 24.109375 47.828125 
Q 26.265625 48.1875 28.421875 48.1875 
Q 40.625 48.1875 47.75 41.5 
Q 54.890625 34.8125 54.890625 23.390625 
Q 54.890625 11.625 47.5625 5.09375 
Q 40.234375 -1.421875 26.90625 -1.421875 
Q 22.3125 -1.421875 17.546875 -0.640625 
Q 12.796875 0.140625 7.71875 1.703125 
L 7.71875 11.625 
Q 12.109375 9.234375 16.796875 8.0625 
Q 21.484375 6.890625 26.703125 6.890625 
Q 35.15625 6.890625 40.078125 11.328125 
Q 45.015625 15.765625 45.015625 23.390625 
Q 45.015625 31 40.078125 35.4375 
Q 35.15625 39.890625 26.703125 39.890625 
Q 22.75 39.890625 18.8125 39.015625 
Q 14.890625 38.140625 10.796875 36.28125 
z
" id="DejaVuSans-53"/>
    </defs>
    <g transform="translate(156.216607 122.759927)scale(0.12 -0.12)">
     <use xlink:href="#DejaVuSans-53"/>
    </g>
   </g>
   <g id="text_10">
    <!-- 4 -->
    <g transform="translate(120.392657 158.583877)scale(0.12 -0.12)">
     <use xlink:href="#DejaVuSans-52"/>
    </g>
   </g>
   <g id="text_11">
    <!-- 3 -->
    <defs>
     <path d="M 40.578125 39.3125 
Q 47.65625 37.796875 51.625 33 
Q 55.609375 28.21875 55.609375 21.1875 
Q 55.609375 10.40625 48.1875 4.484375 
Q 40.765625 -1.421875 27.09375 -1.421875 
Q 22.515625 -1.421875 17.65625 -0.515625 
Q 12.796875 0.390625 7.625 2.203125 
L 7.625 11.71875 
Q 11.71875 9.328125 16.59375 8.109375 
Q 21.484375 6.890625 26.8125 6.890625 
Q 36.078125 6.890625 40.9375 10.546875 
Q 45.796875 14.203125 45.796875 21.1875 
Q 45.796875 27.640625 41.28125 31.265625 
Q 36.765625 34.90625 28.71875 34.90625 
L 20.21875 34.90625 
L 20.21875 43.015625 
L 29.109375 43.015625 
Q 36.375 43.015625 40.234375 45.921875 
Q 44.09375 48.828125 44.09375 54.296875 
Q 44.09375 59.90625 40.109375 62.90625 
Q 36.140625 65.921875 28.71875 65.921875 
Q 24.65625 65.921875 20.015625 65.03125 
Q 15.375 64.15625 9.8125 62.3125 
L 9.8125 71.09375 
Q 15.4375 72.65625 20.34375 73.4375 
Q 25.25 74.21875 29.59375 74.21875 
Q 40.828125 74.21875 47.359375 69.109375 
Q 53.90625 64.015625 53.90625 55.328125 
Q 53.90625 49.265625 50.4375 45.09375 
Q 46.96875 40.921875 40.578125 39.3125 
z
" id="DejaVuSans-51"/>
    </defs>
    <g transform="translate(232.3425 270.53372)scale(0.12 -0.12)">
     <use xlink:href="#DejaVuSans-51"/>
    </g>
   </g>
   <g id="text_12">
    <!-- 5 -->
    <g transform="translate(232.3425 198.885821)scale(0.12 -0.12)">
     <use xlink:href="#DejaVuSans-53"/>
    </g>
   </g>
   <g id="text_13">
    <!-- 1 -->
    <defs>
     <path d="M 12.40625 8.296875 
L 28.515625 8.296875 
L 28.515625 63.921875 
L 10.984375 60.40625 
L 10.984375 69.390625 
L 28.421875 72.90625 
L 38.28125 72.90625 
L 38.28125 8.296875 
L 54.390625 8.296875 
L 54.390625 0 
L 12.40625 0 
z
" id="DejaVuSans-49"/>
    </defs>
    <g transform="translate(196.51855 222.395288)scale(0.12 -0.12)">
     <use xlink:href="#DejaVuSans-49"/>
    </g>
   </g>
   <g id="text_14">
    <!-- 3 -->
    <g style="fill:#ff0000;" transform="translate(196.51855 247.024253)scale(0.12 -0.12)">
     <use xlink:href="#DejaVuSans-51"/>
    </g>
   </g>
   <g id="text_15">
    <!-- 3 -->
    <g transform="translate(268.16645 222.395288)scale(0.12 -0.12)">
     <use xlink:href="#DejaVuSans-51"/>
    </g>
   </g>
   <g id="text_16">
    <!-- 5 -->
    <g style="fill:#ff0000;" transform="translate(268.16645 247.024253)scale(0.12 -0.12)">
     <use xlink:href="#DejaVuSans-53"/>
    </g>
   </g>
   <g id="text_17">
    <!-- 2 -->
    <defs>
     <path d="M 19.1875 8.296875 
L 53.609375 8.296875 
L 53.609375 0 
L 7.328125 0 
L 7.328125 8.296875 
Q 12.9375 14.109375 22.625 23.890625 
Q 32.328125 33.6875 34.8125 36.53125 
Q 39.546875 41.84375 41.421875 45.53125 
Q 43.3125 49.21875 43.3125 52.78125 
Q 43.3125 58.59375 39.234375 62.25 
Q 35.15625 65.921875 28.609375 65.921875 
Q 23.96875 65.921875 18.8125 64.3125 
Q 13.671875 62.703125 7.8125 59.421875 
L 7.8125 69.390625 
Q 13.765625 71.78125 18.9375 73 
Q 24.125 74.21875 28.421875 74.21875 
Q 39.75 74.21875 46.484375 68.546875 
Q 53.21875 62.890625 53.21875 53.421875 
Q 53.21875 48.921875 51.53125 44.890625 
Q 49.859375 40.875 45.40625 35.40625 
Q 44.1875 33.984375 37.640625 27.21875 
Q 31.109375 20.453125 19.1875 8.296875 
z
" id="DejaVuSans-50"/>
    </defs>
    <g transform="translate(84.568707 222.395288)scale(0.12 -0.12)">
     <use xlink:href="#DejaVuSans-50"/>
    </g>
   </g>
   <g id="text_18">
    <!-- 3 -->
    <g style="fill:#ff0000;" transform="translate(84.568707 247.024253)scale(0.12 -0.12)">
     <use xlink:href="#DejaVuSans-51"/>
    </g>
   </g>
   <g id="text_19">
    <!-- 2 -->
    <g transform="translate(95.763691 198.885821)scale(0.12 -0.12)">
     <use xlink:href="#DejaVuSans-50"/>
    </g>
   </g>
   <g id="text_20">
    <!-- 3 -->
    <g transform="translate(120.392657 198.885821)scale(0.12 -0.12)">
     <use xlink:href="#DejaVuSans-51"/>
    </g>
   </g>
   <g id="text_21">
    <!-- 5 -->
    <g transform="translate(145.021622 198.885821)scale(0.12 -0.12)">
     <use xlink:href="#DejaVuSans-53"/>
    </g>
   </g>
   <g id="text_22">
    <!-- 2 -->
    <g transform="translate(108.078174 270.53372)scale(0.12 -0.12)">
     <use xlink:href="#DejaVuSans-50"/>
    </g>
   </g>
   <g id="text_23">
    <!-- 3 -->
    <g style="fill:#ff0000;" transform="translate(132.707139 270.53372)scale(0.12 -0.12)">
     <use xlink:href="#DejaVuSans-51"/>
    </g>
   </g>
   <g id="text_24">
    <!-- 3 -->
    <g transform="translate(156.216607 234.70977)scale(0.12 -0.12)">
     <use xlink:href="#DejaVuSans-51"/>
    </g>
   </g>
   <g id="text_25">
    <!-- 2 -->
    <g style="fill:#ff0000;" transform="translate(319.663378 198.885821)scale(0.12 -0.12)">
     <use xlink:href="#DejaVuSans-50"/>
    </g>
   </g>
   <g id="text_26">
    <!-- 3 -->
    <g transform="translate(344.292343 198.885821)scale(0.12 -0.12)">
     <use xlink:href="#DejaVuSans-51"/>
    </g>
   </g>
   <g id="text_27">
    <!-- 5 -->
    <g transform="translate(368.921309 198.885821)scale(0.12 -0.12)">
     <use xlink:href="#DejaVuSans-53"/>
    </g>
   </g>
   <g id="text_28">
    <!-- 3 -->
    <g transform="translate(344.292343 270.53372)scale(0.12 -0.12)">
     <use xlink:href="#DejaVuSans-51"/>
    </g>
   </g>
   <g id="text_29">
    <!-- 3 -->
    <g transform="translate(308.468393 234.70977)scale(0.12 -0.12)">
     <use xlink:href="#DejaVuSans-51"/>
    </g>
   </g>
   <g id="text_30">
    <!-- 3 -->
    <g transform="translate(380.116293 234.70977)scale(0.12 -0.12)">
     <use xlink:href="#DejaVuSans-51"/>
    </g>
   </g>
   <g id="text_31">
    <!-- 2 -->
    <g style="fill:#ff0000;" transform="translate(319.663378 86.935977)scale(0.12 -0.12)">
     <use xlink:href="#DejaVuSans-50"/>
    </g>
   </g>
   <g id="text_32">
    <!-- 3 -->
    <g transform="translate(344.292343 86.935977)scale(0.12 -0.12)">
     <use xlink:href="#DejaVuSans-51"/>
    </g>
   </g>
   <g id="text_33">
    <!-- 5 -->
    <g transform="translate(368.921309 86.935977)scale(0.12 -0.12)">
     <use xlink:href="#DejaVuSans-53"/>
    </g>
   </g>
   <g id="text_34">
    <!-- 2 -->
    <g transform="translate(308.468393 110.445444)scale(0.12 -0.12)">
     <use xlink:href="#DejaVuSans-50"/>
    </g>
   </g>
   <g id="text_35">
    <!-- 3 -->
    <g transform="translate(308.468393 135.07441)scale(0.12 -0.12)">
     <use xlink:href="#DejaVuSans-51"/>
    </g>
   </g>
   <g id="text_36">
    <!-- 3 -->
    <g transform="translate(344.292343 158.583877)scale(0.12 -0.12)">
     <use xlink:href="#DejaVuSans-51"/>
    </g>
   </g>
   <g id="text_37">
    <!-- 3 -->
    <g transform="translate(380.116293 122.759927)scale(0.12 -0.12)">
     <use xlink:href="#DejaVuSans-51"/>
    </g>
   </g>
   <g id="text_38">
    <!-- 3 -->
    <g transform="translate(232.3425 86.935977)scale(0.12 -0.12)">
     <use xlink:href="#DejaVuSans-51"/>
    </g>
   </g>
   <g id="text_39">
    <!-- 3 -->
    <g transform="translate(232.3425 158.583877)scale(0.12 -0.12)">
     <use xlink:href="#DejaVuSans-51"/>
    </g>
   </g>
   <g id="text_40">
    <!-- 3 -->
    <g transform="translate(268.16645 122.759927)scale(0.12 -0.12)">
     <use xlink:href="#DejaVuSans-51"/>
    </g>
   </g>
  </g>
 </g>
 <defs>
  <clipPath id="p73ef838a66">
   <rect height="266.112" width="357.12" x="57.6" y="41.472"/>
  </clipPath>
 </defs>
</svg>
